<svg width="219" height="57" viewBox="0 0 219 57" fill="none" xmlns="http://www.w3.org/2000/svg">
<path d="M25.9773 21.9091C25.9773 24.7301 25.4489 27.1463 24.392 29.1577C23.3438 31.1605 21.9119 32.6946 20.0966 33.7599C18.2898 34.8253 16.2401 35.358 13.9474 35.358C11.6548 35.358 9.60085 34.8253 7.78551 33.7599C5.97869 32.6861 4.54688 31.1477 3.49006 29.1449C2.44176 27.1335 1.91761 24.7216 1.91761 21.9091C1.91761 19.0881 2.44176 16.6761 3.49006 14.6733C4.54688 12.6619 5.97869 11.1236 7.78551 10.0582C9.60085 8.9929 11.6548 8.46023 13.9474 8.46023C16.2401 8.46023 18.2898 8.9929 20.0966 10.0582C21.9119 11.1236 23.3438 12.6619 24.392 14.6733C25.4489 16.6761 25.9773 19.0881 25.9773 21.9091ZM21.2088 21.9091C21.2088 19.9233 20.8977 18.2486 20.2756 16.8849C19.6619 15.5128 18.8097 14.4773 17.7188 13.7784C16.6278 13.071 15.3707 12.7173 13.9474 12.7173C12.5241 12.7173 11.267 13.071 10.1761 13.7784C9.08523 14.4773 8.22869 15.5128 7.60653 16.8849C6.9929 18.2486 6.68608 19.9233 6.68608 21.9091C6.68608 23.8949 6.9929 25.5739 7.60653 26.946C8.22869 28.3097 9.08523 29.3452 10.1761 30.0526C11.267 30.7514 12.5241 31.1009 13.9474 31.1009C15.3707 31.1009 16.6278 30.7514 17.7188 30.0526C18.8097 29.3452 19.6619 28.3097 20.2756 26.946C20.8977 25.5739 21.2088 23.8949 21.2088 21.9091ZM42.0524 26.7415V15.3636H46.6802V35H42.193V31.5099H41.9885C41.5453 32.6094 40.8166 33.5085 39.8024 34.2074C38.7967 34.9062 37.5566 35.2557 36.0822 35.2557C34.7953 35.2557 33.6575 34.9702 32.6689 34.3991C31.6887 33.8196 30.9217 32.9801 30.3677 31.8807C29.8137 30.7727 29.5367 29.4347 29.5367 27.8665V15.3636H34.1646V27.1506C34.1646 28.3949 34.5055 29.3835 35.1873 30.1165C35.8691 30.8494 36.764 31.2159 37.872 31.2159C38.5538 31.2159 39.2143 31.0497 39.8535 30.7173C40.4927 30.3849 41.0169 29.8906 41.426 29.2344C41.8436 28.5696 42.0524 27.7386 42.0524 26.7415ZM50.7191 35V15.3636H55.2063V18.6364H55.4109C55.7688 17.5028 56.3824 16.6293 57.2518 16.0156C58.1296 15.3935 59.131 15.0824 60.256 15.0824C60.5117 15.0824 60.7972 15.0952 61.1126 15.1207C61.4364 15.1378 61.7049 15.1676 61.918 15.2102V19.4673C61.7219 19.3991 61.4109 19.3395 60.9847 19.2884C60.5671 19.2287 60.1623 19.1989 59.7702 19.1989C58.9265 19.1989 58.168 19.3821 57.4947 19.7486C56.8299 20.1065 56.3057 20.6051 55.9222 21.2443C55.5387 21.8835 55.3469 22.6207 55.3469 23.456V35H50.7191ZM86.9155 16.0156C86.7961 14.8991 86.2933 14.0298 85.4069 13.4077C84.5291 12.7855 83.387 12.4744 81.9808 12.4744C80.9922 12.4744 80.1442 12.6236 79.4368 12.9219C78.7294 13.2202 78.1882 13.625 77.8132 14.1364C77.4382 14.6477 77.2464 15.2315 77.2379 15.8878C77.2379 16.4332 77.3615 16.9062 77.6086 17.3068C77.8643 17.7074 78.2095 18.0483 78.6442 18.3295C79.0788 18.6023 79.5603 18.8324 80.0888 19.0199C80.6172 19.2074 81.1498 19.3651 81.6868 19.4929L84.1413 20.1065C85.1299 20.3366 86.0802 20.6477 86.9922 21.0398C87.9126 21.4318 88.7351 21.9261 89.4595 22.5227C90.1924 23.1193 90.772 23.8395 91.1981 24.6832C91.6243 25.527 91.8373 26.5156 91.8373 27.6491C91.8373 29.1832 91.4453 30.5341 90.6612 31.7017C89.8771 32.8608 88.7436 33.7685 87.2606 34.4247C85.7862 35.0724 84.0007 35.3963 81.9041 35.3963C79.8672 35.3963 78.0987 35.081 76.5987 34.4503C75.1072 33.8196 73.9396 32.8991 73.0959 31.6889C72.2606 30.4787 71.8089 29.0043 71.7407 27.2656H76.4069C76.4751 28.1776 76.7564 28.9361 77.2507 29.5412C77.745 30.1463 78.3885 30.598 79.1811 30.8963C79.9822 31.1946 80.8771 31.3438 81.8657 31.3438C82.897 31.3438 83.8004 31.1903 84.576 30.8835C85.3601 30.5682 85.9737 30.1335 86.4169 29.5795C86.8601 29.017 87.0859 28.3608 87.0944 27.6108C87.0859 26.929 86.8856 26.3665 86.4936 25.9233C86.1015 25.4716 85.5518 25.0966 84.8444 24.7983C84.1456 24.4915 83.3274 24.2187 82.3899 23.9801L79.4112 23.2131C77.2549 22.6591 75.5504 21.8196 74.2976 20.6946C73.0532 19.5611 72.4311 18.0568 72.4311 16.1818C72.4311 14.6392 72.8487 13.2884 73.6839 12.1293C74.5277 10.9702 75.674 10.071 77.1228 9.43182C78.5717 8.78409 80.2123 8.46023 82.0447 8.46023C83.9027 8.46023 85.5305 8.78409 86.9282 9.43182C88.3345 10.071 89.4382 10.9616 90.2393 12.1037C91.0405 13.2372 91.4538 14.5412 91.4794 16.0156H86.9155ZM103.834 35.3835C101.866 35.3835 100.165 34.9744 98.7335 34.1562C97.3102 33.3295 96.215 32.1619 95.4479 30.6534C94.6809 29.1364 94.2974 27.3509 94.2974 25.2969C94.2974 23.277 94.6809 21.5043 95.4479 19.9787C96.2235 18.4446 97.3059 17.2514 98.6951 16.3991C100.084 15.5384 101.716 15.108 103.591 15.108C104.802 15.108 105.944 15.304 107.018 15.696C108.1 16.0795 109.054 16.6761 109.881 17.4858C110.716 18.2955 111.373 19.3267 111.85 20.5795C112.327 21.8239 112.566 23.3068 112.566 25.0284V26.4474H96.4707V23.3281H108.13C108.121 22.4418 107.929 21.6534 107.554 20.9631C107.179 20.2642 106.655 19.7145 105.982 19.3139C105.317 18.9134 104.542 18.7131 103.655 18.7131C102.709 18.7131 101.878 18.9432 101.162 19.4034C100.447 19.8551 99.8883 20.4517 99.4877 21.1932C99.0957 21.9261 98.8954 22.7315 98.8869 23.6094V26.3324C98.8869 27.4744 99.0957 28.4545 99.5133 29.2727C99.9309 30.0824 100.515 30.7045 101.265 31.1392C102.015 31.5653 102.893 31.7784 103.898 31.7784C104.572 31.7784 105.181 31.6847 105.726 31.4972C106.272 31.3011 106.745 31.0156 107.145 30.6406C107.546 30.2656 107.849 29.8011 108.053 29.2472L112.374 29.733C112.101 30.875 111.581 31.8722 110.814 32.7244C110.056 33.5682 109.084 34.2244 107.9 34.6932C106.715 35.1534 105.36 35.3835 103.834 35.3835ZM115.761 35V15.3636H120.248V18.6364H120.453C120.811 17.5028 121.424 16.6293 122.294 16.0156C123.171 15.3935 124.173 15.0824 125.298 15.0824C125.554 15.0824 125.839 15.0952 126.154 15.1207C126.478 15.1378 126.747 15.1676 126.96 15.2102V19.4673C126.764 19.3991 126.453 19.3395 126.027 19.2884C125.609 19.2287 125.204 19.1989 124.812 19.1989C123.968 19.1989 123.21 19.3821 122.537 19.7486C121.872 20.1065 121.348 20.6051 120.964 21.2443C120.581 21.8835 120.389 22.6207 120.389 23.456V35H115.761ZM147.452 15.3636L140.459 35H135.345L128.352 15.3636H133.287L137.8 29.9503H138.004L142.53 15.3636H147.452ZM149.934 35V15.3636H154.562V35H149.934ZM152.261 12.5767C151.528 12.5767 150.897 12.3338 150.369 11.848C149.841 11.3537 149.576 10.7614 149.576 10.071C149.576 9.37216 149.841 8.77983 150.369 8.29403C150.897 7.79971 151.528 7.55256 152.261 7.55256C153.002 7.55256 153.633 7.79971 154.153 8.29403C154.681 8.77983 154.946 9.37216 154.946 10.071C154.946 10.7614 154.681 11.3537 154.153 11.848C153.633 12.3338 153.002 12.5767 152.261 12.5767ZM167.166 35.3835C165.206 35.3835 163.523 34.9531 162.117 34.0923C160.719 33.2315 159.641 32.0426 158.882 30.5256C158.132 29 157.757 27.2443 157.757 25.2585C157.757 23.2642 158.141 21.5043 158.908 19.9787C159.675 18.4446 160.757 17.2514 162.155 16.3991C163.561 15.5384 165.223 15.108 167.141 15.108C168.734 15.108 170.145 15.402 171.372 15.9901C172.608 16.5696 173.592 17.392 174.325 18.4574C175.058 19.5142 175.476 20.75 175.578 22.1648H171.155C170.976 21.2187 170.55 20.4304 169.877 19.7997C169.212 19.1605 168.321 18.8409 167.205 18.8409C166.259 18.8409 165.428 19.0966 164.712 19.608C163.996 20.1108 163.438 20.8352 163.037 21.7812C162.645 22.7273 162.449 23.8608 162.449 25.1818C162.449 26.5199 162.645 27.6705 163.037 28.6335C163.429 29.5881 163.979 30.3253 164.686 30.8452C165.402 31.3565 166.242 31.6122 167.205 31.6122C167.886 31.6122 168.496 31.4844 169.033 31.2287C169.578 30.9645 170.034 30.5852 170.401 30.0909C170.767 29.5966 171.019 28.9957 171.155 28.2884H175.578C175.467 29.6776 175.058 30.9091 174.351 31.983C173.644 33.0483 172.681 33.8835 171.462 34.4886C170.243 35.0852 168.811 35.3835 167.166 35.3835ZM187.351 35.3835C185.383 35.3835 183.682 34.9744 182.251 34.1562C180.827 33.3295 179.732 32.1619 178.965 30.6534C178.198 29.1364 177.815 27.3509 177.815 25.2969C177.815 23.277 178.198 21.5043 178.965 19.9787C179.741 18.4446 180.823 17.2514 182.212 16.3991C183.601 15.5384 185.234 15.108 187.109 15.108C188.319 15.108 189.461 15.304 190.535 15.696C191.617 16.0795 192.572 16.6761 193.398 17.4858C194.234 18.2955 194.89 19.3267 195.367 20.5795C195.844 21.8239 196.083 23.3068 196.083 25.0284V26.4474H179.988V23.3281H191.647C191.638 22.4418 191.447 21.6534 191.072 20.9631C190.697 20.2642 190.173 19.7145 189.499 19.3139C188.834 18.9134 188.059 18.7131 187.173 18.7131C186.226 18.7131 185.396 18.9432 184.68 19.4034C183.964 19.8551 183.405 20.4517 183.005 21.1932C182.613 21.9261 182.413 22.7315 182.404 23.6094V26.3324C182.404 27.4744 182.613 28.4545 183.03 29.2727C183.448 30.0824 184.032 30.7045 184.782 31.1392C185.532 31.5653 186.41 31.7784 187.415 31.7784C188.089 31.7784 188.698 31.6847 189.244 31.4972C189.789 31.3011 190.262 31.0156 190.663 30.6406C191.063 30.2656 191.366 29.8011 191.57 29.2472L195.891 29.733C195.619 30.875 195.099 31.8722 194.332 32.7244C193.573 33.5682 192.601 34.2244 191.417 34.6932C190.232 35.1534 188.877 35.3835 187.351 35.3835ZM214.798 20.554L210.579 21.0142C210.46 20.5881 210.251 20.1875 209.953 19.8125C209.663 19.4375 209.271 19.1349 208.777 18.9048C208.282 18.6747 207.677 18.5597 206.961 18.5597C205.998 18.5597 205.189 18.7685 204.532 19.1861C203.885 19.6037 203.565 20.1449 203.574 20.8097C203.565 21.3807 203.774 21.8452 204.2 22.2031C204.635 22.5611 205.351 22.8551 206.348 23.0852L209.697 23.8011C211.555 24.2017 212.936 24.8366 213.839 25.706C214.751 26.5753 215.211 27.7131 215.22 29.1193C215.211 30.3551 214.849 31.446 214.133 32.392C213.426 33.3295 212.442 34.0625 211.18 34.5909C209.919 35.1193 208.47 35.3835 206.834 35.3835C204.43 35.3835 202.495 34.8807 201.03 33.875C199.564 32.8608 198.69 31.4503 198.409 29.6435L202.922 29.2088C203.126 30.0952 203.561 30.7642 204.226 31.2159C204.89 31.6676 205.755 31.8935 206.821 31.8935C207.92 31.8935 208.802 31.6676 209.467 31.2159C210.14 30.7642 210.477 30.206 210.477 29.5412C210.477 28.9787 210.26 28.5142 209.825 28.1477C209.399 27.7812 208.734 27.5 207.831 27.304L204.481 26.6009C202.598 26.2088 201.204 25.5483 200.301 24.6193C199.397 23.6818 198.95 22.4972 198.959 21.0653C198.95 19.8551 199.278 18.8068 199.943 17.9205C200.616 17.0256 201.549 16.3352 202.743 15.8494C203.944 15.3551 205.329 15.108 206.897 15.108C209.199 15.108 211.01 15.598 212.331 16.5781C213.66 17.5582 214.483 18.8835 214.798 20.554Z" fill="#1A1A1A"/>
<path d="M50.0898 54.2649C65.768 42.763 178.5 40.871 217 48.872" stroke="#DA7717" stroke-width="4" stroke-linecap="round"/>
</svg>
