<svg width="18" height="18" viewBox="0 0 18 18" fill="none" xmlns="http://www.w3.org/2000/svg">
<g clip-path="url(#clip0_3322_757)">
<path d="M16.4717 9.09348L15.6774 8.29916L13.9355 10.0411V8.86065L12.4839 7.69906V0H1.45161V7.69906L0 8.86065V18H12.7826H13.9355V17.8673C16.2586 17.3407 18 15.2631 18 12.7826C18 11.3891 17.4574 10.0788 16.4717 9.09348ZM15.6774 9.12019L16.0612 9.504C16.0871 9.52984 16.1091 9.558 16.1341 9.58413L14.5161 11.2024L14.0557 10.7419L15.6774 9.12019ZM13.9355 11.4428L15.0616 12.5689C15.1749 12.6822 15.1749 12.8662 15.0616 12.9795L13.9355 14.1056V11.4428ZM13.3548 10.8621V14.6863L12.9795 15.0616C12.8659 15.1752 12.6825 15.1752 12.5689 15.0616L10.7419 13.2346L10.4449 13.5316L9.11816 12.5509L13.3548 9.56061V10.6217L13.2346 10.7419L13.3548 10.8621ZM11.2024 14.5161L9.58442 16.1341C9.558 16.1091 9.52984 16.0871 9.504 16.0612L9.12019 15.6774L10.7419 14.0557L11.2024 14.5161ZM12.4839 8.44287L13.1621 8.98548L12.4839 9.46422V8.44287ZM2.03226 9.87097V5.22581V0.580645H11.9032V9.87097H11.9076L8.62606 12.1875L6.96774 10.9617L5.30942 12.1875L2.0279 9.87097H2.03226ZM1.45161 8.44287V9.46422L0.773419 8.98548L1.45161 8.44287ZM0.580645 9.56061L4.81732 12.5512L0.580645 15.6826V9.56061ZM0.580645 17.4194V16.4044L6.96774 11.6835L10.0298 13.9468L8.29916 15.6774L9.09348 16.4717C9.48048 16.8587 9.91916 17.1749 10.3918 17.4194H0.580645ZM13.7511 17.316L13.5984 17.343C13.5952 17.3436 13.592 17.3439 13.5888 17.3445C13.4518 17.3685 13.3203 17.3863 13.192 17.3987C13.057 17.4106 12.9208 17.4194 12.7826 17.4194C11.7772 17.4194 10.8238 17.0968 10.0309 16.5086L11.6129 14.9266L12.1584 15.4722C12.4981 15.8118 13.0503 15.8118 13.39 15.4722L15.4722 13.39C15.8118 13.0503 15.8118 12.4981 15.4722 12.1584L14.9266 11.6129L16.5086 10.0309C17.0968 10.8238 17.4194 11.7775 17.4194 12.7826C17.4194 15.0071 15.8444 16.8692 13.7511 17.316Z" fill="#FAFAFA"/>
<path d="M11.323 1.16211H2.61328V6.38792H11.323V1.16211ZM10.7423 5.80727H3.19393V1.74275H10.7423V5.80727Z" fill="#FAFAFA"/>
<path d="M11.323 6.96875H2.61328V7.5494H11.323V6.96875Z" fill="#FAFAFA"/>
<path d="M11.323 8.12891H2.61328V8.70955H11.323V8.12891Z" fill="#FAFAFA"/>
<path d="M11.3228 9.29102H10.7422V9.87166H11.3228V9.29102Z" fill="#FAFAFA"/>
<path d="M10.1627 9.29102H9.58203V9.87166H10.1627V9.29102Z" fill="#FAFAFA"/>
<path d="M9.00038 9.29102H2.61328V9.87166H9.00038V9.29102Z" fill="#FAFAFA"/>
</g>
<defs>
<clipPath id="clip0_3322_757">
<rect width="18" height="18" fill="white"/>
</clipPath>
</defs>
</svg>
