<svg width="460" height="460" viewBox="0 0 460 460" fill="none" xmlns="http://www.w3.org/2000/svg">
<g opacity="0.5">
<path d="M460 230C460 357.025 357.025 460 230 460C102.975 460 0 357.025 0 230C0 102.975 102.975 0 230 0C357.025 0 460 102.975 460 230ZM23 230C23 344.323 115.677 437 230 437C344.323 437 437 344.323 437 230C437 115.677 344.323 23 230 23C115.677 23 23 115.677 23 230Z" fill="url(#paint0_linear_3300_6649)"/>
<path d="M418.899 229.387C418.899 124.89 334.188 40.1794 229.692 40.1794C125.195 40.1794 40.4844 124.89 40.4844 229.387C40.4844 333.883 125.195 418.594 229.692 418.594C334.188 418.594 418.899 333.883 418.899 229.387ZM66.9734 229.387C66.9734 139.52 139.825 66.6684 229.692 66.6684C319.558 66.6684 392.41 139.52 392.41 229.387C392.41 319.253 319.558 392.105 229.692 392.105C139.825 392.105 66.9734 319.253 66.9734 229.387Z" fill="url(#paint1_linear_3300_6649)"/>
</g>
<rect x="87" y="65" width="340" height="329" rx="20" fill="#FAFAFA"/>
<path d="M147.885 104.362H145.229C145.153 103.927 145.013 103.541 144.81 103.205C144.606 102.864 144.353 102.575 144.05 102.338C143.747 102.101 143.401 101.924 143.013 101.805C142.629 101.682 142.215 101.621 141.77 101.621C140.979 101.621 140.278 101.82 139.668 102.217C139.057 102.61 138.579 103.188 138.233 103.95C137.887 104.708 137.714 105.634 137.714 106.727C137.714 107.84 137.887 108.777 138.233 109.54C138.583 110.297 139.062 110.87 139.668 111.259C140.278 111.642 140.977 111.834 141.763 111.834C142.198 111.834 142.606 111.777 142.984 111.663C143.368 111.545 143.711 111.372 144.014 111.145C144.322 110.918 144.58 110.638 144.788 110.307C145.001 109.975 145.148 109.597 145.229 109.17L147.885 109.185C147.786 109.876 147.57 110.525 147.239 111.131C146.912 111.737 146.483 112.272 145.953 112.736C145.423 113.195 144.803 113.555 144.092 113.815C143.382 114.071 142.594 114.199 141.727 114.199C140.449 114.199 139.308 113.903 138.304 113.311C137.3 112.719 136.509 111.865 135.932 110.747C135.354 109.63 135.065 108.29 135.065 106.727C135.065 105.16 135.357 103.82 135.939 102.707C136.521 101.59 137.314 100.735 138.318 100.143C139.322 99.5516 140.458 99.2557 141.727 99.2557C142.537 99.2557 143.29 99.3693 143.986 99.5966C144.682 99.8239 145.302 100.158 145.847 100.598C146.391 101.034 146.839 101.569 147.189 102.203C147.544 102.833 147.776 103.553 147.885 104.362ZM152.924 114.22C152.232 114.22 151.61 114.097 151.056 113.851C150.506 113.6 150.071 113.231 149.749 112.743C149.432 112.255 149.273 111.654 149.273 110.939C149.273 110.323 149.387 109.814 149.614 109.412C149.841 109.009 150.151 108.688 150.544 108.446C150.937 108.205 151.38 108.022 151.872 107.899C152.37 107.771 152.883 107.679 153.414 107.622C154.053 107.556 154.571 107.497 154.969 107.445C155.367 107.388 155.656 107.303 155.835 107.189C156.02 107.071 156.112 106.888 156.112 106.642V106.599C156.112 106.064 155.954 105.65 155.637 105.357C155.319 105.063 154.862 104.916 154.266 104.916C153.636 104.916 153.137 105.054 152.767 105.328C152.403 105.603 152.156 105.927 152.029 106.301L149.628 105.96C149.817 105.297 150.13 104.743 150.566 104.298C151.001 103.848 151.534 103.512 152.164 103.29C152.793 103.062 153.489 102.949 154.252 102.949C154.777 102.949 155.3 103.01 155.821 103.134C156.342 103.257 156.818 103.46 157.249 103.744C157.68 104.024 158.025 104.405 158.286 104.888C158.551 105.371 158.683 105.974 158.683 106.699V114H156.212V112.501H156.127C155.97 112.804 155.75 113.089 155.466 113.354C155.187 113.614 154.834 113.825 154.408 113.986C153.986 114.142 153.492 114.22 152.924 114.22ZM153.591 112.331C154.107 112.331 154.555 112.229 154.933 112.026C155.312 111.817 155.603 111.543 155.807 111.202C156.015 110.861 156.12 110.489 156.12 110.087V108.801C156.039 108.867 155.902 108.929 155.708 108.986C155.518 109.043 155.305 109.092 155.068 109.135C154.832 109.178 154.597 109.215 154.365 109.249C154.133 109.282 153.932 109.31 153.762 109.334C153.378 109.386 153.035 109.471 152.732 109.589C152.429 109.708 152.19 109.874 152.014 110.087C151.839 110.295 151.752 110.565 151.752 110.896C151.752 111.37 151.924 111.727 152.27 111.969C152.616 112.21 153.056 112.331 153.591 112.331ZM163.44 99.4545V114H160.869V99.4545H163.44ZM170.442 114.213C169.353 114.213 168.418 113.974 167.637 113.496C166.86 113.018 166.261 112.357 165.84 111.514C165.423 110.667 165.215 109.691 165.215 108.588C165.215 107.48 165.428 106.502 165.854 105.655C166.28 104.803 166.881 104.14 167.658 103.666C168.439 103.188 169.362 102.949 170.428 102.949C171.313 102.949 172.097 103.112 172.779 103.439C173.465 103.761 174.012 104.218 174.419 104.81C174.827 105.397 175.059 106.083 175.115 106.869H172.658C172.559 106.344 172.322 105.906 171.948 105.555C171.578 105.2 171.084 105.023 170.463 105.023C169.938 105.023 169.476 105.165 169.078 105.449C168.681 105.728 168.371 106.131 168.148 106.656C167.93 107.182 167.821 107.812 167.821 108.545C167.821 109.289 167.93 109.928 168.148 110.463C168.366 110.993 168.671 111.403 169.064 111.692C169.462 111.976 169.928 112.118 170.463 112.118C170.842 112.118 171.181 112.047 171.479 111.905C171.782 111.758 172.035 111.547 172.239 111.273C172.443 110.998 172.582 110.664 172.658 110.271H175.115C175.054 111.043 174.827 111.727 174.434 112.324C174.041 112.916 173.505 113.38 172.828 113.716C172.151 114.047 171.356 114.213 170.442 114.213ZM183.78 109.412V103.091H186.351V114H183.858V112.061H183.744C183.498 112.672 183.093 113.171 182.53 113.56C181.971 113.948 181.282 114.142 180.463 114.142C179.748 114.142 179.116 113.983 178.567 113.666C178.022 113.344 177.596 112.878 177.288 112.267C176.98 111.652 176.826 110.908 176.826 110.037V103.091H179.398V109.639C179.398 110.33 179.587 110.88 179.966 111.287C180.344 111.694 180.842 111.898 181.457 111.898C181.836 111.898 182.203 111.805 182.558 111.621C182.913 111.436 183.204 111.161 183.432 110.797C183.664 110.428 183.78 109.966 183.78 109.412ZM191.165 99.4545V114H188.594V99.4545H191.165ZM196.549 114.22C195.857 114.22 195.235 114.097 194.681 113.851C194.131 113.6 193.696 113.231 193.374 112.743C193.057 112.255 192.898 111.654 192.898 110.939C192.898 110.323 193.012 109.814 193.239 109.412C193.466 109.009 193.776 108.688 194.169 108.446C194.562 108.205 195.005 108.022 195.497 107.899C195.995 107.771 196.508 107.679 197.039 107.622C197.678 107.556 198.196 107.497 198.594 107.445C198.992 107.388 199.281 107.303 199.46 107.189C199.645 107.071 199.737 106.888 199.737 106.642V106.599C199.737 106.064 199.579 105.65 199.262 105.357C198.944 105.063 198.487 104.916 197.891 104.916C197.261 104.916 196.762 105.054 196.392 105.328C196.028 105.603 195.781 105.927 195.654 106.301L193.253 105.96C193.442 105.297 193.755 104.743 194.191 104.298C194.626 103.848 195.159 103.512 195.789 103.29C196.418 103.062 197.114 102.949 197.877 102.949C198.402 102.949 198.925 103.01 199.446 103.134C199.967 103.257 200.443 103.46 200.874 103.744C201.305 104.024 201.65 104.405 201.911 104.888C202.176 105.371 202.308 105.974 202.308 106.699V114H199.837V112.501H199.752C199.595 112.804 199.375 113.089 199.091 113.354C198.812 113.614 198.459 113.825 198.033 113.986C197.611 114.142 197.117 114.22 196.549 114.22ZM197.216 112.331C197.732 112.331 198.18 112.229 198.558 112.026C198.937 111.817 199.228 111.543 199.432 111.202C199.64 110.861 199.745 110.489 199.745 110.087V108.801C199.664 108.867 199.527 108.929 199.333 108.986C199.143 109.043 198.93 109.092 198.693 109.135C198.457 109.178 198.222 109.215 197.99 109.249C197.758 109.282 197.557 109.31 197.387 109.334C197.003 109.386 196.66 109.471 196.357 109.589C196.054 109.708 195.815 109.874 195.639 110.087C195.464 110.295 195.377 110.565 195.377 110.896C195.377 111.37 195.549 111.727 195.895 111.969C196.241 112.21 196.681 112.331 197.216 112.331ZM209.941 103.091V105.08H203.67V103.091H209.941ZM205.218 100.477H207.789V110.719C207.789 111.064 207.841 111.33 207.945 111.514C208.054 111.694 208.196 111.817 208.372 111.884C208.547 111.95 208.741 111.983 208.954 111.983C209.115 111.983 209.262 111.971 209.394 111.947C209.532 111.924 209.636 111.902 209.707 111.884L210.14 113.893C210.003 113.941 209.806 113.993 209.55 114.05C209.3 114.107 208.992 114.14 208.627 114.149C207.983 114.168 207.403 114.071 206.887 113.858C206.371 113.64 205.961 113.304 205.658 112.849C205.36 112.395 205.213 111.827 205.218 111.145V100.477ZM216.404 114.213C215.31 114.213 214.365 113.986 213.57 113.531C212.779 113.072 212.171 112.423 211.745 111.585C211.318 110.742 211.105 109.75 211.105 108.609C211.105 107.487 211.318 106.502 211.745 105.655C212.175 104.803 212.777 104.14 213.549 103.666C214.32 103.188 215.227 102.949 216.269 102.949C216.941 102.949 217.576 103.058 218.172 103.276C218.773 103.489 219.304 103.82 219.763 104.27C220.227 104.72 220.592 105.293 220.857 105.989C221.122 106.68 221.255 107.504 221.255 108.46V109.249H212.313V107.516H218.79C218.785 107.023 218.679 106.585 218.47 106.202C218.262 105.813 217.971 105.508 217.597 105.286C217.228 105.063 216.797 104.952 216.304 104.952C215.779 104.952 215.317 105.08 214.919 105.335C214.522 105.586 214.211 105.918 213.989 106.33C213.771 106.737 213.66 107.184 213.655 107.672V109.185C213.655 109.819 213.771 110.364 214.003 110.818C214.235 111.268 214.559 111.614 214.976 111.855C215.393 112.092 215.88 112.21 216.439 112.21C216.813 112.21 217.152 112.158 217.455 112.054C217.758 111.945 218.021 111.786 218.243 111.578C218.466 111.37 218.634 111.112 218.747 110.804L221.148 111.074C220.996 111.708 220.708 112.262 220.282 112.736C219.86 113.205 219.32 113.569 218.662 113.83C218.004 114.085 217.251 114.213 216.404 114.213ZM229.189 118.091C228.838 118.091 228.514 118.063 228.216 118.006C227.922 117.954 227.688 117.892 227.512 117.821L228.109 115.818C228.483 115.927 228.817 115.979 229.11 115.974C229.404 115.97 229.662 115.877 229.885 115.697C230.112 115.522 230.304 115.229 230.46 114.817L230.68 114.227L226.724 103.091H229.451L231.966 111.33H232.079L234.6 103.091H237.335L232.967 115.321C232.763 115.899 232.493 116.393 232.157 116.805C231.821 117.222 231.409 117.539 230.922 117.757C230.439 117.98 229.861 118.091 229.189 118.091ZM243.101 114.213C242.036 114.213 241.113 113.979 240.332 113.51C239.55 113.041 238.944 112.385 238.513 111.543C238.087 110.7 237.874 109.715 237.874 108.588C237.874 107.461 238.087 106.474 238.513 105.626C238.944 104.779 239.55 104.121 240.332 103.652C241.113 103.183 242.036 102.949 243.101 102.949C244.167 102.949 245.09 103.183 245.871 103.652C246.653 104.121 247.256 104.779 247.682 105.626C248.113 106.474 248.329 107.461 248.329 108.588C248.329 109.715 248.113 110.7 247.682 111.543C247.256 112.385 246.653 113.041 245.871 113.51C245.09 113.979 244.167 114.213 243.101 114.213ZM243.116 112.153C243.693 112.153 244.176 111.995 244.564 111.678C244.953 111.356 245.242 110.925 245.431 110.385C245.625 109.845 245.722 109.244 245.722 108.581C245.722 107.913 245.625 107.31 245.431 106.77C245.242 106.225 244.953 105.792 244.564 105.47C244.176 105.148 243.693 104.987 243.116 104.987C242.524 104.987 242.031 105.148 241.638 105.47C241.25 105.792 240.959 106.225 240.765 106.77C240.575 107.31 240.481 107.913 240.481 108.581C240.481 109.244 240.575 109.845 240.765 110.385C240.959 110.925 241.25 111.356 241.638 111.678C242.031 111.995 242.524 112.153 243.116 112.153ZM257.064 109.412V103.091H259.635V114H257.142V112.061H257.028C256.782 112.672 256.377 113.171 255.814 113.56C255.255 113.948 254.566 114.142 253.747 114.142C253.032 114.142 252.4 113.983 251.851 113.666C251.306 113.344 250.88 112.878 250.573 112.267C250.265 111.652 250.111 110.908 250.111 110.037V103.091H252.682V109.639C252.682 110.33 252.871 110.88 253.25 111.287C253.629 111.694 254.126 111.898 254.742 111.898C255.12 111.898 255.487 111.805 255.842 111.621C256.198 111.436 256.489 111.161 256.716 110.797C256.948 110.428 257.064 109.966 257.064 109.412ZM261.879 114V103.091H264.372V104.909H264.485C264.684 104.279 265.025 103.794 265.508 103.453C265.996 103.107 266.552 102.935 267.177 102.935C267.319 102.935 267.478 102.942 267.653 102.956C267.833 102.965 267.982 102.982 268.1 103.006V105.371C267.992 105.333 267.819 105.3 267.582 105.271C267.35 105.238 267.125 105.222 266.907 105.222C266.438 105.222 266.017 105.323 265.643 105.527C265.274 105.726 264.983 106.003 264.769 106.358C264.556 106.713 264.45 107.123 264.45 107.587V114H261.879ZM273.969 118.091V103.091H276.498V104.895H276.647C276.78 104.63 276.967 104.348 277.208 104.05C277.45 103.747 277.776 103.489 278.188 103.276C278.6 103.058 279.126 102.949 279.765 102.949C280.608 102.949 281.368 103.164 282.045 103.595C282.727 104.021 283.266 104.653 283.664 105.491C284.067 106.325 284.268 107.348 284.268 108.56C284.268 109.758 284.071 110.776 283.678 111.614C283.285 112.452 282.75 113.091 282.073 113.531C281.396 113.972 280.629 114.192 279.772 114.192C279.147 114.192 278.629 114.088 278.217 113.879C277.805 113.671 277.473 113.42 277.222 113.126C276.976 112.828 276.784 112.546 276.647 112.281H276.54V118.091H273.969ZM276.491 108.545C276.491 109.251 276.59 109.869 276.789 110.399C276.993 110.929 277.284 111.344 277.663 111.642C278.046 111.936 278.51 112.082 279.055 112.082C279.623 112.082 280.099 111.931 280.482 111.628C280.866 111.32 281.155 110.901 281.349 110.371C281.548 109.836 281.647 109.227 281.647 108.545C281.647 107.868 281.55 107.267 281.356 106.741C281.162 106.216 280.873 105.804 280.489 105.506C280.106 105.207 279.628 105.058 279.055 105.058C278.505 105.058 278.039 105.203 277.656 105.491C277.272 105.78 276.981 106.185 276.782 106.706C276.588 107.227 276.491 107.84 276.491 108.545ZM289.209 114.22C288.517 114.22 287.895 114.097 287.341 113.851C286.792 113.6 286.356 113.231 286.034 112.743C285.717 112.255 285.558 111.654 285.558 110.939C285.558 110.323 285.672 109.814 285.899 109.412C286.126 109.009 286.436 108.688 286.829 108.446C287.222 108.205 287.665 108.022 288.158 107.899C288.655 107.771 289.168 107.679 289.699 107.622C290.338 107.556 290.856 107.497 291.254 107.445C291.652 107.388 291.941 107.303 292.121 107.189C292.305 107.071 292.398 106.888 292.398 106.642V106.599C292.398 106.064 292.239 105.65 291.922 105.357C291.605 105.063 291.148 104.916 290.551 104.916C289.921 104.916 289.422 105.054 289.052 105.328C288.688 105.603 288.442 105.927 288.314 106.301L285.913 105.96C286.103 105.297 286.415 104.743 286.851 104.298C287.286 103.848 287.819 103.512 288.449 103.29C289.078 103.062 289.774 102.949 290.537 102.949C291.062 102.949 291.586 103.01 292.106 103.134C292.627 103.257 293.103 103.46 293.534 103.744C293.965 104.024 294.31 104.405 294.571 104.888C294.836 105.371 294.969 105.974 294.969 106.699V114H292.497V112.501H292.412C292.256 112.804 292.035 113.089 291.751 113.354C291.472 113.614 291.119 113.825 290.693 113.986C290.272 114.142 289.777 114.22 289.209 114.22ZM289.876 112.331C290.392 112.331 290.84 112.229 291.219 112.026C291.597 111.817 291.889 111.543 292.092 111.202C292.301 110.861 292.405 110.489 292.405 110.087V108.801C292.324 108.867 292.187 108.929 291.993 108.986C291.803 109.043 291.59 109.092 291.354 109.135C291.117 109.178 290.882 109.215 290.65 109.249C290.418 109.282 290.217 109.31 290.047 109.334C289.663 109.386 289.32 109.471 289.017 109.589C288.714 109.708 288.475 109.874 288.3 110.087C288.124 110.295 288.037 110.565 288.037 110.896C288.037 111.37 288.21 111.727 288.555 111.969C288.901 112.21 289.341 112.331 289.876 112.331ZM297.154 118.091V103.091H299.682V104.895H299.831C299.964 104.63 300.151 104.348 300.392 104.05C300.634 103.747 300.961 103.489 301.373 103.276C301.785 103.058 302.31 102.949 302.949 102.949C303.792 102.949 304.552 103.164 305.229 103.595C305.911 104.021 306.451 104.653 306.848 105.491C307.251 106.325 307.452 107.348 307.452 108.56C307.452 109.758 307.256 110.776 306.863 111.614C306.47 112.452 305.935 113.091 305.258 113.531C304.58 113.972 303.813 114.192 302.956 114.192C302.331 114.192 301.813 114.088 301.401 113.879C300.989 113.671 300.658 113.42 300.407 113.126C300.16 112.828 299.969 112.546 299.831 112.281H299.725V118.091H297.154ZM299.675 108.545C299.675 109.251 299.775 109.869 299.973 110.399C300.177 110.929 300.468 111.344 300.847 111.642C301.231 111.936 301.695 112.082 302.239 112.082C302.807 112.082 303.283 111.931 303.667 111.628C304.05 111.32 304.339 110.901 304.533 110.371C304.732 109.836 304.831 109.227 304.831 108.545C304.831 107.868 304.734 107.267 304.54 106.741C304.346 106.216 304.057 105.804 303.674 105.506C303.29 105.207 302.812 105.058 302.239 105.058C301.69 105.058 301.223 105.203 300.84 105.491C300.456 105.78 300.165 106.185 299.966 106.706C299.772 107.227 299.675 107.84 299.675 108.545ZM314.083 114.213C312.99 114.213 312.045 113.986 311.25 113.531C310.459 113.072 309.85 112.423 309.424 111.585C308.998 110.742 308.785 109.75 308.785 108.609C308.785 107.487 308.998 106.502 309.424 105.655C309.855 104.803 310.456 104.14 311.228 103.666C312 103.188 312.907 102.949 313.948 102.949C314.621 102.949 315.255 103.058 315.852 103.276C316.453 103.489 316.983 103.82 317.443 104.27C317.907 104.72 318.271 105.293 318.537 105.989C318.802 106.68 318.934 107.504 318.934 108.46V109.249H309.992V107.516H316.47C316.465 107.023 316.358 106.585 316.15 106.202C315.942 105.813 315.651 105.508 315.277 105.286C314.907 105.063 314.476 104.952 313.984 104.952C313.458 104.952 312.997 105.08 312.599 105.335C312.201 105.586 311.891 105.918 311.669 106.33C311.451 106.737 311.34 107.184 311.335 107.672V109.185C311.335 109.819 311.451 110.364 311.683 110.818C311.915 111.268 312.239 111.614 312.656 111.855C313.072 112.092 313.56 112.21 314.119 112.21C314.493 112.21 314.831 112.158 315.135 112.054C315.438 111.945 315.7 111.786 315.923 111.578C316.145 111.37 316.313 111.112 316.427 110.804L318.828 111.074C318.676 111.708 318.387 112.262 317.961 112.736C317.54 113.205 317 113.569 316.342 113.83C315.684 114.085 314.931 114.213 314.083 114.213ZM320.709 114V103.091H323.202V104.909H323.316C323.515 104.279 323.856 103.794 324.339 103.453C324.826 103.107 325.383 102.935 326.008 102.935C326.15 102.935 326.308 102.942 326.483 102.956C326.663 102.965 326.813 102.982 326.931 103.006V105.371C326.822 105.333 326.649 105.3 326.412 105.271C326.18 105.238 325.956 105.222 325.738 105.222C325.269 105.222 324.848 105.323 324.474 105.527C324.104 105.726 323.813 106.003 323.6 106.358C323.387 106.713 323.28 107.123 323.28 107.587V114H320.709ZM332.8 118.091V103.091H335.328V104.895H335.477C335.61 104.63 335.797 104.348 336.039 104.05C336.28 103.747 336.607 103.489 337.019 103.276C337.431 103.058 337.956 102.949 338.595 102.949C339.438 102.949 340.198 103.164 340.875 103.595C341.557 104.021 342.097 104.653 342.495 105.491C342.897 106.325 343.098 107.348 343.098 108.56C343.098 109.758 342.902 110.776 342.509 111.614C342.116 112.452 341.581 113.091 340.904 113.531C340.227 113.972 339.459 114.192 338.602 114.192C337.977 114.192 337.459 114.088 337.047 113.879C336.635 113.671 336.304 113.42 336.053 113.126C335.807 112.828 335.615 112.546 335.477 112.281H335.371V118.091H332.8ZM335.321 108.545C335.321 109.251 335.421 109.869 335.62 110.399C335.823 110.929 336.114 111.344 336.493 111.642C336.877 111.936 337.341 112.082 337.885 112.082C338.453 112.082 338.929 111.931 339.313 111.628C339.696 111.32 339.985 110.901 340.179 110.371C340.378 109.836 340.477 109.227 340.477 108.545C340.477 107.868 340.38 107.267 340.186 106.741C339.992 106.216 339.703 105.804 339.32 105.506C338.936 105.207 338.458 105.058 337.885 105.058C337.336 105.058 336.87 105.203 336.486 105.491C336.102 105.78 335.811 106.185 335.612 106.706C335.418 107.227 335.321 107.84 335.321 108.545ZM344.9 114V103.091H347.393V104.909H347.506C347.705 104.279 348.046 103.794 348.529 103.453C349.017 103.107 349.573 102.935 350.198 102.935C350.34 102.935 350.499 102.942 350.674 102.956C350.854 102.965 351.003 102.982 351.122 103.006V105.371C351.013 105.333 350.84 105.3 350.603 105.271C350.371 105.238 350.146 105.222 349.928 105.222C349.46 105.222 349.038 105.323 348.664 105.527C348.295 105.726 348.004 106.003 347.791 106.358C347.577 106.713 347.471 107.123 347.471 107.587V114H344.9ZM352.43 114V103.091H355.001V114H352.43ZM353.722 101.543C353.315 101.543 352.965 101.408 352.671 101.138C352.378 100.863 352.231 100.534 352.231 100.151C352.231 99.7623 352.378 99.4332 352.671 99.1634C352.965 98.8887 353.315 98.7514 353.722 98.7514C354.134 98.7514 354.485 98.8887 354.773 99.1634C355.067 99.4332 355.214 99.7623 355.214 100.151C355.214 100.534 355.067 100.863 354.773 101.138C354.485 101.408 354.134 101.543 353.722 101.543ZM362.003 114.213C360.914 114.213 359.979 113.974 359.198 113.496C358.421 113.018 357.822 112.357 357.401 111.514C356.984 110.667 356.776 109.691 356.776 108.588C356.776 107.48 356.989 106.502 357.415 105.655C357.841 104.803 358.442 104.14 359.219 103.666C360 103.188 360.923 102.949 361.989 102.949C362.874 102.949 363.658 103.112 364.34 103.439C365.026 103.761 365.573 104.218 365.98 104.81C366.387 105.397 366.619 106.083 366.676 106.869H364.219C364.119 106.344 363.883 105.906 363.509 105.555C363.139 105.2 362.645 105.023 362.024 105.023C361.499 105.023 361.037 105.165 360.639 105.449C360.242 105.728 359.931 106.131 359.709 106.656C359.491 107.182 359.382 107.812 359.382 108.545C359.382 109.289 359.491 109.928 359.709 110.463C359.927 110.993 360.232 111.403 360.625 111.692C361.023 111.976 361.489 112.118 362.024 112.118C362.403 112.118 362.742 112.047 363.04 111.905C363.343 111.758 363.596 111.547 363.8 111.273C364.003 110.998 364.143 110.664 364.219 110.271H366.676C366.615 111.043 366.387 111.727 365.994 112.324C365.601 112.916 365.066 113.38 364.389 113.716C363.712 114.047 362.917 114.213 362.003 114.213ZM373.217 114.213C372.123 114.213 371.179 113.986 370.383 113.531C369.592 113.072 368.984 112.423 368.558 111.585C368.132 110.742 367.919 109.75 367.919 108.609C367.919 107.487 368.132 106.502 368.558 105.655C368.989 104.803 369.59 104.14 370.362 103.666C371.134 103.188 372.04 102.949 373.082 102.949C373.754 102.949 374.389 103.058 374.985 103.276C375.587 103.489 376.117 103.82 376.576 104.27C377.04 104.72 377.405 105.293 377.67 105.989C377.935 106.68 378.068 107.504 378.068 108.46V109.249H369.126V107.516H375.603C375.599 107.023 375.492 106.585 375.284 106.202C375.075 105.813 374.784 105.508 374.41 105.286C374.041 105.063 373.61 104.952 373.118 104.952C372.592 104.952 372.13 105.08 371.733 105.335C371.335 105.586 371.025 105.918 370.802 106.33C370.584 106.737 370.473 107.184 370.468 107.672V109.185C370.468 109.819 370.584 110.364 370.816 110.818C371.048 111.268 371.373 111.614 371.789 111.855C372.206 112.092 372.694 112.21 373.252 112.21C373.627 112.21 373.965 112.158 374.268 112.054C374.571 111.945 374.834 111.786 375.056 111.578C375.279 111.37 375.447 111.112 375.561 110.804L377.961 111.074C377.81 111.708 377.521 112.262 377.095 112.736C376.673 113.205 376.134 113.569 375.475 113.83C374.817 114.085 374.065 114.213 373.217 114.213Z" fill="#1A1A1A"/>
<path opacity="0.7" d="M125.801 156.364C125.741 155.86 125.5 155.469 125.075 155.19C124.651 154.912 124.131 154.773 123.514 154.773C123.063 154.773 122.669 154.846 122.331 154.991C121.996 155.137 121.734 155.338 121.545 155.593C121.36 155.848 121.267 156.138 121.267 156.463C121.267 156.735 121.332 156.969 121.461 157.164C121.594 157.356 121.763 157.517 121.968 157.646C122.174 157.772 122.389 157.877 122.614 157.96C122.84 158.039 123.047 158.104 123.236 158.153L124.27 158.432C124.535 158.501 124.83 158.598 125.155 158.72C125.483 158.843 125.796 159.01 126.094 159.222C126.396 159.431 126.645 159.7 126.84 160.028C127.036 160.356 127.134 160.759 127.134 161.236C127.134 161.786 126.989 162.283 126.701 162.727C126.416 163.171 125.998 163.524 125.448 163.786C124.901 164.048 124.237 164.179 123.455 164.179C122.725 164.179 122.094 164.061 121.56 163.826C121.03 163.591 120.612 163.263 120.308 162.842C120.006 162.421 119.835 161.932 119.795 161.375H121.068C121.101 161.759 121.231 162.078 121.456 162.33C121.685 162.578 121.973 162.764 122.321 162.886C122.672 163.006 123.05 163.065 123.455 163.065C123.925 163.065 124.348 162.989 124.722 162.837C125.097 162.681 125.393 162.465 125.612 162.19C125.831 161.912 125.94 161.587 125.94 161.216C125.94 160.878 125.846 160.603 125.657 160.391C125.468 160.179 125.219 160.006 124.911 159.874C124.603 159.741 124.27 159.625 123.912 159.526L122.659 159.168C121.864 158.939 121.234 158.612 120.77 158.188C120.306 157.764 120.074 157.209 120.074 156.523C120.074 155.953 120.228 155.455 120.536 155.031C120.848 154.604 121.265 154.272 121.789 154.037C122.316 153.798 122.904 153.679 123.554 153.679C124.21 153.679 124.794 153.797 125.304 154.032C125.814 154.264 126.219 154.582 126.517 154.987C126.819 155.391 126.978 155.85 126.994 156.364H125.801ZM132.203 164.159C131.468 164.159 130.833 163.997 130.299 163.672C129.769 163.344 129.36 162.886 129.071 162.3C128.786 161.71 128.644 161.024 128.644 160.241C128.644 159.459 128.786 158.77 129.071 158.173C129.36 157.573 129.761 157.106 130.274 156.771C130.791 156.433 131.395 156.264 132.084 156.264C132.482 156.264 132.874 156.33 133.262 156.463C133.65 156.596 134.003 156.811 134.321 157.109C134.639 157.404 134.893 157.795 135.082 158.283C135.271 158.77 135.365 159.37 135.365 160.082V160.58H129.479V159.565H134.172C134.172 159.134 134.086 158.75 133.914 158.412C133.744 158.074 133.503 157.807 133.188 157.612C132.876 157.416 132.508 157.318 132.084 157.318C131.617 157.318 131.212 157.434 130.871 157.666C130.533 157.895 130.273 158.193 130.09 158.561C129.908 158.929 129.817 159.323 129.817 159.744V160.42C129.817 160.997 129.916 161.486 130.115 161.887C130.317 162.285 130.597 162.588 130.955 162.797C131.313 163.002 131.729 163.105 132.203 163.105C132.512 163.105 132.79 163.062 133.039 162.976C133.29 162.886 133.508 162.754 133.69 162.578C133.872 162.399 134.013 162.177 134.112 161.912L135.246 162.23C135.127 162.615 134.926 162.953 134.644 163.244C134.363 163.533 134.015 163.758 133.6 163.92C133.186 164.08 132.72 164.159 132.203 164.159ZM137.15 164V156.364H138.284V157.517H138.363C138.502 157.139 138.754 156.833 139.119 156.597C139.483 156.362 139.894 156.244 140.352 156.244C140.438 156.244 140.546 156.246 140.675 156.249C140.804 156.253 140.902 156.258 140.968 156.264V157.457C140.928 157.447 140.837 157.433 140.695 157.413C140.556 157.389 140.408 157.378 140.252 157.378C139.881 157.378 139.55 157.456 139.258 157.612C138.97 157.764 138.741 157.976 138.572 158.248C138.406 158.516 138.323 158.823 138.323 159.168V164H137.15ZM148.836 156.364L146.012 164H144.819L141.995 156.364H143.268L145.376 162.449H145.455L147.563 156.364H148.836ZM150.384 164V156.364H151.558V164H150.384ZM150.981 155.091C150.752 155.091 150.555 155.013 150.389 154.857C150.227 154.701 150.146 154.514 150.146 154.295C150.146 154.077 150.227 153.889 150.389 153.734C150.555 153.578 150.752 153.5 150.981 153.5C151.21 153.5 151.405 153.578 151.568 153.734C151.733 153.889 151.816 154.077 151.816 154.295C151.816 154.514 151.733 154.701 151.568 154.857C151.405 155.013 151.21 155.091 150.981 155.091ZM156.809 164.159C156.093 164.159 155.477 163.99 154.96 163.652C154.442 163.314 154.045 162.848 153.766 162.255C153.488 161.662 153.349 160.984 153.349 160.222C153.349 159.446 153.491 158.762 153.776 158.168C154.065 157.572 154.466 157.106 154.979 156.771C155.496 156.433 156.1 156.264 156.789 156.264C157.326 156.264 157.81 156.364 158.241 156.562C158.672 156.761 159.025 157.04 159.3 157.398C159.575 157.756 159.746 158.173 159.812 158.651H158.638C158.549 158.303 158.35 157.994 158.042 157.726C157.737 157.454 157.326 157.318 156.809 157.318C156.352 157.318 155.951 157.437 155.606 157.676C155.264 157.911 154.998 158.245 154.805 158.675C154.616 159.103 154.522 159.605 154.522 160.182C154.522 160.772 154.615 161.286 154.8 161.723C154.989 162.161 155.254 162.5 155.596 162.742C155.941 162.984 156.345 163.105 156.809 163.105C157.114 163.105 157.391 163.052 157.639 162.946C157.888 162.84 158.098 162.688 158.271 162.489C158.443 162.29 158.566 162.051 158.638 161.773H159.812C159.746 162.223 159.581 162.629 159.32 162.991C159.061 163.349 158.718 163.634 158.29 163.846C157.866 164.055 157.372 164.159 156.809 164.159ZM164.729 164.159C163.993 164.159 163.358 163.997 162.825 163.672C162.294 163.344 161.885 162.886 161.597 162.3C161.312 161.71 161.169 161.024 161.169 160.241C161.169 159.459 161.312 158.77 161.597 158.173C161.885 157.573 162.286 157.106 162.8 156.771C163.317 156.433 163.92 156.264 164.609 156.264C165.007 156.264 165.4 156.33 165.788 156.463C166.175 156.596 166.528 156.811 166.847 157.109C167.165 157.404 167.418 157.795 167.607 158.283C167.796 158.77 167.891 159.37 167.891 160.082V160.58H162.004V159.565H166.697C166.697 159.134 166.611 158.75 166.439 158.412C166.27 158.074 166.028 157.807 165.713 157.612C165.402 157.416 165.034 157.318 164.609 157.318C164.142 157.318 163.738 157.434 163.396 157.666C163.058 157.895 162.798 158.193 162.616 158.561C162.433 158.929 162.342 159.323 162.342 159.744V160.42C162.342 160.997 162.442 161.486 162.641 161.887C162.843 162.285 163.123 162.588 163.481 162.797C163.839 163.002 164.255 163.105 164.729 163.105C165.037 163.105 165.315 163.062 165.564 162.976C165.816 162.886 166.033 162.754 166.215 162.578C166.397 162.399 166.538 162.177 166.638 161.912L167.771 162.23C167.652 162.615 167.451 162.953 167.17 163.244C166.888 163.533 166.54 163.758 166.126 163.92C165.711 164.08 165.246 164.159 164.729 164.159Z" fill="#1A1A1A"/>
<path d="M128.278 201V189.364H130.034V199.489H135.307V201H128.278ZM137.173 201V192.273H138.872V201H137.173ZM138.031 190.926C137.736 190.926 137.482 190.828 137.27 190.631C137.062 190.43 136.957 190.191 136.957 189.915C136.957 189.634 137.062 189.396 137.27 189.199C137.482 188.998 137.736 188.898 138.031 188.898C138.327 188.898 138.579 188.998 138.787 189.199C138.999 189.396 139.105 189.634 139.105 189.915C139.105 190.191 138.999 190.43 138.787 190.631C138.579 190.828 138.327 190.926 138.031 190.926ZM142.857 195.818V201H141.158V192.273H142.788V193.693H142.896C143.097 193.231 143.411 192.86 143.839 192.58C144.271 192.299 144.815 192.159 145.47 192.159C146.065 192.159 146.586 192.284 147.033 192.534C147.48 192.78 147.826 193.148 148.072 193.636C148.319 194.125 148.442 194.729 148.442 195.449V201H146.743V195.653C146.743 195.021 146.578 194.527 146.249 194.17C145.919 193.811 145.466 193.631 144.891 193.631C144.497 193.631 144.146 193.716 143.839 193.886C143.536 194.057 143.296 194.307 143.118 194.636C142.944 194.962 142.857 195.356 142.857 195.818ZM152.283 198.04L152.271 195.966H152.567L156.044 192.273H158.078L154.112 196.477H153.845L152.283 198.04ZM150.72 201V189.364H152.419V201H150.72ZM156.232 201L153.107 196.852L154.277 195.665L158.317 201H156.232ZM163.028 201.176C162.169 201.176 161.428 200.992 160.807 200.625C160.189 200.254 159.712 199.733 159.375 199.062C159.042 198.388 158.875 197.598 158.875 196.693C158.875 195.799 159.042 195.011 159.375 194.33C159.712 193.648 160.182 193.116 160.784 192.733C161.39 192.35 162.098 192.159 162.909 192.159C163.402 192.159 163.879 192.241 164.341 192.403C164.803 192.566 165.218 192.822 165.585 193.17C165.953 193.519 166.242 193.972 166.455 194.528C166.667 195.081 166.773 195.754 166.773 196.545V197.148H159.835V195.875H165.108C165.108 195.428 165.017 195.032 164.835 194.688C164.653 194.339 164.398 194.064 164.068 193.864C163.742 193.663 163.36 193.562 162.92 193.562C162.443 193.562 162.027 193.68 161.67 193.915C161.318 194.146 161.045 194.449 160.852 194.824C160.663 195.195 160.568 195.598 160.568 196.034V197.028C160.568 197.612 160.67 198.108 160.875 198.517C161.083 198.926 161.373 199.239 161.744 199.455C162.116 199.667 162.549 199.773 163.045 199.773C163.367 199.773 163.661 199.727 163.926 199.636C164.191 199.542 164.42 199.402 164.614 199.216C164.807 199.03 164.955 198.801 165.057 198.528L166.665 198.818C166.536 199.292 166.305 199.706 165.972 200.062C165.642 200.415 165.227 200.689 164.727 200.886C164.231 201.08 163.665 201.176 163.028 201.176ZM171.925 201.17C171.22 201.17 170.591 200.991 170.038 200.631C169.489 200.267 169.057 199.75 168.743 199.08C168.432 198.405 168.277 197.597 168.277 196.653C168.277 195.71 168.434 194.903 168.749 194.233C169.067 193.562 169.502 193.049 170.055 192.693C170.608 192.337 171.235 192.159 171.936 192.159C172.478 192.159 172.913 192.25 173.243 192.432C173.576 192.61 173.834 192.818 174.016 193.057C174.201 193.295 174.345 193.506 174.447 193.688H174.55V189.364H176.249V201H174.589V199.642H174.447C174.345 199.828 174.197 200.04 174.004 200.278C173.815 200.517 173.554 200.725 173.22 200.903C172.887 201.081 172.455 201.17 171.925 201.17ZM172.3 199.722C172.788 199.722 173.201 199.593 173.538 199.335C173.879 199.074 174.137 198.712 174.311 198.25C174.489 197.788 174.578 197.25 174.578 196.636C174.578 196.03 174.491 195.5 174.317 195.045C174.143 194.591 173.887 194.237 173.55 193.983C173.213 193.729 172.796 193.602 172.3 193.602C171.788 193.602 171.362 193.735 171.021 194C170.68 194.265 170.423 194.627 170.249 195.085C170.078 195.544 169.993 196.061 169.993 196.636C169.993 197.22 170.08 197.744 170.254 198.21C170.429 198.676 170.686 199.045 171.027 199.318C171.372 199.587 171.796 199.722 172.3 199.722ZM180.565 189.364V201H178.81V189.364H180.565ZM184.685 195.818V201H182.986V192.273H184.616V193.693H184.724C184.925 193.231 185.24 192.86 185.668 192.58C186.099 192.299 186.643 192.159 187.298 192.159C187.893 192.159 188.414 192.284 188.861 192.534C189.308 192.78 189.654 193.148 189.901 193.636C190.147 194.125 190.27 194.729 190.27 195.449V201H188.571V195.653C188.571 195.021 188.406 194.527 188.077 194.17C187.747 193.811 187.295 193.631 186.719 193.631C186.325 193.631 185.974 193.716 185.668 193.886C185.365 194.057 185.124 194.307 184.946 194.636C184.772 194.962 184.685 195.356 184.685 195.818ZM207.027 195.182C207.027 196.424 206.8 197.492 206.345 198.386C205.891 199.277 205.268 199.962 204.476 200.443C203.688 200.92 202.792 201.159 201.788 201.159C200.781 201.159 199.881 200.92 199.089 200.443C198.302 199.962 197.68 199.275 197.226 198.381C196.771 197.487 196.544 196.42 196.544 195.182C196.544 193.939 196.771 192.873 197.226 191.983C197.68 191.089 198.302 190.403 199.089 189.926C199.881 189.445 200.781 189.205 201.788 189.205C202.792 189.205 203.688 189.445 204.476 189.926C205.268 190.403 205.891 191.089 206.345 191.983C206.8 192.873 207.027 193.939 207.027 195.182ZM205.288 195.182C205.288 194.235 205.135 193.437 204.828 192.79C204.525 192.138 204.108 191.646 203.578 191.312C203.052 190.975 202.455 190.807 201.788 190.807C201.118 190.807 200.519 190.975 199.993 191.312C199.466 191.646 199.05 192.138 198.743 192.79C198.44 193.437 198.288 194.235 198.288 195.182C198.288 196.129 198.44 196.928 198.743 197.58C199.05 198.227 199.466 198.72 199.993 199.057C200.519 199.39 201.118 199.557 201.788 199.557C202.455 199.557 203.052 199.39 203.578 199.057C204.108 198.72 204.525 198.227 204.828 197.58C205.135 196.928 205.288 196.129 205.288 195.182ZM209.08 204.273V192.273H210.739V193.688H210.881C210.979 193.506 211.121 193.295 211.307 193.057C211.492 192.818 211.75 192.61 212.08 192.432C212.409 192.25 212.845 192.159 213.386 192.159C214.091 192.159 214.72 192.337 215.273 192.693C215.826 193.049 216.259 193.562 216.574 194.233C216.892 194.903 217.051 195.71 217.051 196.653C217.051 197.597 216.894 198.405 216.58 199.08C216.265 199.75 215.833 200.267 215.284 200.631C214.735 200.991 214.108 201.17 213.403 201.17C212.873 201.17 212.439 201.081 212.102 200.903C211.769 200.725 211.508 200.517 211.318 200.278C211.129 200.04 210.983 199.828 210.881 199.642H210.778V204.273H209.08ZM210.744 196.636C210.744 197.25 210.833 197.788 211.011 198.25C211.189 198.712 211.447 199.074 211.784 199.335C212.121 199.593 212.534 199.722 213.023 199.722C213.53 199.722 213.955 199.587 214.295 199.318C214.636 199.045 214.894 198.676 215.068 198.21C215.246 197.744 215.335 197.22 215.335 196.636C215.335 196.061 215.248 195.544 215.074 195.085C214.903 194.627 214.646 194.265 214.301 194C213.96 193.735 213.534 193.602 213.023 193.602C212.53 193.602 212.114 193.729 211.773 193.983C211.436 194.237 211.18 194.591 211.006 195.045C210.831 195.5 210.744 196.03 210.744 196.636ZM223.028 192.273V193.636H218.261V192.273H223.028ZM219.54 190.182H221.239V198.438C221.239 198.767 221.288 199.015 221.386 199.182C221.485 199.345 221.612 199.456 221.767 199.517C221.926 199.574 222.098 199.602 222.284 199.602C222.42 199.602 222.54 199.593 222.642 199.574C222.744 199.555 222.824 199.54 222.881 199.528L223.188 200.932C223.089 200.97 222.949 201.008 222.767 201.045C222.585 201.087 222.358 201.11 222.085 201.114C221.638 201.121 221.222 201.042 220.835 200.875C220.449 200.708 220.136 200.451 219.898 200.102C219.659 199.754 219.54 199.316 219.54 198.79V190.182ZM224.908 201V192.273H226.607V201H224.908ZM225.766 190.926C225.47 190.926 225.216 190.828 225.004 190.631C224.796 190.43 224.692 190.191 224.692 189.915C224.692 189.634 224.796 189.396 225.004 189.199C225.216 188.998 225.47 188.898 225.766 188.898C226.061 188.898 226.313 188.998 226.521 189.199C226.733 189.396 226.839 189.634 226.839 189.915C226.839 190.191 226.733 190.43 226.521 190.631C226.313 190.828 226.061 190.926 225.766 190.926ZM228.892 201V192.273H230.523V193.693H230.631C230.813 193.212 231.11 192.837 231.523 192.568C231.936 192.295 232.43 192.159 233.006 192.159C233.589 192.159 234.078 192.295 234.472 192.568C234.869 192.841 235.163 193.216 235.352 193.693H235.443C235.652 193.227 235.983 192.856 236.438 192.58C236.892 192.299 237.434 192.159 238.062 192.159C238.854 192.159 239.5 192.407 240 192.903C240.504 193.4 240.756 194.148 240.756 195.148V201H239.057V195.307C239.057 194.716 238.896 194.288 238.574 194.023C238.252 193.758 237.867 193.625 237.42 193.625C236.867 193.625 236.438 193.795 236.131 194.136C235.824 194.473 235.67 194.907 235.67 195.438V201H233.977V195.199C233.977 194.725 233.83 194.345 233.534 194.057C233.239 193.769 232.854 193.625 232.381 193.625C232.059 193.625 231.761 193.71 231.489 193.881C231.22 194.047 231.002 194.28 230.835 194.58C230.672 194.879 230.591 195.225 230.591 195.619V201H228.892ZM243.033 201V192.273H244.732V201H243.033ZM243.891 190.926C243.595 190.926 243.341 190.828 243.129 190.631C242.921 190.43 242.817 190.191 242.817 189.915C242.817 189.634 242.921 189.396 243.129 189.199C243.341 188.998 243.595 188.898 243.891 188.898C244.186 188.898 244.438 188.998 244.646 189.199C244.858 189.396 244.964 189.634 244.964 189.915C244.964 190.191 244.858 190.43 244.646 190.631C244.438 190.828 244.186 190.926 243.891 190.926ZM246.835 201V199.835L251.562 193.83V193.75H246.989V192.273H253.682V193.511L249.136 199.443V199.523H253.841V201H246.835ZM258.385 201.193C257.832 201.193 257.332 201.091 256.885 200.886C256.438 200.678 256.084 200.377 255.822 199.983C255.565 199.589 255.436 199.106 255.436 198.534C255.436 198.042 255.531 197.636 255.72 197.318C255.91 197 256.165 196.748 256.487 196.562C256.809 196.377 257.169 196.237 257.567 196.142C257.964 196.047 258.37 195.975 258.783 195.926C259.305 195.866 259.73 195.816 260.055 195.778C260.381 195.737 260.618 195.67 260.766 195.58C260.913 195.489 260.987 195.341 260.987 195.136V195.097C260.987 194.6 260.847 194.216 260.567 193.943C260.29 193.67 259.877 193.534 259.328 193.534C258.756 193.534 258.305 193.661 257.976 193.915C257.65 194.165 257.425 194.443 257.3 194.75L255.703 194.386C255.893 193.856 256.169 193.428 256.533 193.102C256.9 192.773 257.322 192.534 257.8 192.386C258.277 192.235 258.779 192.159 259.305 192.159C259.654 192.159 260.023 192.201 260.413 192.284C260.807 192.364 261.175 192.511 261.516 192.727C261.86 192.943 262.143 193.252 262.362 193.653C262.582 194.051 262.692 194.568 262.692 195.205V201H261.033V199.807H260.964C260.855 200.027 260.69 200.242 260.47 200.455C260.25 200.667 259.968 200.843 259.624 200.983C259.279 201.123 258.866 201.193 258.385 201.193ZM258.754 199.83C259.224 199.83 259.625 199.737 259.959 199.551C260.296 199.366 260.552 199.123 260.726 198.824C260.904 198.521 260.993 198.197 260.993 197.852V196.727C260.932 196.788 260.815 196.845 260.641 196.898C260.47 196.947 260.275 196.991 260.055 197.028C259.836 197.062 259.622 197.095 259.413 197.125C259.205 197.152 259.031 197.174 258.891 197.193C258.561 197.235 258.26 197.305 257.987 197.403C257.718 197.502 257.502 197.644 257.339 197.83C257.18 198.011 257.101 198.254 257.101 198.557C257.101 198.977 257.256 199.295 257.567 199.511C257.877 199.723 258.273 199.83 258.754 199.83ZM269.028 192.273V193.636H264.261V192.273H269.028ZM265.54 190.182H267.239V198.438C267.239 198.767 267.288 199.015 267.386 199.182C267.485 199.345 267.612 199.456 267.767 199.517C267.926 199.574 268.098 199.602 268.284 199.602C268.42 199.602 268.54 199.593 268.642 199.574C268.744 199.555 268.824 199.54 268.881 199.528L269.188 200.932C269.089 200.97 268.949 201.008 268.767 201.045C268.585 201.087 268.358 201.11 268.085 201.114C267.638 201.121 267.222 201.042 266.835 200.875C266.449 200.708 266.136 200.451 265.898 200.102C265.659 199.754 265.54 199.316 265.54 198.79V190.182ZM270.908 201V192.273H272.607V201H270.908ZM271.766 190.926C271.47 190.926 271.216 190.828 271.004 190.631C270.796 190.43 270.692 190.191 270.692 189.915C270.692 189.634 270.796 189.396 271.004 189.199C271.216 188.998 271.47 188.898 271.766 188.898C272.061 188.898 272.313 188.998 272.521 189.199C272.733 189.396 272.839 189.634 272.839 189.915C272.839 190.191 272.733 190.43 272.521 190.631C272.313 190.828 272.061 190.926 271.766 190.926ZM278.568 201.176C277.75 201.176 277.036 200.989 276.426 200.614C275.816 200.239 275.343 199.714 275.006 199.04C274.669 198.366 274.5 197.578 274.5 196.676C274.5 195.771 274.669 194.979 275.006 194.301C275.343 193.623 275.816 193.097 276.426 192.722C277.036 192.347 277.75 192.159 278.568 192.159C279.386 192.159 280.1 192.347 280.71 192.722C281.32 193.097 281.794 193.623 282.131 194.301C282.468 194.979 282.636 195.771 282.636 196.676C282.636 197.578 282.468 198.366 282.131 199.04C281.794 199.714 281.32 200.239 280.71 200.614C280.1 200.989 279.386 201.176 278.568 201.176ZM278.574 199.75C279.104 199.75 279.544 199.61 279.892 199.33C280.241 199.049 280.498 198.676 280.665 198.21C280.835 197.744 280.92 197.231 280.92 196.67C280.92 196.114 280.835 195.602 280.665 195.136C280.498 194.667 280.241 194.29 279.892 194.006C279.544 193.722 279.104 193.58 278.574 193.58C278.04 193.58 277.597 193.722 277.244 194.006C276.896 194.29 276.636 194.667 276.466 195.136C276.299 195.602 276.216 196.114 276.216 196.67C276.216 197.231 276.299 197.744 276.466 198.21C276.636 198.676 276.896 199.049 277.244 199.33C277.597 199.61 278.04 199.75 278.574 199.75ZM286.232 195.818V201H284.533V192.273H286.163V193.693H286.271C286.472 193.231 286.786 192.86 287.214 192.58C287.646 192.299 288.19 192.159 288.845 192.159C289.44 192.159 289.961 192.284 290.408 192.534C290.855 192.78 291.201 193.148 291.447 193.636C291.694 194.125 291.817 194.729 291.817 195.449V201H290.118V195.653C290.118 195.021 289.953 194.527 289.624 194.17C289.294 193.811 288.841 193.631 288.266 193.631C287.872 193.631 287.521 193.716 287.214 193.886C286.911 194.057 286.671 194.307 286.493 194.636C286.319 194.962 286.232 195.356 286.232 195.818Z" fill="#1A1A1A"/>
<rect x="119" y="173" width="276" height="44" rx="5" stroke="#1A1A1A" stroke-opacity="0.5" stroke-width="0.5"/>
<path opacity="0.7" d="M123.375 244H120.233V233.818H123.514C124.502 233.818 125.347 234.022 126.05 234.43C126.752 234.834 127.291 235.416 127.665 236.175C128.04 236.93 128.227 237.835 128.227 238.889C128.227 239.95 128.038 240.863 127.661 241.629C127.283 242.391 126.732 242.978 126.01 243.388C125.287 243.796 124.409 244 123.375 244ZM121.466 242.906H123.295C124.137 242.906 124.835 242.744 125.388 242.419C125.942 242.094 126.355 241.632 126.626 241.032C126.898 240.432 127.034 239.718 127.034 238.889C127.034 238.067 126.9 237.36 126.631 236.766C126.363 236.17 125.962 235.712 125.428 235.394C124.895 235.073 124.23 234.912 123.435 234.912H121.466V242.906ZM133.338 244.159C132.602 244.159 131.968 243.997 131.434 243.672C130.904 243.344 130.494 242.886 130.206 242.3C129.921 241.71 129.778 241.024 129.778 240.241C129.778 239.459 129.921 238.77 130.206 238.173C130.494 237.573 130.895 237.106 131.409 236.771C131.926 236.433 132.529 236.264 133.219 236.264C133.616 236.264 134.009 236.33 134.397 236.463C134.785 236.596 135.138 236.811 135.456 237.109C135.774 237.404 136.028 237.795 136.217 238.283C136.406 238.77 136.5 239.37 136.5 240.082V240.58H130.614V239.565H135.307C135.307 239.134 135.221 238.75 135.048 238.412C134.879 238.074 134.637 237.807 134.322 237.612C134.011 237.416 133.643 237.318 133.219 237.318C132.751 237.318 132.347 237.434 132.006 237.666C131.668 237.895 131.407 238.193 131.225 238.561C131.043 238.929 130.952 239.323 130.952 239.744V240.42C130.952 240.997 131.051 241.486 131.25 241.887C131.452 242.285 131.732 242.588 132.09 242.797C132.448 243.002 132.864 243.105 133.338 243.105C133.646 243.105 133.925 243.062 134.173 242.976C134.425 242.886 134.642 242.754 134.825 242.578C135.007 242.399 135.148 242.177 135.247 241.912L136.381 242.23C136.261 242.615 136.061 242.953 135.779 243.244C135.497 243.533 135.149 243.758 134.735 243.92C134.321 244.08 133.855 244.159 133.338 244.159ZM140.532 244.179C140.048 244.179 139.609 244.088 139.214 243.906C138.82 243.72 138.507 243.453 138.275 243.105C138.043 242.754 137.927 242.33 137.927 241.832C137.927 241.395 138.013 241.04 138.185 240.768C138.358 240.493 138.588 240.278 138.876 240.122C139.165 239.966 139.483 239.85 139.831 239.774C140.182 239.695 140.535 239.632 140.89 239.585C141.354 239.526 141.73 239.481 142.018 239.451C142.31 239.418 142.522 239.363 142.655 239.287C142.791 239.211 142.859 239.078 142.859 238.889V238.849C142.859 238.359 142.724 237.978 142.456 237.706C142.191 237.434 141.788 237.298 141.248 237.298C140.688 237.298 140.249 237.421 139.93 237.666C139.612 237.911 139.388 238.173 139.259 238.452L138.146 238.054C138.344 237.59 138.61 237.229 138.941 236.97C139.276 236.708 139.64 236.526 140.035 236.423C140.433 236.317 140.824 236.264 141.208 236.264C141.453 236.264 141.735 236.294 142.053 236.354C142.375 236.41 142.685 236.528 142.983 236.707C143.285 236.886 143.535 237.156 143.734 237.517C143.933 237.878 144.032 238.362 144.032 238.969V244H142.859V242.966H142.799C142.719 243.132 142.587 243.309 142.401 243.498C142.216 243.687 141.969 243.848 141.661 243.98C141.352 244.113 140.976 244.179 140.532 244.179ZM140.711 243.125C141.175 243.125 141.566 243.034 141.884 242.852C142.206 242.669 142.448 242.434 142.61 242.146C142.776 241.857 142.859 241.554 142.859 241.236V240.162C142.809 240.222 142.7 240.276 142.531 240.326C142.365 240.372 142.173 240.414 141.954 240.45C141.738 240.483 141.528 240.513 141.322 240.54C141.12 240.563 140.956 240.583 140.83 240.599C140.525 240.639 140.24 240.704 139.975 240.793C139.713 240.879 139.501 241.01 139.339 241.186C139.18 241.358 139.1 241.594 139.1 241.892C139.1 242.3 139.251 242.608 139.553 242.817C139.857 243.022 140.244 243.125 140.711 243.125ZM149.057 244.159C148.421 244.159 147.859 243.998 147.372 243.677C146.884 243.352 146.503 242.895 146.228 242.305C145.953 241.711 145.816 241.01 145.816 240.202C145.816 239.4 145.953 238.704 146.228 238.114C146.503 237.524 146.886 237.068 147.377 236.746C147.867 236.425 148.434 236.264 149.077 236.264C149.574 236.264 149.967 236.347 150.255 236.513C150.547 236.675 150.769 236.861 150.921 237.07C151.077 237.275 151.198 237.444 151.284 237.577H151.384V233.818H152.557V244H151.423V242.827H151.284C151.198 242.966 151.075 243.142 150.916 243.354C150.757 243.562 150.53 243.75 150.235 243.915C149.94 244.078 149.548 244.159 149.057 244.159ZM149.216 243.105C149.687 243.105 150.084 242.982 150.409 242.737C150.734 242.489 150.981 242.146 151.15 241.708C151.319 241.267 151.404 240.759 151.404 240.182C151.404 239.612 151.321 239.113 151.155 238.685C150.989 238.254 150.744 237.92 150.419 237.681C150.094 237.439 149.693 237.318 149.216 237.318C148.719 237.318 148.305 237.446 147.973 237.701C147.645 237.953 147.398 238.296 147.232 238.73C147.07 239.161 146.989 239.645 146.989 240.182C146.989 240.725 147.072 241.219 147.237 241.663C147.406 242.104 147.655 242.455 147.983 242.717C148.315 242.976 148.726 243.105 149.216 243.105ZM156.042 233.818V244H154.869V233.818H156.042ZM158.191 244V236.364H159.364V244H158.191ZM158.788 235.091C158.559 235.091 158.362 235.013 158.196 234.857C158.034 234.701 157.952 234.514 157.952 234.295C157.952 234.077 158.034 233.889 158.196 233.734C158.362 233.578 158.559 233.5 158.788 233.5C159.016 233.5 159.212 233.578 159.374 233.734C159.54 233.889 159.623 234.077 159.623 234.295C159.623 234.514 159.54 234.701 159.374 234.857C159.212 235.013 159.016 235.091 158.788 235.091ZM162.687 239.406V244H161.513V236.364H162.647V237.557H162.746C162.925 237.169 163.197 236.857 163.562 236.622C163.926 236.384 164.397 236.264 164.974 236.264C165.491 236.264 165.943 236.37 166.331 236.582C166.719 236.791 167.02 237.109 167.236 237.537C167.451 237.961 167.559 238.498 167.559 239.148V244H166.385V239.227C166.385 238.627 166.23 238.16 165.918 237.825C165.607 237.487 165.179 237.318 164.635 237.318C164.261 237.318 163.926 237.399 163.631 237.562C163.34 237.724 163.109 237.961 162.94 238.273C162.771 238.584 162.687 238.962 162.687 239.406ZM172.904 244.159C172.169 244.159 171.534 243.997 171 243.672C170.47 243.344 170.061 242.886 169.772 242.3C169.487 241.71 169.345 241.024 169.345 240.241C169.345 239.459 169.487 238.77 169.772 238.173C170.061 237.573 170.462 237.106 170.975 236.771C171.493 236.433 172.096 236.264 172.785 236.264C173.183 236.264 173.576 236.33 173.963 236.463C174.351 236.596 174.704 236.811 175.022 237.109C175.341 237.404 175.594 237.795 175.783 238.283C175.972 238.77 176.066 239.37 176.066 240.082V240.58H170.18V239.565H174.873C174.873 239.134 174.787 238.75 174.615 238.412C174.446 238.074 174.204 237.807 173.889 237.612C173.577 237.416 173.209 237.318 172.785 237.318C172.318 237.318 171.913 237.434 171.572 237.666C171.234 237.895 170.974 238.193 170.792 238.561C170.609 238.929 170.518 239.323 170.518 239.744V240.42C170.518 240.997 170.618 241.486 170.816 241.887C171.019 242.285 171.299 242.588 171.657 242.797C172.015 243.002 172.431 243.105 172.904 243.105C173.213 243.105 173.491 243.062 173.74 242.976C173.992 242.886 174.209 242.754 174.391 242.578C174.573 242.399 174.714 242.177 174.814 241.912L175.947 242.23C175.828 242.615 175.627 242.953 175.346 243.244C175.064 243.533 174.716 243.758 174.301 243.92C173.887 244.08 173.422 244.159 172.904 244.159Z" fill="#1A1A1A"/>
<path d="M131.96 281.159C131.248 281.159 130.608 281.023 130.04 280.75C129.475 280.473 129.025 280.095 128.688 279.614C128.35 279.133 128.17 278.583 128.148 277.966H129.852C129.894 278.466 130.116 278.877 130.517 279.199C130.919 279.521 131.4 279.682 131.96 279.682C132.407 279.682 132.803 279.58 133.148 279.375C133.496 279.167 133.769 278.881 133.966 278.517C134.167 278.153 134.267 277.739 134.267 277.273C134.267 276.799 134.165 276.377 133.96 276.006C133.756 275.634 133.473 275.343 133.114 275.131C132.758 274.919 132.348 274.811 131.886 274.807C131.534 274.807 131.18 274.867 130.824 274.989C130.468 275.11 130.18 275.269 129.96 275.466L128.352 275.227L129.006 269.364H135.403V270.869H130.466L130.097 274.125H130.165C130.392 273.905 130.693 273.722 131.068 273.574C131.447 273.426 131.852 273.352 132.284 273.352C132.992 273.352 133.623 273.521 134.176 273.858C134.733 274.195 135.17 274.655 135.489 275.239C135.811 275.818 135.97 276.485 135.966 277.239C135.97 277.992 135.799 278.665 135.455 279.256C135.114 279.847 134.64 280.312 134.034 280.653C133.432 280.991 132.741 281.159 131.96 281.159ZM145.565 281.17C144.861 281.17 144.232 280.991 143.679 280.631C143.13 280.267 142.698 279.75 142.384 279.08C142.073 278.405 141.918 277.597 141.918 276.653C141.918 275.71 142.075 274.903 142.389 274.233C142.707 273.562 143.143 273.049 143.696 272.693C144.249 272.337 144.876 272.159 145.577 272.159C146.118 272.159 146.554 272.25 146.884 272.432C147.217 272.61 147.474 272.818 147.656 273.057C147.842 273.295 147.986 273.506 148.088 273.688H148.19V269.364H149.889V281H148.23V279.642H148.088C147.986 279.828 147.838 280.04 147.645 280.278C147.455 280.517 147.194 280.725 146.861 280.903C146.527 281.081 146.096 281.17 145.565 281.17ZM145.94 279.722C146.429 279.722 146.842 279.593 147.179 279.335C147.52 279.074 147.777 278.712 147.952 278.25C148.13 277.788 148.219 277.25 148.219 276.636C148.219 276.03 148.132 275.5 147.957 275.045C147.783 274.591 147.527 274.237 147.19 273.983C146.853 273.729 146.437 273.602 145.94 273.602C145.429 273.602 145.003 273.735 144.662 274C144.321 274.265 144.063 274.627 143.889 275.085C143.719 275.544 143.634 276.061 143.634 276.636C143.634 277.22 143.721 277.744 143.895 278.21C144.069 278.676 144.327 279.045 144.668 279.318C145.012 279.587 145.437 279.722 145.94 279.722ZM154.854 281.193C154.301 281.193 153.801 281.091 153.354 280.886C152.907 280.678 152.553 280.377 152.291 279.983C152.034 279.589 151.905 279.106 151.905 278.534C151.905 278.042 152 277.636 152.189 277.318C152.378 277 152.634 276.748 152.956 276.562C153.278 276.377 153.638 276.237 154.036 276.142C154.433 276.047 154.839 275.975 155.251 275.926C155.774 275.866 156.198 275.816 156.524 275.778C156.85 275.737 157.087 275.67 157.234 275.58C157.382 275.489 157.456 275.341 157.456 275.136V275.097C157.456 274.6 157.316 274.216 157.036 273.943C156.759 273.67 156.346 273.534 155.797 273.534C155.225 273.534 154.774 273.661 154.445 273.915C154.119 274.165 153.893 274.443 153.768 274.75L152.172 274.386C152.361 273.856 152.638 273.428 153.001 273.102C153.369 272.773 153.791 272.534 154.268 272.386C154.746 272.235 155.248 272.159 155.774 272.159C156.123 272.159 156.492 272.201 156.882 272.284C157.276 272.364 157.643 272.511 157.984 272.727C158.329 272.943 158.611 273.252 158.831 273.653C159.051 274.051 159.161 274.568 159.161 275.205V281H157.501V279.807H157.433C157.323 280.027 157.159 280.242 156.939 280.455C156.719 280.667 156.437 280.843 156.092 280.983C155.748 281.123 155.335 281.193 154.854 281.193ZM155.223 279.83C155.693 279.83 156.094 279.737 156.428 279.551C156.765 279.366 157.02 279.123 157.195 278.824C157.373 278.521 157.462 278.197 157.462 277.852V276.727C157.401 276.788 157.284 276.845 157.109 276.898C156.939 276.947 156.744 276.991 156.524 277.028C156.304 277.062 156.09 277.095 155.882 277.125C155.674 277.152 155.5 277.174 155.359 277.193C155.03 277.235 154.729 277.305 154.456 277.403C154.187 277.502 153.971 277.644 153.808 277.83C153.649 278.011 153.57 278.254 153.57 278.557C153.57 278.977 153.725 279.295 154.036 279.511C154.346 279.723 154.742 279.83 155.223 279.83ZM162.185 284.273C161.931 284.273 161.7 284.252 161.491 284.21C161.283 284.172 161.128 284.131 161.026 284.085L161.435 282.693C161.745 282.777 162.022 282.813 162.264 282.801C162.507 282.79 162.721 282.699 162.906 282.528C163.096 282.358 163.262 282.08 163.406 281.693L163.616 281.114L160.423 272.273H162.241L164.452 279.045H164.543L166.753 272.273H168.577L164.98 282.165C164.813 282.619 164.601 283.004 164.344 283.318C164.086 283.636 163.779 283.875 163.423 284.034C163.067 284.193 162.654 284.273 162.185 284.273ZM176.713 274.403L175.173 274.676C175.109 274.479 175.007 274.292 174.866 274.114C174.73 273.936 174.545 273.79 174.31 273.676C174.075 273.562 173.781 273.506 173.429 273.506C172.948 273.506 172.546 273.614 172.224 273.83C171.902 274.042 171.741 274.316 171.741 274.653C171.741 274.945 171.849 275.18 172.065 275.358C172.281 275.536 172.63 275.682 173.111 275.795L174.497 276.114C175.3 276.299 175.899 276.585 176.293 276.972C176.687 277.358 176.884 277.86 176.884 278.477C176.884 279 176.732 279.466 176.429 279.875C176.13 280.28 175.711 280.598 175.173 280.83C174.639 281.061 174.02 281.176 173.315 281.176C172.338 281.176 171.541 280.968 170.923 280.551C170.306 280.131 169.927 279.534 169.787 278.761L171.429 278.511C171.531 278.939 171.741 279.263 172.06 279.483C172.378 279.699 172.793 279.807 173.304 279.807C173.861 279.807 174.306 279.691 174.639 279.46C174.973 279.225 175.139 278.939 175.139 278.602C175.139 278.33 175.037 278.1 174.832 277.915C174.632 277.729 174.323 277.589 173.906 277.494L172.429 277.17C171.615 276.985 171.012 276.689 170.622 276.284C170.236 275.879 170.043 275.366 170.043 274.744C170.043 274.229 170.187 273.778 170.474 273.392C170.762 273.006 171.16 272.705 171.668 272.489C172.175 272.269 172.757 272.159 173.412 272.159C174.355 272.159 175.098 272.364 175.639 272.773C176.181 273.178 176.539 273.722 176.713 274.403Z" fill="#1A1A1A"/>
<path opacity="0.8" d="M357.057 279V270.273H362.29V271.21H358.114V274.159H361.898V275.097H358.114V279H357.057ZM363.963 279V272.455H364.969V279H363.963ZM364.475 271.364C364.279 271.364 364.11 271.297 363.968 271.163C363.828 271.03 363.759 270.869 363.759 270.682C363.759 270.494 363.828 270.334 363.968 270.2C364.11 270.067 364.279 270 364.475 270C364.671 270 364.838 270.067 364.978 270.2C365.12 270.334 365.191 270.494 365.191 270.682C365.191 270.869 365.12 271.03 364.978 271.163C364.838 271.297 364.671 271.364 364.475 271.364ZM367.561 272.455L369.129 275.131L370.697 272.455H371.857L369.743 275.727L371.857 279H370.697L369.129 276.46L367.561 279H366.402L368.482 275.727L366.402 272.455H367.561ZM375.766 279.136C375.136 279.136 374.592 278.997 374.134 278.719C373.68 278.438 373.329 278.045 373.082 277.543C372.837 277.037 372.715 276.449 372.715 275.778C372.715 275.108 372.837 274.517 373.082 274.006C373.329 273.491 373.673 273.091 374.113 272.804C374.556 272.514 375.073 272.369 375.664 272.369C376.005 272.369 376.342 272.426 376.674 272.54C377.006 272.653 377.309 272.838 377.582 273.094C377.854 273.347 378.072 273.682 378.234 274.099C378.396 274.517 378.477 275.031 378.477 275.642V276.068H373.431V275.199H377.454C377.454 274.83 377.38 274.5 377.232 274.21C377.087 273.92 376.88 273.692 376.61 273.524C376.343 273.357 376.028 273.273 375.664 273.273C375.263 273.273 374.917 273.372 374.624 273.571C374.335 273.767 374.112 274.023 373.955 274.338C373.799 274.653 373.721 274.991 373.721 275.352V275.932C373.721 276.426 373.806 276.845 373.977 277.189C374.15 277.53 374.39 277.79 374.697 277.969C375.004 278.145 375.36 278.233 375.766 278.233C376.031 278.233 376.269 278.196 376.482 278.122C376.698 278.045 376.884 277.932 377.04 277.781C377.197 277.628 377.317 277.437 377.403 277.21L378.374 277.483C378.272 277.812 378.1 278.102 377.859 278.352C377.617 278.599 377.319 278.793 376.964 278.932C376.609 279.068 376.21 279.136 375.766 279.136ZM382.478 279.136C381.933 279.136 381.451 278.999 381.033 278.723C380.616 278.445 380.289 278.053 380.053 277.547C379.817 277.038 379.7 276.438 379.7 275.744C379.7 275.057 379.817 274.46 380.053 273.955C380.289 273.449 380.617 273.058 381.038 272.783C381.458 272.507 381.944 272.369 382.495 272.369C382.921 272.369 383.258 272.44 383.505 272.582C383.755 272.722 383.945 272.881 384.076 273.06C384.21 273.236 384.313 273.381 384.387 273.494H384.472V270.273H385.478V279H384.506V277.994H384.387C384.313 278.114 384.208 278.264 384.072 278.446C383.935 278.625 383.741 278.786 383.488 278.928C383.235 279.067 382.898 279.136 382.478 279.136ZM382.614 278.233C383.018 278.233 383.359 278.128 383.637 277.918C383.915 277.705 384.127 277.411 384.272 277.036C384.417 276.658 384.489 276.222 384.489 275.727C384.489 275.239 384.418 274.811 384.276 274.445C384.134 274.075 383.924 273.788 383.646 273.584C383.367 273.376 383.023 273.273 382.614 273.273C382.188 273.273 381.833 273.382 381.549 273.601C381.268 273.817 381.056 274.111 380.914 274.483C380.775 274.852 380.705 275.267 380.705 275.727C380.705 276.193 380.776 276.616 380.918 276.997C381.063 277.375 381.276 277.676 381.558 277.901C381.842 278.122 382.194 278.233 382.614 278.233Z" fill="#1A1A1A"/>
<rect x="119" y="253" width="276" height="44" rx="5" stroke="#1A1A1A" stroke-opacity="0.5" stroke-width="0.5"/>
<path d="M132.411 340.69V341.969H119.371V340.69H132.411ZM132.411 343.452V344.73H119.371V343.452H132.411ZM131.177 335.909V349H129.355L122.701 339.399H122.586V349H120.604V335.909H122.439L129.093 345.523H129.214V335.909H131.177ZM139.007 335.909V349H137.026V337.891H136.949L133.817 339.936V338.044L137.083 335.909H139.007ZM146.869 349.179C146.068 349.179 145.348 349.026 144.709 348.719C144.074 348.408 143.567 347.982 143.188 347.44C142.808 346.899 142.606 346.281 142.58 345.587H144.498C144.545 346.149 144.794 346.612 145.246 346.974C145.697 347.336 146.239 347.517 146.869 347.517C147.372 347.517 147.817 347.402 148.205 347.172C148.597 346.938 148.904 346.616 149.126 346.207C149.352 345.798 149.464 345.331 149.464 344.807C149.464 344.274 149.349 343.799 149.119 343.381C148.889 342.964 148.572 342.636 148.167 342.397C147.766 342.158 147.306 342.037 146.786 342.033C146.39 342.033 145.991 342.101 145.591 342.237C145.19 342.374 144.866 342.553 144.619 342.774L142.81 342.506L143.545 335.909H150.743V337.603H145.188L144.773 341.266H144.849C145.105 341.018 145.444 340.812 145.866 340.646C146.292 340.479 146.748 340.396 147.234 340.396C148.031 340.396 148.74 340.586 149.362 340.965C149.989 341.344 150.481 341.862 150.839 342.518C151.201 343.17 151.38 343.92 151.376 344.768C151.38 345.616 151.188 346.373 150.8 347.038C150.417 347.702 149.884 348.227 149.202 348.61C148.525 348.989 147.747 349.179 146.869 349.179ZM155.748 347.21L155.652 347.907C155.588 348.418 155.479 348.951 155.326 349.505C155.177 350.063 155.021 350.581 154.859 351.058C154.702 351.536 154.572 351.915 154.469 352.196H153.114C153.17 351.932 153.246 351.574 153.344 351.122C153.442 350.675 153.538 350.174 153.632 349.62C153.726 349.066 153.796 348.501 153.843 347.926L153.907 347.21H155.748ZM162.504 349.217C161.494 349.213 160.631 348.947 159.915 348.418C159.2 347.89 158.652 347.121 158.273 346.111C157.893 345.101 157.704 343.884 157.704 342.461C157.704 341.042 157.893 339.83 158.273 338.824C158.656 337.818 159.206 337.051 159.922 336.523C160.642 335.994 161.503 335.73 162.504 335.73C163.506 335.73 164.364 335.996 165.08 336.529C165.796 337.058 166.344 337.825 166.723 338.83C167.107 339.832 167.298 341.042 167.298 342.461C167.298 343.888 167.109 345.107 166.729 346.117C166.35 347.123 165.803 347.892 165.087 348.425C164.371 348.953 163.51 349.217 162.504 349.217ZM162.504 347.511C163.391 347.511 164.083 347.078 164.582 346.213C165.085 345.348 165.336 344.097 165.336 342.461C165.336 341.374 165.221 340.456 164.991 339.706C164.765 338.952 164.439 338.381 164.013 337.993C163.591 337.601 163.088 337.405 162.504 337.405C161.622 337.405 160.93 337.839 160.427 338.709C159.924 339.578 159.67 340.829 159.666 342.461C159.666 343.552 159.779 344.474 160.005 345.229C160.235 345.979 160.561 346.548 160.983 346.935C161.405 347.319 161.912 347.511 162.504 347.511ZM174.123 349.217C173.113 349.213 172.251 348.947 171.535 348.418C170.819 347.89 170.271 347.121 169.892 346.111C169.513 345.101 169.323 343.884 169.323 342.461C169.323 341.042 169.513 339.83 169.892 338.824C170.275 337.818 170.825 337.051 171.541 336.523C172.261 335.994 173.122 335.73 174.123 335.73C175.125 335.73 175.983 335.996 176.699 336.529C177.415 337.058 177.963 337.825 178.342 338.83C178.726 339.832 178.917 341.042 178.917 342.461C178.917 343.888 178.728 345.107 178.349 346.117C177.969 347.123 177.422 347.892 176.706 348.425C175.99 348.953 175.129 349.217 174.123 349.217ZM174.123 347.511C175.01 347.511 175.702 347.078 176.201 346.213C176.704 345.348 176.955 344.097 176.955 342.461C176.955 341.374 176.84 340.456 176.61 339.706C176.384 338.952 176.058 338.381 175.632 337.993C175.21 337.601 174.707 337.405 174.123 337.405C173.241 337.405 172.549 337.839 172.046 338.709C171.543 339.578 171.29 340.829 171.285 342.461C171.285 343.552 171.398 344.474 171.624 345.229C171.854 345.979 172.18 346.548 172.602 346.935C173.024 347.319 173.531 347.511 174.123 347.511ZM185.743 349.217C184.733 349.213 183.87 348.947 183.154 348.418C182.438 347.89 181.89 347.121 181.511 346.111C181.132 345.101 180.942 343.884 180.942 342.461C180.942 341.042 181.132 339.83 181.511 338.824C181.895 337.818 182.444 337.051 183.16 336.523C183.88 335.994 184.741 335.73 185.743 335.73C186.744 335.73 187.603 335.996 188.319 336.529C189.034 337.058 189.582 337.825 189.961 338.83C190.345 339.832 190.537 341.042 190.537 342.461C190.537 343.888 190.347 345.107 189.968 346.117C189.588 347.123 189.041 347.892 188.325 348.425C187.609 348.953 186.748 349.217 185.743 349.217ZM185.743 347.511C186.629 347.511 187.321 347.078 187.82 346.213C188.323 345.348 188.574 344.097 188.574 342.461C188.574 341.374 188.459 340.456 188.229 339.706C188.003 338.952 187.677 338.381 187.251 337.993C186.829 337.601 186.326 337.405 185.743 337.405C184.86 337.405 184.168 337.839 183.665 338.709C183.162 339.578 182.909 340.829 182.904 342.461C182.904 343.552 183.017 344.474 183.243 345.229C183.473 345.979 183.799 346.548 184.221 346.935C184.643 347.319 185.15 347.511 185.743 347.511Z" fill="#1A1A1A"/>
<path d="M228 342C228 328.745 238.745 318 252 318H370C383.255 318 394 328.745 394 342C394 355.255 383.255 366 370 366H252C238.745 366 228 355.255 228 342Z" fill="url(#paint2_linear_3300_6649)"/>
<path d="M257.278 348V336.364H261.426C262.331 336.364 263.081 336.528 263.676 336.858C264.271 337.187 264.716 337.638 265.011 338.21C265.307 338.778 265.455 339.419 265.455 340.131C265.455 340.847 265.305 341.491 265.006 342.062C264.71 342.631 264.263 343.081 263.665 343.415C263.07 343.744 262.322 343.909 261.42 343.909H258.568V342.42H261.261C261.833 342.42 262.297 342.322 262.653 342.125C263.009 341.924 263.271 341.652 263.438 341.307C263.604 340.962 263.688 340.57 263.688 340.131C263.688 339.691 263.604 339.301 263.438 338.96C263.271 338.619 263.008 338.352 262.648 338.159C262.292 337.966 261.822 337.869 261.239 337.869H259.034V348H257.278ZM269.075 336.364V348H267.376V336.364H269.075ZM273.901 348.193C273.348 348.193 272.848 348.091 272.401 347.886C271.954 347.678 271.599 347.377 271.338 346.983C271.08 346.589 270.952 346.106 270.952 345.534C270.952 345.042 271.046 344.636 271.236 344.318C271.425 344 271.681 343.748 272.003 343.562C272.325 343.377 272.685 343.237 273.082 343.142C273.48 343.047 273.885 342.975 274.298 342.926C274.821 342.866 275.245 342.816 275.571 342.778C275.897 342.737 276.134 342.67 276.281 342.58C276.429 342.489 276.503 342.341 276.503 342.136V342.097C276.503 341.6 276.363 341.216 276.082 340.943C275.806 340.67 275.393 340.534 274.844 340.534C274.272 340.534 273.821 340.661 273.491 340.915C273.166 341.165 272.94 341.443 272.815 341.75L271.219 341.386C271.408 340.856 271.685 340.428 272.048 340.102C272.416 339.773 272.838 339.534 273.315 339.386C273.793 339.235 274.295 339.159 274.821 339.159C275.17 339.159 275.539 339.201 275.929 339.284C276.323 339.364 276.69 339.511 277.031 339.727C277.376 339.943 277.658 340.252 277.878 340.653C278.098 341.051 278.207 341.568 278.207 342.205V348H276.548V346.807H276.48C276.37 347.027 276.205 347.242 275.986 347.455C275.766 347.667 275.484 347.843 275.139 347.983C274.795 348.123 274.382 348.193 273.901 348.193ZM274.27 346.83C274.74 346.83 275.141 346.737 275.474 346.551C275.812 346.366 276.067 346.123 276.241 345.824C276.42 345.521 276.509 345.197 276.509 344.852V343.727C276.448 343.788 276.33 343.845 276.156 343.898C275.986 343.947 275.791 343.991 275.571 344.028C275.351 344.062 275.137 344.095 274.929 344.125C274.721 344.152 274.546 344.174 274.406 344.193C274.077 344.235 273.776 344.305 273.503 344.403C273.234 344.502 273.018 344.644 272.855 344.83C272.696 345.011 272.616 345.254 272.616 345.557C272.616 345.977 272.772 346.295 273.082 346.511C273.393 346.723 273.789 346.83 274.27 346.83ZM284.146 348.176C283.302 348.176 282.574 347.985 281.964 347.602C281.358 347.216 280.893 346.684 280.567 346.006C280.241 345.328 280.078 344.551 280.078 343.676C280.078 342.79 280.245 342.008 280.578 341.33C280.911 340.648 281.381 340.116 281.987 339.733C282.593 339.35 283.307 339.159 284.129 339.159C284.792 339.159 285.383 339.282 285.902 339.528C286.421 339.771 286.839 340.112 287.158 340.551C287.48 340.991 287.671 341.504 287.732 342.091H286.078C285.987 341.682 285.779 341.33 285.453 341.034C285.131 340.739 284.699 340.591 284.158 340.591C283.684 340.591 283.269 340.716 282.913 340.966C282.561 341.212 282.286 341.564 282.089 342.023C281.893 342.477 281.794 343.015 281.794 343.636C281.794 344.273 281.891 344.822 282.084 345.284C282.277 345.746 282.55 346.104 282.902 346.358C283.258 346.612 283.677 346.739 284.158 346.739C284.48 346.739 284.771 346.68 285.033 346.562C285.298 346.441 285.519 346.269 285.697 346.045C285.879 345.822 286.006 345.553 286.078 345.239H287.732C287.671 345.803 287.487 346.307 287.18 346.75C286.874 347.193 286.463 347.542 285.947 347.795C285.436 348.049 284.836 348.176 284.146 348.176ZM293.31 348.176C292.45 348.176 291.709 347.992 291.088 347.625C290.471 347.254 289.993 346.733 289.656 346.062C289.323 345.388 289.156 344.598 289.156 343.693C289.156 342.799 289.323 342.011 289.656 341.33C289.993 340.648 290.463 340.116 291.065 339.733C291.671 339.35 292.38 339.159 293.19 339.159C293.683 339.159 294.16 339.241 294.622 339.403C295.084 339.566 295.499 339.822 295.866 340.17C296.234 340.519 296.524 340.972 296.736 341.528C296.948 342.081 297.054 342.754 297.054 343.545V344.148H290.116V342.875H295.389C295.389 342.428 295.298 342.032 295.116 341.688C294.935 341.339 294.679 341.064 294.349 340.864C294.024 340.663 293.641 340.562 293.202 340.562C292.724 340.562 292.308 340.68 291.952 340.915C291.599 341.146 291.327 341.449 291.134 341.824C290.944 342.195 290.849 342.598 290.849 343.034V344.028C290.849 344.612 290.952 345.108 291.156 345.517C291.365 345.926 291.654 346.239 292.026 346.455C292.397 346.667 292.83 346.773 293.327 346.773C293.649 346.773 293.942 346.727 294.207 346.636C294.473 346.542 294.702 346.402 294.895 346.216C295.088 346.03 295.236 345.801 295.338 345.528L296.946 345.818C296.817 346.292 296.586 346.706 296.253 347.062C295.923 347.415 295.509 347.689 295.009 347.886C294.512 348.08 293.946 348.176 293.31 348.176ZM305.713 348.193C305.16 348.193 304.66 348.091 304.213 347.886C303.766 347.678 303.412 347.377 303.151 346.983C302.893 346.589 302.764 346.106 302.764 345.534C302.764 345.042 302.859 344.636 303.048 344.318C303.238 344 303.493 343.748 303.815 343.562C304.137 343.377 304.497 343.237 304.895 343.142C305.293 343.047 305.698 342.975 306.111 342.926C306.634 342.866 307.058 342.816 307.384 342.778C307.709 342.737 307.946 342.67 308.094 342.58C308.241 342.489 308.315 342.341 308.315 342.136V342.097C308.315 341.6 308.175 341.216 307.895 340.943C307.618 340.67 307.205 340.534 306.656 340.534C306.084 340.534 305.634 340.661 305.304 340.915C304.978 341.165 304.753 341.443 304.628 341.75L303.031 341.386C303.221 340.856 303.497 340.428 303.861 340.102C304.228 339.773 304.651 339.534 305.128 339.386C305.605 339.235 306.107 339.159 306.634 339.159C306.982 339.159 307.351 339.201 307.741 339.284C308.135 339.364 308.503 339.511 308.844 339.727C309.188 339.943 309.471 340.252 309.69 340.653C309.91 341.051 310.02 341.568 310.02 342.205V348H308.361V346.807H308.293C308.183 347.027 308.018 347.242 307.798 347.455C307.579 347.667 307.296 347.843 306.952 347.983C306.607 348.123 306.194 348.193 305.713 348.193ZM306.082 346.83C306.552 346.83 306.954 346.737 307.287 346.551C307.624 346.366 307.88 346.123 308.054 345.824C308.232 345.521 308.321 345.197 308.321 344.852V343.727C308.26 343.788 308.143 343.845 307.969 343.898C307.798 343.947 307.603 343.991 307.384 344.028C307.164 344.062 306.95 344.095 306.741 344.125C306.533 344.152 306.359 344.174 306.219 344.193C305.889 344.235 305.588 344.305 305.315 344.403C305.046 344.502 304.83 344.644 304.668 344.83C304.509 345.011 304.429 345.254 304.429 345.557C304.429 345.977 304.584 346.295 304.895 346.511C305.205 346.723 305.601 346.83 306.082 346.83ZM313.982 342.818V348H312.283V339.273H313.913V340.693H314.021C314.222 340.231 314.536 339.86 314.964 339.58C315.396 339.299 315.94 339.159 316.595 339.159C317.19 339.159 317.711 339.284 318.158 339.534C318.605 339.78 318.951 340.148 319.197 340.636C319.444 341.125 319.567 341.729 319.567 342.449V348H317.868V342.653C317.868 342.021 317.703 341.527 317.374 341.17C317.044 340.811 316.591 340.631 316.016 340.631C315.622 340.631 315.271 340.716 314.964 340.886C314.661 341.057 314.421 341.307 314.243 341.636C314.069 341.962 313.982 342.356 313.982 342.818ZM329.756 348.176C328.938 348.176 328.223 347.989 327.614 347.614C327.004 347.239 326.53 346.714 326.193 346.04C325.856 345.366 325.688 344.578 325.688 343.676C325.688 342.771 325.856 341.979 326.193 341.301C326.53 340.623 327.004 340.097 327.614 339.722C328.223 339.347 328.938 339.159 329.756 339.159C330.574 339.159 331.288 339.347 331.898 339.722C332.508 340.097 332.981 340.623 333.318 341.301C333.655 341.979 333.824 342.771 333.824 343.676C333.824 344.578 333.655 345.366 333.318 346.04C332.981 346.714 332.508 347.239 331.898 347.614C331.288 347.989 330.574 348.176 329.756 348.176ZM329.761 346.75C330.292 346.75 330.731 346.61 331.08 346.33C331.428 346.049 331.686 345.676 331.852 345.21C332.023 344.744 332.108 344.231 332.108 343.67C332.108 343.114 332.023 342.602 331.852 342.136C331.686 341.667 331.428 341.29 331.08 341.006C330.731 340.722 330.292 340.58 329.761 340.58C329.227 340.58 328.784 340.722 328.432 341.006C328.083 341.29 327.824 341.667 327.653 342.136C327.487 342.602 327.403 343.114 327.403 343.67C327.403 344.231 327.487 344.744 327.653 345.21C327.824 345.676 328.083 346.049 328.432 346.33C328.784 346.61 329.227 346.75 329.761 346.75ZM335.72 348V339.273H337.362V340.659H337.453C337.612 340.189 337.893 339.82 338.294 339.551C338.699 339.278 339.158 339.142 339.669 339.142C339.775 339.142 339.9 339.146 340.044 339.153C340.192 339.161 340.307 339.17 340.391 339.182V340.807C340.322 340.788 340.201 340.767 340.027 340.744C339.853 340.718 339.679 340.705 339.504 340.705C339.103 340.705 338.745 340.79 338.43 340.96C338.12 341.127 337.874 341.36 337.692 341.659C337.51 341.955 337.419 342.292 337.419 342.67V348H335.72ZM344.815 348.17C344.111 348.17 343.482 347.991 342.929 347.631C342.38 347.267 341.948 346.75 341.634 346.08C341.323 345.405 341.168 344.597 341.168 343.653C341.168 342.71 341.325 341.903 341.639 341.233C341.957 340.562 342.393 340.049 342.946 339.693C343.499 339.337 344.126 339.159 344.827 339.159C345.368 339.159 345.804 339.25 346.134 339.432C346.467 339.61 346.724 339.818 346.906 340.057C347.092 340.295 347.236 340.506 347.338 340.688H347.44V336.364H349.139V348H347.48V346.642H347.338C347.236 346.828 347.088 347.04 346.895 347.278C346.705 347.517 346.444 347.725 346.111 347.903C345.777 348.081 345.346 348.17 344.815 348.17ZM345.19 346.722C345.679 346.722 346.092 346.593 346.429 346.335C346.77 346.074 347.027 345.712 347.202 345.25C347.38 344.788 347.469 344.25 347.469 343.636C347.469 343.03 347.382 342.5 347.207 342.045C347.033 341.591 346.777 341.237 346.44 340.983C346.103 340.729 345.687 340.602 345.19 340.602C344.679 340.602 344.253 340.735 343.912 341C343.571 341.265 343.313 341.627 343.139 342.085C342.969 342.544 342.884 343.061 342.884 343.636C342.884 344.22 342.971 344.744 343.145 345.21C343.319 345.676 343.577 346.045 343.918 346.318C344.262 346.587 344.687 346.722 345.19 346.722ZM355.325 348.176C354.465 348.176 353.725 347.992 353.104 347.625C352.486 347.254 352.009 346.733 351.672 346.062C351.339 345.388 351.172 344.598 351.172 343.693C351.172 342.799 351.339 342.011 351.672 341.33C352.009 340.648 352.479 340.116 353.081 339.733C353.687 339.35 354.395 339.159 355.206 339.159C355.698 339.159 356.176 339.241 356.638 339.403C357.1 339.566 357.515 339.822 357.882 340.17C358.25 340.519 358.539 340.972 358.751 341.528C358.964 342.081 359.07 342.754 359.07 343.545V344.148H352.132V342.875H357.405C357.405 342.428 357.314 342.032 357.132 341.688C356.95 341.339 356.695 341.064 356.365 340.864C356.039 340.663 355.657 340.562 355.217 340.562C354.74 340.562 354.323 340.68 353.967 340.915C353.615 341.146 353.342 341.449 353.149 341.824C352.96 342.195 352.865 342.598 352.865 343.034V344.028C352.865 344.612 352.967 345.108 353.172 345.517C353.38 345.926 353.67 346.239 354.041 346.455C354.412 346.667 354.846 346.773 355.342 346.773C355.664 346.773 355.958 346.727 356.223 346.636C356.488 346.542 356.717 346.402 356.911 346.216C357.104 346.03 357.251 345.801 357.354 345.528L358.962 345.818C358.833 346.292 358.602 346.706 358.268 347.062C357.939 347.415 357.524 347.689 357.024 347.886C356.528 348.08 355.962 348.176 355.325 348.176ZM360.955 348V339.273H362.597V340.659H362.688C362.847 340.189 363.127 339.82 363.528 339.551C363.934 339.278 364.392 339.142 364.903 339.142C365.009 339.142 365.134 339.146 365.278 339.153C365.426 339.161 365.542 339.17 365.625 339.182V340.807C365.557 340.788 365.436 340.767 365.261 340.744C365.087 340.718 364.913 340.705 364.739 340.705C364.337 340.705 363.979 340.79 363.665 340.96C363.354 341.127 363.108 341.36 362.926 341.659C362.744 341.955 362.653 342.292 362.653 342.67V348H360.955Z" fill="#FAFAFA"/>
<defs>
<linearGradient id="paint0_linear_3300_6649" x1="36.0835" y1="69.5711" x2="439.882" y2="346.103" gradientUnits="userSpaceOnUse">
<stop stop-color="#002E5A"/>
<stop offset="1" stop-color="#0D5EBB"/>
</linearGradient>
<linearGradient id="paint1_linear_3300_6649" x1="70.1681" y1="361.362" x2="402.348" y2="133.875" gradientUnits="userSpaceOnUse">
<stop stop-color="#002E5A"/>
<stop offset="1" stop-color="#0D5EBB"/>
</linearGradient>
<linearGradient id="paint2_linear_3300_6649" x1="241.021" y1="325.26" x2="273.41" y2="401.967" gradientUnits="userSpaceOnUse">
<stop stop-color="#002E5A"/>
<stop offset="1" stop-color="#0D5EBB"/>
</linearGradient>
</defs>
</svg>
