<svg width="460" height="460" viewBox="0 0 460 460" fill="none" xmlns="http://www.w3.org/2000/svg">
<g opacity="0.5">
<path d="M460 230C460 357.025 357.025 460 230 460C102.975 460 0 357.025 0 230C0 102.975 102.975 0 230 0C357.025 0 460 102.975 460 230ZM23 230C23 344.323 115.677 437 230 437C344.323 437 437 344.323 437 230C437 115.677 344.323 23 230 23C115.677 23 23 115.677 23 230Z" fill="url(#paint0_linear_3300_6648)"/>
<path d="M418.899 229.387C418.899 124.89 334.188 40.1794 229.692 40.1794C125.195 40.1794 40.4844 124.89 40.4844 229.387C40.4844 333.883 125.195 418.594 229.692 418.594C334.188 418.594 418.899 333.883 418.899 229.387ZM66.9734 229.387C66.9734 139.52 139.825 66.6684 229.692 66.6684C319.558 66.6684 392.41 139.52 392.41 229.387C392.41 319.253 319.558 392.105 229.692 392.105C139.825 392.105 66.9734 319.253 66.9734 229.387Z" fill="url(#paint1_linear_3300_6648)"/>
</g>
<rect x="88" y="65" width="340" height="329" rx="20" fill="#FAFAFA"/>
<path d="M148.885 104.362H146.229C146.153 103.927 146.013 103.541 145.81 103.205C145.606 102.864 145.353 102.575 145.05 102.338C144.747 102.101 144.401 101.924 144.013 101.805C143.629 101.682 143.215 101.621 142.77 101.621C141.979 101.621 141.278 101.82 140.668 102.217C140.057 102.61 139.579 103.188 139.233 103.95C138.887 104.708 138.714 105.634 138.714 106.727C138.714 107.84 138.887 108.777 139.233 109.54C139.583 110.297 140.062 110.87 140.668 111.259C141.278 111.642 141.977 111.834 142.763 111.834C143.198 111.834 143.606 111.777 143.984 111.663C144.368 111.545 144.711 111.372 145.014 111.145C145.322 110.918 145.58 110.638 145.788 110.307C146.001 109.975 146.148 109.597 146.229 109.17L148.885 109.185C148.786 109.876 148.57 110.525 148.239 111.131C147.912 111.737 147.483 112.272 146.953 112.736C146.423 113.195 145.803 113.555 145.092 113.815C144.382 114.071 143.594 114.199 142.727 114.199C141.449 114.199 140.308 113.903 139.304 113.311C138.3 112.719 137.509 111.865 136.932 110.747C136.354 109.63 136.065 108.29 136.065 106.727C136.065 105.16 136.357 103.82 136.939 102.707C137.521 101.59 138.314 100.735 139.318 100.143C140.322 99.5516 141.458 99.2557 142.727 99.2557C143.537 99.2557 144.29 99.3693 144.986 99.5966C145.682 99.8239 146.302 100.158 146.847 100.598C147.391 101.034 147.839 101.569 148.189 102.203C148.544 102.833 148.776 103.553 148.885 104.362ZM153.924 114.22C153.232 114.22 152.61 114.097 152.056 113.851C151.506 113.6 151.071 113.231 150.749 112.743C150.432 112.255 150.273 111.654 150.273 110.939C150.273 110.323 150.387 109.814 150.614 109.412C150.841 109.009 151.151 108.688 151.544 108.446C151.937 108.205 152.38 108.022 152.872 107.899C153.37 107.771 153.883 107.679 154.414 107.622C155.053 107.556 155.571 107.497 155.969 107.445C156.367 107.388 156.656 107.303 156.835 107.189C157.02 107.071 157.112 106.888 157.112 106.642V106.599C157.112 106.064 156.954 105.65 156.637 105.357C156.319 105.063 155.862 104.916 155.266 104.916C154.636 104.916 154.137 105.054 153.767 105.328C153.403 105.603 153.156 105.927 153.029 106.301L150.628 105.96C150.817 105.297 151.13 104.743 151.566 104.298C152.001 103.848 152.534 103.512 153.164 103.29C153.793 103.062 154.489 102.949 155.252 102.949C155.777 102.949 156.3 103.01 156.821 103.134C157.342 103.257 157.818 103.46 158.249 103.744C158.68 104.024 159.025 104.405 159.286 104.888C159.551 105.371 159.683 105.974 159.683 106.699V114H157.212V112.501H157.127C156.97 112.804 156.75 113.089 156.466 113.354C156.187 113.614 155.834 113.825 155.408 113.986C154.986 114.142 154.492 114.22 153.924 114.22ZM154.591 112.331C155.107 112.331 155.555 112.229 155.933 112.026C156.312 111.817 156.603 111.543 156.807 111.202C157.015 110.861 157.12 110.489 157.12 110.087V108.801C157.039 108.867 156.902 108.929 156.708 108.986C156.518 109.043 156.305 109.092 156.068 109.135C155.832 109.178 155.597 109.215 155.365 109.249C155.133 109.282 154.932 109.31 154.762 109.334C154.378 109.386 154.035 109.471 153.732 109.589C153.429 109.708 153.19 109.874 153.014 110.087C152.839 110.295 152.752 110.565 152.752 110.896C152.752 111.37 152.924 111.727 153.27 111.969C153.616 112.21 154.056 112.331 154.591 112.331ZM164.44 99.4545V114H161.869V99.4545H164.44ZM171.442 114.213C170.353 114.213 169.418 113.974 168.637 113.496C167.86 113.018 167.261 112.357 166.84 111.514C166.423 110.667 166.215 109.691 166.215 108.588C166.215 107.48 166.428 106.502 166.854 105.655C167.28 104.803 167.881 104.14 168.658 103.666C169.439 103.188 170.362 102.949 171.428 102.949C172.313 102.949 173.097 103.112 173.779 103.439C174.465 103.761 175.012 104.218 175.419 104.81C175.827 105.397 176.059 106.083 176.115 106.869H173.658C173.559 106.344 173.322 105.906 172.948 105.555C172.578 105.2 172.084 105.023 171.463 105.023C170.938 105.023 170.476 105.165 170.078 105.449C169.681 105.728 169.371 106.131 169.148 106.656C168.93 107.182 168.821 107.812 168.821 108.545C168.821 109.289 168.93 109.928 169.148 110.463C169.366 110.993 169.671 111.403 170.064 111.692C170.462 111.976 170.928 112.118 171.463 112.118C171.842 112.118 172.181 112.047 172.479 111.905C172.782 111.758 173.035 111.547 173.239 111.273C173.443 110.998 173.582 110.664 173.658 110.271H176.115C176.054 111.043 175.827 111.727 175.434 112.324C175.041 112.916 174.505 113.38 173.828 113.716C173.151 114.047 172.356 114.213 171.442 114.213ZM184.78 109.412V103.091H187.351V114H184.858V112.061H184.744C184.498 112.672 184.093 113.171 183.53 113.56C182.971 113.948 182.282 114.142 181.463 114.142C180.748 114.142 180.116 113.983 179.567 113.666C179.022 113.344 178.596 112.878 178.288 112.267C177.98 111.652 177.826 110.908 177.826 110.037V103.091H180.398V109.639C180.398 110.33 180.587 110.88 180.966 111.287C181.344 111.694 181.842 111.898 182.457 111.898C182.836 111.898 183.203 111.805 183.558 111.621C183.913 111.436 184.204 111.161 184.432 110.797C184.664 110.428 184.78 109.966 184.78 109.412ZM192.165 99.4545V114H189.594V99.4545H192.165ZM197.549 114.22C196.857 114.22 196.235 114.097 195.681 113.851C195.131 113.6 194.696 113.231 194.374 112.743C194.057 112.255 193.898 111.654 193.898 110.939C193.898 110.323 194.012 109.814 194.239 109.412C194.466 109.009 194.776 108.688 195.169 108.446C195.562 108.205 196.005 108.022 196.497 107.899C196.995 107.771 197.508 107.679 198.039 107.622C198.678 107.556 199.196 107.497 199.594 107.445C199.992 107.388 200.281 107.303 200.46 107.189C200.645 107.071 200.737 106.888 200.737 106.642V106.599C200.737 106.064 200.579 105.65 200.262 105.357C199.944 105.063 199.487 104.916 198.891 104.916C198.261 104.916 197.762 105.054 197.392 105.328C197.028 105.603 196.781 105.927 196.654 106.301L194.253 105.96C194.442 105.297 194.755 104.743 195.191 104.298C195.626 103.848 196.159 103.512 196.789 103.29C197.418 103.062 198.114 102.949 198.877 102.949C199.402 102.949 199.925 103.01 200.446 103.134C200.967 103.257 201.443 103.46 201.874 103.744C202.305 104.024 202.65 104.405 202.911 104.888C203.176 105.371 203.308 105.974 203.308 106.699V114H200.837V112.501H200.752C200.595 112.804 200.375 113.089 200.091 113.354C199.812 113.614 199.459 113.825 199.033 113.986C198.611 114.142 198.117 114.22 197.549 114.22ZM198.216 112.331C198.732 112.331 199.18 112.229 199.558 112.026C199.937 111.817 200.228 111.543 200.432 111.202C200.64 110.861 200.745 110.489 200.745 110.087V108.801C200.664 108.867 200.527 108.929 200.333 108.986C200.143 109.043 199.93 109.092 199.693 109.135C199.457 109.178 199.222 109.215 198.99 109.249C198.758 109.282 198.557 109.31 198.387 109.334C198.003 109.386 197.66 109.471 197.357 109.589C197.054 109.708 196.815 109.874 196.639 110.087C196.464 110.295 196.377 110.565 196.377 110.896C196.377 111.37 196.549 111.727 196.895 111.969C197.241 112.21 197.681 112.331 198.216 112.331ZM210.941 103.091V105.08H204.67V103.091H210.941ZM206.218 100.477H208.789V110.719C208.789 111.064 208.841 111.33 208.945 111.514C209.054 111.694 209.196 111.817 209.372 111.884C209.547 111.95 209.741 111.983 209.954 111.983C210.115 111.983 210.262 111.971 210.394 111.947C210.532 111.924 210.636 111.902 210.707 111.884L211.14 113.893C211.003 113.941 210.806 113.993 210.55 114.05C210.3 114.107 209.992 114.14 209.627 114.149C208.983 114.168 208.403 114.071 207.887 113.858C207.371 113.64 206.961 113.304 206.658 112.849C206.36 112.395 206.213 111.827 206.218 111.145V100.477ZM217.404 114.213C216.31 114.213 215.365 113.986 214.57 113.531C213.779 113.072 213.171 112.423 212.745 111.585C212.318 110.742 212.105 109.75 212.105 108.609C212.105 107.487 212.318 106.502 212.745 105.655C213.175 104.803 213.777 104.14 214.549 103.666C215.32 103.188 216.227 102.949 217.269 102.949C217.941 102.949 218.576 103.058 219.172 103.276C219.773 103.489 220.304 103.82 220.763 104.27C221.227 104.72 221.592 105.293 221.857 105.989C222.122 106.68 222.255 107.504 222.255 108.46V109.249H213.313V107.516H219.79C219.785 107.023 219.679 106.585 219.47 106.202C219.262 105.813 218.971 105.508 218.597 105.286C218.228 105.063 217.797 104.952 217.304 104.952C216.779 104.952 216.317 105.08 215.919 105.335C215.522 105.586 215.211 105.918 214.989 106.33C214.771 106.737 214.66 107.184 214.655 107.672V109.185C214.655 109.819 214.771 110.364 215.003 110.818C215.235 111.268 215.559 111.614 215.976 111.855C216.393 112.092 216.88 112.21 217.439 112.21C217.813 112.21 218.152 112.158 218.455 112.054C218.758 111.945 219.021 111.786 219.243 111.578C219.466 111.37 219.634 111.112 219.747 110.804L222.148 111.074C221.996 111.708 221.708 112.262 221.282 112.736C220.86 113.205 220.32 113.569 219.662 113.83C219.004 114.085 218.251 114.213 217.404 114.213ZM230.189 118.091C229.838 118.091 229.514 118.063 229.216 118.006C228.922 117.954 228.688 117.892 228.512 117.821L229.109 115.818C229.483 115.927 229.817 115.979 230.11 115.974C230.404 115.97 230.662 115.877 230.885 115.697C231.112 115.522 231.304 115.229 231.46 114.817L231.68 114.227L227.724 103.091H230.451L232.966 111.33H233.079L235.6 103.091H238.335L233.967 115.321C233.763 115.899 233.493 116.393 233.157 116.805C232.821 117.222 232.409 117.539 231.922 117.757C231.439 117.98 230.861 118.091 230.189 118.091ZM244.101 114.213C243.036 114.213 242.113 113.979 241.332 113.51C240.55 113.041 239.944 112.385 239.513 111.543C239.087 110.7 238.874 109.715 238.874 108.588C238.874 107.461 239.087 106.474 239.513 105.626C239.944 104.779 240.55 104.121 241.332 103.652C242.113 103.183 243.036 102.949 244.101 102.949C245.167 102.949 246.09 103.183 246.871 103.652C247.653 104.121 248.256 104.779 248.682 105.626C249.113 106.474 249.329 107.461 249.329 108.588C249.329 109.715 249.113 110.7 248.682 111.543C248.256 112.385 247.653 113.041 246.871 113.51C246.09 113.979 245.167 114.213 244.101 114.213ZM244.116 112.153C244.693 112.153 245.176 111.995 245.564 111.678C245.953 111.356 246.242 110.925 246.431 110.385C246.625 109.845 246.722 109.244 246.722 108.581C246.722 107.913 246.625 107.31 246.431 106.77C246.242 106.225 245.953 105.792 245.564 105.47C245.176 105.148 244.693 104.987 244.116 104.987C243.524 104.987 243.031 105.148 242.638 105.47C242.25 105.792 241.959 106.225 241.765 106.77C241.575 107.31 241.481 107.913 241.481 108.581C241.481 109.244 241.575 109.845 241.765 110.385C241.959 110.925 242.25 111.356 242.638 111.678C243.031 111.995 243.524 112.153 244.116 112.153ZM258.064 109.412V103.091H260.635V114H258.142V112.061H258.028C257.782 112.672 257.377 113.171 256.814 113.56C256.255 113.948 255.566 114.142 254.747 114.142C254.032 114.142 253.4 113.983 252.851 113.666C252.306 113.344 251.88 112.878 251.573 112.267C251.265 111.652 251.111 110.908 251.111 110.037V103.091H253.682V109.639C253.682 110.33 253.871 110.88 254.25 111.287C254.629 111.694 255.126 111.898 255.742 111.898C256.12 111.898 256.487 111.805 256.842 111.621C257.198 111.436 257.489 111.161 257.716 110.797C257.948 110.428 258.064 109.966 258.064 109.412ZM262.879 114V103.091H265.372V104.909H265.485C265.684 104.279 266.025 103.794 266.508 103.453C266.996 103.107 267.552 102.935 268.177 102.935C268.319 102.935 268.478 102.942 268.653 102.956C268.833 102.965 268.982 102.982 269.1 103.006V105.371C268.992 105.333 268.819 105.3 268.582 105.271C268.35 105.238 268.125 105.222 267.907 105.222C267.438 105.222 267.017 105.323 266.643 105.527C266.274 105.726 265.983 106.003 265.769 106.358C265.556 106.713 265.45 107.123 265.45 107.587V114H262.879ZM274.969 118.091V103.091H277.498V104.895H277.647C277.78 104.63 277.967 104.348 278.208 104.05C278.45 103.747 278.776 103.489 279.188 103.276C279.6 103.058 280.126 102.949 280.765 102.949C281.608 102.949 282.368 103.164 283.045 103.595C283.727 104.021 284.266 104.653 284.664 105.491C285.067 106.325 285.268 107.348 285.268 108.56C285.268 109.758 285.071 110.776 284.678 111.614C284.285 112.452 283.75 113.091 283.073 113.531C282.396 113.972 281.629 114.192 280.772 114.192C280.147 114.192 279.629 114.088 279.217 113.879C278.805 113.671 278.473 113.42 278.222 113.126C277.976 112.828 277.784 112.546 277.647 112.281H277.54V118.091H274.969ZM277.491 108.545C277.491 109.251 277.59 109.869 277.789 110.399C277.993 110.929 278.284 111.344 278.663 111.642C279.046 111.936 279.51 112.082 280.055 112.082C280.623 112.082 281.099 111.931 281.482 111.628C281.866 111.32 282.155 110.901 282.349 110.371C282.548 109.836 282.647 109.227 282.647 108.545C282.647 107.868 282.55 107.267 282.356 106.741C282.162 106.216 281.873 105.804 281.489 105.506C281.106 105.207 280.628 105.058 280.055 105.058C279.505 105.058 279.039 105.203 278.656 105.491C278.272 105.78 277.981 106.185 277.782 106.706C277.588 107.227 277.491 107.84 277.491 108.545ZM290.209 114.22C289.517 114.22 288.895 114.097 288.341 113.851C287.792 113.6 287.356 113.231 287.034 112.743C286.717 112.255 286.558 111.654 286.558 110.939C286.558 110.323 286.672 109.814 286.899 109.412C287.126 109.009 287.436 108.688 287.829 108.446C288.222 108.205 288.665 108.022 289.158 107.899C289.655 107.771 290.168 107.679 290.699 107.622C291.338 107.556 291.856 107.497 292.254 107.445C292.652 107.388 292.941 107.303 293.121 107.189C293.305 107.071 293.398 106.888 293.398 106.642V106.599C293.398 106.064 293.239 105.65 292.922 105.357C292.605 105.063 292.148 104.916 291.551 104.916C290.921 104.916 290.422 105.054 290.052 105.328C289.688 105.603 289.442 105.927 289.314 106.301L286.913 105.96C287.103 105.297 287.415 104.743 287.851 104.298C288.286 103.848 288.819 103.512 289.449 103.29C290.078 103.062 290.774 102.949 291.537 102.949C292.062 102.949 292.586 103.01 293.106 103.134C293.627 103.257 294.103 103.46 294.534 103.744C294.965 104.024 295.31 104.405 295.571 104.888C295.836 105.371 295.969 105.974 295.969 106.699V114H293.497V112.501H293.412C293.256 112.804 293.035 113.089 292.751 113.354C292.472 113.614 292.119 113.825 291.693 113.986C291.272 114.142 290.777 114.22 290.209 114.22ZM290.876 112.331C291.392 112.331 291.84 112.229 292.219 112.026C292.597 111.817 292.889 111.543 293.092 111.202C293.301 110.861 293.405 110.489 293.405 110.087V108.801C293.324 108.867 293.187 108.929 292.993 108.986C292.803 109.043 292.59 109.092 292.354 109.135C292.117 109.178 291.882 109.215 291.65 109.249C291.418 109.282 291.217 109.31 291.047 109.334C290.663 109.386 290.32 109.471 290.017 109.589C289.714 109.708 289.475 109.874 289.3 110.087C289.124 110.295 289.037 110.565 289.037 110.896C289.037 111.37 289.21 111.727 289.555 111.969C289.901 112.21 290.341 112.331 290.876 112.331ZM298.154 118.091V103.091H300.682V104.895H300.831C300.964 104.63 301.151 104.348 301.392 104.05C301.634 103.747 301.961 103.489 302.373 103.276C302.785 103.058 303.31 102.949 303.949 102.949C304.792 102.949 305.552 103.164 306.229 103.595C306.911 104.021 307.451 104.653 307.848 105.491C308.251 106.325 308.452 107.348 308.452 108.56C308.452 109.758 308.256 110.776 307.863 111.614C307.47 112.452 306.935 113.091 306.258 113.531C305.58 113.972 304.813 114.192 303.956 114.192C303.331 114.192 302.813 114.088 302.401 113.879C301.989 113.671 301.658 113.42 301.407 113.126C301.16 112.828 300.969 112.546 300.831 112.281H300.725V118.091H298.154ZM300.675 108.545C300.675 109.251 300.775 109.869 300.973 110.399C301.177 110.929 301.468 111.344 301.847 111.642C302.231 111.936 302.695 112.082 303.239 112.082C303.807 112.082 304.283 111.931 304.667 111.628C305.05 111.32 305.339 110.901 305.533 110.371C305.732 109.836 305.831 109.227 305.831 108.545C305.831 107.868 305.734 107.267 305.54 106.741C305.346 106.216 305.057 105.804 304.674 105.506C304.29 105.207 303.812 105.058 303.239 105.058C302.69 105.058 302.223 105.203 301.84 105.491C301.456 105.78 301.165 106.185 300.966 106.706C300.772 107.227 300.675 107.84 300.675 108.545ZM315.083 114.213C313.99 114.213 313.045 113.986 312.25 113.531C311.459 113.072 310.85 112.423 310.424 111.585C309.998 110.742 309.785 109.75 309.785 108.609C309.785 107.487 309.998 106.502 310.424 105.655C310.855 104.803 311.456 104.14 312.228 103.666C313 103.188 313.907 102.949 314.948 102.949C315.621 102.949 316.255 103.058 316.852 103.276C317.453 103.489 317.983 103.82 318.443 104.27C318.907 104.72 319.271 105.293 319.537 105.989C319.802 106.68 319.934 107.504 319.934 108.46V109.249H310.992V107.516H317.47C317.465 107.023 317.358 106.585 317.15 106.202C316.942 105.813 316.651 105.508 316.277 105.286C315.907 105.063 315.476 104.952 314.984 104.952C314.458 104.952 313.997 105.08 313.599 105.335C313.201 105.586 312.891 105.918 312.669 106.33C312.451 106.737 312.34 107.184 312.335 107.672V109.185C312.335 109.819 312.451 110.364 312.683 110.818C312.915 111.268 313.239 111.614 313.656 111.855C314.072 112.092 314.56 112.21 315.119 112.21C315.493 112.21 315.831 112.158 316.135 112.054C316.438 111.945 316.7 111.786 316.923 111.578C317.145 111.37 317.313 111.112 317.427 110.804L319.828 111.074C319.676 111.708 319.387 112.262 318.961 112.736C318.54 113.205 318 113.569 317.342 113.83C316.684 114.085 315.931 114.213 315.083 114.213ZM321.709 114V103.091H324.202V104.909H324.316C324.515 104.279 324.856 103.794 325.339 103.453C325.826 103.107 326.383 102.935 327.008 102.935C327.15 102.935 327.308 102.942 327.483 102.956C327.663 102.965 327.813 102.982 327.931 103.006V105.371C327.822 105.333 327.649 105.3 327.412 105.271C327.18 105.238 326.956 105.222 326.738 105.222C326.269 105.222 325.848 105.323 325.474 105.527C325.104 105.726 324.813 106.003 324.6 106.358C324.387 106.713 324.28 107.123 324.28 107.587V114H321.709ZM333.8 118.091V103.091H336.328V104.895H336.477C336.61 104.63 336.797 104.348 337.039 104.05C337.28 103.747 337.607 103.489 338.019 103.276C338.431 103.058 338.956 102.949 339.595 102.949C340.438 102.949 341.198 103.164 341.875 103.595C342.557 104.021 343.097 104.653 343.495 105.491C343.897 106.325 344.098 107.348 344.098 108.56C344.098 109.758 343.902 110.776 343.509 111.614C343.116 112.452 342.581 113.091 341.904 113.531C341.227 113.972 340.459 114.192 339.602 114.192C338.977 114.192 338.459 114.088 338.047 113.879C337.635 113.671 337.304 113.42 337.053 113.126C336.807 112.828 336.615 112.546 336.477 112.281H336.371V118.091H333.8ZM336.321 108.545C336.321 109.251 336.421 109.869 336.62 110.399C336.823 110.929 337.114 111.344 337.493 111.642C337.877 111.936 338.341 112.082 338.885 112.082C339.453 112.082 339.929 111.931 340.313 111.628C340.696 111.32 340.985 110.901 341.179 110.371C341.378 109.836 341.477 109.227 341.477 108.545C341.477 107.868 341.38 107.267 341.186 106.741C340.992 106.216 340.703 105.804 340.32 105.506C339.936 105.207 339.458 105.058 338.885 105.058C338.336 105.058 337.87 105.203 337.486 105.491C337.102 105.78 336.811 106.185 336.612 106.706C336.418 107.227 336.321 107.84 336.321 108.545ZM345.9 114V103.091H348.393V104.909H348.506C348.705 104.279 349.046 103.794 349.529 103.453C350.017 103.107 350.573 102.935 351.198 102.935C351.34 102.935 351.499 102.942 351.674 102.956C351.854 102.965 352.003 102.982 352.122 103.006V105.371C352.013 105.333 351.84 105.3 351.603 105.271C351.371 105.238 351.146 105.222 350.928 105.222C350.46 105.222 350.038 105.323 349.664 105.527C349.295 105.726 349.004 106.003 348.791 106.358C348.577 106.713 348.471 107.123 348.471 107.587V114H345.9ZM353.43 114V103.091H356.001V114H353.43ZM354.722 101.543C354.315 101.543 353.965 101.408 353.671 101.138C353.378 100.863 353.231 100.534 353.231 100.151C353.231 99.7623 353.378 99.4332 353.671 99.1634C353.965 98.8887 354.315 98.7514 354.722 98.7514C355.134 98.7514 355.485 98.8887 355.773 99.1634C356.067 99.4332 356.214 99.7623 356.214 100.151C356.214 100.534 356.067 100.863 355.773 101.138C355.485 101.408 355.134 101.543 354.722 101.543ZM363.003 114.213C361.914 114.213 360.979 113.974 360.198 113.496C359.421 113.018 358.822 112.357 358.401 111.514C357.984 110.667 357.776 109.691 357.776 108.588C357.776 107.48 357.989 106.502 358.415 105.655C358.841 104.803 359.442 104.14 360.219 103.666C361 103.188 361.923 102.949 362.989 102.949C363.874 102.949 364.658 103.112 365.34 103.439C366.026 103.761 366.573 104.218 366.98 104.81C367.387 105.397 367.619 106.083 367.676 106.869H365.219C365.119 106.344 364.883 105.906 364.509 105.555C364.139 105.2 363.645 105.023 363.024 105.023C362.499 105.023 362.037 105.165 361.639 105.449C361.242 105.728 360.931 106.131 360.709 106.656C360.491 107.182 360.382 107.812 360.382 108.545C360.382 109.289 360.491 109.928 360.709 110.463C360.927 110.993 361.232 111.403 361.625 111.692C362.023 111.976 362.489 112.118 363.024 112.118C363.403 112.118 363.742 112.047 364.04 111.905C364.343 111.758 364.596 111.547 364.8 111.273C365.003 110.998 365.143 110.664 365.219 110.271H367.676C367.615 111.043 367.387 111.727 366.994 112.324C366.601 112.916 366.066 113.38 365.389 113.716C364.712 114.047 363.917 114.213 363.003 114.213ZM374.217 114.213C373.123 114.213 372.179 113.986 371.383 113.531C370.592 113.072 369.984 112.423 369.558 111.585C369.132 110.742 368.919 109.75 368.919 108.609C368.919 107.487 369.132 106.502 369.558 105.655C369.989 104.803 370.59 104.14 371.362 103.666C372.134 103.188 373.04 102.949 374.082 102.949C374.754 102.949 375.389 103.058 375.985 103.276C376.587 103.489 377.117 103.82 377.576 104.27C378.04 104.72 378.405 105.293 378.67 105.989C378.935 106.68 379.068 107.504 379.068 108.46V109.249H370.126V107.516H376.603C376.599 107.023 376.492 106.585 376.284 106.202C376.075 105.813 375.784 105.508 375.41 105.286C375.041 105.063 374.61 104.952 374.118 104.952C373.592 104.952 373.13 105.08 372.733 105.335C372.335 105.586 372.025 105.918 371.802 106.33C371.584 106.737 371.473 107.184 371.468 107.672V109.185C371.468 109.819 371.584 110.364 371.816 110.818C372.048 111.268 372.373 111.614 372.789 111.855C373.206 112.092 373.694 112.21 374.252 112.21C374.627 112.21 374.965 112.158 375.268 112.054C375.571 111.945 375.834 111.786 376.056 111.578C376.279 111.37 376.447 111.112 376.561 110.804L378.961 111.074C378.81 111.708 378.521 112.262 378.095 112.736C377.673 113.205 377.134 113.569 376.475 113.83C375.817 114.085 375.065 114.213 374.217 114.213Z" fill="#1A1A1A"/>
<path opacity="0.7" d="M126.801 156.364C126.741 155.86 126.5 155.469 126.075 155.19C125.651 154.912 125.131 154.773 124.514 154.773C124.063 154.773 123.669 154.846 123.331 154.991C122.996 155.137 122.734 155.338 122.545 155.593C122.36 155.848 122.267 156.138 122.267 156.463C122.267 156.735 122.332 156.969 122.461 157.164C122.594 157.356 122.763 157.517 122.968 157.646C123.174 157.772 123.389 157.877 123.614 157.96C123.84 158.039 124.047 158.104 124.236 158.153L125.27 158.432C125.535 158.501 125.83 158.598 126.155 158.72C126.483 158.843 126.796 159.01 127.094 159.222C127.396 159.431 127.645 159.7 127.84 160.028C128.036 160.356 128.134 160.759 128.134 161.236C128.134 161.786 127.989 162.283 127.701 162.727C127.416 163.171 126.998 163.524 126.448 163.786C125.901 164.048 125.237 164.179 124.455 164.179C123.725 164.179 123.094 164.061 122.56 163.826C122.03 163.591 121.612 163.263 121.308 162.842C121.006 162.421 120.835 161.932 120.795 161.375H122.068C122.101 161.759 122.231 162.078 122.456 162.33C122.685 162.578 122.973 162.764 123.321 162.886C123.672 163.006 124.05 163.065 124.455 163.065C124.925 163.065 125.348 162.989 125.722 162.837C126.097 162.681 126.393 162.465 126.612 162.19C126.831 161.912 126.94 161.587 126.94 161.216C126.94 160.878 126.846 160.603 126.657 160.391C126.468 160.179 126.219 160.006 125.911 159.874C125.603 159.741 125.27 159.625 124.912 159.526L123.659 159.168C122.864 158.939 122.234 158.612 121.77 158.188C121.306 157.764 121.074 157.209 121.074 156.523C121.074 155.953 121.228 155.455 121.536 155.031C121.848 154.604 122.265 154.272 122.789 154.037C123.316 153.798 123.904 153.679 124.554 153.679C125.21 153.679 125.794 153.797 126.304 154.032C126.814 154.264 127.219 154.582 127.517 154.987C127.819 155.391 127.978 155.85 127.994 156.364H126.801ZM133.203 164.159C132.468 164.159 131.833 163.997 131.299 163.672C130.769 163.344 130.36 162.886 130.071 162.3C129.786 161.71 129.644 161.024 129.644 160.241C129.644 159.459 129.786 158.77 130.071 158.173C130.36 157.573 130.761 157.106 131.274 156.771C131.791 156.433 132.395 156.264 133.084 156.264C133.482 156.264 133.874 156.33 134.262 156.463C134.65 156.596 135.003 156.811 135.321 157.109C135.639 157.404 135.893 157.795 136.082 158.283C136.271 158.77 136.365 159.37 136.365 160.082V160.58H130.479V159.565H135.172C135.172 159.134 135.086 158.75 134.914 158.412C134.744 158.074 134.503 157.807 134.188 157.612C133.876 157.416 133.508 157.318 133.084 157.318C132.617 157.318 132.212 157.434 131.871 157.666C131.533 157.895 131.273 158.193 131.09 158.561C130.908 158.929 130.817 159.323 130.817 159.744V160.42C130.817 160.997 130.916 161.486 131.115 161.887C131.317 162.285 131.597 162.588 131.955 162.797C132.313 163.002 132.729 163.105 133.203 163.105C133.512 163.105 133.79 163.062 134.039 162.976C134.29 162.886 134.508 162.754 134.69 162.578C134.872 162.399 135.013 162.177 135.112 161.912L136.246 162.23C136.127 162.615 135.926 162.953 135.644 163.244C135.363 163.533 135.015 163.758 134.6 163.92C134.186 164.08 133.72 164.159 133.203 164.159ZM138.15 164V156.364H139.284V157.517H139.363C139.502 157.139 139.754 156.833 140.119 156.597C140.483 156.362 140.894 156.244 141.352 156.244C141.438 156.244 141.546 156.246 141.675 156.249C141.804 156.253 141.902 156.258 141.968 156.264V157.457C141.928 157.447 141.837 157.433 141.695 157.413C141.556 157.389 141.408 157.378 141.252 157.378C140.881 157.378 140.55 157.456 140.258 157.612C139.97 157.764 139.741 157.976 139.572 158.248C139.406 158.516 139.323 158.823 139.323 159.168V164H138.15ZM149.836 156.364L147.012 164H145.819L142.995 156.364H144.268L146.376 162.449H146.455L148.563 156.364H149.836ZM151.384 164V156.364H152.558V164H151.384ZM151.981 155.091C151.752 155.091 151.555 155.013 151.389 154.857C151.227 154.701 151.146 154.514 151.146 154.295C151.146 154.077 151.227 153.889 151.389 153.734C151.555 153.578 151.752 153.5 151.981 153.5C152.21 153.5 152.405 153.578 152.568 153.734C152.733 153.889 152.816 154.077 152.816 154.295C152.816 154.514 152.733 154.701 152.568 154.857C152.405 155.013 152.21 155.091 151.981 155.091ZM157.809 164.159C157.093 164.159 156.477 163.99 155.96 163.652C155.442 163.314 155.045 162.848 154.766 162.255C154.488 161.662 154.349 160.984 154.349 160.222C154.349 159.446 154.491 158.762 154.776 158.168C155.065 157.572 155.466 157.106 155.979 156.771C156.496 156.433 157.1 156.264 157.789 156.264C158.326 156.264 158.81 156.364 159.241 156.562C159.672 156.761 160.025 157.04 160.3 157.398C160.575 157.756 160.746 158.173 160.812 158.651H159.638C159.549 158.303 159.35 157.994 159.042 157.726C158.737 157.454 158.326 157.318 157.809 157.318C157.352 157.318 156.951 157.437 156.606 157.676C156.264 157.911 155.998 158.245 155.805 158.675C155.616 159.103 155.522 159.605 155.522 160.182C155.522 160.772 155.615 161.286 155.8 161.723C155.989 162.161 156.254 162.5 156.596 162.742C156.941 162.984 157.345 163.105 157.809 163.105C158.114 163.105 158.391 163.052 158.639 162.946C158.888 162.84 159.098 162.688 159.271 162.489C159.443 162.29 159.566 162.051 159.638 161.773H160.812C160.746 162.223 160.581 162.629 160.32 162.991C160.061 163.349 159.718 163.634 159.29 163.846C158.866 164.055 158.372 164.159 157.809 164.159ZM165.729 164.159C164.993 164.159 164.358 163.997 163.825 163.672C163.294 163.344 162.885 162.886 162.597 162.3C162.312 161.71 162.169 161.024 162.169 160.241C162.169 159.459 162.312 158.77 162.597 158.173C162.885 157.573 163.286 157.106 163.8 156.771C164.317 156.433 164.92 156.264 165.609 156.264C166.007 156.264 166.4 156.33 166.788 156.463C167.175 156.596 167.528 156.811 167.847 157.109C168.165 157.404 168.418 157.795 168.607 158.283C168.796 158.77 168.891 159.37 168.891 160.082V160.58H163.004V159.565H167.697C167.697 159.134 167.611 158.75 167.439 158.412C167.27 158.074 167.028 157.807 166.713 157.612C166.402 157.416 166.034 157.318 165.609 157.318C165.142 157.318 164.738 157.434 164.396 157.666C164.058 157.895 163.798 158.193 163.616 158.561C163.433 158.929 163.342 159.323 163.342 159.744V160.42C163.342 160.997 163.442 161.486 163.641 161.887C163.843 162.285 164.123 162.588 164.481 162.797C164.839 163.002 165.255 163.105 165.729 163.105C166.037 163.105 166.315 163.062 166.564 162.976C166.816 162.886 167.033 162.754 167.215 162.578C167.397 162.399 167.538 162.177 167.638 161.912L168.771 162.23C168.652 162.615 168.451 162.953 168.17 163.244C167.888 163.533 167.54 163.758 167.126 163.92C166.711 164.08 166.246 164.159 165.729 164.159Z" fill="#1A1A1A"/>
<path d="M138.943 193.148H137.17C137.102 192.769 136.975 192.436 136.79 192.148C136.604 191.86 136.377 191.616 136.108 191.415C135.839 191.214 135.538 191.062 135.205 190.96C134.875 190.858 134.525 190.807 134.153 190.807C133.483 190.807 132.883 190.975 132.352 191.312C131.826 191.65 131.409 192.144 131.102 192.795C130.799 193.447 130.648 194.242 130.648 195.182C130.648 196.129 130.799 196.928 131.102 197.58C131.409 198.231 131.828 198.723 132.358 199.057C132.888 199.39 133.485 199.557 134.148 199.557C134.515 199.557 134.864 199.508 135.193 199.409C135.527 199.307 135.828 199.157 136.097 198.96C136.366 198.763 136.593 198.523 136.778 198.239C136.968 197.951 137.098 197.621 137.17 197.25L138.943 197.256C138.848 197.828 138.665 198.354 138.392 198.835C138.123 199.312 137.777 199.725 137.352 200.074C136.932 200.419 136.451 200.686 135.909 200.875C135.367 201.064 134.777 201.159 134.136 201.159C133.129 201.159 132.231 200.92 131.443 200.443C130.655 199.962 130.034 199.275 129.58 198.381C129.129 197.487 128.903 196.42 128.903 195.182C128.903 193.939 129.131 192.873 129.585 191.983C130.04 191.089 130.661 190.403 131.449 189.926C132.237 189.445 133.133 189.205 134.136 189.205C134.754 189.205 135.33 189.294 135.864 189.472C136.402 189.646 136.884 189.903 137.312 190.244C137.741 190.581 138.095 190.994 138.375 191.483C138.655 191.968 138.845 192.523 138.943 193.148ZM144.584 201.176C143.766 201.176 143.052 200.989 142.442 200.614C141.832 200.239 141.358 199.714 141.021 199.04C140.684 198.366 140.516 197.578 140.516 196.676C140.516 195.771 140.684 194.979 141.021 194.301C141.358 193.623 141.832 193.097 142.442 192.722C143.052 192.347 143.766 192.159 144.584 192.159C145.402 192.159 146.116 192.347 146.726 192.722C147.336 193.097 147.809 193.623 148.146 194.301C148.483 194.979 148.652 195.771 148.652 196.676C148.652 197.578 148.483 198.366 148.146 199.04C147.809 199.714 147.336 200.239 146.726 200.614C146.116 200.989 145.402 201.176 144.584 201.176ZM144.589 199.75C145.12 199.75 145.559 199.61 145.908 199.33C146.256 199.049 146.514 198.676 146.68 198.21C146.851 197.744 146.936 197.231 146.936 196.67C146.936 196.114 146.851 195.602 146.68 195.136C146.514 194.667 146.256 194.29 145.908 194.006C145.559 193.722 145.12 193.58 144.589 193.58C144.055 193.58 143.612 193.722 143.26 194.006C142.911 194.29 142.652 194.667 142.482 195.136C142.315 195.602 142.232 196.114 142.232 196.67C142.232 197.231 142.315 197.744 142.482 198.21C142.652 198.676 142.911 199.049 143.26 199.33C143.612 199.61 144.055 199.75 144.589 199.75ZM157.717 192.273L154.553 201H152.734L149.564 192.273H151.388L153.598 198.989H153.689L155.893 192.273H157.717ZM162.778 201.176C161.919 201.176 161.178 200.992 160.557 200.625C159.939 200.254 159.462 199.733 159.125 199.062C158.792 198.388 158.625 197.598 158.625 196.693C158.625 195.799 158.792 195.011 159.125 194.33C159.462 193.648 159.932 193.116 160.534 192.733C161.14 192.35 161.848 192.159 162.659 192.159C163.152 192.159 163.629 192.241 164.091 192.403C164.553 192.566 164.968 192.822 165.335 193.17C165.703 193.519 165.992 193.972 166.205 194.528C166.417 195.081 166.523 195.754 166.523 196.545V197.148H159.585V195.875H164.858C164.858 195.428 164.767 195.032 164.585 194.688C164.403 194.339 164.148 194.064 163.818 193.864C163.492 193.663 163.11 193.562 162.67 193.562C162.193 193.562 161.777 193.68 161.42 193.915C161.068 194.146 160.795 194.449 160.602 194.824C160.413 195.195 160.318 195.598 160.318 196.034V197.028C160.318 197.612 160.42 198.108 160.625 198.517C160.833 198.926 161.123 199.239 161.494 199.455C161.866 199.667 162.299 199.773 162.795 199.773C163.117 199.773 163.411 199.727 163.676 199.636C163.941 199.542 164.17 199.402 164.364 199.216C164.557 199.03 164.705 198.801 164.807 198.528L166.415 198.818C166.286 199.292 166.055 199.706 165.722 200.062C165.392 200.415 164.977 200.689 164.477 200.886C163.981 201.08 163.415 201.176 162.778 201.176ZM168.408 201V192.273H170.05V193.659H170.141C170.3 193.189 170.58 192.82 170.982 192.551C171.387 192.278 171.845 192.142 172.357 192.142C172.463 192.142 172.588 192.146 172.732 192.153C172.879 192.161 172.995 192.17 173.078 192.182V193.807C173.01 193.788 172.889 193.767 172.714 193.744C172.54 193.718 172.366 193.705 172.192 193.705C171.79 193.705 171.432 193.79 171.118 193.96C170.807 194.127 170.561 194.36 170.379 194.659C170.197 194.955 170.107 195.292 170.107 195.67V201H168.408ZM178.919 201V189.364H180.675V199.489H185.947V201H178.919ZM191.575 201.176C190.715 201.176 189.975 200.992 189.354 200.625C188.736 200.254 188.259 199.733 187.922 199.062C187.589 198.388 187.422 197.598 187.422 196.693C187.422 195.799 187.589 195.011 187.922 194.33C188.259 193.648 188.729 193.116 189.331 192.733C189.937 192.35 190.645 192.159 191.456 192.159C191.948 192.159 192.426 192.241 192.888 192.403C193.35 192.566 193.765 192.822 194.132 193.17C194.5 193.519 194.789 193.972 195.001 194.528C195.214 195.081 195.32 195.754 195.32 196.545V197.148H188.382V195.875H193.655C193.655 195.428 193.564 195.032 193.382 194.688C193.2 194.339 192.945 194.064 192.615 193.864C192.289 193.663 191.907 193.562 191.467 193.562C190.99 193.562 190.573 193.68 190.217 193.915C189.865 194.146 189.592 194.449 189.399 194.824C189.21 195.195 189.115 195.598 189.115 196.034V197.028C189.115 197.612 189.217 198.108 189.422 198.517C189.63 198.926 189.92 199.239 190.291 199.455C190.662 199.667 191.096 199.773 191.592 199.773C191.914 199.773 192.208 199.727 192.473 199.636C192.738 199.542 192.967 199.402 193.161 199.216C193.354 199.03 193.501 198.801 193.604 198.528L195.212 198.818C195.083 199.292 194.852 199.706 194.518 200.062C194.189 200.415 193.774 200.689 193.274 200.886C192.778 201.08 192.212 201.176 191.575 201.176ZM201.278 192.273V193.636H196.511V192.273H201.278ZM197.79 190.182H199.489V198.438C199.489 198.767 199.538 199.015 199.636 199.182C199.735 199.345 199.862 199.456 200.017 199.517C200.176 199.574 200.348 199.602 200.534 199.602C200.67 199.602 200.79 199.593 200.892 199.574C200.994 199.555 201.074 199.54 201.131 199.528L201.438 200.932C201.339 200.97 201.199 201.008 201.017 201.045C200.835 201.087 200.608 201.11 200.335 201.114C199.888 201.121 199.472 201.042 199.085 200.875C198.699 200.708 198.386 200.451 198.148 200.102C197.909 199.754 197.79 199.316 197.79 198.79V190.182ZM207.232 192.273V193.636H202.464V192.273H207.232ZM203.743 190.182H205.442V198.438C205.442 198.767 205.491 199.015 205.589 199.182C205.688 199.345 205.815 199.456 205.97 199.517C206.129 199.574 206.302 199.602 206.487 199.602C206.624 199.602 206.743 199.593 206.845 199.574C206.947 199.555 207.027 199.54 207.084 199.528L207.391 200.932C207.292 200.97 207.152 201.008 206.97 201.045C206.788 201.087 206.561 201.11 206.288 201.114C205.841 201.121 205.425 201.042 205.038 200.875C204.652 200.708 204.339 200.451 204.101 200.102C203.862 199.754 203.743 199.316 203.743 198.79V190.182ZM212.778 201.176C211.919 201.176 211.178 200.992 210.557 200.625C209.939 200.254 209.462 199.733 209.125 199.062C208.792 198.388 208.625 197.598 208.625 196.693C208.625 195.799 208.792 195.011 209.125 194.33C209.462 193.648 209.932 193.116 210.534 192.733C211.14 192.35 211.848 192.159 212.659 192.159C213.152 192.159 213.629 192.241 214.091 192.403C214.553 192.566 214.968 192.822 215.335 193.17C215.703 193.519 215.992 193.972 216.205 194.528C216.417 195.081 216.523 195.754 216.523 196.545V197.148H209.585V195.875H214.858C214.858 195.428 214.767 195.032 214.585 194.688C214.403 194.339 214.148 194.064 213.818 193.864C213.492 193.663 213.11 193.562 212.67 193.562C212.193 193.562 211.777 193.68 211.42 193.915C211.068 194.146 210.795 194.449 210.602 194.824C210.413 195.195 210.318 195.598 210.318 196.034V197.028C210.318 197.612 210.42 198.108 210.625 198.517C210.833 198.926 211.123 199.239 211.494 199.455C211.866 199.667 212.299 199.773 212.795 199.773C213.117 199.773 213.411 199.727 213.676 199.636C213.941 199.542 214.17 199.402 214.364 199.216C214.557 199.03 214.705 198.801 214.807 198.528L216.415 198.818C216.286 199.292 216.055 199.706 215.722 200.062C215.392 200.415 214.977 200.689 214.477 200.886C213.981 201.08 213.415 201.176 212.778 201.176ZM218.408 201V192.273H220.05V193.659H220.141C220.3 193.189 220.58 192.82 220.982 192.551C221.387 192.278 221.845 192.142 222.357 192.142C222.463 192.142 222.588 192.146 222.732 192.153C222.879 192.161 222.995 192.17 223.078 192.182V193.807C223.01 193.788 222.889 193.767 222.714 193.744C222.54 193.718 222.366 193.705 222.192 193.705C221.79 193.705 221.432 193.79 221.118 193.96C220.807 194.127 220.561 194.36 220.379 194.659C220.197 194.955 220.107 195.292 220.107 195.67V201H218.408Z" fill="#1A1A1A"/>
<rect x="120" y="173" width="276" height="44" rx="5" stroke="#1A1A1A" stroke-opacity="0.5" stroke-width="0.5"/>
<path opacity="0.7" d="M124.375 244H121.233V233.818H124.514C125.502 233.818 126.347 234.022 127.05 234.43C127.752 234.834 128.291 235.416 128.665 236.175C129.04 236.93 129.227 237.835 129.227 238.889C129.227 239.95 129.038 240.863 128.661 241.629C128.283 242.391 127.732 242.978 127.01 243.388C126.287 243.796 125.409 244 124.375 244ZM122.466 242.906H124.295C125.137 242.906 125.835 242.744 126.388 242.419C126.942 242.094 127.355 241.632 127.626 241.032C127.898 240.432 128.034 239.718 128.034 238.889C128.034 238.067 127.9 237.36 127.631 236.766C127.363 236.17 126.962 235.712 126.428 235.394C125.895 235.073 125.23 234.912 124.435 234.912H122.466V242.906ZM134.338 244.159C133.602 244.159 132.968 243.997 132.434 243.672C131.904 243.344 131.494 242.886 131.206 242.3C130.921 241.71 130.778 241.024 130.778 240.241C130.778 239.459 130.921 238.77 131.206 238.173C131.494 237.573 131.895 237.106 132.409 236.771C132.926 236.433 133.529 236.264 134.219 236.264C134.616 236.264 135.009 236.33 135.397 236.463C135.785 236.596 136.138 236.811 136.456 237.109C136.774 237.404 137.028 237.795 137.217 238.283C137.406 238.77 137.5 239.37 137.5 240.082V240.58H131.614V239.565H136.307C136.307 239.134 136.221 238.75 136.048 238.412C135.879 238.074 135.637 237.807 135.322 237.612C135.011 237.416 134.643 237.318 134.219 237.318C133.751 237.318 133.347 237.434 133.006 237.666C132.668 237.895 132.407 238.193 132.225 238.561C132.043 238.929 131.952 239.323 131.952 239.744V240.42C131.952 240.997 132.051 241.486 132.25 241.887C132.452 242.285 132.732 242.588 133.09 242.797C133.448 243.002 133.864 243.105 134.338 243.105C134.646 243.105 134.925 243.062 135.173 242.976C135.425 242.886 135.642 242.754 135.825 242.578C136.007 242.399 136.148 242.177 136.247 241.912L137.381 242.23C137.261 242.615 137.061 242.953 136.779 243.244C136.497 243.533 136.149 243.758 135.735 243.92C135.321 244.08 134.855 244.159 134.338 244.159ZM141.532 244.179C141.048 244.179 140.609 244.088 140.214 243.906C139.82 243.72 139.507 243.453 139.275 243.105C139.043 242.754 138.927 242.33 138.927 241.832C138.927 241.395 139.013 241.04 139.185 240.768C139.358 240.493 139.588 240.278 139.876 240.122C140.165 239.966 140.483 239.85 140.831 239.774C141.182 239.695 141.535 239.632 141.89 239.585C142.354 239.526 142.73 239.481 143.018 239.451C143.31 239.418 143.522 239.363 143.655 239.287C143.791 239.211 143.859 239.078 143.859 238.889V238.849C143.859 238.359 143.724 237.978 143.456 237.706C143.191 237.434 142.788 237.298 142.248 237.298C141.688 237.298 141.249 237.421 140.93 237.666C140.612 237.911 140.388 238.173 140.259 238.452L139.146 238.054C139.344 237.59 139.61 237.229 139.941 236.97C140.276 236.708 140.64 236.526 141.035 236.423C141.433 236.317 141.824 236.264 142.208 236.264C142.453 236.264 142.735 236.294 143.053 236.354C143.375 236.41 143.685 236.528 143.983 236.707C144.285 236.886 144.535 237.156 144.734 237.517C144.933 237.878 145.032 238.362 145.032 238.969V244H143.859V242.966H143.799C143.719 243.132 143.587 243.309 143.401 243.498C143.216 243.687 142.969 243.848 142.661 243.98C142.352 244.113 141.976 244.179 141.532 244.179ZM141.711 243.125C142.175 243.125 142.566 243.034 142.884 242.852C143.206 242.669 143.448 242.434 143.61 242.146C143.776 241.857 143.859 241.554 143.859 241.236V240.162C143.809 240.222 143.7 240.276 143.531 240.326C143.365 240.372 143.173 240.414 142.954 240.45C142.738 240.483 142.528 240.513 142.322 240.54C142.12 240.563 141.956 240.583 141.83 240.599C141.525 240.639 141.24 240.704 140.975 240.793C140.713 240.879 140.501 241.01 140.339 241.186C140.18 241.358 140.1 241.594 140.1 241.892C140.1 242.3 140.251 242.608 140.553 242.817C140.857 243.022 141.244 243.125 141.711 243.125ZM150.057 244.159C149.421 244.159 148.859 243.998 148.372 243.677C147.884 243.352 147.503 242.895 147.228 242.305C146.953 241.711 146.816 241.01 146.816 240.202C146.816 239.4 146.953 238.704 147.228 238.114C147.503 237.524 147.886 237.068 148.377 236.746C148.867 236.425 149.434 236.264 150.077 236.264C150.574 236.264 150.967 236.347 151.255 236.513C151.547 236.675 151.769 236.861 151.921 237.07C152.077 237.275 152.198 237.444 152.284 237.577H152.384V233.818H153.557V244H152.423V242.827H152.284C152.198 242.966 152.075 243.142 151.916 243.354C151.757 243.562 151.53 243.75 151.235 243.915C150.94 244.078 150.548 244.159 150.057 244.159ZM150.216 243.105C150.687 243.105 151.084 242.982 151.409 242.737C151.734 242.489 151.981 242.146 152.15 241.708C152.319 241.267 152.404 240.759 152.404 240.182C152.404 239.612 152.321 239.113 152.155 238.685C151.989 238.254 151.744 237.92 151.419 237.681C151.094 237.439 150.693 237.318 150.216 237.318C149.719 237.318 149.305 237.446 148.973 237.701C148.645 237.953 148.398 238.296 148.232 238.73C148.07 239.161 147.989 239.645 147.989 240.182C147.989 240.725 148.072 241.219 148.237 241.663C148.406 242.104 148.655 242.455 148.983 242.717C149.315 242.976 149.726 243.105 150.216 243.105ZM157.042 233.818V244H155.869V233.818H157.042ZM159.191 244V236.364H160.364V244H159.191ZM159.788 235.091C159.559 235.091 159.362 235.013 159.196 234.857C159.034 234.701 158.952 234.514 158.952 234.295C158.952 234.077 159.034 233.889 159.196 233.734C159.362 233.578 159.559 233.5 159.788 233.5C160.016 233.5 160.212 233.578 160.374 233.734C160.54 233.889 160.623 234.077 160.623 234.295C160.623 234.514 160.54 234.701 160.374 234.857C160.212 235.013 160.016 235.091 159.788 235.091ZM163.687 239.406V244H162.513V236.364H163.647V237.557H163.746C163.925 237.169 164.197 236.857 164.562 236.622C164.926 236.384 165.397 236.264 165.974 236.264C166.491 236.264 166.943 236.37 167.331 236.582C167.719 236.791 168.02 237.109 168.236 237.537C168.451 237.961 168.559 238.498 168.559 239.148V244H167.385V239.227C167.385 238.627 167.23 238.16 166.918 237.825C166.607 237.487 166.179 237.318 165.635 237.318C165.261 237.318 164.926 237.399 164.631 237.562C164.34 237.724 164.109 237.961 163.94 238.273C163.771 238.584 163.687 238.962 163.687 239.406ZM173.904 244.159C173.169 244.159 172.534 243.997 172 243.672C171.47 243.344 171.061 242.886 170.772 242.3C170.487 241.71 170.345 241.024 170.345 240.241C170.345 239.459 170.487 238.77 170.772 238.173C171.061 237.573 171.462 237.106 171.975 236.771C172.493 236.433 173.096 236.264 173.785 236.264C174.183 236.264 174.576 236.33 174.963 236.463C175.351 236.596 175.704 236.811 176.022 237.109C176.341 237.404 176.594 237.795 176.783 238.283C176.972 238.77 177.066 239.37 177.066 240.082V240.58H171.18V239.565H175.873C175.873 239.134 175.787 238.75 175.615 238.412C175.446 238.074 175.204 237.807 174.889 237.612C174.577 237.416 174.209 237.318 173.785 237.318C173.318 237.318 172.913 237.434 172.572 237.666C172.234 237.895 171.974 238.193 171.792 238.561C171.609 238.929 171.518 239.323 171.518 239.744V240.42C171.518 240.997 171.618 241.486 171.816 241.887C172.019 242.285 172.299 242.588 172.657 242.797C173.015 243.002 173.431 243.105 173.904 243.105C174.213 243.105 174.491 243.062 174.74 242.976C174.992 242.886 175.209 242.754 175.391 242.578C175.573 242.399 175.714 242.177 175.814 241.912L176.947 242.23C176.828 242.615 176.627 242.953 176.346 243.244C176.064 243.533 175.716 243.758 175.301 243.92C174.887 244.08 174.422 244.159 173.904 244.159Z" fill="#1A1A1A"/>
<path d="M132.96 281.159C132.248 281.159 131.608 281.023 131.04 280.75C130.475 280.473 130.025 280.095 129.688 279.614C129.35 279.133 129.17 278.583 129.148 277.966H130.852C130.894 278.466 131.116 278.877 131.517 279.199C131.919 279.521 132.4 279.682 132.96 279.682C133.407 279.682 133.803 279.58 134.148 279.375C134.496 279.167 134.769 278.881 134.966 278.517C135.167 278.153 135.267 277.739 135.267 277.273C135.267 276.799 135.165 276.377 134.96 276.006C134.756 275.634 134.473 275.343 134.114 275.131C133.758 274.919 133.348 274.811 132.886 274.807C132.534 274.807 132.18 274.867 131.824 274.989C131.468 275.11 131.18 275.269 130.96 275.466L129.352 275.227L130.006 269.364H136.403V270.869H131.466L131.097 274.125H131.165C131.392 273.905 131.693 273.722 132.068 273.574C132.447 273.426 132.852 273.352 133.284 273.352C133.992 273.352 134.623 273.521 135.176 273.858C135.733 274.195 136.17 274.655 136.489 275.239C136.811 275.818 136.97 276.485 136.966 277.239C136.97 277.992 136.799 278.665 136.455 279.256C136.114 279.847 135.64 280.312 135.034 280.653C134.432 280.991 133.741 281.159 132.96 281.159ZM146.565 281.17C145.861 281.17 145.232 280.991 144.679 280.631C144.13 280.267 143.698 279.75 143.384 279.08C143.073 278.405 142.918 277.597 142.918 276.653C142.918 275.71 143.075 274.903 143.389 274.233C143.707 273.562 144.143 273.049 144.696 272.693C145.249 272.337 145.876 272.159 146.577 272.159C147.118 272.159 147.554 272.25 147.884 272.432C148.217 272.61 148.474 272.818 148.656 273.057C148.842 273.295 148.986 273.506 149.088 273.688H149.19V269.364H150.889V281H149.23V279.642H149.088C148.986 279.828 148.838 280.04 148.645 280.278C148.455 280.517 148.194 280.725 147.861 280.903C147.527 281.081 147.096 281.17 146.565 281.17ZM146.94 279.722C147.429 279.722 147.842 279.593 148.179 279.335C148.52 279.074 148.777 278.712 148.952 278.25C149.13 277.788 149.219 277.25 149.219 276.636C149.219 276.03 149.132 275.5 148.957 275.045C148.783 274.591 148.527 274.237 148.19 273.983C147.853 273.729 147.437 273.602 146.94 273.602C146.429 273.602 146.003 273.735 145.662 274C145.321 274.265 145.063 274.627 144.889 275.085C144.719 275.544 144.634 276.061 144.634 276.636C144.634 277.22 144.721 277.744 144.895 278.21C145.069 278.676 145.327 279.045 145.668 279.318C146.012 279.587 146.437 279.722 146.94 279.722ZM155.854 281.193C155.301 281.193 154.801 281.091 154.354 280.886C153.907 280.678 153.553 280.377 153.291 279.983C153.034 279.589 152.905 279.106 152.905 278.534C152.905 278.042 153 277.636 153.189 277.318C153.378 277 153.634 276.748 153.956 276.562C154.278 276.377 154.638 276.237 155.036 276.142C155.433 276.047 155.839 275.975 156.251 275.926C156.774 275.866 157.198 275.816 157.524 275.778C157.85 275.737 158.087 275.67 158.234 275.58C158.382 275.489 158.456 275.341 158.456 275.136V275.097C158.456 274.6 158.316 274.216 158.036 273.943C157.759 273.67 157.346 273.534 156.797 273.534C156.225 273.534 155.774 273.661 155.445 273.915C155.119 274.165 154.893 274.443 154.768 274.75L153.172 274.386C153.361 273.856 153.638 273.428 154.001 273.102C154.369 272.773 154.791 272.534 155.268 272.386C155.746 272.235 156.248 272.159 156.774 272.159C157.123 272.159 157.492 272.201 157.882 272.284C158.276 272.364 158.643 272.511 158.984 272.727C159.329 272.943 159.611 273.252 159.831 273.653C160.051 274.051 160.161 274.568 160.161 275.205V281H158.501V279.807H158.433C158.323 280.027 158.159 280.242 157.939 280.455C157.719 280.667 157.437 280.843 157.092 280.983C156.748 281.123 156.335 281.193 155.854 281.193ZM156.223 279.83C156.693 279.83 157.094 279.737 157.428 279.551C157.765 279.366 158.02 279.123 158.195 278.824C158.373 278.521 158.462 278.197 158.462 277.852V276.727C158.401 276.788 158.284 276.845 158.109 276.898C157.939 276.947 157.744 276.991 157.524 277.028C157.304 277.062 157.09 277.095 156.882 277.125C156.674 277.152 156.5 277.174 156.359 277.193C156.03 277.235 155.729 277.305 155.456 277.403C155.187 277.502 154.971 277.644 154.808 277.83C154.649 278.011 154.57 278.254 154.57 278.557C154.57 278.977 154.725 279.295 155.036 279.511C155.346 279.723 155.742 279.83 156.223 279.83ZM163.185 284.273C162.931 284.273 162.7 284.252 162.491 284.21C162.283 284.172 162.128 284.131 162.026 284.085L162.435 282.693C162.745 282.777 163.022 282.813 163.264 282.801C163.507 282.79 163.721 282.699 163.906 282.528C164.096 282.358 164.262 282.08 164.406 281.693L164.616 281.114L161.423 272.273H163.241L165.452 279.045H165.543L167.753 272.273H169.577L165.98 282.165C165.813 282.619 165.601 283.004 165.344 283.318C165.086 283.636 164.779 283.875 164.423 284.034C164.067 284.193 163.654 284.273 163.185 284.273ZM177.713 274.403L176.173 274.676C176.109 274.479 176.007 274.292 175.866 274.114C175.73 273.936 175.545 273.79 175.31 273.676C175.075 273.562 174.781 273.506 174.429 273.506C173.948 273.506 173.546 273.614 173.224 273.83C172.902 274.042 172.741 274.316 172.741 274.653C172.741 274.945 172.849 275.18 173.065 275.358C173.281 275.536 173.63 275.682 174.111 275.795L175.497 276.114C176.3 276.299 176.899 276.585 177.293 276.972C177.687 277.358 177.884 277.86 177.884 278.477C177.884 279 177.732 279.466 177.429 279.875C177.13 280.28 176.711 280.598 176.173 280.83C175.639 281.061 175.02 281.176 174.315 281.176C173.338 281.176 172.541 280.968 171.923 280.551C171.306 280.131 170.927 279.534 170.787 278.761L172.429 278.511C172.531 278.939 172.741 279.263 173.06 279.483C173.378 279.699 173.793 279.807 174.304 279.807C174.861 279.807 175.306 279.691 175.639 279.46C175.973 279.225 176.139 278.939 176.139 278.602C176.139 278.33 176.037 278.1 175.832 277.915C175.632 277.729 175.323 277.589 174.906 277.494L173.429 277.17C172.615 276.985 172.012 276.689 171.622 276.284C171.236 275.879 171.043 275.366 171.043 274.744C171.043 274.229 171.187 273.778 171.474 273.392C171.762 273.006 172.16 272.705 172.668 272.489C173.175 272.269 173.757 272.159 174.412 272.159C175.355 272.159 176.098 272.364 176.639 272.773C177.181 273.178 177.539 273.722 177.713 274.403Z" fill="#1A1A1A"/>
<path opacity="0.8" d="M358.057 279V270.273H363.29V271.21H359.114V274.159H362.898V275.097H359.114V279H358.057ZM364.963 279V272.455H365.969V279H364.963ZM365.475 271.364C365.279 271.364 365.11 271.297 364.968 271.163C364.828 271.03 364.759 270.869 364.759 270.682C364.759 270.494 364.828 270.334 364.968 270.2C365.11 270.067 365.279 270 365.475 270C365.671 270 365.838 270.067 365.978 270.2C366.12 270.334 366.191 270.494 366.191 270.682C366.191 270.869 366.12 271.03 365.978 271.163C365.838 271.297 365.671 271.364 365.475 271.364ZM368.561 272.455L370.129 275.131L371.697 272.455H372.857L370.743 275.727L372.857 279H371.697L370.129 276.46L368.561 279H367.402L369.482 275.727L367.402 272.455H368.561ZM376.766 279.136C376.136 279.136 375.592 278.997 375.134 278.719C374.68 278.438 374.329 278.045 374.082 277.543C373.837 277.037 373.715 276.449 373.715 275.778C373.715 275.108 373.837 274.517 374.082 274.006C374.329 273.491 374.673 273.091 375.113 272.804C375.556 272.514 376.073 272.369 376.664 272.369C377.005 272.369 377.342 272.426 377.674 272.54C378.006 272.653 378.309 272.838 378.582 273.094C378.854 273.347 379.072 273.682 379.234 274.099C379.396 274.517 379.477 275.031 379.477 275.642V276.068H374.431V275.199H378.454C378.454 274.83 378.38 274.5 378.232 274.21C378.087 273.92 377.88 273.692 377.61 273.524C377.343 273.357 377.028 273.273 376.664 273.273C376.263 273.273 375.917 273.372 375.624 273.571C375.335 273.767 375.112 274.023 374.955 274.338C374.799 274.653 374.721 274.991 374.721 275.352V275.932C374.721 276.426 374.806 276.845 374.977 277.189C375.15 277.53 375.39 277.79 375.697 277.969C376.004 278.145 376.36 278.233 376.766 278.233C377.031 278.233 377.269 278.196 377.482 278.122C377.698 278.045 377.884 277.932 378.04 277.781C378.197 277.628 378.317 277.437 378.403 277.21L379.374 277.483C379.272 277.812 379.1 278.102 378.859 278.352C378.617 278.599 378.319 278.793 377.964 278.932C377.609 279.068 377.21 279.136 376.766 279.136ZM383.478 279.136C382.933 279.136 382.451 278.999 382.033 278.723C381.616 278.445 381.289 278.053 381.053 277.547C380.817 277.038 380.7 276.438 380.7 275.744C380.7 275.057 380.817 274.46 381.053 273.955C381.289 273.449 381.617 273.058 382.038 272.783C382.458 272.507 382.944 272.369 383.495 272.369C383.921 272.369 384.258 272.44 384.505 272.582C384.755 272.722 384.945 272.881 385.076 273.06C385.21 273.236 385.313 273.381 385.387 273.494H385.472V270.273H386.478V279H385.506V277.994H385.387C385.313 278.114 385.208 278.264 385.072 278.446C384.935 278.625 384.741 278.786 384.488 278.928C384.235 279.067 383.898 279.136 383.478 279.136ZM383.614 278.233C384.018 278.233 384.359 278.128 384.637 277.918C384.915 277.705 385.127 277.411 385.272 277.036C385.417 276.658 385.489 276.222 385.489 275.727C385.489 275.239 385.418 274.811 385.276 274.445C385.134 274.075 384.924 273.788 384.646 273.584C384.367 273.376 384.023 273.273 383.614 273.273C383.188 273.273 382.833 273.382 382.549 273.601C382.268 273.817 382.056 274.111 381.914 274.483C381.775 274.852 381.705 275.267 381.705 275.727C381.705 276.193 381.776 276.616 381.918 276.997C382.063 277.375 382.276 277.676 382.558 277.901C382.842 278.122 383.194 278.233 383.614 278.233Z" fill="#1A1A1A"/>
<rect x="120" y="253" width="276" height="44" rx="5" stroke="#1A1A1A" stroke-opacity="0.5" stroke-width="0.5"/>
<path d="M133.411 340.69V341.969H120.371V340.69H133.411ZM133.411 343.452V344.73H120.371V343.452H133.411ZM132.177 335.909V349H130.355L123.701 339.399H123.586V349H121.604V335.909H123.439L130.093 345.523H130.214V335.909H132.177ZM140.007 335.909V349H138.026V337.891H137.949L134.817 339.936V338.044L138.083 335.909H140.007ZM148.106 349.217C147.096 349.213 146.233 348.947 145.517 348.418C144.801 347.89 144.254 347.121 143.874 346.111C143.495 345.101 143.305 343.884 143.305 342.461C143.305 341.042 143.495 339.83 143.874 338.824C144.258 337.818 144.808 337.051 145.523 336.523C146.244 335.994 147.104 335.73 148.106 335.73C149.107 335.73 149.966 335.996 150.682 336.529C151.398 337.058 151.945 337.825 152.325 338.83C152.708 339.832 152.9 341.042 152.9 342.461C152.9 343.888 152.71 345.107 152.331 346.117C151.952 347.123 151.404 347.892 150.688 348.425C149.972 348.953 149.112 349.217 148.106 349.217ZM148.106 347.511C148.992 347.511 149.685 347.078 150.183 346.213C150.686 345.348 150.938 344.097 150.938 342.461C150.938 341.374 150.822 340.456 150.592 339.706C150.366 338.952 150.04 338.381 149.614 337.993C149.192 337.601 148.69 337.405 148.106 337.405C147.224 337.405 146.531 337.839 146.028 338.709C145.526 339.578 145.272 340.829 145.268 342.461C145.268 343.552 145.381 344.474 145.607 345.229C145.837 345.979 146.163 346.548 146.585 346.935C147.006 347.319 147.513 347.511 148.106 347.511ZM157.205 347.21L157.109 347.907C157.045 348.418 156.936 348.951 156.783 349.505C156.634 350.063 156.478 350.581 156.316 351.058C156.159 351.536 156.029 351.915 155.926 352.196H154.571C154.627 351.932 154.703 351.574 154.801 351.122C154.9 350.675 154.995 350.174 155.089 349.62C155.183 349.066 155.253 348.501 155.3 347.926L155.364 347.21H157.205ZM163.961 349.217C162.951 349.213 162.088 348.947 161.373 348.418C160.657 347.89 160.109 347.121 159.73 346.111C159.35 345.101 159.161 343.884 159.161 342.461C159.161 341.042 159.35 339.83 159.73 338.824C160.113 337.818 160.663 337.051 161.379 336.523C162.099 335.994 162.96 335.73 163.961 335.73C164.963 335.73 165.821 335.996 166.537 336.529C167.253 337.058 167.801 337.825 168.18 338.83C168.564 339.832 168.755 341.042 168.755 342.461C168.755 343.888 168.566 345.107 168.186 346.117C167.807 347.123 167.26 347.892 166.544 348.425C165.828 348.953 164.967 349.217 163.961 349.217ZM163.961 347.511C164.848 347.511 165.54 347.078 166.039 346.213C166.542 345.348 166.793 344.097 166.793 342.461C166.793 341.374 166.678 340.456 166.448 339.706C166.222 338.952 165.896 338.381 165.47 337.993C165.048 337.601 164.545 337.405 163.961 337.405C163.079 337.405 162.387 337.839 161.884 338.709C161.381 339.578 161.127 340.829 161.123 342.461C161.123 343.552 161.236 344.474 161.462 345.229C161.692 345.979 162.018 346.548 162.44 346.935C162.862 347.319 163.369 347.511 163.961 347.511ZM175.58 349.217C174.57 349.213 173.708 348.947 172.992 348.418C172.276 347.89 171.728 347.121 171.349 346.111C170.97 345.101 170.78 343.884 170.78 342.461C170.78 341.042 170.97 339.83 171.349 338.824C171.732 337.818 172.282 337.051 172.998 336.523C173.718 335.994 174.579 335.73 175.58 335.73C176.582 335.73 177.441 335.996 178.156 336.529C178.872 337.058 179.42 337.825 179.799 338.83C180.183 339.832 180.374 341.042 180.374 342.461C180.374 343.888 180.185 345.107 179.806 346.117C179.426 347.123 178.879 347.892 178.163 348.425C177.447 348.953 176.586 349.217 175.58 349.217ZM175.58 347.511C176.467 347.511 177.159 347.078 177.658 346.213C178.161 345.348 178.412 344.097 178.412 342.461C178.412 341.374 178.297 340.456 178.067 339.706C177.841 338.952 177.515 338.381 177.089 337.993C176.667 337.601 176.164 337.405 175.58 337.405C174.698 337.405 174.006 337.839 173.503 338.709C173 339.578 172.747 340.829 172.742 342.461C172.742 343.552 172.855 344.474 173.081 345.229C173.311 345.979 173.637 346.548 174.059 346.935C174.481 347.319 174.988 347.511 175.58 347.511ZM187.2 349.217C186.19 349.213 185.327 348.947 184.611 348.418C183.895 347.89 183.347 347.121 182.968 346.111C182.589 345.101 182.399 343.884 182.399 342.461C182.399 341.042 182.589 339.83 182.968 338.824C183.352 337.818 183.901 337.051 184.617 336.523C185.337 335.994 186.198 335.73 187.2 335.73C188.201 335.73 189.06 335.996 189.776 336.529C190.491 337.058 191.039 337.825 191.418 338.83C191.802 339.832 191.994 341.042 191.994 342.461C191.994 343.888 191.804 345.107 191.425 346.117C191.045 347.123 190.498 347.892 189.782 348.425C189.066 348.953 188.205 349.217 187.2 349.217ZM187.2 347.511C188.086 347.511 188.778 347.078 189.277 346.213C189.78 345.348 190.031 344.097 190.031 342.461C190.031 341.374 189.916 340.456 189.686 339.706C189.46 338.952 189.134 338.381 188.708 337.993C188.286 337.601 187.783 337.405 187.2 337.405C186.317 337.405 185.625 337.839 185.122 338.709C184.619 339.578 184.366 340.829 184.362 342.461C184.362 343.552 184.474 344.474 184.7 345.229C184.93 345.979 185.256 346.548 185.678 346.935C186.1 347.319 186.607 347.511 187.2 347.511Z" fill="#1A1A1A"/>
<path d="M230 342C230 328.745 240.745 318 254 318H372C385.255 318 396 328.745 396 342C396 355.255 385.255 366 372 366H254C240.745 366 230 355.255 230 342Z" fill="url(#paint2_linear_3300_6648)"/>
<path d="M259.278 348V336.364H263.426C264.331 336.364 265.081 336.528 265.676 336.858C266.271 337.187 266.716 337.638 267.011 338.21C267.307 338.778 267.455 339.419 267.455 340.131C267.455 340.847 267.305 341.491 267.006 342.062C266.71 342.631 266.263 343.081 265.665 343.415C265.07 343.744 264.322 343.909 263.42 343.909H260.568V342.42H263.261C263.833 342.42 264.297 342.322 264.653 342.125C265.009 341.924 265.271 341.652 265.438 341.307C265.604 340.962 265.688 340.57 265.688 340.131C265.688 339.691 265.604 339.301 265.438 338.96C265.271 338.619 265.008 338.352 264.648 338.159C264.292 337.966 263.822 337.869 263.239 337.869H261.034V348H259.278ZM271.075 336.364V348H269.376V336.364H271.075ZM275.901 348.193C275.348 348.193 274.848 348.091 274.401 347.886C273.954 347.678 273.599 347.377 273.338 346.983C273.08 346.589 272.952 346.106 272.952 345.534C272.952 345.042 273.046 344.636 273.236 344.318C273.425 344 273.681 343.748 274.003 343.562C274.325 343.377 274.685 343.237 275.082 343.142C275.48 343.047 275.885 342.975 276.298 342.926C276.821 342.866 277.245 342.816 277.571 342.778C277.897 342.737 278.134 342.67 278.281 342.58C278.429 342.489 278.503 342.341 278.503 342.136V342.097C278.503 341.6 278.363 341.216 278.082 340.943C277.806 340.67 277.393 340.534 276.844 340.534C276.272 340.534 275.821 340.661 275.491 340.915C275.166 341.165 274.94 341.443 274.815 341.75L273.219 341.386C273.408 340.856 273.685 340.428 274.048 340.102C274.416 339.773 274.838 339.534 275.315 339.386C275.793 339.235 276.295 339.159 276.821 339.159C277.17 339.159 277.539 339.201 277.929 339.284C278.323 339.364 278.69 339.511 279.031 339.727C279.376 339.943 279.658 340.252 279.878 340.653C280.098 341.051 280.207 341.568 280.207 342.205V348H278.548V346.807H278.48C278.37 347.027 278.205 347.242 277.986 347.455C277.766 347.667 277.484 347.843 277.139 347.983C276.795 348.123 276.382 348.193 275.901 348.193ZM276.27 346.83C276.74 346.83 277.141 346.737 277.474 346.551C277.812 346.366 278.067 346.123 278.241 345.824C278.42 345.521 278.509 345.197 278.509 344.852V343.727C278.448 343.788 278.33 343.845 278.156 343.898C277.986 343.947 277.791 343.991 277.571 344.028C277.351 344.062 277.137 344.095 276.929 344.125C276.721 344.152 276.546 344.174 276.406 344.193C276.077 344.235 275.776 344.305 275.503 344.403C275.234 344.502 275.018 344.644 274.855 344.83C274.696 345.011 274.616 345.254 274.616 345.557C274.616 345.977 274.772 346.295 275.082 346.511C275.393 346.723 275.789 346.83 276.27 346.83ZM286.146 348.176C285.302 348.176 284.574 347.985 283.964 347.602C283.358 347.216 282.893 346.684 282.567 346.006C282.241 345.328 282.078 344.551 282.078 343.676C282.078 342.79 282.245 342.008 282.578 341.33C282.911 340.648 283.381 340.116 283.987 339.733C284.593 339.35 285.307 339.159 286.129 339.159C286.792 339.159 287.383 339.282 287.902 339.528C288.421 339.771 288.839 340.112 289.158 340.551C289.48 340.991 289.671 341.504 289.732 342.091H288.078C287.987 341.682 287.779 341.33 287.453 341.034C287.131 340.739 286.699 340.591 286.158 340.591C285.684 340.591 285.269 340.716 284.913 340.966C284.561 341.212 284.286 341.564 284.089 342.023C283.893 342.477 283.794 343.015 283.794 343.636C283.794 344.273 283.891 344.822 284.084 345.284C284.277 345.746 284.55 346.104 284.902 346.358C285.258 346.612 285.677 346.739 286.158 346.739C286.48 346.739 286.771 346.68 287.033 346.562C287.298 346.441 287.519 346.269 287.697 346.045C287.879 345.822 288.006 345.553 288.078 345.239H289.732C289.671 345.803 289.487 346.307 289.18 346.75C288.874 347.193 288.463 347.542 287.947 347.795C287.436 348.049 286.836 348.176 286.146 348.176ZM295.31 348.176C294.45 348.176 293.709 347.992 293.088 347.625C292.471 347.254 291.993 346.733 291.656 346.062C291.323 345.388 291.156 344.598 291.156 343.693C291.156 342.799 291.323 342.011 291.656 341.33C291.993 340.648 292.463 340.116 293.065 339.733C293.671 339.35 294.38 339.159 295.19 339.159C295.683 339.159 296.16 339.241 296.622 339.403C297.084 339.566 297.499 339.822 297.866 340.17C298.234 340.519 298.524 340.972 298.736 341.528C298.948 342.081 299.054 342.754 299.054 343.545V344.148H292.116V342.875H297.389C297.389 342.428 297.298 342.032 297.116 341.688C296.935 341.339 296.679 341.064 296.349 340.864C296.024 340.663 295.641 340.562 295.202 340.562C294.724 340.562 294.308 340.68 293.952 340.915C293.599 341.146 293.327 341.449 293.134 341.824C292.944 342.195 292.849 342.598 292.849 343.034V344.028C292.849 344.612 292.952 345.108 293.156 345.517C293.365 345.926 293.654 346.239 294.026 346.455C294.397 346.667 294.83 346.773 295.327 346.773C295.649 346.773 295.942 346.727 296.207 346.636C296.473 346.542 296.702 346.402 296.895 346.216C297.088 346.03 297.236 345.801 297.338 345.528L298.946 345.818C298.817 346.292 298.586 346.706 298.253 347.062C297.923 347.415 297.509 347.689 297.009 347.886C296.512 348.08 295.946 348.176 295.31 348.176ZM307.713 348.193C307.16 348.193 306.66 348.091 306.213 347.886C305.766 347.678 305.412 347.377 305.151 346.983C304.893 346.589 304.764 346.106 304.764 345.534C304.764 345.042 304.859 344.636 305.048 344.318C305.238 344 305.493 343.748 305.815 343.562C306.137 343.377 306.497 343.237 306.895 343.142C307.293 343.047 307.698 342.975 308.111 342.926C308.634 342.866 309.058 342.816 309.384 342.778C309.709 342.737 309.946 342.67 310.094 342.58C310.241 342.489 310.315 342.341 310.315 342.136V342.097C310.315 341.6 310.175 341.216 309.895 340.943C309.618 340.67 309.205 340.534 308.656 340.534C308.084 340.534 307.634 340.661 307.304 340.915C306.978 341.165 306.753 341.443 306.628 341.75L305.031 341.386C305.221 340.856 305.497 340.428 305.861 340.102C306.228 339.773 306.651 339.534 307.128 339.386C307.605 339.235 308.107 339.159 308.634 339.159C308.982 339.159 309.351 339.201 309.741 339.284C310.135 339.364 310.503 339.511 310.844 339.727C311.188 339.943 311.471 340.252 311.69 340.653C311.91 341.051 312.02 341.568 312.02 342.205V348H310.361V346.807H310.293C310.183 347.027 310.018 347.242 309.798 347.455C309.579 347.667 309.296 347.843 308.952 347.983C308.607 348.123 308.194 348.193 307.713 348.193ZM308.082 346.83C308.552 346.83 308.954 346.737 309.287 346.551C309.624 346.366 309.88 346.123 310.054 345.824C310.232 345.521 310.321 345.197 310.321 344.852V343.727C310.26 343.788 310.143 343.845 309.969 343.898C309.798 343.947 309.603 343.991 309.384 344.028C309.164 344.062 308.95 344.095 308.741 344.125C308.533 344.152 308.359 344.174 308.219 344.193C307.889 344.235 307.588 344.305 307.315 344.403C307.046 344.502 306.83 344.644 306.668 344.83C306.509 345.011 306.429 345.254 306.429 345.557C306.429 345.977 306.584 346.295 306.895 346.511C307.205 346.723 307.601 346.83 308.082 346.83ZM315.982 342.818V348H314.283V339.273H315.913V340.693H316.021C316.222 340.231 316.536 339.86 316.964 339.58C317.396 339.299 317.94 339.159 318.595 339.159C319.19 339.159 319.711 339.284 320.158 339.534C320.605 339.78 320.951 340.148 321.197 340.636C321.444 341.125 321.567 341.729 321.567 342.449V348H319.868V342.653C319.868 342.021 319.703 341.527 319.374 341.17C319.044 340.811 318.591 340.631 318.016 340.631C317.622 340.631 317.271 340.716 316.964 340.886C316.661 341.057 316.421 341.307 316.243 341.636C316.069 341.962 315.982 342.356 315.982 342.818ZM331.756 348.176C330.938 348.176 330.223 347.989 329.614 347.614C329.004 347.239 328.53 346.714 328.193 346.04C327.856 345.366 327.688 344.578 327.688 343.676C327.688 342.771 327.856 341.979 328.193 341.301C328.53 340.623 329.004 340.097 329.614 339.722C330.223 339.347 330.938 339.159 331.756 339.159C332.574 339.159 333.288 339.347 333.898 339.722C334.508 340.097 334.981 340.623 335.318 341.301C335.655 341.979 335.824 342.771 335.824 343.676C335.824 344.578 335.655 345.366 335.318 346.04C334.981 346.714 334.508 347.239 333.898 347.614C333.288 347.989 332.574 348.176 331.756 348.176ZM331.761 346.75C332.292 346.75 332.731 346.61 333.08 346.33C333.428 346.049 333.686 345.676 333.852 345.21C334.023 344.744 334.108 344.231 334.108 343.67C334.108 343.114 334.023 342.602 333.852 342.136C333.686 341.667 333.428 341.29 333.08 341.006C332.731 340.722 332.292 340.58 331.761 340.58C331.227 340.58 330.784 340.722 330.432 341.006C330.083 341.29 329.824 341.667 329.653 342.136C329.487 342.602 329.403 343.114 329.403 343.67C329.403 344.231 329.487 344.744 329.653 345.21C329.824 345.676 330.083 346.049 330.432 346.33C330.784 346.61 331.227 346.75 331.761 346.75ZM337.72 348V339.273H339.362V340.659H339.453C339.612 340.189 339.893 339.82 340.294 339.551C340.699 339.278 341.158 339.142 341.669 339.142C341.775 339.142 341.9 339.146 342.044 339.153C342.192 339.161 342.307 339.17 342.391 339.182V340.807C342.322 340.788 342.201 340.767 342.027 340.744C341.853 340.718 341.679 340.705 341.504 340.705C341.103 340.705 340.745 340.79 340.43 340.96C340.12 341.127 339.874 341.36 339.692 341.659C339.51 341.955 339.419 342.292 339.419 342.67V348H337.72ZM346.815 348.17C346.111 348.17 345.482 347.991 344.929 347.631C344.38 347.267 343.948 346.75 343.634 346.08C343.323 345.405 343.168 344.597 343.168 343.653C343.168 342.71 343.325 341.903 343.639 341.233C343.957 340.562 344.393 340.049 344.946 339.693C345.499 339.337 346.126 339.159 346.827 339.159C347.368 339.159 347.804 339.25 348.134 339.432C348.467 339.61 348.724 339.818 348.906 340.057C349.092 340.295 349.236 340.506 349.338 340.688H349.44V336.364H351.139V348H349.48V346.642H349.338C349.236 346.828 349.088 347.04 348.895 347.278C348.705 347.517 348.444 347.725 348.111 347.903C347.777 348.081 347.346 348.17 346.815 348.17ZM347.19 346.722C347.679 346.722 348.092 346.593 348.429 346.335C348.77 346.074 349.027 345.712 349.202 345.25C349.38 344.788 349.469 344.25 349.469 343.636C349.469 343.03 349.382 342.5 349.207 342.045C349.033 341.591 348.777 341.237 348.44 340.983C348.103 340.729 347.687 340.602 347.19 340.602C346.679 340.602 346.253 340.735 345.912 341C345.571 341.265 345.313 341.627 345.139 342.085C344.969 342.544 344.884 343.061 344.884 343.636C344.884 344.22 344.971 344.744 345.145 345.21C345.319 345.676 345.577 346.045 345.918 346.318C346.262 346.587 346.687 346.722 347.19 346.722ZM357.325 348.176C356.465 348.176 355.725 347.992 355.104 347.625C354.486 347.254 354.009 346.733 353.672 346.062C353.339 345.388 353.172 344.598 353.172 343.693C353.172 342.799 353.339 342.011 353.672 341.33C354.009 340.648 354.479 340.116 355.081 339.733C355.687 339.35 356.395 339.159 357.206 339.159C357.698 339.159 358.176 339.241 358.638 339.403C359.1 339.566 359.515 339.822 359.882 340.17C360.25 340.519 360.539 340.972 360.751 341.528C360.964 342.081 361.07 342.754 361.07 343.545V344.148H354.132V342.875H359.405C359.405 342.428 359.314 342.032 359.132 341.688C358.95 341.339 358.695 341.064 358.365 340.864C358.039 340.663 357.657 340.562 357.217 340.562C356.74 340.562 356.323 340.68 355.967 340.915C355.615 341.146 355.342 341.449 355.149 341.824C354.96 342.195 354.865 342.598 354.865 343.034V344.028C354.865 344.612 354.967 345.108 355.172 345.517C355.38 345.926 355.67 346.239 356.041 346.455C356.412 346.667 356.846 346.773 357.342 346.773C357.664 346.773 357.958 346.727 358.223 346.636C358.488 346.542 358.717 346.402 358.911 346.216C359.104 346.03 359.251 345.801 359.354 345.528L360.962 345.818C360.833 346.292 360.602 346.706 360.268 347.062C359.939 347.415 359.524 347.689 359.024 347.886C358.528 348.08 357.962 348.176 357.325 348.176ZM362.955 348V339.273H364.597V340.659H364.688C364.847 340.189 365.127 339.82 365.528 339.551C365.934 339.278 366.392 339.142 366.903 339.142C367.009 339.142 367.134 339.146 367.278 339.153C367.426 339.161 367.542 339.17 367.625 339.182V340.807C367.557 340.788 367.436 340.767 367.261 340.744C367.087 340.718 366.913 340.705 366.739 340.705C366.337 340.705 365.979 340.79 365.665 340.96C365.354 341.127 365.108 341.36 364.926 341.659C364.744 341.955 364.653 342.292 364.653 342.67V348H362.955Z" fill="#FAFAFA"/>
<defs>
<linearGradient id="paint0_linear_3300_6648" x1="36.0835" y1="69.5711" x2="439.882" y2="346.103" gradientUnits="userSpaceOnUse">
<stop stop-color="#002E5A"/>
<stop offset="1" stop-color="#0D5EBB"/>
</linearGradient>
<linearGradient id="paint1_linear_3300_6648" x1="70.1681" y1="361.362" x2="402.348" y2="133.875" gradientUnits="userSpaceOnUse">
<stop stop-color="#002E5A"/>
<stop offset="1" stop-color="#0D5EBB"/>
</linearGradient>
<linearGradient id="paint2_linear_3300_6648" x1="243.021" y1="325.26" x2="275.41" y2="401.967" gradientUnits="userSpaceOnUse">
<stop stop-color="#002E5A"/>
<stop offset="1" stop-color="#0D5EBB"/>
</linearGradient>
</defs>
</svg>
