<svg width="157" height="66" viewBox="0 0 157 66" fill="none" xmlns="http://www.w3.org/2000/svg">
<path d="M5.9446 35H0.882102L10.0994 8.81818H15.9545L25.1847 35H20.1222L13.1293 14.1875H12.9247L5.9446 35ZM6.1108 24.7344H19.9176V28.544H6.1108V24.7344ZM27.9132 35V8.81818H32.541V18.6108H32.7328C32.9714 18.1335 33.3081 17.6264 33.7427 17.0895C34.1774 16.544 34.7654 16.0795 35.5069 15.696C36.2484 15.304 37.1944 15.108 38.345 15.108C39.862 15.108 41.2299 15.4957 42.4487 16.2713C43.676 17.0384 44.6475 18.1761 45.3635 19.6847C46.0879 21.1847 46.4501 23.0256 46.4501 25.2074C46.4501 27.3636 46.0964 29.196 45.389 30.7045C44.6816 32.2131 43.7186 33.3636 42.4998 34.1562C41.2811 34.9489 39.9004 35.3452 38.3578 35.3452C37.2328 35.3452 36.2995 35.1577 35.5581 34.7827C34.8166 34.4077 34.22 33.956 33.7683 33.4276C33.3251 32.8906 32.9799 32.3835 32.7328 31.9062H32.4643V35H27.9132ZM32.4515 25.1818C32.4515 26.4517 32.6305 27.5639 32.9885 28.5185C33.3549 29.473 33.8791 30.2187 34.5609 30.7557C35.2512 31.2841 36.0865 31.5483 37.0666 31.5483C38.0893 31.5483 38.9458 31.2756 39.6362 30.7301C40.3265 30.1761 40.8464 29.4219 41.1958 28.4673C41.5538 27.5043 41.7328 26.4091 41.7328 25.1818C41.7328 23.9631 41.5581 22.8807 41.2086 21.9347C40.8592 20.9886 40.3393 20.2472 39.649 19.7102C38.9586 19.1733 38.0978 18.9048 37.0666 18.9048C36.0779 18.9048 35.2385 19.1648 34.5481 19.6847C33.8578 20.2045 33.3336 20.9332 32.9757 21.8707C32.6262 22.8082 32.4515 23.9119 32.4515 25.1818ZM58.2297 35.3835C56.3121 35.3835 54.6502 34.9616 53.244 34.1179C51.8377 33.2741 50.7468 32.0937 49.9712 30.5767C49.2042 29.0597 48.8207 27.2869 48.8207 25.2585C48.8207 23.2301 49.2042 21.4531 49.9712 19.9276C50.7468 18.402 51.8377 17.2173 53.244 16.3736C54.6502 15.5298 56.3121 15.108 58.2297 15.108C60.1474 15.108 61.8093 15.5298 63.2155 16.3736C64.6218 17.2173 65.7084 18.402 66.4755 19.9276C67.2511 21.4531 67.6388 23.2301 67.6388 25.2585C67.6388 27.2869 67.2511 29.0597 66.4755 30.5767C65.7084 32.0937 64.6218 33.2741 63.2155 34.1179C61.8093 34.9616 60.1474 35.3835 58.2297 35.3835ZM58.2553 31.6761C59.2951 31.6761 60.1644 31.3906 60.8633 30.8196C61.5621 30.2401 62.082 29.4645 62.4229 28.4929C62.7724 27.5213 62.9471 26.4389 62.9471 25.2457C62.9471 24.044 62.7724 22.9574 62.4229 21.9858C62.082 21.0057 61.5621 20.2259 60.8633 19.6463C60.1644 19.0668 59.2951 18.777 58.2553 18.777C57.19 18.777 56.3036 19.0668 55.5962 19.6463C54.8974 20.2259 54.3732 21.0057 54.0238 21.9858C53.6829 22.9574 53.5124 24.044 53.5124 25.2457C53.5124 26.4389 53.6829 27.5213 54.0238 28.4929C54.3732 29.4645 54.8974 30.2401 55.5962 30.8196C56.3036 31.3906 57.19 31.6761 58.2553 31.6761ZM83.3624 26.7415V15.3636H87.9902V35H83.503V31.5099H83.2984C82.8553 32.6094 82.1266 33.5085 81.1124 34.2074C80.1067 34.9062 78.8666 35.2557 77.3922 35.2557C76.1053 35.2557 74.9675 34.9702 73.9788 34.3991C72.9987 33.8196 72.2317 32.9801 71.6777 31.8807C71.1237 30.7727 70.8467 29.4347 70.8467 27.8665V15.3636H75.4746V27.1506C75.4746 28.3949 75.8155 29.3835 76.4973 30.1165C77.1791 30.8494 78.074 31.2159 79.182 31.2159C79.8638 31.2159 80.5243 31.0497 81.1635 30.7173C81.8027 30.3849 82.3269 29.8906 82.7359 29.2344C83.1536 28.5696 83.3624 27.7386 83.3624 26.7415ZM101.834 15.3636V18.9432H90.5461V15.3636H101.834ZM93.3331 10.6591H97.9609V29.0938C97.9609 29.7159 98.0547 30.1932 98.2422 30.5256C98.4382 30.8494 98.6939 31.071 99.0092 31.1903C99.3245 31.3097 99.674 31.3693 100.058 31.3693C100.347 31.3693 100.611 31.348 100.85 31.3054C101.097 31.2628 101.285 31.2244 101.413 31.1903L102.192 34.8082C101.945 34.8935 101.592 34.9872 101.131 35.0895C100.68 35.1918 100.126 35.2514 99.4694 35.2685C98.3103 35.3026 97.2663 35.1278 96.3373 34.7443C95.4084 34.3523 94.6711 33.7472 94.1257 32.929C93.5888 32.1108 93.3245 31.0881 93.3331 29.8608V10.6591ZM129.903 8.81818H134.646V25.9233C134.646 27.7983 134.203 29.4474 133.317 30.8707C132.439 32.294 131.203 33.4062 129.609 34.2074C128.016 35 126.153 35.3963 124.023 35.3963C121.883 35.3963 120.017 35 118.423 34.2074C116.83 33.4062 115.594 32.294 114.716 30.8707C113.838 29.4474 113.399 27.7983 113.399 25.9233V8.81818H118.142V25.527C118.142 26.6179 118.381 27.5895 118.858 28.4418C119.344 29.294 120.026 29.9631 120.903 30.4489C121.781 30.9261 122.821 31.1648 124.023 31.1648C125.224 31.1648 126.264 30.9261 127.142 30.4489C128.028 29.9631 128.71 29.294 129.187 28.4418C129.665 27.5895 129.903 26.6179 129.903 25.527V8.81818ZM154.397 20.554L150.178 21.0142C150.059 20.5881 149.85 20.1875 149.552 19.8125C149.262 19.4375 148.87 19.1349 148.375 18.9048C147.881 18.6747 147.276 18.5597 146.56 18.5597C145.597 18.5597 144.787 18.7685 144.131 19.1861C143.483 19.6037 143.164 20.1449 143.172 20.8097C143.164 21.3807 143.373 21.8452 143.799 22.2031C144.233 22.5611 144.949 22.8551 145.947 23.0852L149.296 23.8011C151.154 24.2017 152.535 24.8366 153.438 25.706C154.35 26.5753 154.81 27.7131 154.819 29.1193C154.81 30.3551 154.448 31.446 153.732 32.392C153.025 33.3295 152.04 34.0625 150.779 34.5909C149.518 35.1193 148.069 35.3835 146.432 35.3835C144.029 35.3835 142.094 34.8807 140.628 33.875C139.162 32.8608 138.289 31.4503 138.008 29.6435L142.52 29.2088C142.725 30.0952 143.16 30.7642 143.824 31.2159C144.489 31.6676 145.354 31.8935 146.42 31.8935C147.519 31.8935 148.401 31.6676 149.066 31.2159C149.739 30.7642 150.076 30.206 150.076 29.5412C150.076 28.9787 149.858 28.5142 149.424 28.1477C148.998 27.7812 148.333 27.5 147.429 27.304L144.08 26.6009C142.197 26.2088 140.803 25.5483 139.9 24.6193C138.996 23.6818 138.549 22.4972 138.557 21.0653C138.549 19.8551 138.877 18.8068 139.542 17.9205C140.215 17.0256 141.148 16.3352 142.341 15.8494C143.543 15.3551 144.928 15.108 146.496 15.108C148.797 15.108 150.608 15.598 151.929 16.5781C153.259 17.5582 154.081 18.8835 154.397 20.554Z" fill="#1A1A1A"/>
<rect y="60" width="56" height="6" rx="3" fill="#DA7717"/>
</svg>
