<svg width="443" height="82" viewBox="0 0 443 82" fill="none" xmlns="http://www.w3.org/2000/svg">
<g clip-path="url(#clip0_2708_3297)">
<path d="M3.03409 43V8.09091H10.4148V22.4943H25.3977V8.09091H32.7614V43H25.3977V28.5795H10.4148V43H3.03409ZM37.7502 43V16.8182H45.0116V43H37.7502ZM41.398 13.4432C40.3184 13.4432 39.3923 13.0852 38.6195 12.3693C37.8582 11.642 37.4775 10.7727 37.4775 9.76136C37.4775 8.76136 37.8582 7.90341 38.6195 7.1875C39.3923 6.46023 40.3184 6.09659 41.398 6.09659C42.4775 6.09659 43.398 6.46023 44.1593 7.1875C44.932 7.90341 45.3184 8.76136 45.3184 9.76136C45.3184 10.7727 44.932 11.642 44.1593 12.3693C43.398 13.0852 42.4775 13.4432 41.398 13.4432ZM61.6638 53.3636C59.3115 53.3636 57.2945 53.0398 55.6127 52.392C53.9422 51.7557 52.6127 50.8864 51.624 49.7841C50.6354 48.6818 49.9934 47.4432 49.6979 46.0682L56.4138 45.1648C56.6184 45.6875 56.9422 46.1761 57.3854 46.6307C57.8286 47.0852 58.4138 47.4489 59.1411 47.7216C59.8797 48.0057 60.7774 48.1477 61.8343 48.1477C63.4138 48.1477 64.7149 47.7614 65.7377 46.9886C66.7718 46.2273 67.2888 44.9489 67.2888 43.1534V38.3636H66.982C66.6638 39.0909 66.1865 39.7784 65.5502 40.4261C64.9138 41.0739 64.0956 41.6023 63.0956 42.0114C62.0956 42.4205 60.9024 42.625 59.5161 42.625C57.5502 42.625 55.7604 42.1705 54.1468 41.2614C52.5445 40.3409 51.2661 38.9375 50.3115 37.0511C49.3684 35.1534 48.8968 32.7557 48.8968 29.858C48.8968 26.892 49.3797 24.4148 50.3456 22.4261C51.3115 20.4375 52.5956 18.9489 54.1979 17.9602C55.8115 16.9716 57.5786 16.4773 59.499 16.4773C60.9649 16.4773 62.1922 16.7273 63.1809 17.2273C64.1695 17.7159 64.9649 18.3295 65.5672 19.0682C66.1809 19.7955 66.6524 20.5114 66.982 21.2159H67.2547V16.8182H74.4649V43.2557C74.4649 45.483 73.9195 47.3466 72.8286 48.8466C71.7377 50.3466 70.2263 51.4716 68.2945 52.2216C66.374 52.983 64.1638 53.3636 61.6638 53.3636ZM61.8172 37.1705C62.9877 37.1705 63.9763 36.8807 64.7831 36.3011C65.6013 35.7102 66.2263 34.8693 66.6581 33.7784C67.1013 32.6761 67.3229 31.358 67.3229 29.8239C67.3229 28.2898 67.107 26.9602 66.6752 25.8352C66.2434 24.6989 65.6184 23.8182 64.8002 23.1932C63.982 22.5682 62.9877 22.2557 61.8172 22.2557C60.624 22.2557 59.6184 22.5795 58.8002 23.2273C57.982 23.8636 57.3627 24.75 56.9422 25.8864C56.5218 27.0227 56.3115 28.3352 56.3115 29.8239C56.3115 31.3352 56.5218 32.642 56.9422 33.7443C57.374 34.8352 57.9934 35.6818 58.8002 36.2841C59.6184 36.875 60.624 37.1705 61.8172 37.1705ZM86.5447 27.8636V43H79.2834V8.09091H86.3402V21.4375H86.647C87.2379 19.892 88.1924 18.6818 89.5106 17.8068C90.8288 16.9205 92.4822 16.4773 94.4709 16.4773C96.289 16.4773 97.8743 16.875 99.2265 17.6705C100.59 18.4545 101.647 19.5852 102.397 21.0625C103.158 22.5284 103.533 24.2841 103.522 26.3295V43H96.2606V27.625C96.272 26.0114 95.8629 24.7557 95.0334 23.858C94.2152 22.9602 93.0674 22.5114 91.5902 22.5114C90.6015 22.5114 89.7265 22.7216 88.9652 23.142C88.2152 23.5625 87.6243 24.1761 87.1924 24.983C86.772 25.7784 86.5561 26.7386 86.5447 27.8636ZM108.413 43V8.09091H115.674V21.2159H115.896C116.214 20.5114 116.674 19.7955 117.276 19.0682C117.89 18.3295 118.686 17.7159 119.663 17.2273C120.651 16.7273 121.879 16.4773 123.345 16.4773C125.254 16.4773 127.015 16.9773 128.629 17.9773C130.242 18.9659 131.532 20.4602 132.498 22.4602C133.464 24.4489 133.947 26.9432 133.947 29.9432C133.947 32.8636 133.475 35.3295 132.532 37.3409C131.6 39.3409 130.328 40.858 128.714 41.892C127.112 42.9148 125.316 43.4261 123.328 43.4261C121.919 43.4261 120.72 43.1932 119.731 42.7273C118.754 42.2614 117.953 41.6761 117.328 40.9716C116.703 40.2557 116.225 39.5341 115.896 38.8068H115.572V43H108.413ZM115.521 29.9091C115.521 31.4659 115.737 32.8239 116.169 33.983C116.6 35.142 117.225 36.0455 118.044 36.6932C118.862 37.3295 119.856 37.6477 121.026 37.6477C122.208 37.6477 123.208 37.3239 124.026 36.6761C124.845 36.017 125.464 35.108 125.884 33.9489C126.316 32.7784 126.532 31.4318 126.532 29.9091C126.532 28.3977 126.322 27.0682 125.901 25.9205C125.481 24.7727 124.862 23.875 124.044 23.2273C123.225 22.5795 122.22 22.2557 121.026 22.2557C119.845 22.2557 118.845 22.5682 118.026 23.1932C117.22 23.8182 116.6 24.7045 116.169 25.8523C115.737 27 115.521 28.3523 115.521 29.9091ZM137.832 43V16.8182H144.872V21.3864H145.145C145.622 19.7614 146.423 18.5341 147.548 17.7045C148.673 16.8636 149.968 16.4432 151.434 16.4432C151.798 16.4432 152.19 16.4659 152.611 16.5114C153.031 16.5568 153.4 16.6193 153.718 16.6989V23.142C153.378 23.0398 152.906 22.9489 152.304 22.8693C151.701 22.7898 151.15 22.75 150.65 22.75C149.582 22.75 148.628 22.983 147.787 23.4489C146.957 23.9034 146.298 24.5398 145.809 25.358C145.332 26.1761 145.093 27.1193 145.093 28.1875V43H137.832ZM167.124 43.5114C164.476 43.5114 162.186 42.9489 160.254 41.8239C158.334 40.6875 156.851 39.108 155.805 37.0852C154.76 35.0511 154.237 32.6932 154.237 30.0114C154.237 27.3068 154.76 24.9432 155.805 22.9205C156.851 20.8864 158.334 19.3068 160.254 18.1818C162.186 17.0455 164.476 16.4773 167.124 16.4773C169.771 16.4773 172.055 17.0455 173.976 18.1818C175.908 19.3068 177.396 20.8864 178.442 22.9205C179.487 24.9432 180.01 27.3068 180.01 30.0114C180.01 32.6932 179.487 35.0511 178.442 37.0852C177.396 39.108 175.908 40.6875 173.976 41.8239C172.055 42.9489 169.771 43.5114 167.124 43.5114ZM167.158 37.8864C168.362 37.8864 169.368 37.5455 170.175 36.8636C170.981 36.1705 171.589 35.2273 171.999 34.0341C172.419 32.8409 172.629 31.483 172.629 29.9602C172.629 28.4375 172.419 27.0795 171.999 25.8864C171.589 24.6932 170.981 23.75 170.175 23.0568C169.368 22.3636 168.362 22.017 167.158 22.017C165.942 22.017 164.919 22.3636 164.089 23.0568C163.271 23.75 162.652 24.6932 162.231 25.8864C161.822 27.0795 161.618 28.4375 161.618 29.9602C161.618 31.483 161.822 32.8409 162.231 34.0341C162.652 35.2273 163.271 36.1705 164.089 36.8636C164.919 37.5455 165.942 37.8864 167.158 37.8864ZM188.28 43L181.155 16.8182H188.502L192.558 34.4091H192.797L197.024 16.8182H204.235L208.53 34.3068H208.752L212.74 16.8182H220.07L212.962 43H205.274L200.774 26.5341H200.45L195.95 43H188.28ZM233.269 43V8.09091H247.042C249.678 8.09091 251.928 8.5625 253.792 9.50568C255.667 10.4375 257.093 11.7614 258.07 13.4773C259.059 15.1818 259.553 17.1875 259.553 19.4943C259.553 21.8125 259.053 23.8068 258.053 25.4773C257.053 27.1364 255.604 28.4091 253.707 29.2955C251.82 30.1818 249.536 30.625 246.854 30.625H237.633V24.6932H245.661C247.07 24.6932 248.241 24.5 249.173 24.1136C250.104 23.7273 250.798 23.1477 251.252 22.375C251.718 21.6023 251.951 20.642 251.951 19.4943C251.951 18.3352 251.718 17.358 251.252 16.5625C250.798 15.767 250.099 15.1648 249.155 14.7557C248.224 14.3352 247.048 14.125 245.627 14.125H240.65V43H233.269ZM252.121 27.1136L260.798 43H252.65L244.161 27.1136H252.121ZM275.183 43.5114C272.489 43.5114 270.171 42.9659 268.228 41.875C266.296 40.7727 264.808 39.2159 263.762 37.2045C262.717 35.1818 262.194 32.7898 262.194 30.0284C262.194 27.3352 262.717 24.9716 263.762 22.9375C264.808 20.9034 266.279 19.3182 268.177 18.1818C270.086 17.0455 272.325 16.4773 274.893 16.4773C276.62 16.4773 278.228 16.7557 279.717 17.3125C281.217 17.858 282.524 18.6818 283.637 19.7841C284.762 20.8864 285.637 22.2727 286.262 23.9432C286.887 25.6023 287.2 27.5455 287.2 29.7727V31.767H265.092V27.267H280.364C280.364 26.2216 280.137 25.2955 279.683 24.4886C279.228 23.6818 278.597 23.0511 277.791 22.5966C276.995 22.1307 276.069 21.8977 275.012 21.8977C273.91 21.8977 272.933 22.1534 272.08 22.6648C271.239 23.1648 270.58 23.8409 270.103 24.6932C269.626 25.5341 269.382 26.4716 269.37 27.5057V31.7841C269.37 33.0795 269.609 34.1989 270.086 35.142C270.575 36.0852 271.262 36.8125 272.149 37.3239C273.035 37.8352 274.086 38.0909 275.302 38.0909C276.109 38.0909 276.847 37.9773 277.518 37.75C278.188 37.5227 278.762 37.1818 279.239 36.7273C279.717 36.2727 280.08 35.7159 280.33 35.0568L287.046 35.5C286.705 37.1136 286.007 38.5227 284.95 39.7273C283.904 40.9205 282.552 41.8523 280.893 42.5227C279.245 43.1818 277.342 43.5114 275.183 43.5114ZM312.762 24.2841L306.115 24.6932C306.001 24.125 305.757 23.6136 305.382 23.1591C305.007 22.6932 304.512 22.3239 303.899 22.0511C303.297 21.767 302.575 21.625 301.734 21.625C300.609 21.625 299.66 21.8636 298.887 22.3409C298.115 22.8068 297.728 23.4318 297.728 24.2159C297.728 24.8409 297.978 25.3693 298.478 25.8011C298.978 26.233 299.836 26.5795 301.052 26.8409L305.791 27.7955C308.336 28.3182 310.234 29.1591 311.484 30.3182C312.734 31.4773 313.359 33 313.359 34.8864C313.359 36.6023 312.853 38.108 311.842 39.4034C310.842 40.6989 309.467 41.7102 307.717 42.4375C305.978 43.1534 303.973 43.5114 301.7 43.5114C298.234 43.5114 295.473 42.7898 293.416 41.3466C291.37 39.892 290.172 37.9148 289.819 35.4148L296.961 35.0398C297.177 36.0966 297.7 36.9034 298.529 37.4602C299.359 38.0057 300.422 38.2784 301.717 38.2784C302.99 38.2784 304.012 38.0341 304.785 37.5455C305.569 37.0455 305.967 36.4034 305.978 35.6193C305.967 34.9602 305.689 34.4205 305.143 34C304.598 33.5682 303.757 33.2386 302.62 33.0114L298.086 32.108C295.529 31.5966 293.626 30.7102 292.376 29.4489C291.137 28.1875 290.518 26.5795 290.518 24.625C290.518 22.9432 290.973 21.4943 291.882 20.2784C292.802 19.0625 294.092 18.125 295.751 17.4659C297.422 16.8068 299.376 16.4773 301.615 16.4773C304.922 16.4773 307.524 17.1761 309.422 18.5739C311.331 19.9716 312.444 21.875 312.762 24.2841ZM328.903 43.5114C326.21 43.5114 323.892 42.9659 321.949 41.875C320.017 40.7727 318.528 39.2159 317.483 37.2045C316.437 35.1818 315.915 32.7898 315.915 30.0284C315.915 27.3352 316.437 24.9716 317.483 22.9375C318.528 20.9034 320 19.3182 321.898 18.1818C323.807 17.0455 326.045 16.4773 328.614 16.4773C330.341 16.4773 331.949 16.7557 333.437 17.3125C334.937 17.858 336.244 18.6818 337.358 19.7841C338.483 20.8864 339.358 22.2727 339.983 23.9432C340.608 25.6023 340.92 27.5455 340.92 29.7727V31.767H318.812V27.267H334.085C334.085 26.2216 333.858 25.2955 333.403 24.4886C332.949 23.6818 332.318 23.0511 331.511 22.5966C330.716 22.1307 329.79 21.8977 328.733 21.8977C327.631 21.8977 326.653 22.1534 325.801 22.6648C324.96 23.1648 324.301 23.8409 323.824 24.6932C323.346 25.5341 323.102 26.4716 323.091 27.5057V31.7841C323.091 33.0795 323.329 34.1989 323.807 35.142C324.295 36.0852 324.983 36.8125 325.869 37.3239C326.756 37.8352 327.807 38.0909 329.023 38.0909C329.829 38.0909 330.568 37.9773 331.239 37.75C331.909 37.5227 332.483 37.1818 332.96 36.7273C333.437 36.2727 333.801 35.7159 334.051 35.0568L340.767 35.5C340.426 37.1136 339.727 38.5227 338.67 39.7273C337.625 40.9205 336.273 41.8523 334.614 42.5227C332.966 43.1818 331.062 43.5114 328.903 43.5114ZM352.165 43.4943C350.494 43.4943 349.006 43.2045 347.699 42.625C346.392 42.0341 345.358 41.1648 344.597 40.017C343.847 38.858 343.472 37.4148 343.472 35.6875C343.472 34.233 343.739 33.0114 344.273 32.0227C344.807 31.0341 345.534 30.2386 346.455 29.6364C347.375 29.0341 348.421 28.5795 349.591 28.2727C350.773 27.9659 352.011 27.75 353.307 27.625C354.83 27.4659 356.057 27.3182 356.989 27.1818C357.921 27.0341 358.597 26.8182 359.017 26.5341C359.438 26.25 359.648 25.8295 359.648 25.2727V25.1705C359.648 24.0909 359.307 23.2557 358.625 22.6648C357.955 22.0739 357 21.7784 355.761 21.7784C354.455 21.7784 353.415 22.0682 352.642 22.6477C351.869 23.2159 351.358 23.9318 351.108 24.7955L344.392 24.25C344.733 22.6591 345.404 21.2841 346.404 20.125C347.404 18.9545 348.693 18.0568 350.273 17.4318C351.864 16.7955 353.705 16.4773 355.796 16.4773C357.25 16.4773 358.642 16.6477 359.972 16.9886C361.313 17.3295 362.5 17.858 363.534 18.5739C364.58 19.2898 365.404 20.2102 366.006 21.3352C366.608 22.4489 366.909 23.7841 366.909 25.3409V43H360.023V39.3693H359.818C359.398 40.1875 358.835 40.9091 358.131 41.5341C357.426 42.1477 356.58 42.6307 355.591 42.983C354.602 43.3239 353.46 43.4943 352.165 43.4943ZM354.244 38.483C355.313 38.483 356.256 38.2727 357.074 37.8523C357.892 37.4205 358.534 36.8409 359 36.1136C359.466 35.3864 359.699 34.5625 359.699 33.642V30.8636C359.472 31.0114 359.159 31.1477 358.761 31.2727C358.375 31.3864 357.938 31.4943 357.449 31.5966C356.96 31.6875 356.472 31.7727 355.983 31.8523C355.494 31.9205 355.051 31.983 354.654 32.0398C353.801 32.1648 353.057 32.3636 352.421 32.6364C351.784 32.9091 351.29 33.2784 350.938 33.7443C350.585 34.1989 350.409 34.767 350.409 35.4489C350.409 36.4375 350.767 37.1932 351.483 37.7159C352.21 38.2273 353.131 38.483 354.244 38.483ZM371.583 43V16.8182H378.622V21.3864H378.895C379.372 19.7614 380.174 18.5341 381.299 17.7045C382.424 16.8636 383.719 16.4432 385.185 16.4432C385.549 16.4432 385.941 16.4659 386.361 16.5114C386.782 16.5568 387.151 16.6193 387.469 16.6989V23.142C387.128 23.0398 386.657 22.9489 386.054 22.8693C385.452 22.7898 384.901 22.75 384.401 22.75C383.333 22.75 382.378 22.983 381.537 23.4489C380.708 23.9034 380.049 24.5398 379.56 25.358C379.083 26.1761 378.844 27.1193 378.844 28.1875V43H371.583ZM400.874 43.5114C398.192 43.5114 395.886 42.9432 393.954 41.8068C392.033 40.6591 390.556 39.0682 389.522 37.0341C388.499 35 387.988 32.6591 387.988 30.0114C387.988 27.3295 388.505 24.9773 389.539 22.9545C390.584 20.9205 392.067 19.3352 393.988 18.1989C395.908 17.0511 398.192 16.4773 400.84 16.4773C403.124 16.4773 405.124 16.892 406.84 17.7216C408.556 18.5511 409.914 19.7159 410.914 21.2159C411.914 22.7159 412.465 24.4773 412.567 26.5H405.715C405.522 25.1932 405.011 24.142 404.181 23.3466C403.363 22.5398 402.289 22.1364 400.959 22.1364C399.834 22.1364 398.851 22.4432 398.011 23.0568C397.181 23.6591 396.533 24.5398 396.067 25.6989C395.601 26.858 395.368 28.2614 395.368 29.9091C395.368 31.5795 395.596 33 396.05 34.1705C396.516 35.3409 397.17 36.233 398.011 36.8466C398.851 37.4602 399.834 37.767 400.959 37.767C401.789 37.767 402.533 37.5966 403.192 37.2557C403.863 36.9148 404.414 36.4205 404.846 35.7727C405.289 35.1136 405.579 34.3239 405.715 33.4034H412.567C412.454 35.4034 411.908 37.1648 410.931 38.6875C409.965 40.1989 408.63 41.3807 406.925 42.233C405.221 43.0852 403.204 43.5114 400.874 43.5114ZM423.518 27.8636V43H416.256V8.09091H423.313V21.4375H423.62C424.211 19.892 425.166 18.6818 426.484 17.8068C427.802 16.9205 429.455 16.4773 431.444 16.4773C433.262 16.4773 434.847 16.875 436.2 17.6705C437.563 18.4545 438.62 19.5852 439.37 21.0625C440.131 22.5284 440.506 24.2841 440.495 26.3295V43H433.234V27.625C433.245 26.0114 432.836 24.7557 432.006 23.858C431.188 22.9602 430.041 22.5114 428.563 22.5114C427.575 22.5114 426.7 22.7216 425.938 23.142C425.188 23.5625 424.597 24.1761 424.166 24.983C423.745 25.7784 423.529 26.7386 423.518 27.8636Z" fill="#1A1A1A"/>
<rect y="76" width="56" height="6" rx="3" fill="#DA7717"/>
</g>
<defs>
<clipPath id="clip0_2708_3297">
<rect width="443" height="82" fill="white"/>
</clipPath>
</defs>
</svg>
