<svg width="189" height="74" viewBox="0 0 189 74" fill="none" xmlns="http://www.w3.org/2000/svg">
<path d="M25.9773 21.9091C25.9773 24.7301 25.4489 27.1463 24.392 29.1577C23.3438 31.1605 21.9119 32.6946 20.0966 33.7599C18.2898 34.8253 16.2401 35.358 13.9474 35.358C11.6548 35.358 9.60085 34.8253 7.78551 33.7599C5.97869 32.6861 4.54688 31.1477 3.49006 29.1449C2.44176 27.1335 1.91761 24.7216 1.91761 21.9091C1.91761 19.0881 2.44176 16.6761 3.49006 14.6733C4.54688 12.6619 5.97869 11.1236 7.78551 10.0582C9.60085 8.9929 11.6548 8.46023 13.9474 8.46023C16.2401 8.46023 18.2898 8.9929 20.0966 10.0582C21.9119 11.1236 23.3438 12.6619 24.392 14.6733C25.4489 16.6761 25.9773 19.0881 25.9773 21.9091ZM21.2088 21.9091C21.2088 19.9233 20.8977 18.2486 20.2756 16.8849C19.6619 15.5128 18.8097 14.4773 17.7188 13.7784C16.6278 13.071 15.3707 12.7173 13.9474 12.7173C12.5241 12.7173 11.267 13.071 10.1761 13.7784C9.08523 14.4773 8.22869 15.5128 7.60653 16.8849C6.9929 18.2486 6.68608 19.9233 6.68608 21.9091C6.68608 23.8949 6.9929 25.5739 7.60653 26.946C8.22869 28.3097 9.08523 29.3452 10.1761 30.0526C11.267 30.7514 12.5241 31.1009 13.9474 31.1009C15.3707 31.1009 16.6278 30.7514 17.7188 30.0526C18.8097 29.3452 19.6619 28.3097 20.2756 26.946C20.8977 25.5739 21.2088 23.8949 21.2088 21.9091ZM42.0524 26.7415V15.3636H46.6802V35H42.193V31.5099H41.9885C41.5453 32.6094 40.8166 33.5085 39.8024 34.2074C38.7967 34.9062 37.5566 35.2557 36.0822 35.2557C34.7953 35.2557 33.6575 34.9702 32.6689 34.3991C31.6887 33.8196 30.9217 32.9801 30.3677 31.8807C29.8137 30.7727 29.5367 29.4347 29.5367 27.8665V15.3636H34.1646V27.1506C34.1646 28.3949 34.5055 29.3835 35.1873 30.1165C35.8691 30.8494 36.764 31.2159 37.872 31.2159C38.5538 31.2159 39.2143 31.0497 39.8535 30.7173C40.4927 30.3849 41.0169 29.8906 41.426 29.2344C41.8436 28.5696 42.0524 27.7386 42.0524 26.7415ZM50.7191 35V15.3636H55.2063V18.6364H55.4109C55.7688 17.5028 56.3824 16.6293 57.2518 16.0156C58.1296 15.3935 59.131 15.0824 60.256 15.0824C60.5117 15.0824 60.7972 15.0952 61.1126 15.1207C61.4364 15.1378 61.7049 15.1676 61.918 15.2102V19.4673C61.7219 19.3991 61.4109 19.3395 60.9847 19.2884C60.5671 19.2287 60.1623 19.1989 59.7702 19.1989C58.9265 19.1989 58.168 19.3821 57.4947 19.7486C56.8299 20.1065 56.3057 20.6051 55.9222 21.2443C55.5387 21.8835 55.3469 22.6207 55.3469 23.456V35H50.7191ZM76.5348 35L70.9865 15.3636H75.7038L79.1555 29.1705H79.3345L82.8629 15.3636H87.5291L91.0575 29.0938H91.2493L94.6498 15.3636H99.3799L93.8189 35H88.9993L85.3174 21.7301H85.049L81.3672 35H76.5348ZM101.891 35V15.3636H106.378V18.6364H106.583C106.941 17.5028 107.554 16.6293 108.424 16.0156C109.302 15.3935 110.303 15.0824 111.428 15.0824C111.684 15.0824 111.969 15.0952 112.285 15.1207C112.608 15.1378 112.877 15.1676 113.09 15.2102V19.4673C112.894 19.3991 112.583 19.3395 112.157 19.2884C111.739 19.2287 111.334 19.1989 110.942 19.1989C110.099 19.1989 109.34 19.3821 108.667 19.7486C108.002 20.1065 107.478 20.6051 107.094 21.2443C106.711 21.8835 106.519 22.6207 106.519 23.456V35H101.891ZM115.445 35V15.3636H120.072V35H115.445ZM117.771 12.5767C117.038 12.5767 116.408 12.3338 115.879 11.848C115.351 11.3537 115.087 10.7614 115.087 10.071C115.087 9.37216 115.351 8.77983 115.879 8.29403C116.408 7.79971 117.038 7.55256 117.771 7.55256C118.513 7.55256 119.143 7.79971 119.663 8.29403C120.192 8.77983 120.456 9.37216 120.456 10.071C120.456 10.7614 120.192 11.3537 119.663 11.848C119.143 12.3338 118.513 12.5767 117.771 12.5767ZM133.917 15.3636V18.9432H122.628V15.3636H133.917ZM125.415 10.6591H130.043V29.0938C130.043 29.7159 130.137 30.1932 130.324 30.5256C130.52 30.8494 130.776 31.071 131.091 31.1903C131.407 31.3097 131.756 31.3693 132.14 31.3693C132.429 31.3693 132.694 31.348 132.932 31.3054C133.179 31.2628 133.367 31.2244 133.495 31.1903L134.275 34.8082C134.027 34.8935 133.674 34.9872 133.214 35.0895C132.762 35.1918 132.208 35.2514 131.552 35.2685C130.393 35.3026 129.348 35.1278 128.42 34.7443C127.491 34.3523 126.753 33.7472 126.208 32.929C125.671 32.1108 125.407 31.0881 125.415 29.8608V10.6591ZM145.549 35.3835C143.581 35.3835 141.88 34.9744 140.448 34.1562C139.025 33.3295 137.93 32.1619 137.163 30.6534C136.396 29.1364 136.012 27.3509 136.012 25.2969C136.012 23.277 136.396 21.5043 137.163 19.9787C137.939 18.4446 139.021 17.2514 140.41 16.3991C141.799 15.5384 143.431 15.108 145.306 15.108C146.517 15.108 147.659 15.304 148.733 15.696C149.815 16.0795 150.769 16.6761 151.596 17.4858C152.431 18.2955 153.088 19.3267 153.565 20.5795C154.042 21.8239 154.281 23.3068 154.281 25.0284V26.4474H138.186V23.3281H149.845C149.836 22.4418 149.644 21.6534 149.269 20.9631C148.894 20.2642 148.37 19.7145 147.697 19.3139C147.032 18.9134 146.257 18.7131 145.37 18.7131C144.424 18.7131 143.593 18.9432 142.877 19.4034C142.162 19.8551 141.603 20.4517 141.203 21.1932C140.811 21.9261 140.61 22.7315 140.602 23.6094V26.3324C140.602 27.4744 140.811 28.4545 141.228 29.2727C141.646 30.0824 142.23 30.7045 142.98 31.1392C143.73 31.5653 144.608 31.7784 145.613 31.7784C146.287 31.7784 146.896 31.6847 147.441 31.4972C147.987 31.3011 148.46 31.0156 148.86 30.6406C149.261 30.2656 149.564 29.8011 149.768 29.2472L154.089 29.733C153.816 30.875 153.296 31.8722 152.529 32.7244C151.771 33.5682 150.799 34.2244 149.615 34.6932C148.43 35.1534 147.075 35.3835 145.549 35.3835ZM157.476 35V15.3636H161.963V18.6364H162.168C162.526 17.5028 163.139 16.6293 164.009 16.0156C164.886 15.3935 165.888 15.0824 167.013 15.0824C167.269 15.0824 167.554 15.0952 167.869 15.1207C168.193 15.1378 168.462 15.1676 168.675 15.2102V19.4673C168.479 19.3991 168.168 19.3395 167.742 19.2884C167.324 19.2287 166.919 19.1989 166.527 19.1989C165.683 19.1989 164.925 19.3821 164.252 19.7486C163.587 20.1065 163.063 20.6051 162.679 21.2443C162.296 21.8835 162.104 22.6207 162.104 23.456V35H157.476ZM186.549 20.554L182.331 21.0142C182.211 20.5881 182.002 20.1875 181.704 19.8125C181.414 19.4375 181.022 19.1349 180.528 18.9048C180.034 18.6747 179.429 18.5597 178.713 18.5597C177.75 18.5597 176.94 18.7685 176.284 19.1861C175.636 19.6037 175.316 20.1449 175.325 20.8097C175.316 21.3807 175.525 21.8452 175.951 22.2031C176.386 22.5611 177.102 22.8551 178.099 23.0852L181.448 23.8011C183.306 24.2017 184.687 24.8366 185.59 25.706C186.502 26.5753 186.963 27.7131 186.971 29.1193C186.963 30.3551 186.6 31.446 185.885 32.392C185.177 33.3295 184.193 34.0625 182.931 34.5909C181.67 35.1193 180.221 35.3835 178.585 35.3835C176.181 35.3835 174.247 34.8807 172.781 33.875C171.315 32.8608 170.441 31.4503 170.16 29.6435L174.673 29.2088C174.877 30.0952 175.312 30.7642 175.977 31.2159C176.642 31.6676 177.507 31.8935 178.572 31.8935C179.671 31.8935 180.554 31.6676 181.218 31.2159C181.892 30.7642 182.228 30.206 182.228 29.5412C182.228 28.9787 182.011 28.5142 181.576 28.1477C181.15 27.7812 180.485 27.5 179.582 27.304L176.233 26.6009C174.349 26.2088 172.956 25.5483 172.052 24.6193C171.149 23.6818 170.701 22.4972 170.71 21.0653C170.701 19.8551 171.029 18.8068 171.694 17.9205C172.367 17.0256 173.301 16.3352 174.494 15.8494C175.696 15.3551 177.081 15.108 178.649 15.108C180.95 15.108 182.761 15.598 184.082 16.5781C185.412 17.5582 186.234 18.8835 186.549 20.554Z" fill="#1A1A1A"/>
<rect y="68" width="56" height="6" rx="3" fill="#DA7717"/>
</svg>
