<svg width="460" height="460" viewBox="0 0 460 460" fill="none" xmlns="http://www.w3.org/2000/svg">
<g opacity="0.5">
<path d="M460 230C460 357.025 357.025 460 230 460C102.975 460 0 357.025 0 230C0 102.975 102.975 0 230 0C357.025 0 460 102.975 460 230ZM23 230C23 344.323 115.677 437 230 437C344.323 437 437 344.323 437 230C437 115.677 344.323 23 230 23C115.677 23 23 115.677 23 230Z" fill="url(#paint0_linear_3248_6643)"/>
<path d="M418.899 229.387C418.899 124.89 334.188 40.1794 229.692 40.1794C125.195 40.1794 40.4844 124.89 40.4844 229.387C40.4844 333.883 125.195 418.594 229.692 418.594C334.188 418.594 418.899 333.883 418.899 229.387ZM66.9734 229.387C66.9734 139.52 139.825 66.6684 229.692 66.6684C319.558 66.6684 392.41 139.52 392.41 229.387C392.41 319.253 319.558 392.105 229.692 392.105C139.825 392.105 66.9734 319.253 66.9734 229.387Z" fill="url(#paint1_linear_3248_6643)"/>
</g>
<rect x="87" y="65" width="340" height="329" rx="20" fill="#FAFAFA"/>
<path d="M147.885 104.362H145.229C145.153 103.927 145.013 103.541 144.81 103.205C144.606 102.864 144.353 102.575 144.05 102.338C143.747 102.101 143.401 101.924 143.013 101.805C142.629 101.682 142.215 101.621 141.77 101.621C140.979 101.621 140.278 101.82 139.668 102.217C139.057 102.61 138.579 103.188 138.233 103.95C137.887 104.708 137.714 105.634 137.714 106.727C137.714 107.84 137.887 108.777 138.233 109.54C138.583 110.297 139.062 110.87 139.668 111.259C140.278 111.642 140.977 111.834 141.763 111.834C142.198 111.834 142.606 111.777 142.984 111.663C143.368 111.545 143.711 111.372 144.014 111.145C144.322 110.918 144.58 110.638 144.788 110.307C145.001 109.975 145.148 109.597 145.229 109.17L147.885 109.185C147.786 109.876 147.57 110.525 147.239 111.131C146.912 111.737 146.483 112.272 145.953 112.736C145.423 113.195 144.803 113.555 144.092 113.815C143.382 114.071 142.594 114.199 141.727 114.199C140.449 114.199 139.308 113.903 138.304 113.311C137.3 112.719 136.509 111.865 135.932 110.747C135.354 109.63 135.065 108.29 135.065 106.727C135.065 105.16 135.357 103.82 135.939 102.707C136.521 101.59 137.314 100.735 138.318 100.143C139.322 99.5516 140.458 99.2557 141.727 99.2557C142.537 99.2557 143.29 99.3693 143.986 99.5966C144.682 99.8239 145.302 100.158 145.847 100.598C146.391 101.034 146.839 101.569 147.189 102.203C147.544 102.833 147.776 103.553 147.885 104.362ZM152.924 114.22C152.232 114.22 151.61 114.097 151.056 113.851C150.506 113.6 150.071 113.231 149.749 112.743C149.432 112.255 149.273 111.654 149.273 110.939C149.273 110.323 149.387 109.814 149.614 109.412C149.841 109.009 150.151 108.688 150.544 108.446C150.937 108.205 151.38 108.022 151.872 107.899C152.37 107.771 152.883 107.679 153.414 107.622C154.053 107.556 154.571 107.497 154.969 107.445C155.367 107.388 155.656 107.303 155.835 107.189C156.02 107.071 156.112 106.888 156.112 106.642V106.599C156.112 106.064 155.954 105.65 155.637 105.357C155.319 105.063 154.862 104.916 154.266 104.916C153.636 104.916 153.137 105.054 152.767 105.328C152.403 105.603 152.156 105.927 152.029 106.301L149.628 105.96C149.817 105.297 150.13 104.743 150.566 104.298C151.001 103.848 151.534 103.512 152.164 103.29C152.793 103.062 153.489 102.949 154.252 102.949C154.777 102.949 155.3 103.01 155.821 103.134C156.342 103.257 156.818 103.46 157.249 103.744C157.68 104.024 158.025 104.405 158.286 104.888C158.551 105.371 158.683 105.974 158.683 106.699V114H156.212V112.501H156.127C155.97 112.804 155.75 113.089 155.466 113.354C155.187 113.614 154.834 113.825 154.408 113.986C153.986 114.142 153.492 114.22 152.924 114.22ZM153.591 112.331C154.107 112.331 154.555 112.229 154.933 112.026C155.312 111.817 155.603 111.543 155.807 111.202C156.015 110.861 156.12 110.489 156.12 110.087V108.801C156.039 108.867 155.902 108.929 155.708 108.986C155.518 109.043 155.305 109.092 155.068 109.135C154.832 109.178 154.597 109.215 154.365 109.249C154.133 109.282 153.932 109.31 153.762 109.334C153.378 109.386 153.035 109.471 152.732 109.589C152.429 109.708 152.19 109.874 152.014 110.087C151.839 110.295 151.752 110.565 151.752 110.896C151.752 111.37 151.924 111.727 152.27 111.969C152.616 112.21 153.056 112.331 153.591 112.331ZM163.44 99.4545V114H160.869V99.4545H163.44ZM170.442 114.213C169.353 114.213 168.418 113.974 167.637 113.496C166.86 113.018 166.261 112.357 165.84 111.514C165.423 110.667 165.215 109.691 165.215 108.588C165.215 107.48 165.428 106.502 165.854 105.655C166.28 104.803 166.881 104.14 167.658 103.666C168.439 103.188 169.362 102.949 170.428 102.949C171.313 102.949 172.097 103.112 172.779 103.439C173.465 103.761 174.012 104.218 174.419 104.81C174.827 105.397 175.059 106.083 175.115 106.869H172.658C172.559 106.344 172.322 105.906 171.948 105.555C171.578 105.2 171.084 105.023 170.463 105.023C169.938 105.023 169.476 105.165 169.078 105.449C168.681 105.728 168.371 106.131 168.148 106.656C167.93 107.182 167.821 107.812 167.821 108.545C167.821 109.289 167.93 109.928 168.148 110.463C168.366 110.993 168.671 111.403 169.064 111.692C169.462 111.976 169.928 112.118 170.463 112.118C170.842 112.118 171.181 112.047 171.479 111.905C171.782 111.758 172.035 111.547 172.239 111.273C172.443 110.998 172.582 110.664 172.658 110.271H175.115C175.054 111.043 174.827 111.727 174.434 112.324C174.041 112.916 173.505 113.38 172.828 113.716C172.151 114.047 171.356 114.213 170.442 114.213ZM183.78 109.412V103.091H186.351V114H183.858V112.061H183.744C183.498 112.672 183.093 113.171 182.53 113.56C181.971 113.948 181.282 114.142 180.463 114.142C179.748 114.142 179.116 113.983 178.567 113.666C178.022 113.344 177.596 112.878 177.288 112.267C176.98 111.652 176.826 110.908 176.826 110.037V103.091H179.398V109.639C179.398 110.33 179.587 110.88 179.966 111.287C180.344 111.694 180.842 111.898 181.457 111.898C181.836 111.898 182.203 111.805 182.558 111.621C182.913 111.436 183.204 111.161 183.432 110.797C183.664 110.428 183.78 109.966 183.78 109.412ZM191.165 99.4545V114H188.594V99.4545H191.165ZM196.549 114.22C195.857 114.22 195.235 114.097 194.681 113.851C194.131 113.6 193.696 113.231 193.374 112.743C193.057 112.255 192.898 111.654 192.898 110.939C192.898 110.323 193.012 109.814 193.239 109.412C193.466 109.009 193.776 108.688 194.169 108.446C194.562 108.205 195.005 108.022 195.497 107.899C195.995 107.771 196.508 107.679 197.039 107.622C197.678 107.556 198.196 107.497 198.594 107.445C198.992 107.388 199.281 107.303 199.46 107.189C199.645 107.071 199.737 106.888 199.737 106.642V106.599C199.737 106.064 199.579 105.65 199.262 105.357C198.944 105.063 198.487 104.916 197.891 104.916C197.261 104.916 196.762 105.054 196.392 105.328C196.028 105.603 195.781 105.927 195.654 106.301L193.253 105.96C193.442 105.297 193.755 104.743 194.191 104.298C194.626 103.848 195.159 103.512 195.789 103.29C196.418 103.062 197.114 102.949 197.877 102.949C198.402 102.949 198.925 103.01 199.446 103.134C199.967 103.257 200.443 103.46 200.874 103.744C201.305 104.024 201.65 104.405 201.911 104.888C202.176 105.371 202.308 105.974 202.308 106.699V114H199.837V112.501H199.752C199.595 112.804 199.375 113.089 199.091 113.354C198.812 113.614 198.459 113.825 198.033 113.986C197.611 114.142 197.117 114.22 196.549 114.22ZM197.216 112.331C197.732 112.331 198.18 112.229 198.558 112.026C198.937 111.817 199.228 111.543 199.432 111.202C199.64 110.861 199.745 110.489 199.745 110.087V108.801C199.664 108.867 199.527 108.929 199.333 108.986C199.143 109.043 198.93 109.092 198.693 109.135C198.457 109.178 198.222 109.215 197.99 109.249C197.758 109.282 197.557 109.31 197.387 109.334C197.003 109.386 196.66 109.471 196.357 109.589C196.054 109.708 195.815 109.874 195.639 110.087C195.464 110.295 195.377 110.565 195.377 110.896C195.377 111.37 195.549 111.727 195.895 111.969C196.241 112.21 196.681 112.331 197.216 112.331ZM209.941 103.091V105.08H203.67V103.091H209.941ZM205.218 100.477H207.789V110.719C207.789 111.064 207.841 111.33 207.945 111.514C208.054 111.694 208.196 111.817 208.372 111.884C208.547 111.95 208.741 111.983 208.954 111.983C209.115 111.983 209.262 111.971 209.394 111.947C209.532 111.924 209.636 111.902 209.707 111.884L210.14 113.893C210.003 113.941 209.806 113.993 209.55 114.05C209.3 114.107 208.992 114.14 208.627 114.149C207.983 114.168 207.403 114.071 206.887 113.858C206.371 113.64 205.961 113.304 205.658 112.849C205.36 112.395 205.213 111.827 205.218 111.145V100.477ZM216.404 114.213C215.31 114.213 214.365 113.986 213.57 113.531C212.779 113.072 212.171 112.423 211.745 111.585C211.318 110.742 211.105 109.75 211.105 108.609C211.105 107.487 211.318 106.502 211.745 105.655C212.175 104.803 212.777 104.14 213.549 103.666C214.32 103.188 215.227 102.949 216.269 102.949C216.941 102.949 217.576 103.058 218.172 103.276C218.773 103.489 219.304 103.82 219.763 104.27C220.227 104.72 220.592 105.293 220.857 105.989C221.122 106.68 221.255 107.504 221.255 108.46V109.249H212.313V107.516H218.79C218.785 107.023 218.679 106.585 218.47 106.202C218.262 105.813 217.971 105.508 217.597 105.286C217.228 105.063 216.797 104.952 216.304 104.952C215.779 104.952 215.317 105.08 214.919 105.335C214.522 105.586 214.211 105.918 213.989 106.33C213.771 106.737 213.66 107.184 213.655 107.672V109.185C213.655 109.819 213.771 110.364 214.003 110.818C214.235 111.268 214.559 111.614 214.976 111.855C215.393 112.092 215.88 112.21 216.439 112.21C216.813 112.21 217.152 112.158 217.455 112.054C217.758 111.945 218.021 111.786 218.243 111.578C218.466 111.37 218.634 111.112 218.747 110.804L221.148 111.074C220.996 111.708 220.708 112.262 220.282 112.736C219.86 113.205 219.32 113.569 218.662 113.83C218.004 114.085 217.251 114.213 216.404 114.213ZM229.189 118.091C228.838 118.091 228.514 118.063 228.216 118.006C227.922 117.954 227.688 117.892 227.512 117.821L228.109 115.818C228.483 115.927 228.817 115.979 229.11 115.974C229.404 115.97 229.662 115.877 229.885 115.697C230.112 115.522 230.304 115.229 230.46 114.817L230.68 114.227L226.724 103.091H229.451L231.966 111.33H232.079L234.6 103.091H237.335L232.967 115.321C232.763 115.899 232.493 116.393 232.157 116.805C231.821 117.222 231.409 117.539 230.922 117.757C230.439 117.98 229.861 118.091 229.189 118.091ZM243.101 114.213C242.036 114.213 241.113 113.979 240.332 113.51C239.55 113.041 238.944 112.385 238.513 111.543C238.087 110.7 237.874 109.715 237.874 108.588C237.874 107.461 238.087 106.474 238.513 105.626C238.944 104.779 239.55 104.121 240.332 103.652C241.113 103.183 242.036 102.949 243.101 102.949C244.167 102.949 245.09 103.183 245.871 103.652C246.653 104.121 247.256 104.779 247.682 105.626C248.113 106.474 248.329 107.461 248.329 108.588C248.329 109.715 248.113 110.7 247.682 111.543C247.256 112.385 246.653 113.041 245.871 113.51C245.09 113.979 244.167 114.213 243.101 114.213ZM243.116 112.153C243.693 112.153 244.176 111.995 244.564 111.678C244.953 111.356 245.242 110.925 245.431 110.385C245.625 109.845 245.722 109.244 245.722 108.581C245.722 107.913 245.625 107.31 245.431 106.77C245.242 106.225 244.953 105.792 244.564 105.47C244.176 105.148 243.693 104.987 243.116 104.987C242.524 104.987 242.031 105.148 241.638 105.47C241.25 105.792 240.959 106.225 240.765 106.77C240.575 107.31 240.481 107.913 240.481 108.581C240.481 109.244 240.575 109.845 240.765 110.385C240.959 110.925 241.25 111.356 241.638 111.678C242.031 111.995 242.524 112.153 243.116 112.153ZM257.064 109.412V103.091H259.635V114H257.142V112.061H257.028C256.782 112.672 256.377 113.171 255.814 113.56C255.255 113.948 254.566 114.142 253.747 114.142C253.032 114.142 252.4 113.983 251.851 113.666C251.306 113.344 250.88 112.878 250.573 112.267C250.265 111.652 250.111 110.908 250.111 110.037V103.091H252.682V109.639C252.682 110.33 252.871 110.88 253.25 111.287C253.629 111.694 254.126 111.898 254.742 111.898C255.12 111.898 255.487 111.805 255.842 111.621C256.198 111.436 256.489 111.161 256.716 110.797C256.948 110.428 257.064 109.966 257.064 109.412ZM261.879 114V103.091H264.372V104.909H264.485C264.684 104.279 265.025 103.794 265.508 103.453C265.996 103.107 266.552 102.935 267.177 102.935C267.319 102.935 267.478 102.942 267.653 102.956C267.833 102.965 267.982 102.982 268.1 103.006V105.371C267.992 105.333 267.819 105.3 267.582 105.271C267.35 105.238 267.125 105.222 266.907 105.222C266.438 105.222 266.017 105.323 265.643 105.527C265.274 105.726 264.983 106.003 264.769 106.358C264.556 106.713 264.45 107.123 264.45 107.587V114H261.879ZM273.969 118.091V103.091H276.498V104.895H276.647C276.78 104.63 276.967 104.348 277.208 104.05C277.45 103.747 277.776 103.489 278.188 103.276C278.6 103.058 279.126 102.949 279.765 102.949C280.608 102.949 281.368 103.164 282.045 103.595C282.727 104.021 283.266 104.653 283.664 105.491C284.067 106.325 284.268 107.348 284.268 108.56C284.268 109.758 284.071 110.776 283.678 111.614C283.285 112.452 282.75 113.091 282.073 113.531C281.396 113.972 280.629 114.192 279.772 114.192C279.147 114.192 278.629 114.088 278.217 113.879C277.805 113.671 277.473 113.42 277.222 113.126C276.976 112.828 276.784 112.546 276.647 112.281H276.54V118.091H273.969ZM276.491 108.545C276.491 109.251 276.59 109.869 276.789 110.399C276.993 110.929 277.284 111.344 277.663 111.642C278.046 111.936 278.51 112.082 279.055 112.082C279.623 112.082 280.099 111.931 280.482 111.628C280.866 111.32 281.155 110.901 281.349 110.371C281.548 109.836 281.647 109.227 281.647 108.545C281.647 107.868 281.55 107.267 281.356 106.741C281.162 106.216 280.873 105.804 280.489 105.506C280.106 105.207 279.628 105.058 279.055 105.058C278.505 105.058 278.039 105.203 277.656 105.491C277.272 105.78 276.981 106.185 276.782 106.706C276.588 107.227 276.491 107.84 276.491 108.545ZM289.209 114.22C288.517 114.22 287.895 114.097 287.341 113.851C286.792 113.6 286.356 113.231 286.034 112.743C285.717 112.255 285.558 111.654 285.558 110.939C285.558 110.323 285.672 109.814 285.899 109.412C286.126 109.009 286.436 108.688 286.829 108.446C287.222 108.205 287.665 108.022 288.158 107.899C288.655 107.771 289.168 107.679 289.699 107.622C290.338 107.556 290.856 107.497 291.254 107.445C291.652 107.388 291.941 107.303 292.121 107.189C292.305 107.071 292.398 106.888 292.398 106.642V106.599C292.398 106.064 292.239 105.65 291.922 105.357C291.605 105.063 291.148 104.916 290.551 104.916C289.921 104.916 289.422 105.054 289.052 105.328C288.688 105.603 288.442 105.927 288.314 106.301L285.913 105.96C286.103 105.297 286.415 104.743 286.851 104.298C287.286 103.848 287.819 103.512 288.449 103.29C289.078 103.062 289.774 102.949 290.537 102.949C291.062 102.949 291.586 103.01 292.106 103.134C292.627 103.257 293.103 103.46 293.534 103.744C293.965 104.024 294.31 104.405 294.571 104.888C294.836 105.371 294.969 105.974 294.969 106.699V114H292.497V112.501H292.412C292.256 112.804 292.035 113.089 291.751 113.354C291.472 113.614 291.119 113.825 290.693 113.986C290.272 114.142 289.777 114.22 289.209 114.22ZM289.876 112.331C290.392 112.331 290.84 112.229 291.219 112.026C291.597 111.817 291.889 111.543 292.092 111.202C292.301 110.861 292.405 110.489 292.405 110.087V108.801C292.324 108.867 292.187 108.929 291.993 108.986C291.803 109.043 291.59 109.092 291.354 109.135C291.117 109.178 290.882 109.215 290.65 109.249C290.418 109.282 290.217 109.31 290.047 109.334C289.663 109.386 289.32 109.471 289.017 109.589C288.714 109.708 288.475 109.874 288.3 110.087C288.124 110.295 288.037 110.565 288.037 110.896C288.037 111.37 288.21 111.727 288.555 111.969C288.901 112.21 289.341 112.331 289.876 112.331ZM297.154 118.091V103.091H299.682V104.895H299.831C299.964 104.63 300.151 104.348 300.392 104.05C300.634 103.747 300.961 103.489 301.373 103.276C301.785 103.058 302.31 102.949 302.949 102.949C303.792 102.949 304.552 103.164 305.229 103.595C305.911 104.021 306.451 104.653 306.848 105.491C307.251 106.325 307.452 107.348 307.452 108.56C307.452 109.758 307.256 110.776 306.863 111.614C306.47 112.452 305.935 113.091 305.258 113.531C304.58 113.972 303.813 114.192 302.956 114.192C302.331 114.192 301.813 114.088 301.401 113.879C300.989 113.671 300.658 113.42 300.407 113.126C300.16 112.828 299.969 112.546 299.831 112.281H299.725V118.091H297.154ZM299.675 108.545C299.675 109.251 299.775 109.869 299.973 110.399C300.177 110.929 300.468 111.344 300.847 111.642C301.231 111.936 301.695 112.082 302.239 112.082C302.807 112.082 303.283 111.931 303.667 111.628C304.05 111.32 304.339 110.901 304.533 110.371C304.732 109.836 304.831 109.227 304.831 108.545C304.831 107.868 304.734 107.267 304.54 106.741C304.346 106.216 304.057 105.804 303.674 105.506C303.29 105.207 302.812 105.058 302.239 105.058C301.69 105.058 301.223 105.203 300.84 105.491C300.456 105.78 300.165 106.185 299.966 106.706C299.772 107.227 299.675 107.84 299.675 108.545ZM314.083 114.213C312.99 114.213 312.045 113.986 311.25 113.531C310.459 113.072 309.85 112.423 309.424 111.585C308.998 110.742 308.785 109.75 308.785 108.609C308.785 107.487 308.998 106.502 309.424 105.655C309.855 104.803 310.456 104.14 311.228 103.666C312 103.188 312.907 102.949 313.948 102.949C314.621 102.949 315.255 103.058 315.852 103.276C316.453 103.489 316.983 103.82 317.443 104.27C317.907 104.72 318.271 105.293 318.537 105.989C318.802 106.68 318.934 107.504 318.934 108.46V109.249H309.992V107.516H316.47C316.465 107.023 316.358 106.585 316.15 106.202C315.942 105.813 315.651 105.508 315.277 105.286C314.907 105.063 314.476 104.952 313.984 104.952C313.458 104.952 312.997 105.08 312.599 105.335C312.201 105.586 311.891 105.918 311.669 106.33C311.451 106.737 311.34 107.184 311.335 107.672V109.185C311.335 109.819 311.451 110.364 311.683 110.818C311.915 111.268 312.239 111.614 312.656 111.855C313.072 112.092 313.56 112.21 314.119 112.21C314.493 112.21 314.831 112.158 315.135 112.054C315.438 111.945 315.7 111.786 315.923 111.578C316.145 111.37 316.313 111.112 316.427 110.804L318.828 111.074C318.676 111.708 318.387 112.262 317.961 112.736C317.54 113.205 317 113.569 316.342 113.83C315.684 114.085 314.931 114.213 314.083 114.213ZM320.709 114V103.091H323.202V104.909H323.316C323.515 104.279 323.856 103.794 324.339 103.453C324.826 103.107 325.383 102.935 326.008 102.935C326.15 102.935 326.308 102.942 326.483 102.956C326.663 102.965 326.813 102.982 326.931 103.006V105.371C326.822 105.333 326.649 105.3 326.412 105.271C326.18 105.238 325.956 105.222 325.738 105.222C325.269 105.222 324.848 105.323 324.474 105.527C324.104 105.726 323.813 106.003 323.6 106.358C323.387 106.713 323.28 107.123 323.28 107.587V114H320.709ZM332.8 118.091V103.091H335.328V104.895H335.477C335.61 104.63 335.797 104.348 336.039 104.05C336.28 103.747 336.607 103.489 337.019 103.276C337.431 103.058 337.956 102.949 338.595 102.949C339.438 102.949 340.198 103.164 340.875 103.595C341.557 104.021 342.097 104.653 342.495 105.491C342.897 106.325 343.098 107.348 343.098 108.56C343.098 109.758 342.902 110.776 342.509 111.614C342.116 112.452 341.581 113.091 340.904 113.531C340.227 113.972 339.459 114.192 338.602 114.192C337.977 114.192 337.459 114.088 337.047 113.879C336.635 113.671 336.304 113.42 336.053 113.126C335.807 112.828 335.615 112.546 335.477 112.281H335.371V118.091H332.8ZM335.321 108.545C335.321 109.251 335.421 109.869 335.62 110.399C335.823 110.929 336.114 111.344 336.493 111.642C336.877 111.936 337.341 112.082 337.885 112.082C338.453 112.082 338.929 111.931 339.313 111.628C339.696 111.32 339.985 110.901 340.179 110.371C340.378 109.836 340.477 109.227 340.477 108.545C340.477 107.868 340.38 107.267 340.186 106.741C339.992 106.216 339.703 105.804 339.32 105.506C338.936 105.207 338.458 105.058 337.885 105.058C337.336 105.058 336.87 105.203 336.486 105.491C336.102 105.78 335.811 106.185 335.612 106.706C335.418 107.227 335.321 107.84 335.321 108.545ZM344.9 114V103.091H347.393V104.909H347.506C347.705 104.279 348.046 103.794 348.529 103.453C349.017 103.107 349.573 102.935 350.198 102.935C350.34 102.935 350.499 102.942 350.674 102.956C350.854 102.965 351.003 102.982 351.122 103.006V105.371C351.013 105.333 350.84 105.3 350.603 105.271C350.371 105.238 350.146 105.222 349.928 105.222C349.46 105.222 349.038 105.323 348.664 105.527C348.295 105.726 348.004 106.003 347.791 106.358C347.577 106.713 347.471 107.123 347.471 107.587V114H344.9ZM352.43 114V103.091H355.001V114H352.43ZM353.722 101.543C353.315 101.543 352.965 101.408 352.671 101.138C352.378 100.863 352.231 100.534 352.231 100.151C352.231 99.7623 352.378 99.4332 352.671 99.1634C352.965 98.8887 353.315 98.7514 353.722 98.7514C354.134 98.7514 354.485 98.8887 354.773 99.1634C355.067 99.4332 355.214 99.7623 355.214 100.151C355.214 100.534 355.067 100.863 354.773 101.138C354.485 101.408 354.134 101.543 353.722 101.543ZM362.003 114.213C360.914 114.213 359.979 113.974 359.198 113.496C358.421 113.018 357.822 112.357 357.401 111.514C356.984 110.667 356.776 109.691 356.776 108.588C356.776 107.48 356.989 106.502 357.415 105.655C357.841 104.803 358.442 104.14 359.219 103.666C360 103.188 360.923 102.949 361.989 102.949C362.874 102.949 363.658 103.112 364.34 103.439C365.026 103.761 365.573 104.218 365.98 104.81C366.387 105.397 366.619 106.083 366.676 106.869H364.219C364.119 106.344 363.883 105.906 363.509 105.555C363.139 105.2 362.645 105.023 362.024 105.023C361.499 105.023 361.037 105.165 360.639 105.449C360.242 105.728 359.931 106.131 359.709 106.656C359.491 107.182 359.382 107.812 359.382 108.545C359.382 109.289 359.491 109.928 359.709 110.463C359.927 110.993 360.232 111.403 360.625 111.692C361.023 111.976 361.489 112.118 362.024 112.118C362.403 112.118 362.742 112.047 363.04 111.905C363.343 111.758 363.596 111.547 363.8 111.273C364.003 110.998 364.143 110.664 364.219 110.271H366.676C366.615 111.043 366.387 111.727 365.994 112.324C365.601 112.916 365.066 113.38 364.389 113.716C363.712 114.047 362.917 114.213 362.003 114.213ZM373.217 114.213C372.123 114.213 371.179 113.986 370.383 113.531C369.592 113.072 368.984 112.423 368.558 111.585C368.132 110.742 367.919 109.75 367.919 108.609C367.919 107.487 368.132 106.502 368.558 105.655C368.989 104.803 369.59 104.14 370.362 103.666C371.134 103.188 372.04 102.949 373.082 102.949C373.754 102.949 374.389 103.058 374.985 103.276C375.587 103.489 376.117 103.82 376.576 104.27C377.04 104.72 377.405 105.293 377.67 105.989C377.935 106.68 378.068 107.504 378.068 108.46V109.249H369.126V107.516H375.603C375.599 107.023 375.492 106.585 375.284 106.202C375.075 105.813 374.784 105.508 374.41 105.286C374.041 105.063 373.61 104.952 373.118 104.952C372.592 104.952 372.13 105.08 371.733 105.335C371.335 105.586 371.025 105.918 370.802 106.33C370.584 106.737 370.473 107.184 370.468 107.672V109.185C370.468 109.819 370.584 110.364 370.816 110.818C371.048 111.268 371.373 111.614 371.789 111.855C372.206 112.092 372.694 112.21 373.252 112.21C373.627 112.21 373.965 112.158 374.268 112.054C374.571 111.945 374.834 111.786 375.056 111.578C375.279 111.37 375.447 111.112 375.561 110.804L377.961 111.074C377.81 111.708 377.521 112.262 377.095 112.736C376.673 113.205 376.134 113.569 375.475 113.83C374.817 114.085 374.065 114.213 373.217 114.213Z" fill="#1A1A1A"/>
<path opacity="0.7" d="M125.801 156.364C125.741 155.86 125.5 155.469 125.075 155.19C124.651 154.912 124.131 154.773 123.514 154.773C123.063 154.773 122.669 154.846 122.331 154.991C121.996 155.137 121.734 155.338 121.545 155.593C121.36 155.848 121.267 156.138 121.267 156.463C121.267 156.735 121.332 156.969 121.461 157.164C121.594 157.356 121.763 157.517 121.968 157.646C122.174 157.772 122.389 157.877 122.614 157.96C122.84 158.039 123.047 158.104 123.236 158.153L124.27 158.432C124.535 158.501 124.83 158.598 125.155 158.72C125.483 158.843 125.796 159.01 126.094 159.222C126.396 159.431 126.645 159.7 126.84 160.028C127.036 160.356 127.134 160.759 127.134 161.236C127.134 161.786 126.989 162.283 126.701 162.727C126.416 163.171 125.998 163.524 125.448 163.786C124.901 164.048 124.237 164.179 123.455 164.179C122.725 164.179 122.094 164.061 121.56 163.826C121.03 163.591 120.612 163.263 120.308 162.842C120.006 162.421 119.835 161.932 119.795 161.375H121.068C121.101 161.759 121.231 162.078 121.456 162.33C121.685 162.578 121.973 162.764 122.321 162.886C122.672 163.006 123.05 163.065 123.455 163.065C123.925 163.065 124.348 162.989 124.722 162.837C125.097 162.681 125.393 162.465 125.612 162.19C125.831 161.912 125.94 161.587 125.94 161.216C125.94 160.878 125.846 160.603 125.657 160.391C125.468 160.179 125.219 160.006 124.911 159.874C124.603 159.741 124.27 159.625 123.912 159.526L122.659 159.168C121.864 158.939 121.234 158.612 120.77 158.188C120.306 157.764 120.074 157.209 120.074 156.523C120.074 155.953 120.228 155.455 120.536 155.031C120.848 154.604 121.265 154.272 121.789 154.037C122.316 153.798 122.904 153.679 123.554 153.679C124.21 153.679 124.794 153.797 125.304 154.032C125.814 154.264 126.219 154.582 126.517 154.987C126.819 155.391 126.978 155.85 126.994 156.364H125.801ZM132.203 164.159C131.468 164.159 130.833 163.997 130.299 163.672C129.769 163.344 129.36 162.886 129.071 162.3C128.786 161.71 128.644 161.024 128.644 160.241C128.644 159.459 128.786 158.77 129.071 158.173C129.36 157.573 129.761 157.106 130.274 156.771C130.791 156.433 131.395 156.264 132.084 156.264C132.482 156.264 132.874 156.33 133.262 156.463C133.65 156.596 134.003 156.811 134.321 157.109C134.639 157.404 134.893 157.795 135.082 158.283C135.271 158.77 135.365 159.37 135.365 160.082V160.58H129.479V159.565H134.172C134.172 159.134 134.086 158.75 133.914 158.412C133.744 158.074 133.503 157.807 133.188 157.612C132.876 157.416 132.508 157.318 132.084 157.318C131.617 157.318 131.212 157.434 130.871 157.666C130.533 157.895 130.273 158.193 130.09 158.561C129.908 158.929 129.817 159.323 129.817 159.744V160.42C129.817 160.997 129.916 161.486 130.115 161.887C130.317 162.285 130.597 162.588 130.955 162.797C131.313 163.002 131.729 163.105 132.203 163.105C132.512 163.105 132.79 163.062 133.039 162.976C133.29 162.886 133.508 162.754 133.69 162.578C133.872 162.399 134.013 162.177 134.112 161.912L135.246 162.23C135.127 162.615 134.926 162.953 134.644 163.244C134.363 163.533 134.015 163.758 133.6 163.92C133.186 164.08 132.72 164.159 132.203 164.159ZM137.15 164V156.364H138.284V157.517H138.363C138.502 157.139 138.754 156.833 139.119 156.597C139.483 156.362 139.894 156.244 140.352 156.244C140.438 156.244 140.546 156.246 140.675 156.249C140.804 156.253 140.902 156.258 140.968 156.264V157.457C140.928 157.447 140.837 157.433 140.695 157.413C140.556 157.389 140.408 157.378 140.252 157.378C139.881 157.378 139.55 157.456 139.258 157.612C138.97 157.764 138.741 157.976 138.572 158.248C138.406 158.516 138.323 158.823 138.323 159.168V164H137.15ZM148.836 156.364L146.012 164H144.819L141.995 156.364H143.268L145.376 162.449H145.455L147.563 156.364H148.836ZM150.384 164V156.364H151.558V164H150.384ZM150.981 155.091C150.752 155.091 150.555 155.013 150.389 154.857C150.227 154.701 150.146 154.514 150.146 154.295C150.146 154.077 150.227 153.889 150.389 153.734C150.555 153.578 150.752 153.5 150.981 153.5C151.21 153.5 151.405 153.578 151.568 153.734C151.733 153.889 151.816 154.077 151.816 154.295C151.816 154.514 151.733 154.701 151.568 154.857C151.405 155.013 151.21 155.091 150.981 155.091ZM156.809 164.159C156.093 164.159 155.477 163.99 154.96 163.652C154.442 163.314 154.045 162.848 153.766 162.255C153.488 161.662 153.349 160.984 153.349 160.222C153.349 159.446 153.491 158.762 153.776 158.168C154.065 157.572 154.466 157.106 154.979 156.771C155.496 156.433 156.1 156.264 156.789 156.264C157.326 156.264 157.81 156.364 158.241 156.562C158.672 156.761 159.025 157.04 159.3 157.398C159.575 157.756 159.746 158.173 159.812 158.651H158.638C158.549 158.303 158.35 157.994 158.042 157.726C157.737 157.454 157.326 157.318 156.809 157.318C156.352 157.318 155.951 157.437 155.606 157.676C155.264 157.911 154.998 158.245 154.805 158.675C154.616 159.103 154.522 159.605 154.522 160.182C154.522 160.772 154.615 161.286 154.8 161.723C154.989 162.161 155.254 162.5 155.596 162.742C155.941 162.984 156.345 163.105 156.809 163.105C157.114 163.105 157.391 163.052 157.639 162.946C157.888 162.84 158.098 162.688 158.271 162.489C158.443 162.29 158.566 162.051 158.638 161.773H159.812C159.746 162.223 159.581 162.629 159.32 162.991C159.061 163.349 158.718 163.634 158.29 163.846C157.866 164.055 157.372 164.159 156.809 164.159ZM164.729 164.159C163.993 164.159 163.358 163.997 162.825 163.672C162.294 163.344 161.885 162.886 161.597 162.3C161.312 161.71 161.169 161.024 161.169 160.241C161.169 159.459 161.312 158.77 161.597 158.173C161.885 157.573 162.286 157.106 162.8 156.771C163.317 156.433 163.92 156.264 164.609 156.264C165.007 156.264 165.4 156.33 165.788 156.463C166.175 156.596 166.528 156.811 166.847 157.109C167.165 157.404 167.418 157.795 167.607 158.283C167.796 158.77 167.891 159.37 167.891 160.082V160.58H162.004V159.565H166.697C166.697 159.134 166.611 158.75 166.439 158.412C166.27 158.074 166.028 157.807 165.713 157.612C165.402 157.416 165.034 157.318 164.609 157.318C164.142 157.318 163.738 157.434 163.396 157.666C163.058 157.895 162.798 158.193 162.616 158.561C162.433 158.929 162.342 159.323 162.342 159.744V160.42C162.342 160.997 162.442 161.486 162.641 161.887C162.843 162.285 163.123 162.588 163.481 162.797C163.839 163.002 164.255 163.105 164.729 163.105C165.037 163.105 165.315 163.062 165.564 162.976C165.816 162.886 166.033 162.754 166.215 162.578C166.397 162.399 166.538 162.177 166.638 161.912L167.771 162.23C167.652 162.615 167.451 162.953 167.17 163.244C166.888 163.533 166.54 163.758 166.126 163.92C165.711 164.08 165.246 164.159 164.729 164.159Z" fill="#1A1A1A"/>
<path d="M128.278 201V189.364H132.54C133.366 189.364 134.049 189.5 134.591 189.773C135.133 190.042 135.538 190.407 135.807 190.869C136.076 191.328 136.21 191.845 136.21 192.42C136.21 192.905 136.121 193.314 135.943 193.648C135.765 193.977 135.527 194.242 135.227 194.443C134.932 194.64 134.606 194.784 134.25 194.875V194.989C134.636 195.008 135.013 195.133 135.381 195.364C135.752 195.591 136.059 195.915 136.301 196.335C136.544 196.756 136.665 197.267 136.665 197.869C136.665 198.464 136.525 198.998 136.244 199.472C135.968 199.941 135.54 200.314 134.96 200.591C134.381 200.864 133.64 201 132.739 201H128.278ZM130.034 199.494H132.568C133.409 199.494 134.011 199.331 134.375 199.006C134.739 198.68 134.92 198.273 134.92 197.784C134.92 197.417 134.828 197.08 134.642 196.773C134.456 196.466 134.191 196.222 133.847 196.04C133.506 195.858 133.1 195.767 132.631 195.767H130.034V199.494ZM130.034 194.398H132.386C132.78 194.398 133.134 194.322 133.449 194.17C133.767 194.019 134.019 193.807 134.205 193.534C134.394 193.258 134.489 192.932 134.489 192.557C134.489 192.076 134.32 191.672 133.983 191.347C133.646 191.021 133.129 190.858 132.432 190.858H130.034V194.398ZM144.139 197.381V192.273H145.844V201H144.173V199.489H144.082C143.882 199.955 143.56 200.343 143.116 200.653C142.677 200.96 142.13 201.114 141.474 201.114C140.914 201.114 140.418 200.991 139.986 200.744C139.558 200.494 139.221 200.125 138.974 199.636C138.732 199.148 138.611 198.544 138.611 197.824V192.273H140.31V197.619C140.31 198.214 140.474 198.687 140.804 199.04C141.134 199.392 141.562 199.568 142.088 199.568C142.406 199.568 142.723 199.489 143.037 199.33C143.355 199.17 143.618 198.93 143.827 198.608C144.039 198.286 144.143 197.877 144.139 197.381ZM154.666 194.403L153.126 194.676C153.062 194.479 152.96 194.292 152.82 194.114C152.683 193.936 152.498 193.79 152.263 193.676C152.028 193.562 151.734 193.506 151.382 193.506C150.901 193.506 150.5 193.614 150.178 193.83C149.856 194.042 149.695 194.316 149.695 194.653C149.695 194.945 149.803 195.18 150.018 195.358C150.234 195.536 150.583 195.682 151.064 195.795L152.45 196.114C153.253 196.299 153.852 196.585 154.246 196.972C154.64 197.358 154.837 197.86 154.837 198.477C154.837 199 154.685 199.466 154.382 199.875C154.083 200.28 153.664 200.598 153.126 200.83C152.592 201.061 151.973 201.176 151.268 201.176C150.291 201.176 149.494 200.968 148.876 200.551C148.259 200.131 147.88 199.534 147.74 198.761L149.382 198.511C149.484 198.939 149.695 199.263 150.013 199.483C150.331 199.699 150.746 199.807 151.257 199.807C151.814 199.807 152.259 199.691 152.592 199.46C152.926 199.225 153.092 198.939 153.092 198.602C153.092 198.33 152.99 198.1 152.786 197.915C152.585 197.729 152.276 197.589 151.859 197.494L150.382 197.17C149.568 196.985 148.965 196.689 148.575 196.284C148.189 195.879 147.996 195.366 147.996 194.744C147.996 194.229 148.14 193.778 148.428 193.392C148.715 193.006 149.113 192.705 149.621 192.489C150.128 192.269 150.71 192.159 151.365 192.159C152.308 192.159 153.051 192.364 153.592 192.773C154.134 193.178 154.492 193.722 154.666 194.403ZM156.705 201V192.273H158.403V201H156.705ZM157.562 190.926C157.267 190.926 157.013 190.828 156.801 190.631C156.593 190.43 156.489 190.191 156.489 189.915C156.489 189.634 156.593 189.396 156.801 189.199C157.013 188.998 157.267 188.898 157.562 188.898C157.858 188.898 158.11 188.998 158.318 189.199C158.53 189.396 158.636 189.634 158.636 189.915C158.636 190.191 158.53 190.43 158.318 190.631C158.11 190.828 157.858 190.926 157.562 190.926ZM162.388 195.818V201H160.689V192.273H162.32V193.693H162.428C162.628 193.231 162.943 192.86 163.371 192.58C163.803 192.299 164.346 192.159 165.001 192.159C165.596 192.159 166.117 192.284 166.564 192.534C167.011 192.78 167.357 193.148 167.604 193.636C167.85 194.125 167.973 194.729 167.973 195.449V201H166.274V195.653C166.274 195.021 166.109 194.527 165.78 194.17C165.45 193.811 164.998 193.631 164.422 193.631C164.028 193.631 163.678 193.716 163.371 193.886C163.068 194.057 162.827 194.307 162.649 194.636C162.475 194.962 162.388 195.356 162.388 195.818ZM174.013 201.176C173.153 201.176 172.412 200.992 171.791 200.625C171.174 200.254 170.696 199.733 170.359 199.062C170.026 198.388 169.859 197.598 169.859 196.693C169.859 195.799 170.026 195.011 170.359 194.33C170.696 193.648 171.166 193.116 171.768 192.733C172.375 192.35 173.083 192.159 173.893 192.159C174.386 192.159 174.863 192.241 175.325 192.403C175.787 192.566 176.202 192.822 176.57 193.17C176.937 193.519 177.227 193.972 177.439 194.528C177.651 195.081 177.757 195.754 177.757 196.545V197.148H170.82V195.875H176.092C176.092 195.428 176.001 195.032 175.82 194.688C175.638 194.339 175.382 194.064 175.053 193.864C174.727 193.663 174.344 193.562 173.905 193.562C173.428 193.562 173.011 193.68 172.655 193.915C172.303 194.146 172.03 194.449 171.837 194.824C171.647 195.195 171.553 195.598 171.553 196.034V197.028C171.553 197.612 171.655 198.108 171.859 198.517C172.068 198.926 172.357 199.239 172.729 199.455C173.1 199.667 173.534 199.773 174.03 199.773C174.352 199.773 174.645 199.727 174.911 199.636C175.176 199.542 175.405 199.402 175.598 199.216C175.791 199.03 175.939 198.801 176.041 198.528L177.649 198.818C177.52 199.292 177.289 199.706 176.956 200.062C176.626 200.415 176.212 200.689 175.712 200.886C175.215 201.08 174.649 201.176 174.013 201.176ZM186.182 194.403L184.642 194.676C184.578 194.479 184.475 194.292 184.335 194.114C184.199 193.936 184.013 193.79 183.778 193.676C183.544 193.562 183.25 193.506 182.898 193.506C182.417 193.506 182.015 193.614 181.693 193.83C181.371 194.042 181.21 194.316 181.21 194.653C181.21 194.945 181.318 195.18 181.534 195.358C181.75 195.536 182.098 195.682 182.58 195.795L183.966 196.114C184.769 196.299 185.367 196.585 185.761 196.972C186.155 197.358 186.352 197.86 186.352 198.477C186.352 199 186.201 199.466 185.898 199.875C185.598 200.28 185.18 200.598 184.642 200.83C184.108 201.061 183.489 201.176 182.784 201.176C181.807 201.176 181.009 200.968 180.392 200.551C179.775 200.131 179.396 199.534 179.256 198.761L180.898 198.511C181 198.939 181.21 199.263 181.528 199.483C181.847 199.699 182.261 199.807 182.773 199.807C183.33 199.807 183.775 199.691 184.108 199.46C184.441 199.225 184.608 198.939 184.608 198.602C184.608 198.33 184.506 198.1 184.301 197.915C184.1 197.729 183.792 197.589 183.375 197.494L181.898 197.17C181.083 196.985 180.481 196.689 180.091 196.284C179.705 195.879 179.511 195.366 179.511 194.744C179.511 194.229 179.655 193.778 179.943 193.392C180.231 193.006 180.629 192.705 181.136 192.489C181.644 192.269 182.225 192.159 182.881 192.159C183.824 192.159 184.566 192.364 185.108 192.773C185.65 193.178 186.008 193.722 186.182 194.403ZM194.76 194.403L193.22 194.676C193.156 194.479 193.054 194.292 192.913 194.114C192.777 193.936 192.591 193.79 192.357 193.676C192.122 193.562 191.828 193.506 191.476 193.506C190.995 193.506 190.593 193.614 190.271 193.83C189.949 194.042 189.788 194.316 189.788 194.653C189.788 194.945 189.896 195.18 190.112 195.358C190.328 195.536 190.677 195.682 191.158 195.795L192.544 196.114C193.347 196.299 193.946 196.585 194.339 196.972C194.733 197.358 194.93 197.86 194.93 198.477C194.93 199 194.779 199.466 194.476 199.875C194.177 200.28 193.758 200.598 193.22 200.83C192.686 201.061 192.067 201.176 191.362 201.176C190.385 201.176 189.588 200.968 188.97 200.551C188.353 200.131 187.974 199.534 187.834 198.761L189.476 198.511C189.578 198.939 189.788 199.263 190.107 199.483C190.425 199.699 190.839 199.807 191.351 199.807C191.908 199.807 192.353 199.691 192.686 199.46C193.019 199.225 193.186 198.939 193.186 198.602C193.186 198.33 193.084 198.1 192.879 197.915C192.679 197.729 192.37 197.589 191.953 197.494L190.476 197.17C189.661 196.985 189.059 196.689 188.669 196.284C188.283 195.879 188.089 195.366 188.089 194.744C188.089 194.229 188.233 193.778 188.521 193.392C188.809 193.006 189.207 192.705 189.714 192.489C190.222 192.269 190.804 192.159 191.459 192.159C192.402 192.159 193.144 192.364 193.686 192.773C194.228 193.178 194.586 193.722 194.76 194.403ZM201.169 201V189.364H205.317C206.222 189.364 206.972 189.528 207.567 189.858C208.161 190.187 208.607 190.638 208.902 191.21C209.197 191.778 209.345 192.419 209.345 193.131C209.345 193.847 209.196 194.491 208.896 195.062C208.601 195.631 208.154 196.081 207.555 196.415C206.961 196.744 206.213 196.909 205.311 196.909H202.459V195.42H205.152C205.724 195.42 206.188 195.322 206.544 195.125C206.9 194.924 207.161 194.652 207.328 194.307C207.495 193.962 207.578 193.57 207.578 193.131C207.578 192.691 207.495 192.301 207.328 191.96C207.161 191.619 206.898 191.352 206.538 191.159C206.182 190.966 205.713 190.869 205.129 190.869H202.925V201H201.169ZM212.966 189.364V201H211.267V189.364H212.966ZM217.791 201.193C217.238 201.193 216.738 201.091 216.291 200.886C215.844 200.678 215.49 200.377 215.229 199.983C214.971 199.589 214.842 199.106 214.842 198.534C214.842 198.042 214.937 197.636 215.126 197.318C215.316 197 215.571 196.748 215.893 196.562C216.215 196.377 216.575 196.237 216.973 196.142C217.371 196.047 217.776 195.975 218.189 195.926C218.712 195.866 219.136 195.816 219.462 195.778C219.787 195.737 220.024 195.67 220.172 195.58C220.32 195.489 220.393 195.341 220.393 195.136V195.097C220.393 194.6 220.253 194.216 219.973 193.943C219.696 193.67 219.284 193.534 218.734 193.534C218.162 193.534 217.712 193.661 217.382 193.915C217.056 194.165 216.831 194.443 216.706 194.75L215.109 194.386C215.299 193.856 215.575 193.428 215.939 193.102C216.306 192.773 216.729 192.534 217.206 192.386C217.683 192.235 218.185 192.159 218.712 192.159C219.06 192.159 219.429 192.201 219.82 192.284C220.214 192.364 220.581 192.511 220.922 192.727C221.267 192.943 221.549 193.252 221.768 193.653C221.988 194.051 222.098 194.568 222.098 195.205V201H220.439V199.807H220.371C220.261 200.027 220.096 200.242 219.876 200.455C219.657 200.667 219.375 200.843 219.03 200.983C218.685 201.123 218.272 201.193 217.791 201.193ZM218.161 199.83C218.63 199.83 219.032 199.737 219.365 199.551C219.702 199.366 219.958 199.123 220.132 198.824C220.31 198.521 220.399 198.197 220.399 197.852V196.727C220.339 196.788 220.221 196.845 220.047 196.898C219.876 196.947 219.681 196.991 219.462 197.028C219.242 197.062 219.028 197.095 218.82 197.125C218.611 197.152 218.437 197.174 218.297 197.193C217.967 197.235 217.666 197.305 217.393 197.403C217.125 197.502 216.909 197.644 216.746 197.83C216.587 198.011 216.507 198.254 216.507 198.557C216.507 198.977 216.662 199.295 216.973 199.511C217.284 199.723 217.679 199.83 218.161 199.83ZM226.06 195.818V201H224.361V192.273H225.991V193.693H226.099C226.3 193.231 226.615 192.86 227.043 192.58C227.474 192.299 228.018 192.159 228.673 192.159C229.268 192.159 229.789 192.284 230.236 192.534C230.683 192.78 231.029 193.148 231.276 193.636C231.522 194.125 231.645 194.729 231.645 195.449V201H229.946V195.653C229.946 195.021 229.781 194.527 229.452 194.17C229.122 193.811 228.67 193.631 228.094 193.631C227.7 193.631 227.349 193.716 227.043 193.886C226.74 194.057 226.499 194.307 226.321 194.636C226.147 194.962 226.06 195.356 226.06 195.818Z" fill="#1A1A1A"/>
<rect x="119" y="173" width="276" height="44" rx="5" stroke="#1A1A1A" stroke-opacity="0.5" stroke-width="0.5"/>
<path opacity="0.7" d="M123.375 244H120.233V233.818H123.514C124.502 233.818 125.347 234.022 126.05 234.43C126.752 234.834 127.291 235.416 127.665 236.175C128.04 236.93 128.227 237.835 128.227 238.889C128.227 239.95 128.038 240.863 127.661 241.629C127.283 242.391 126.732 242.978 126.01 243.388C125.287 243.796 124.409 244 123.375 244ZM121.466 242.906H123.295C124.137 242.906 124.835 242.744 125.388 242.419C125.942 242.094 126.355 241.632 126.626 241.032C126.898 240.432 127.034 239.718 127.034 238.889C127.034 238.067 126.9 237.36 126.631 236.766C126.363 236.17 125.962 235.712 125.428 235.394C124.895 235.073 124.23 234.912 123.435 234.912H121.466V242.906ZM133.338 244.159C132.602 244.159 131.968 243.997 131.434 243.672C130.904 243.344 130.494 242.886 130.206 242.3C129.921 241.71 129.778 241.024 129.778 240.241C129.778 239.459 129.921 238.77 130.206 238.173C130.494 237.573 130.895 237.106 131.409 236.771C131.926 236.433 132.529 236.264 133.219 236.264C133.616 236.264 134.009 236.33 134.397 236.463C134.785 236.596 135.138 236.811 135.456 237.109C135.774 237.404 136.028 237.795 136.217 238.283C136.406 238.77 136.5 239.37 136.5 240.082V240.58H130.614V239.565H135.307C135.307 239.134 135.221 238.75 135.048 238.412C134.879 238.074 134.637 237.807 134.322 237.612C134.011 237.416 133.643 237.318 133.219 237.318C132.751 237.318 132.347 237.434 132.006 237.666C131.668 237.895 131.407 238.193 131.225 238.561C131.043 238.929 130.952 239.323 130.952 239.744V240.42C130.952 240.997 131.051 241.486 131.25 241.887C131.452 242.285 131.732 242.588 132.09 242.797C132.448 243.002 132.864 243.105 133.338 243.105C133.646 243.105 133.925 243.062 134.173 242.976C134.425 242.886 134.642 242.754 134.825 242.578C135.007 242.399 135.148 242.177 135.247 241.912L136.381 242.23C136.261 242.615 136.061 242.953 135.779 243.244C135.497 243.533 135.149 243.758 134.735 243.92C134.321 244.08 133.855 244.159 133.338 244.159ZM140.532 244.179C140.048 244.179 139.609 244.088 139.214 243.906C138.82 243.72 138.507 243.453 138.275 243.105C138.043 242.754 137.927 242.33 137.927 241.832C137.927 241.395 138.013 241.04 138.185 240.768C138.358 240.493 138.588 240.278 138.876 240.122C139.165 239.966 139.483 239.85 139.831 239.774C140.182 239.695 140.535 239.632 140.89 239.585C141.354 239.526 141.73 239.481 142.018 239.451C142.31 239.418 142.522 239.363 142.655 239.287C142.791 239.211 142.859 239.078 142.859 238.889V238.849C142.859 238.359 142.724 237.978 142.456 237.706C142.191 237.434 141.788 237.298 141.248 237.298C140.688 237.298 140.249 237.421 139.93 237.666C139.612 237.911 139.388 238.173 139.259 238.452L138.146 238.054C138.344 237.59 138.61 237.229 138.941 236.97C139.276 236.708 139.64 236.526 140.035 236.423C140.433 236.317 140.824 236.264 141.208 236.264C141.453 236.264 141.735 236.294 142.053 236.354C142.375 236.41 142.685 236.528 142.983 236.707C143.285 236.886 143.535 237.156 143.734 237.517C143.933 237.878 144.032 238.362 144.032 238.969V244H142.859V242.966H142.799C142.719 243.132 142.587 243.309 142.401 243.498C142.216 243.687 141.969 243.848 141.661 243.98C141.352 244.113 140.976 244.179 140.532 244.179ZM140.711 243.125C141.175 243.125 141.566 243.034 141.884 242.852C142.206 242.669 142.448 242.434 142.61 242.146C142.776 241.857 142.859 241.554 142.859 241.236V240.162C142.809 240.222 142.7 240.276 142.531 240.326C142.365 240.372 142.173 240.414 141.954 240.45C141.738 240.483 141.528 240.513 141.322 240.54C141.12 240.563 140.956 240.583 140.83 240.599C140.525 240.639 140.24 240.704 139.975 240.793C139.713 240.879 139.501 241.01 139.339 241.186C139.18 241.358 139.1 241.594 139.1 241.892C139.1 242.3 139.251 242.608 139.553 242.817C139.857 243.022 140.244 243.125 140.711 243.125ZM149.057 244.159C148.421 244.159 147.859 243.998 147.372 243.677C146.884 243.352 146.503 242.895 146.228 242.305C145.953 241.711 145.816 241.01 145.816 240.202C145.816 239.4 145.953 238.704 146.228 238.114C146.503 237.524 146.886 237.068 147.377 236.746C147.867 236.425 148.434 236.264 149.077 236.264C149.574 236.264 149.967 236.347 150.255 236.513C150.547 236.675 150.769 236.861 150.921 237.07C151.077 237.275 151.198 237.444 151.284 237.577H151.384V233.818H152.557V244H151.423V242.827H151.284C151.198 242.966 151.075 243.142 150.916 243.354C150.757 243.562 150.53 243.75 150.235 243.915C149.94 244.078 149.548 244.159 149.057 244.159ZM149.216 243.105C149.687 243.105 150.084 242.982 150.409 242.737C150.734 242.489 150.981 242.146 151.15 241.708C151.319 241.267 151.404 240.759 151.404 240.182C151.404 239.612 151.321 239.113 151.155 238.685C150.989 238.254 150.744 237.92 150.419 237.681C150.094 237.439 149.693 237.318 149.216 237.318C148.719 237.318 148.305 237.446 147.973 237.701C147.645 237.953 147.398 238.296 147.232 238.73C147.07 239.161 146.989 239.645 146.989 240.182C146.989 240.725 147.072 241.219 147.237 241.663C147.406 242.104 147.655 242.455 147.983 242.717C148.315 242.976 148.726 243.105 149.216 243.105ZM156.042 233.818V244H154.869V233.818H156.042ZM158.191 244V236.364H159.364V244H158.191ZM158.788 235.091C158.559 235.091 158.362 235.013 158.196 234.857C158.034 234.701 157.952 234.514 157.952 234.295C157.952 234.077 158.034 233.889 158.196 233.734C158.362 233.578 158.559 233.5 158.788 233.5C159.016 233.5 159.212 233.578 159.374 233.734C159.54 233.889 159.623 234.077 159.623 234.295C159.623 234.514 159.54 234.701 159.374 234.857C159.212 235.013 159.016 235.091 158.788 235.091ZM162.687 239.406V244H161.513V236.364H162.647V237.557H162.746C162.925 237.169 163.197 236.857 163.562 236.622C163.926 236.384 164.397 236.264 164.974 236.264C165.491 236.264 165.943 236.37 166.331 236.582C166.719 236.791 167.02 237.109 167.236 237.537C167.451 237.961 167.559 238.498 167.559 239.148V244H166.385V239.227C166.385 238.627 166.23 238.16 165.918 237.825C165.607 237.487 165.179 237.318 164.635 237.318C164.261 237.318 163.926 237.399 163.631 237.562C163.34 237.724 163.109 237.961 162.94 238.273C162.771 238.584 162.687 238.962 162.687 239.406ZM172.904 244.159C172.169 244.159 171.534 243.997 171 243.672C170.47 243.344 170.061 242.886 169.772 242.3C169.487 241.71 169.345 241.024 169.345 240.241C169.345 239.459 169.487 238.77 169.772 238.173C170.061 237.573 170.462 237.106 170.975 236.771C171.493 236.433 172.096 236.264 172.785 236.264C173.183 236.264 173.576 236.33 173.963 236.463C174.351 236.596 174.704 236.811 175.022 237.109C175.341 237.404 175.594 237.795 175.783 238.283C175.972 238.77 176.066 239.37 176.066 240.082V240.58H170.18V239.565H174.873C174.873 239.134 174.787 238.75 174.615 238.412C174.446 238.074 174.204 237.807 173.889 237.612C173.577 237.416 173.209 237.318 172.785 237.318C172.318 237.318 171.913 237.434 171.572 237.666C171.234 237.895 170.974 238.193 170.792 238.561C170.609 238.929 170.518 239.323 170.518 239.744V240.42C170.518 240.997 170.618 241.486 170.816 241.887C171.019 242.285 171.299 242.588 171.657 242.797C172.015 243.002 172.431 243.105 172.904 243.105C173.213 243.105 173.491 243.062 173.74 242.976C173.992 242.886 174.209 242.754 174.391 242.578C174.573 242.399 174.714 242.177 174.814 241.912L175.947 242.23C175.828 242.615 175.627 242.953 175.346 243.244C175.064 243.533 174.716 243.758 174.301 243.92C173.887 244.08 173.422 244.159 172.904 244.159Z" fill="#1A1A1A"/>
<path d="M132.534 269.364V281H130.773V271.125H130.705L127.92 272.943V271.261L130.824 269.364H132.534ZM135.438 278.727V277.307L140.466 269.364H141.585V271.455H140.875L137.278 277.148V277.239H144.17V278.727H135.438ZM140.955 281V278.295L140.966 277.648V269.364H142.631V281H140.955ZM153.675 281.17C152.97 281.17 152.341 280.991 151.788 280.631C151.239 280.267 150.807 279.75 150.493 279.08C150.182 278.405 150.027 277.597 150.027 276.653C150.027 275.71 150.184 274.903 150.499 274.233C150.817 273.562 151.252 273.049 151.805 272.693C152.358 272.337 152.985 272.159 153.686 272.159C154.228 272.159 154.663 272.25 154.993 272.432C155.326 272.61 155.584 272.818 155.766 273.057C155.951 273.295 156.095 273.506 156.197 273.688H156.3V269.364H157.999V281H156.339V279.642H156.197C156.095 279.828 155.947 280.04 155.754 280.278C155.565 280.517 155.304 280.725 154.97 280.903C154.637 281.081 154.205 281.17 153.675 281.17ZM154.05 279.722C154.538 279.722 154.951 279.593 155.288 279.335C155.629 279.074 155.887 278.712 156.061 278.25C156.239 277.788 156.328 277.25 156.328 276.636C156.328 276.03 156.241 275.5 156.067 275.045C155.893 274.591 155.637 274.237 155.3 273.983C154.963 273.729 154.546 273.602 154.05 273.602C153.538 273.602 153.112 273.735 152.771 274C152.43 274.265 152.173 274.627 151.999 275.085C151.828 275.544 151.743 276.061 151.743 276.636C151.743 277.22 151.83 277.744 152.004 278.21C152.179 278.676 152.436 279.045 152.777 279.318C153.122 279.587 153.546 279.722 154.05 279.722ZM162.963 281.193C162.41 281.193 161.91 281.091 161.463 280.886C161.016 280.678 160.662 280.377 160.401 279.983C160.143 279.589 160.014 279.106 160.014 278.534C160.014 278.042 160.109 277.636 160.298 277.318C160.488 277 160.743 276.748 161.065 276.562C161.387 276.377 161.747 276.237 162.145 276.142C162.543 276.047 162.948 275.975 163.361 275.926C163.884 275.866 164.308 275.816 164.634 275.778C164.959 275.737 165.196 275.67 165.344 275.58C165.491 275.489 165.565 275.341 165.565 275.136V275.097C165.565 274.6 165.425 274.216 165.145 273.943C164.868 273.67 164.455 273.534 163.906 273.534C163.334 273.534 162.884 273.661 162.554 273.915C162.228 274.165 162.003 274.443 161.878 274.75L160.281 274.386C160.471 273.856 160.747 273.428 161.111 273.102C161.478 272.773 161.901 272.534 162.378 272.386C162.855 272.235 163.357 272.159 163.884 272.159C164.232 272.159 164.601 272.201 164.991 272.284C165.385 272.364 165.753 272.511 166.094 272.727C166.438 272.943 166.721 273.252 166.94 273.653C167.16 274.051 167.27 274.568 167.27 275.205V281H165.611V279.807H165.543C165.433 280.027 165.268 280.242 165.048 280.455C164.829 280.667 164.546 280.843 164.202 280.983C163.857 281.123 163.444 281.193 162.963 281.193ZM163.332 279.83C163.802 279.83 164.204 279.737 164.537 279.551C164.874 279.366 165.13 279.123 165.304 278.824C165.482 278.521 165.571 278.197 165.571 277.852V276.727C165.51 276.788 165.393 276.845 165.219 276.898C165.048 276.947 164.853 276.991 164.634 277.028C164.414 277.062 164.2 277.095 163.991 277.125C163.783 277.152 163.609 277.174 163.469 277.193C163.139 277.235 162.838 277.305 162.565 277.403C162.296 277.502 162.08 277.644 161.918 277.83C161.759 278.011 161.679 278.254 161.679 278.557C161.679 278.977 161.834 279.295 162.145 279.511C162.455 279.723 162.851 279.83 163.332 279.83ZM170.294 284.273C170.04 284.273 169.809 284.252 169.601 284.21C169.393 284.172 169.237 284.131 169.135 284.085L169.544 282.693C169.855 282.777 170.131 282.813 170.374 282.801C170.616 282.79 170.83 282.699 171.016 282.528C171.205 282.358 171.372 282.08 171.516 281.693L171.726 281.114L168.533 272.273H170.351L172.561 279.045H172.652L174.862 272.273H176.686L173.089 282.165C172.923 282.619 172.711 283.004 172.453 283.318C172.196 283.636 171.889 283.875 171.533 284.034C171.177 284.193 170.764 284.273 170.294 284.273ZM184.822 274.403L183.283 274.676C183.218 274.479 183.116 274.292 182.976 274.114C182.839 273.936 182.654 273.79 182.419 273.676C182.184 273.562 181.891 273.506 181.538 273.506C181.057 273.506 180.656 273.614 180.334 273.83C180.012 274.042 179.851 274.316 179.851 274.653C179.851 274.945 179.959 275.18 180.175 275.358C180.391 275.536 180.739 275.682 181.22 275.795L182.607 276.114C183.41 276.299 184.008 276.585 184.402 276.972C184.796 277.358 184.993 277.86 184.993 278.477C184.993 279 184.841 279.466 184.538 279.875C184.239 280.28 183.821 280.598 183.283 280.83C182.749 281.061 182.129 281.176 181.425 281.176C180.447 281.176 179.65 280.968 179.033 280.551C178.415 280.131 178.036 279.534 177.896 278.761L179.538 278.511C179.641 278.939 179.851 279.263 180.169 279.483C180.487 279.699 180.902 279.807 181.413 279.807C181.97 279.807 182.415 279.691 182.749 279.46C183.082 279.225 183.249 278.939 183.249 278.602C183.249 278.33 183.146 278.1 182.942 277.915C182.741 277.729 182.432 277.589 182.016 277.494L180.538 277.17C179.724 276.985 179.122 276.689 178.732 276.284C178.345 275.879 178.152 275.366 178.152 274.744C178.152 274.229 178.296 273.778 178.584 273.392C178.872 273.006 179.269 272.705 179.777 272.489C180.285 272.269 180.866 272.159 181.521 272.159C182.464 272.159 183.207 272.364 183.749 272.773C184.29 273.178 184.648 273.722 184.822 274.403Z" fill="#1A1A1A"/>
<path opacity="0.8" d="M357.057 279V270.273H362.29V271.21H358.114V274.159H361.898V275.097H358.114V279H357.057ZM363.963 279V272.455H364.969V279H363.963ZM364.475 271.364C364.279 271.364 364.11 271.297 363.968 271.163C363.828 271.03 363.759 270.869 363.759 270.682C363.759 270.494 363.828 270.334 363.968 270.2C364.11 270.067 364.279 270 364.475 270C364.671 270 364.838 270.067 364.978 270.2C365.12 270.334 365.191 270.494 365.191 270.682C365.191 270.869 365.12 271.03 364.978 271.163C364.838 271.297 364.671 271.364 364.475 271.364ZM367.561 272.455L369.129 275.131L370.697 272.455H371.857L369.743 275.727L371.857 279H370.697L369.129 276.46L367.561 279H366.402L368.482 275.727L366.402 272.455H367.561ZM375.766 279.136C375.136 279.136 374.592 278.997 374.134 278.719C373.68 278.438 373.329 278.045 373.082 277.543C372.837 277.037 372.715 276.449 372.715 275.778C372.715 275.108 372.837 274.517 373.082 274.006C373.329 273.491 373.673 273.091 374.113 272.804C374.556 272.514 375.073 272.369 375.664 272.369C376.005 272.369 376.342 272.426 376.674 272.54C377.006 272.653 377.309 272.838 377.582 273.094C377.854 273.347 378.072 273.682 378.234 274.099C378.396 274.517 378.477 275.031 378.477 275.642V276.068H373.431V275.199H377.454C377.454 274.83 377.38 274.5 377.232 274.21C377.087 273.92 376.88 273.692 376.61 273.524C376.343 273.357 376.028 273.273 375.664 273.273C375.263 273.273 374.917 273.372 374.624 273.571C374.335 273.767 374.112 274.023 373.955 274.338C373.799 274.653 373.721 274.991 373.721 275.352V275.932C373.721 276.426 373.806 276.845 373.977 277.189C374.15 277.53 374.39 277.79 374.697 277.969C375.004 278.145 375.36 278.233 375.766 278.233C376.031 278.233 376.269 278.196 376.482 278.122C376.698 278.045 376.884 277.932 377.04 277.781C377.197 277.628 377.317 277.437 377.403 277.21L378.374 277.483C378.272 277.812 378.1 278.102 377.859 278.352C377.617 278.599 377.319 278.793 376.964 278.932C376.609 279.068 376.21 279.136 375.766 279.136ZM382.478 279.136C381.933 279.136 381.451 278.999 381.033 278.723C380.616 278.445 380.289 278.053 380.053 277.547C379.817 277.038 379.7 276.438 379.7 275.744C379.7 275.057 379.817 274.46 380.053 273.955C380.289 273.449 380.617 273.058 381.038 272.783C381.458 272.507 381.944 272.369 382.495 272.369C382.921 272.369 383.258 272.44 383.505 272.582C383.755 272.722 383.945 272.881 384.076 273.06C384.21 273.236 384.313 273.381 384.387 273.494H384.472V270.273H385.478V279H384.506V277.994H384.387C384.313 278.114 384.208 278.264 384.072 278.446C383.935 278.625 383.741 278.786 383.488 278.928C383.235 279.067 382.898 279.136 382.478 279.136ZM382.614 278.233C383.018 278.233 383.359 278.128 383.637 277.918C383.915 277.705 384.127 277.411 384.272 277.036C384.417 276.658 384.489 276.222 384.489 275.727C384.489 275.239 384.418 274.811 384.276 274.445C384.134 274.075 383.924 273.788 383.646 273.584C383.367 273.376 383.023 273.273 382.614 273.273C382.188 273.273 381.833 273.382 381.549 273.601C381.268 273.817 381.056 274.111 380.914 274.483C380.775 274.852 380.705 275.267 380.705 275.727C380.705 276.193 380.776 276.616 380.918 276.997C381.063 277.375 381.276 277.676 381.558 277.901C381.842 278.122 382.194 278.233 382.614 278.233Z" fill="#1A1A1A"/>
<rect x="119" y="253" width="276" height="44" rx="5" stroke="#1A1A1A" stroke-opacity="0.5" stroke-width="0.5"/>
<path d="M132.411 340.69V341.969H119.371V340.69H132.411ZM132.411 343.452V344.73H119.371V343.452H132.411ZM131.177 335.909V349H129.355L122.701 339.399H122.586V349H120.604V335.909H122.439L129.093 345.523H129.214V335.909H131.177ZM139.007 335.909V349H137.026V337.891H136.949L133.817 339.936V338.044L137.083 335.909H139.007ZM146.869 349.179C146.068 349.179 145.348 349.026 144.709 348.719C144.074 348.408 143.567 347.982 143.188 347.44C142.808 346.899 142.606 346.281 142.58 345.587H144.498C144.545 346.149 144.794 346.612 145.246 346.974C145.697 347.336 146.239 347.517 146.869 347.517C147.372 347.517 147.817 347.402 148.205 347.172C148.597 346.938 148.904 346.616 149.126 346.207C149.352 345.798 149.464 345.331 149.464 344.807C149.464 344.274 149.349 343.799 149.119 343.381C148.889 342.964 148.572 342.636 148.167 342.397C147.766 342.158 147.306 342.037 146.786 342.033C146.39 342.033 145.991 342.101 145.591 342.237C145.19 342.374 144.866 342.553 144.619 342.774L142.81 342.506L143.545 335.909H150.743V337.603H145.188L144.773 341.266H144.849C145.105 341.018 145.444 340.812 145.866 340.646C146.292 340.479 146.748 340.396 147.234 340.396C148.031 340.396 148.74 340.586 149.362 340.965C149.989 341.344 150.481 341.862 150.839 342.518C151.201 343.17 151.38 343.92 151.376 344.768C151.38 345.616 151.188 346.373 150.8 347.038C150.417 347.702 149.884 348.227 149.202 348.61C148.525 348.989 147.747 349.179 146.869 349.179ZM158.268 349.217C157.258 349.213 156.395 348.947 155.679 348.418C154.963 347.89 154.416 347.121 154.036 346.111C153.657 345.101 153.468 343.884 153.468 342.461C153.468 341.042 153.657 339.83 154.036 338.824C154.42 337.818 154.97 337.051 155.686 336.523C156.406 335.994 157.267 335.73 158.268 335.73C159.269 335.73 160.128 335.996 160.844 336.529C161.56 337.058 162.107 337.825 162.487 338.83C162.87 339.832 163.062 341.042 163.062 342.461C163.062 343.888 162.872 345.107 162.493 346.117C162.114 347.123 161.566 347.892 160.85 348.425C160.134 348.953 159.274 349.217 158.268 349.217ZM158.268 347.511C159.154 347.511 159.847 347.078 160.345 346.213C160.848 345.348 161.1 344.097 161.1 342.461C161.1 341.374 160.985 340.456 160.754 339.706C160.529 338.952 160.203 338.381 159.776 337.993C159.355 337.601 158.852 337.405 158.268 337.405C157.386 337.405 156.693 337.839 156.191 338.709C155.688 339.578 155.434 340.829 155.43 342.461C155.43 343.552 155.543 344.474 155.769 345.229C155.999 345.979 156.325 346.548 156.747 346.935C157.169 347.319 157.676 347.511 158.268 347.511ZM167.367 347.21L167.271 347.907C167.207 348.418 167.099 348.951 166.945 349.505C166.796 350.063 166.64 350.581 166.479 351.058C166.321 351.536 166.191 351.915 166.089 352.196H164.733C164.789 351.932 164.866 351.574 164.964 351.122C165.062 350.675 165.157 350.174 165.251 349.62C165.345 349.066 165.415 348.501 165.462 347.926L165.526 347.21H167.367ZM174.123 349.217C173.113 349.213 172.251 348.947 171.535 348.418C170.819 347.89 170.271 347.121 169.892 346.111C169.513 345.101 169.323 343.884 169.323 342.461C169.323 341.042 169.513 339.83 169.892 338.824C170.275 337.818 170.825 337.051 171.541 336.523C172.261 335.994 173.122 335.73 174.123 335.73C175.125 335.73 175.983 335.996 176.699 336.529C177.415 337.058 177.963 337.825 178.342 338.83C178.726 339.832 178.917 341.042 178.917 342.461C178.917 343.888 178.728 345.107 178.349 346.117C177.969 347.123 177.422 347.892 176.706 348.425C175.99 348.953 175.129 349.217 174.123 349.217ZM174.123 347.511C175.01 347.511 175.702 347.078 176.201 346.213C176.704 345.348 176.955 344.097 176.955 342.461C176.955 341.374 176.84 340.456 176.61 339.706C176.384 338.952 176.058 338.381 175.632 337.993C175.21 337.601 174.707 337.405 174.123 337.405C173.241 337.405 172.549 337.839 172.046 338.709C171.543 339.578 171.29 340.829 171.285 342.461C171.285 343.552 171.398 344.474 171.624 345.229C171.854 345.979 172.18 346.548 172.602 346.935C173.024 347.319 173.531 347.511 174.123 347.511ZM185.743 349.217C184.733 349.213 183.87 348.947 183.154 348.418C182.438 347.89 181.89 347.121 181.511 346.111C181.132 345.101 180.942 343.884 180.942 342.461C180.942 341.042 181.132 339.83 181.511 338.824C181.895 337.818 182.444 337.051 183.16 336.523C183.88 335.994 184.741 335.73 185.743 335.73C186.744 335.73 187.603 335.996 188.319 336.529C189.034 337.058 189.582 337.825 189.961 338.83C190.345 339.832 190.537 341.042 190.537 342.461C190.537 343.888 190.347 345.107 189.968 346.117C189.588 347.123 189.041 347.892 188.325 348.425C187.609 348.953 186.748 349.217 185.743 349.217ZM185.743 347.511C186.629 347.511 187.321 347.078 187.82 346.213C188.323 345.348 188.574 344.097 188.574 342.461C188.574 341.374 188.459 340.456 188.229 339.706C188.003 338.952 187.677 338.381 187.251 337.993C186.829 337.601 186.326 337.405 185.743 337.405C184.86 337.405 184.168 337.839 183.665 338.709C183.162 339.578 182.909 340.829 182.904 342.461C182.904 343.552 183.017 344.474 183.243 345.229C183.473 345.979 183.799 346.548 184.221 346.935C184.643 347.319 185.15 347.511 185.743 347.511ZM197.362 349.217C196.352 349.213 195.489 348.947 194.773 348.418C194.057 347.89 193.509 347.121 193.13 346.111C192.751 345.101 192.561 343.884 192.561 342.461C192.561 341.042 192.751 339.83 193.13 338.824C193.514 337.818 194.063 337.051 194.779 336.523C195.499 335.994 196.36 335.73 197.362 335.73C198.363 335.73 199.222 335.996 199.938 336.529C200.654 337.058 201.201 337.825 201.58 338.83C201.964 339.832 202.156 341.042 202.156 342.461C202.156 343.888 201.966 345.107 201.587 346.117C201.208 347.123 200.66 347.892 199.944 348.425C199.228 348.953 198.367 349.217 197.362 349.217ZM197.362 347.511C198.248 347.511 198.941 347.078 199.439 346.213C199.942 345.348 200.193 344.097 200.193 342.461C200.193 341.374 200.078 340.456 199.848 339.706C199.622 338.952 199.296 338.381 198.87 337.993C198.448 337.601 197.945 337.405 197.362 337.405C196.48 337.405 195.787 337.839 195.284 338.709C194.781 339.578 194.528 340.829 194.524 342.461C194.524 343.552 194.637 344.474 194.862 345.229C195.093 345.979 195.419 346.548 195.84 346.935C196.262 347.319 196.769 347.511 197.362 347.511Z" fill="#1A1A1A"/>
<path d="M229 342C229 328.745 239.745 318 253 318H371C384.255 318 395 328.745 395 342C395 355.255 384.255 366 371 366H253C239.745 366 229 355.255 229 342Z" fill="url(#paint2_linear_3248_6643)"/>
<path d="M258.278 348V336.364H262.426C263.331 336.364 264.081 336.528 264.676 336.858C265.271 337.187 265.716 337.638 266.011 338.21C266.307 338.778 266.455 339.419 266.455 340.131C266.455 340.847 266.305 341.491 266.006 342.062C265.71 342.631 265.263 343.081 264.665 343.415C264.07 343.744 263.322 343.909 262.42 343.909H259.568V342.42H262.261C262.833 342.42 263.297 342.322 263.653 342.125C264.009 341.924 264.271 341.652 264.438 341.307C264.604 340.962 264.688 340.57 264.688 340.131C264.688 339.691 264.604 339.301 264.438 338.96C264.271 338.619 264.008 338.352 263.648 338.159C263.292 337.966 262.822 337.869 262.239 337.869H260.034V348H258.278ZM270.075 336.364V348H268.376V336.364H270.075ZM274.901 348.193C274.348 348.193 273.848 348.091 273.401 347.886C272.954 347.678 272.599 347.377 272.338 346.983C272.08 346.589 271.952 346.106 271.952 345.534C271.952 345.042 272.046 344.636 272.236 344.318C272.425 344 272.681 343.748 273.003 343.562C273.325 343.377 273.685 343.237 274.082 343.142C274.48 343.047 274.885 342.975 275.298 342.926C275.821 342.866 276.245 342.816 276.571 342.778C276.897 342.737 277.134 342.67 277.281 342.58C277.429 342.489 277.503 342.341 277.503 342.136V342.097C277.503 341.6 277.363 341.216 277.082 340.943C276.806 340.67 276.393 340.534 275.844 340.534C275.272 340.534 274.821 340.661 274.491 340.915C274.166 341.165 273.94 341.443 273.815 341.75L272.219 341.386C272.408 340.856 272.685 340.428 273.048 340.102C273.416 339.773 273.838 339.534 274.315 339.386C274.793 339.235 275.295 339.159 275.821 339.159C276.17 339.159 276.539 339.201 276.929 339.284C277.323 339.364 277.69 339.511 278.031 339.727C278.376 339.943 278.658 340.252 278.878 340.653C279.098 341.051 279.207 341.568 279.207 342.205V348H277.548V346.807H277.48C277.37 347.027 277.205 347.242 276.986 347.455C276.766 347.667 276.484 347.843 276.139 347.983C275.795 348.123 275.382 348.193 274.901 348.193ZM275.27 346.83C275.74 346.83 276.141 346.737 276.474 346.551C276.812 346.366 277.067 346.123 277.241 345.824C277.42 345.521 277.509 345.197 277.509 344.852V343.727C277.448 343.788 277.33 343.845 277.156 343.898C276.986 343.947 276.791 343.991 276.571 344.028C276.351 344.062 276.137 344.095 275.929 344.125C275.721 344.152 275.546 344.174 275.406 344.193C275.077 344.235 274.776 344.305 274.503 344.403C274.234 344.502 274.018 344.644 273.855 344.83C273.696 345.011 273.616 345.254 273.616 345.557C273.616 345.977 273.772 346.295 274.082 346.511C274.393 346.723 274.789 346.83 275.27 346.83ZM285.146 348.176C284.302 348.176 283.574 347.985 282.964 347.602C282.358 347.216 281.893 346.684 281.567 346.006C281.241 345.328 281.078 344.551 281.078 343.676C281.078 342.79 281.245 342.008 281.578 341.33C281.911 340.648 282.381 340.116 282.987 339.733C283.593 339.35 284.307 339.159 285.129 339.159C285.792 339.159 286.383 339.282 286.902 339.528C287.421 339.771 287.839 340.112 288.158 340.551C288.48 340.991 288.671 341.504 288.732 342.091H287.078C286.987 341.682 286.779 341.33 286.453 341.034C286.131 340.739 285.699 340.591 285.158 340.591C284.684 340.591 284.269 340.716 283.913 340.966C283.561 341.212 283.286 341.564 283.089 342.023C282.893 342.477 282.794 343.015 282.794 343.636C282.794 344.273 282.891 344.822 283.084 345.284C283.277 345.746 283.55 346.104 283.902 346.358C284.258 346.612 284.677 346.739 285.158 346.739C285.48 346.739 285.771 346.68 286.033 346.562C286.298 346.441 286.519 346.269 286.697 346.045C286.879 345.822 287.006 345.553 287.078 345.239H288.732C288.671 345.803 288.487 346.307 288.18 346.75C287.874 347.193 287.463 347.542 286.947 347.795C286.436 348.049 285.836 348.176 285.146 348.176ZM294.31 348.176C293.45 348.176 292.709 347.992 292.088 347.625C291.471 347.254 290.993 346.733 290.656 346.062C290.323 345.388 290.156 344.598 290.156 343.693C290.156 342.799 290.323 342.011 290.656 341.33C290.993 340.648 291.463 340.116 292.065 339.733C292.671 339.35 293.38 339.159 294.19 339.159C294.683 339.159 295.16 339.241 295.622 339.403C296.084 339.566 296.499 339.822 296.866 340.17C297.234 340.519 297.524 340.972 297.736 341.528C297.948 342.081 298.054 342.754 298.054 343.545V344.148H291.116V342.875H296.389C296.389 342.428 296.298 342.032 296.116 341.688C295.935 341.339 295.679 341.064 295.349 340.864C295.024 340.663 294.641 340.562 294.202 340.562C293.724 340.562 293.308 340.68 292.952 340.915C292.599 341.146 292.327 341.449 292.134 341.824C291.944 342.195 291.849 342.598 291.849 343.034V344.028C291.849 344.612 291.952 345.108 292.156 345.517C292.365 345.926 292.654 346.239 293.026 346.455C293.397 346.667 293.83 346.773 294.327 346.773C294.649 346.773 294.942 346.727 295.207 346.636C295.473 346.542 295.702 346.402 295.895 346.216C296.088 346.03 296.236 345.801 296.338 345.528L297.946 345.818C297.817 346.292 297.586 346.706 297.253 347.062C296.923 347.415 296.509 347.689 296.009 347.886C295.512 348.08 294.946 348.176 294.31 348.176ZM306.713 348.193C306.16 348.193 305.66 348.091 305.213 347.886C304.766 347.678 304.412 347.377 304.151 346.983C303.893 346.589 303.764 346.106 303.764 345.534C303.764 345.042 303.859 344.636 304.048 344.318C304.238 344 304.493 343.748 304.815 343.562C305.137 343.377 305.497 343.237 305.895 343.142C306.293 343.047 306.698 342.975 307.111 342.926C307.634 342.866 308.058 342.816 308.384 342.778C308.709 342.737 308.946 342.67 309.094 342.58C309.241 342.489 309.315 342.341 309.315 342.136V342.097C309.315 341.6 309.175 341.216 308.895 340.943C308.618 340.67 308.205 340.534 307.656 340.534C307.084 340.534 306.634 340.661 306.304 340.915C305.978 341.165 305.753 341.443 305.628 341.75L304.031 341.386C304.221 340.856 304.497 340.428 304.861 340.102C305.228 339.773 305.651 339.534 306.128 339.386C306.605 339.235 307.107 339.159 307.634 339.159C307.982 339.159 308.351 339.201 308.741 339.284C309.135 339.364 309.503 339.511 309.844 339.727C310.188 339.943 310.471 340.252 310.69 340.653C310.91 341.051 311.02 341.568 311.02 342.205V348H309.361V346.807H309.293C309.183 347.027 309.018 347.242 308.798 347.455C308.579 347.667 308.296 347.843 307.952 347.983C307.607 348.123 307.194 348.193 306.713 348.193ZM307.082 346.83C307.552 346.83 307.954 346.737 308.287 346.551C308.624 346.366 308.88 346.123 309.054 345.824C309.232 345.521 309.321 345.197 309.321 344.852V343.727C309.26 343.788 309.143 343.845 308.969 343.898C308.798 343.947 308.603 343.991 308.384 344.028C308.164 344.062 307.95 344.095 307.741 344.125C307.533 344.152 307.359 344.174 307.219 344.193C306.889 344.235 306.588 344.305 306.315 344.403C306.046 344.502 305.83 344.644 305.668 344.83C305.509 345.011 305.429 345.254 305.429 345.557C305.429 345.977 305.584 346.295 305.895 346.511C306.205 346.723 306.601 346.83 307.082 346.83ZM314.982 342.818V348H313.283V339.273H314.913V340.693H315.021C315.222 340.231 315.536 339.86 315.964 339.58C316.396 339.299 316.94 339.159 317.595 339.159C318.19 339.159 318.711 339.284 319.158 339.534C319.605 339.78 319.951 340.148 320.197 340.636C320.444 341.125 320.567 341.729 320.567 342.449V348H318.868V342.653C318.868 342.021 318.703 341.527 318.374 341.17C318.044 340.811 317.591 340.631 317.016 340.631C316.622 340.631 316.271 340.716 315.964 340.886C315.661 341.057 315.421 341.307 315.243 341.636C315.069 341.962 314.982 342.356 314.982 342.818ZM330.756 348.176C329.938 348.176 329.223 347.989 328.614 347.614C328.004 347.239 327.53 346.714 327.193 346.04C326.856 345.366 326.688 344.578 326.688 343.676C326.688 342.771 326.856 341.979 327.193 341.301C327.53 340.623 328.004 340.097 328.614 339.722C329.223 339.347 329.938 339.159 330.756 339.159C331.574 339.159 332.288 339.347 332.898 339.722C333.508 340.097 333.981 340.623 334.318 341.301C334.655 341.979 334.824 342.771 334.824 343.676C334.824 344.578 334.655 345.366 334.318 346.04C333.981 346.714 333.508 347.239 332.898 347.614C332.288 347.989 331.574 348.176 330.756 348.176ZM330.761 346.75C331.292 346.75 331.731 346.61 332.08 346.33C332.428 346.049 332.686 345.676 332.852 345.21C333.023 344.744 333.108 344.231 333.108 343.67C333.108 343.114 333.023 342.602 332.852 342.136C332.686 341.667 332.428 341.29 332.08 341.006C331.731 340.722 331.292 340.58 330.761 340.58C330.227 340.58 329.784 340.722 329.432 341.006C329.083 341.29 328.824 341.667 328.653 342.136C328.487 342.602 328.403 343.114 328.403 343.67C328.403 344.231 328.487 344.744 328.653 345.21C328.824 345.676 329.083 346.049 329.432 346.33C329.784 346.61 330.227 346.75 330.761 346.75ZM336.72 348V339.273H338.362V340.659H338.453C338.612 340.189 338.893 339.82 339.294 339.551C339.699 339.278 340.158 339.142 340.669 339.142C340.775 339.142 340.9 339.146 341.044 339.153C341.192 339.161 341.307 339.17 341.391 339.182V340.807C341.322 340.788 341.201 340.767 341.027 340.744C340.853 340.718 340.679 340.705 340.504 340.705C340.103 340.705 339.745 340.79 339.43 340.96C339.12 341.127 338.874 341.36 338.692 341.659C338.51 341.955 338.419 342.292 338.419 342.67V348H336.72ZM345.815 348.17C345.111 348.17 344.482 347.991 343.929 347.631C343.38 347.267 342.948 346.75 342.634 346.08C342.323 345.405 342.168 344.597 342.168 343.653C342.168 342.71 342.325 341.903 342.639 341.233C342.957 340.562 343.393 340.049 343.946 339.693C344.499 339.337 345.126 339.159 345.827 339.159C346.368 339.159 346.804 339.25 347.134 339.432C347.467 339.61 347.724 339.818 347.906 340.057C348.092 340.295 348.236 340.506 348.338 340.688H348.44V336.364H350.139V348H348.48V346.642H348.338C348.236 346.828 348.088 347.04 347.895 347.278C347.705 347.517 347.444 347.725 347.111 347.903C346.777 348.081 346.346 348.17 345.815 348.17ZM346.19 346.722C346.679 346.722 347.092 346.593 347.429 346.335C347.77 346.074 348.027 345.712 348.202 345.25C348.38 344.788 348.469 344.25 348.469 343.636C348.469 343.03 348.382 342.5 348.207 342.045C348.033 341.591 347.777 341.237 347.44 340.983C347.103 340.729 346.687 340.602 346.19 340.602C345.679 340.602 345.253 340.735 344.912 341C344.571 341.265 344.313 341.627 344.139 342.085C343.969 342.544 343.884 343.061 343.884 343.636C343.884 344.22 343.971 344.744 344.145 345.21C344.319 345.676 344.577 346.045 344.918 346.318C345.262 346.587 345.687 346.722 346.19 346.722ZM356.325 348.176C355.465 348.176 354.725 347.992 354.104 347.625C353.486 347.254 353.009 346.733 352.672 346.062C352.339 345.388 352.172 344.598 352.172 343.693C352.172 342.799 352.339 342.011 352.672 341.33C353.009 340.648 353.479 340.116 354.081 339.733C354.687 339.35 355.395 339.159 356.206 339.159C356.698 339.159 357.176 339.241 357.638 339.403C358.1 339.566 358.515 339.822 358.882 340.17C359.25 340.519 359.539 340.972 359.751 341.528C359.964 342.081 360.07 342.754 360.07 343.545V344.148H353.132V342.875H358.405C358.405 342.428 358.314 342.032 358.132 341.688C357.95 341.339 357.695 341.064 357.365 340.864C357.039 340.663 356.657 340.562 356.217 340.562C355.74 340.562 355.323 340.68 354.967 340.915C354.615 341.146 354.342 341.449 354.149 341.824C353.96 342.195 353.865 342.598 353.865 343.034V344.028C353.865 344.612 353.967 345.108 354.172 345.517C354.38 345.926 354.67 346.239 355.041 346.455C355.412 346.667 355.846 346.773 356.342 346.773C356.664 346.773 356.958 346.727 357.223 346.636C357.488 346.542 357.717 346.402 357.911 346.216C358.104 346.03 358.251 345.801 358.354 345.528L359.962 345.818C359.833 346.292 359.602 346.706 359.268 347.062C358.939 347.415 358.524 347.689 358.024 347.886C357.528 348.08 356.962 348.176 356.325 348.176ZM361.955 348V339.273H363.597V340.659H363.688C363.847 340.189 364.127 339.82 364.528 339.551C364.934 339.278 365.392 339.142 365.903 339.142C366.009 339.142 366.134 339.146 366.278 339.153C366.426 339.161 366.542 339.17 366.625 339.182V340.807C366.557 340.788 366.436 340.767 366.261 340.744C366.087 340.718 365.913 340.705 365.739 340.705C365.337 340.705 364.979 340.79 364.665 340.96C364.354 341.127 364.108 341.36 363.926 341.659C363.744 341.955 363.653 342.292 363.653 342.67V348H361.955Z" fill="#FAFAFA"/>
<defs>
<linearGradient id="paint0_linear_3248_6643" x1="36.0835" y1="69.5711" x2="439.882" y2="346.103" gradientUnits="userSpaceOnUse">
<stop stop-color="#002E5A"/>
<stop offset="1" stop-color="#0D5EBB"/>
</linearGradient>
<linearGradient id="paint1_linear_3248_6643" x1="70.1681" y1="361.362" x2="402.348" y2="133.875" gradientUnits="userSpaceOnUse">
<stop stop-color="#002E5A"/>
<stop offset="1" stop-color="#0D5EBB"/>
</linearGradient>
<linearGradient id="paint2_linear_3248_6643" x1="242.021" y1="325.26" x2="274.41" y2="401.967" gradientUnits="userSpaceOnUse">
<stop stop-color="#002E5A"/>
<stop offset="1" stop-color="#0D5EBB"/>
</linearGradient>
</defs>
</svg>
