<svg width="487" height="92" viewBox="0 0 487 92" fill="none" xmlns="http://www.w3.org/2000/svg">
<path fill-rule="evenodd" clip-rule="evenodd" d="M486.992 68.0408V46.1123L483.437 45.9225L480.238 46.0912L473.637 45.6905L471.098 45.4586L469.422 44.9736L467.835 44.9262L465.868 45.1212L463.887 44.5308L462.567 44.8049L461.45 44.5308L458.555 44.7628L457.032 44.4043L455.102 45.1212H454.188L451.497 44.7628L449.466 44.6362H447.029L444.033 44.9736L440.046 44.9209L437.228 45.1634L432.607 45.1423L433.623 46.302L431.338 46.7659L426.108 46.8924L414.276 46.5551L410.62 46.8924L407.827 46.2388L401.772 46.5551L389.597 46.6183L383.707 47.1244L378.121 47.0611L375.481 46.8292L374.008 46.534L371.19 45.8487L365.122 45.5429H359.282L353.24 45.8381L349.33 45.5429L345.978 45.9014L340.849 44.9525L329.373 45.8171L325.108 45.7116L319.421 46.534L317.44 46.1755L311.296 45.8171L304.999 45.564L303.679 45.9225L292 46.6394V68.0578H292.003V89.9901L295.558 90.1799L298.757 90.0112L305.358 90.4119L307.897 90.6438L309.573 91.1288L311.16 91.1762L313.128 90.9812L315.108 91.5716L316.428 91.2975L317.545 91.5716L320.44 91.3396L321.963 91.6981L323.893 90.9812H324.807L327.498 91.3396L329.529 91.4662H331.967L334.963 91.1288L338.949 91.1815L341.767 90.939L346.388 90.9601L345.372 89.8004L347.657 89.3365L352.888 89.21L364.719 89.5473L368.375 89.21L371.168 89.8636L377.223 89.5473L389.398 89.4841L395.288 88.978L400.874 89.0413L403.514 89.2732L404.987 89.5684L407.805 90.2537L413.873 90.5595H419.713L425.756 90.2643L429.666 90.5595L433.017 90.201L438.146 91.1499L449.622 90.2853L453.887 90.3908L459.574 89.5684L461.555 89.9269L467.699 90.2853L473.996 90.5384L475.316 90.1799L486.995 89.463V68.0408H486.992Z" fill="url(#paint0_linear_2992_4209)"/>
<path d="M294.138 90.1426L292.004 90.0793V89.5522L294.138 89.5733C294.697 89.9107 296.17 89.995 296.678 89.995C297.186 89.995 297.745 89.742 297.897 89.6998C298.05 89.6577 299.98 89.6577 300.742 89.6998C301.505 89.742 301.759 90.0161 301.86 90.0161C301.962 90.0161 303.435 89.9317 303.74 89.9106C303.984 89.8938 304.654 90.002 304.959 90.0582C305.203 90.3787 305.84 90.3464 306.128 90.2902C307.957 90.1426 308.312 90.3534 309.024 90.733C309.735 91.1125 310.141 91.0493 310.192 91.0493C310.924 90.8637 312.021 90.7189 312.479 90.6697C313.799 90.6065 313.799 91.3445 315.07 91.4077C315.452 91.4268 316.103 91.1617 316.391 91.0071C316.441 91.1547 317.712 91.6397 318.372 91.471C318.9 91.3361 319.947 91.1196 320.404 91.0282C320.658 91.3656 321.471 91.5764 321.878 91.5764C322.284 91.5764 323.199 91.218 323.199 91.0915C323.199 90.9649 323.91 90.6276 323.91 90.6908C323.91 90.7414 324.418 90.7963 324.672 90.8173C324.672 90.8384 324.834 90.8553 325.485 90.7541C326.094 90.7119 327.517 91.218 327.923 91.218C328.249 91.218 328.567 91.1336 328.686 91.0915C329.214 91.4626 329.651 91.4007 329.803 91.3234C329.871 91.2742 330.2 91.1463 330.972 91.0282C331.937 90.8806 331.785 91.4077 332.039 91.3234C332.293 91.2391 333.461 91.0071 334.376 90.8806C335.29 90.7541 335.951 91.0282 337.17 91.0915C338.389 91.1547 339.812 90.733 340.726 90.6276C341.641 90.5221 343.47 90.8173 344.588 90.8806C345.705 90.9439 346.213 90.7752 346.315 90.8173C346.396 90.8511 346.959 91.0423 347.23 91.1336C346.132 91.471 342.335 91.2742 340.574 91.1336C339.639 91.3867 337.272 91.4921 336.205 91.5132C334.823 91.1252 332.852 91.5202 332.039 91.7662C331.592 91.3445 330.599 91.5483 330.159 91.7029C329.265 91.9897 328.872 91.6959 328.787 91.5132C328.34 91.7493 327.923 91.6959 327.771 91.6397C326.044 91.2812 325.434 91.1336 325.129 91.218C324.824 91.3023 324.57 91.2812 324.418 91.2812C324.296 91.2812 324.028 91.1828 323.91 91.1336C323.825 91.1266 323.635 91.1463 323.554 91.2812C323.473 91.4162 322.809 91.7592 322.487 91.9138C321.674 92.2006 320.76 91.71 320.404 91.4288L319.49 91.6397C318.474 91.9096 317.949 91.9349 317.813 91.9138C317.366 91.9307 316.645 91.5975 316.34 91.4288C315.679 91.7873 314.46 92.0614 313.698 91.4288C312.936 90.7963 310.904 91.4288 310.7 91.4288C309.969 91.6313 309.616 91.5132 309.532 91.4288C307.906 90.7372 307.059 90.6908 306.839 90.7541C305.091 90.9228 304.858 90.6838 304.959 90.5432L303.638 90.4378C303.395 90.4884 302.351 90.5292 301.86 90.5432C301.007 90.0709 298.829 90.1637 297.847 90.2691C296.424 90.792 294.781 90.4026 294.138 90.1426Z" fill="white"/>
<path d="M344.943 89.5733C344.892 89.6155 345.502 89.9318 345.502 89.9529C346.925 89.6155 348.635 89.5311 349.313 89.5312C350.979 89.1094 352.208 89.3554 352.615 89.5312C354.241 89.1938 354.393 89.742 356.933 89.6788C358.966 89.8981 360.625 89.7561 361.201 89.6577C361.933 90.018 363.199 89.9765 363.741 89.9107C367.034 89.2191 368.229 89.3836 368.415 89.5523C369.432 89.3414 370.346 90.0583 371.007 90.1427C371.667 90.227 371.972 89.8474 372.023 89.8474C372.073 89.8474 372.734 89.9529 373.75 90.0372C374.563 90.1047 376.426 89.9388 377.256 89.8474C378.353 89.9993 381.54 89.9107 382.997 89.8474C384.165 90.0161 383.352 90.0583 386.197 89.7842C389.043 89.5101 388.433 89.8685 389.449 89.7209C390.262 89.6028 391.82 89.6436 392.497 89.6788C392.684 89.6225 393.137 89.5059 393.463 89.489C393.788 89.4721 394.072 89.5241 394.174 89.5522C394.174 89.4679 394.614 89.3344 394.834 89.2781C397.425 89.0884 399.661 89.4257 399.762 89.4257C399.864 89.4257 399.762 89.489 400.525 89.3414C401.287 89.1938 401.744 89.5522 401.795 89.5522C403.319 89.236 403.725 89.6366 404.03 89.742C404.335 89.8474 405.808 89.974 406.469 90.1005C407.129 90.227 408.095 90.6698 408.653 90.7541C409.101 90.8216 411.448 90.7682 412.565 90.7331C413.023 90.965 416.071 90.8596 416.63 90.7963C417.189 90.7331 417.798 90.9439 417.951 90.8807C418.103 90.8174 420.288 90.8596 422.625 90.5644C424.495 90.3282 426.994 90.466 428.01 90.5644C429.433 91.2391 431.059 90.712 431.618 90.5222C432.065 90.3704 432.617 90.3887 432.837 90.4168C433.125 90.466 433.751 90.5644 433.955 90.5644C434.209 90.5644 435.174 90.9228 435.479 90.9439C435.723 90.9608 435.953 90.9088 436.038 90.8807C436.698 91.2602 437.105 91.2813 438.121 91.4711C438.934 91.6229 440.966 91.1407 441.88 90.8807C442.795 91.0915 443.811 90.9017 444.725 90.8385C445.457 90.7879 445.911 90.8174 446.046 90.8385C446.775 90.7049 448.698 90.4885 450.568 90.6909C452.438 90.8933 453.921 90.6487 454.429 90.5011C456.207 90.5011 458.189 89.9529 458.748 89.8685C459.307 89.7842 460.628 89.8264 460.628 89.8685C460.628 89.9107 461.186 90.3113 461.288 90.3113C461.369 90.3113 461.491 90.2551 461.542 90.227C462.355 90.3619 464.624 90.5222 465.657 90.5855L470.687 90.6065C471.663 90.4379 473.397 90.6768 474.142 90.8174H474.802V90.7541C473.532 90.0583 478.511 90.5644 478.765 90.5644C478.968 90.5644 479.459 90.3816 479.68 90.2903L479.476 90.2481C479.375 90.227 479.222 89.8896 479.121 89.9529C479.039 90.0035 478.68 90.0161 478.511 90.0161C474.142 89.6366 474.65 89.9529 474.65 90.0583C474.65 90.1637 474.802 90.3113 474.548 90.3324C474.345 90.3493 472.601 90.1427 471.754 90.0372C471.449 90.0794 470.748 90.1427 470.382 90.0583C469.925 89.9529 465.759 90.1427 465.556 90.0583C465.352 89.974 462.863 89.8685 462.253 89.8053C461.766 89.7547 461.542 89.6858 461.491 89.6577C461.474 89.6858 461.41 89.7462 461.288 89.7631C461.136 89.7842 460.882 89.4679 460.628 89.2781C460.424 89.1263 459.256 89.2149 458.697 89.2781C457.884 89.6155 454.582 89.974 454.328 90.0161C454.074 90.0583 453.566 90.3324 452.651 90.2481C451.737 90.1637 448.739 90.1427 448.434 90.1216C448.129 90.1005 446.504 90.3113 445.894 90.3746C445.284 90.4379 445.742 90.3957 444.979 90.3113C444.217 90.227 443.709 90.48 443.15 90.5011C442.703 90.518 442.117 90.4238 441.88 90.3746C440.356 90.8807 439.848 90.8174 438.73 91.0283C437.613 91.2391 436.038 90.3324 436.038 90.3535C436.038 90.3746 435.479 90.4379 435.174 90.4168C434.869 90.3957 434.056 90.0794 433.955 90.0583C433.853 90.0372 433.853 90.0583 433.193 89.9107C432.664 89.7926 432.193 89.8615 432.024 89.9107C431.651 90.0442 430.713 90.3324 429.941 90.4168C428.976 90.5222 428.315 90.1637 428.01 90.0583C427.706 89.9529 426.131 89.974 426.029 89.974C424.85 89.8221 423.709 89.9107 423.285 89.974C421.944 90.1427 419.001 90.3113 417.697 90.3746C417.443 90.1637 414.547 90.5011 413.429 90.3746C412.535 90.2734 412.21 90.22 412.159 90.2059C410.635 90.3535 409.06 90.2692 408.552 90.2059C408.044 90.1427 406.977 89.4679 406.469 89.5101C406.062 89.5438 404.572 89.243 403.878 89.0884C403.065 88.5402 402.354 88.8564 402.252 88.8353C402.15 88.8142 401.846 88.9829 401.744 88.8986C401.642 88.8142 401.134 88.6877 400.728 88.7299C400.321 88.7721 399.864 88.7721 399.762 88.7721C399 88.5612 396.46 88.6456 395.85 88.6456H394.885C394.519 88.6456 394.259 88.8424 394.174 88.9408C393.889 88.7215 393.005 88.9478 392.599 89.0884C392.071 88.9534 391.159 89.0321 390.77 89.0884C390.347 89.1305 389.317 89.1896 388.585 89.0884C387.671 88.9619 386.553 89.1516 386.197 89.2149C385.842 89.2781 384.318 89.4047 383.606 89.3836C382.895 89.3625 383.098 89.1938 382.844 89.2571C382.59 89.3203 378.577 89.3203 377.916 89.2571C377.388 89.2065 376.578 89.2781 376.24 89.3203C374.289 89.5902 372.582 89.3906 371.972 89.2571C371.809 89.4426 371.43 89.5312 371.261 89.5523C370.753 89.6788 369.736 89.1516 369.381 88.9829C369.025 88.8143 368.822 88.8775 368.72 88.9197C368.639 88.9534 368.382 88.9337 368.263 88.9197C367.298 88.5823 364.808 89.0884 363.64 89.3414C362.471 89.5944 361.353 89.0884 361.201 89.0884C361.049 89.0884 359.982 89.2781 359.626 89.2571C359.342 89.2402 357.712 89.1376 356.933 89.0884C356.764 89.1446 356.1 89.198 354.8 88.9619C353.499 88.7257 352.869 88.8494 352.717 88.9407C352.066 88.6708 351.396 88.6455 351.142 88.6667C350.634 88.5823 349.363 88.9407 349.211 88.9407C347.992 88.8142 344.994 89.5311 344.943 89.5733Z" fill="white"/>
<path d="M479.68 89.742C479.781 89.8053 479.578 89.8053 479.527 89.8264H481.305C481.729 89.8896 482.667 89.974 483.033 89.8053C483.399 89.6366 483.761 89.749 483.896 89.8264C484.018 89.7758 486.013 89.7209 486.996 89.6998V89.1094C486.742 89.0462 483.896 89.2781 483.795 89.2149C483.714 89.1643 483.558 89.1376 483.49 89.1305C483.321 89.1797 482.901 89.2866 482.576 89.3203C482.169 89.3625 481.661 89.3203 481.407 89.257C481.153 89.1938 479.324 89.257 479.172 89.3203C479.019 89.3836 479.324 89.4679 479.527 89.6577C479.73 89.8474 479.578 89.6788 479.68 89.742Z" fill="white"/>
<path d="M484.862 45.8574L486.996 45.9207V46.4478L484.862 46.4267C484.303 46.0893 482.83 46.005 482.322 46.005C481.814 46.005 481.255 46.258 481.103 46.3002C480.95 46.3423 479.02 46.3423 478.258 46.3002C477.495 46.258 477.241 45.9839 477.14 45.9839C477.038 45.9839 475.565 46.0683 475.26 46.0894C475.016 46.1062 474.346 45.998 474.041 45.9418C473.797 45.6213 473.16 45.6536 472.872 45.7098C471.043 45.8574 470.688 45.6466 469.976 45.267C469.265 44.8875 468.859 44.9507 468.808 44.9507C468.076 45.1363 466.979 45.2811 466.521 45.3303C465.201 45.3935 465.201 44.6555 463.93 44.5923C463.548 44.5732 462.897 44.8383 462.609 44.9929C462.559 44.8453 461.288 44.3603 460.628 44.529C460.1 44.6639 459.053 44.8804 458.596 44.9718C458.342 44.6344 457.529 44.4236 457.122 44.4236C456.716 44.4236 455.801 44.782 455.801 44.9085C455.801 45.0351 455.09 45.3724 455.09 45.3092C455.09 45.2586 454.582 45.2037 454.328 45.1827C454.328 45.1616 454.166 45.1447 453.515 45.2459C452.906 45.2881 451.483 44.782 451.077 44.782C450.751 44.782 450.433 44.8664 450.314 44.9085C449.786 44.5374 449.349 44.5993 449.197 44.6766C449.129 44.7258 448.8 44.8537 448.028 44.9718C447.063 45.1194 447.215 44.5923 446.961 44.6766C446.707 44.7609 445.539 44.9929 444.624 45.1194C443.71 45.2459 443.049 44.9718 441.83 44.9085C440.611 44.8453 439.188 45.267 438.274 45.3724C437.359 45.4779 435.53 45.1827 434.412 45.1194C433.295 45.0561 432.787 45.2248 432.685 45.1827C432.604 45.1489 432.041 44.9577 431.77 44.8664C432.868 44.529 436.665 44.7258 438.426 44.8664C439.361 44.6133 441.728 44.5079 442.795 44.4868C444.177 44.8748 446.148 44.4798 446.961 44.2338C447.408 44.6555 448.401 44.4517 448.841 44.2971C449.735 44.0103 450.128 44.3041 450.213 44.4868C450.66 44.2507 451.077 44.3041 451.229 44.3603C452.956 44.7188 453.566 44.8664 453.871 44.782C454.176 44.6977 454.43 44.7188 454.582 44.7188C454.704 44.7188 454.972 44.8172 455.09 44.8664C455.175 44.8734 455.365 44.8537 455.446 44.7188C455.527 44.5838 456.191 44.2408 456.513 44.0862C457.326 43.7994 458.24 44.29 458.596 44.5712L459.51 44.3603C460.526 44.0904 461.051 44.0651 461.187 44.0862C461.634 44.0693 462.355 44.4025 462.66 44.5712C463.321 44.2127 464.54 43.9386 465.302 44.5712C466.064 45.2037 468.096 44.5712 468.3 44.5712C469.031 44.3687 469.384 44.4868 469.468 44.5712C471.094 45.2628 471.941 45.3092 472.161 45.2459C473.909 45.0772 474.142 45.3162 474.041 45.4568L475.362 45.5622C475.605 45.5116 476.649 45.4708 477.14 45.4568C477.993 45.9291 480.171 45.8363 481.153 45.7309C482.576 45.208 484.219 45.5974 484.862 45.8574Z" fill="white"/>
<path d="M434.057 46.4267C434.108 46.3845 433.498 46.0682 433.498 46.0471C432.075 46.3845 430.365 46.4689 429.687 46.4688C428.021 46.8906 426.792 46.6446 426.385 46.4688C424.759 46.8062 424.607 46.258 422.067 46.3212C420.034 46.1019 418.375 46.2439 417.799 46.3423C417.067 45.982 415.801 46.0235 415.259 46.0893C411.966 46.7809 410.771 46.6164 410.585 46.4477C409.568 46.6586 408.654 45.9417 407.993 45.8573C407.333 45.773 407.028 46.1526 406.977 46.1526C406.927 46.1526 406.266 46.0471 405.25 45.9628C404.437 45.8953 402.574 46.0612 401.744 46.1526C400.647 46.0007 397.46 46.0893 396.003 46.1526C394.835 45.9839 395.648 45.9417 392.803 46.2158C389.957 46.4899 390.567 46.1315 389.551 46.2791C388.738 46.3972 387.18 46.3564 386.503 46.3212C386.316 46.3775 385.863 46.4941 385.537 46.511C385.212 46.5279 384.928 46.4759 384.826 46.4478C384.826 46.5321 384.386 46.6656 384.166 46.7219C381.575 46.9116 379.339 46.5743 379.238 46.5743C379.136 46.5743 379.238 46.511 378.475 46.6586C377.713 46.8062 377.256 46.4478 377.205 46.4478C375.681 46.764 375.275 46.3634 374.97 46.258C374.665 46.1526 373.192 46.026 372.531 45.8995C371.871 45.773 370.905 45.3302 370.347 45.2459C369.899 45.1784 367.552 45.2318 366.435 45.2669C365.977 45.035 362.929 45.1404 362.37 45.2037C361.811 45.2669 361.202 45.0561 361.049 45.1193C360.897 45.1826 358.712 45.1404 356.375 45.4356C354.505 45.6718 352.006 45.534 350.99 45.4356C349.567 44.7609 347.941 45.288 347.382 45.4778C346.935 45.6296 346.383 45.6113 346.163 45.5832C345.875 45.534 345.249 45.4356 345.045 45.4356C344.791 45.4356 343.826 45.0772 343.521 45.0561C343.277 45.0392 343.047 45.0912 342.962 45.1193C342.302 44.7398 341.895 44.7187 340.879 44.5289C340.066 44.3771 338.034 44.8593 337.12 45.1193C336.205 44.9085 335.189 45.0983 334.275 45.1615C333.543 45.2121 333.089 45.1826 332.954 45.1615C332.225 45.2951 330.302 45.5115 328.432 45.3091C326.562 45.1067 325.079 45.3513 324.571 45.4989C322.793 45.4989 320.811 46.0471 320.252 46.1315C319.693 46.2158 318.372 46.1736 318.372 46.1315C318.372 46.0893 317.814 45.6887 317.712 45.6887C317.631 45.6887 317.509 45.7449 317.458 45.773C316.645 45.6381 314.376 45.4778 313.343 45.4145L308.313 45.3935C307.337 45.5621 305.603 45.3232 304.858 45.1826H304.198V45.2459C305.468 45.9417 300.489 45.4356 300.235 45.4356C300.032 45.4356 299.541 45.6184 299.32 45.7097L299.524 45.7519C299.625 45.773 299.778 46.1104 299.879 46.0471C299.961 45.9965 300.32 45.9839 300.489 45.9839C304.858 46.3634 304.35 46.0471 304.35 45.9417C304.35 45.8363 304.198 45.6887 304.452 45.6676C304.655 45.6507 306.399 45.8573 307.246 45.9628C307.551 45.9206 308.252 45.8573 308.618 45.9417C309.075 46.0471 313.241 45.8573 313.444 45.9417C313.648 46.026 316.137 46.1315 316.747 46.1947C317.234 46.2453 317.458 46.3142 317.509 46.3423C317.526 46.3142 317.59 46.2538 317.712 46.2369C317.864 46.2158 318.118 46.5321 318.372 46.7219C318.576 46.8737 319.744 46.7851 320.303 46.7219C321.116 46.3845 324.418 46.026 324.672 45.9839C324.926 45.9417 325.434 45.6676 326.349 45.7519C327.263 45.8363 330.261 45.8573 330.566 45.8784C330.871 45.8995 332.496 45.6887 333.106 45.6254C333.716 45.5621 333.258 45.6043 334.021 45.6887C334.783 45.773 335.291 45.52 335.85 45.4989C336.297 45.482 336.883 45.5762 337.12 45.6254C338.644 45.1193 339.152 45.1826 340.27 44.9717C341.387 44.7609 342.962 45.6676 342.962 45.6465C342.962 45.6254 343.521 45.5621 343.826 45.5832C344.131 45.6043 344.944 45.9206 345.045 45.9417C345.147 45.9628 345.147 45.9417 345.807 46.0893C346.336 46.2074 346.807 46.1385 346.976 46.0893C347.349 45.9558 348.287 45.6676 349.059 45.5832C350.024 45.4778 350.685 45.8363 350.99 45.9417C351.294 46.0471 352.869 46.026 352.971 46.026C354.15 46.1779 355.291 46.0893 355.715 46.026C357.056 45.8573 359.999 45.6887 361.303 45.6254C361.557 45.8363 364.453 45.4989 365.571 45.6254C366.465 45.7266 366.79 45.78 366.841 45.7941C368.365 45.6465 369.94 45.7308 370.448 45.7941C370.956 45.8573 372.023 46.5321 372.531 46.4899C372.938 46.4562 374.428 46.757 375.122 46.9116C375.935 47.4598 376.646 47.1436 376.748 47.1647C376.85 47.1858 377.154 47.0171 377.256 47.1014C377.358 47.1858 377.866 47.3123 378.272 47.2701C378.679 47.2279 379.136 47.2279 379.238 47.2279C380 47.4388 382.54 47.3544 383.15 47.3544H384.115C384.481 47.3544 384.741 47.1576 384.826 47.0592C385.111 47.2785 385.995 47.0522 386.401 46.9116C386.929 47.0466 387.841 46.9679 388.23 46.9116C388.653 46.8695 389.683 46.8104 390.415 46.9116C391.329 47.0381 392.447 46.8484 392.803 46.7851C393.158 46.7219 394.682 46.5953 395.394 46.6164C396.105 46.6375 395.902 46.8062 396.156 46.7429C396.41 46.6797 400.423 46.6797 401.084 46.7429C401.612 46.7935 402.422 46.7219 402.76 46.6797C404.711 46.4098 406.418 46.6094 407.028 46.7429C407.191 46.5574 407.57 46.4688 407.739 46.4477C408.247 46.3212 409.264 46.8484 409.619 47.0171C409.975 47.1857 410.178 47.1225 410.28 47.0803C410.361 47.0466 410.618 47.0663 410.737 47.0803C411.702 47.4177 414.192 46.9116 415.36 46.6586C416.529 46.4056 417.647 46.9116 417.799 46.9116C417.951 46.9116 419.018 46.7219 419.374 46.7429C419.658 46.7598 421.288 46.8624 422.067 46.9116C422.236 46.8554 422.9 46.802 424.2 47.0381C425.501 47.2743 426.131 47.1506 426.283 47.0593C426.934 47.3292 427.604 47.3545 427.858 47.3333C428.366 47.4177 429.637 47.0593 429.789 47.0593C431.008 47.1858 434.006 46.4689 434.057 46.4267Z" fill="white"/>
<path d="M299.32 46.258C299.219 46.1947 299.422 46.1947 299.473 46.1736H297.695C297.271 46.1104 296.333 46.026 295.967 46.1947C295.601 46.3634 295.239 46.251 295.104 46.1736C294.982 46.2242 292.987 46.2791 292.004 46.3002V46.8906C292.258 46.9538 295.104 46.7219 295.205 46.7851C295.286 46.8357 295.442 46.8624 295.51 46.8695C295.679 46.8203 296.099 46.7134 296.424 46.6797C296.831 46.6375 297.339 46.6797 297.593 46.743C297.847 46.8062 299.676 46.743 299.828 46.6797C299.981 46.6164 299.676 46.5321 299.473 46.3423C299.27 46.1526 299.422 46.3212 299.32 46.258Z" fill="white"/>
<path d="M8.09233 35L0.703125 8.81818H5.80398L10.5213 28.0582H10.7642L15.8011 8.81818H20.4418L25.4915 28.071H25.7216L30.4389 8.81818H35.5398L28.1506 35H23.4716L18.2301 16.6293H18.0256L12.7713 35H8.09233ZM44.4654 35.3835C42.5478 35.3835 40.8858 34.9616 39.4796 34.1179C38.0733 33.2741 36.9824 32.0937 36.2068 30.5767C35.4398 29.0597 35.0563 27.2869 35.0563 25.2585C35.0563 23.2301 35.4398 21.4531 36.2068 19.9276C36.9824 18.402 38.0733 17.2173 39.4796 16.3736C40.8858 15.5298 42.5478 15.108 44.4654 15.108C46.383 15.108 48.0449 15.5298 49.4512 16.3736C50.8574 17.2173 51.9441 18.402 52.7111 19.9276C53.4867 21.4531 53.8745 23.2301 53.8745 25.2585C53.8745 27.2869 53.4867 29.0597 52.7111 30.5767C51.9441 32.0937 50.8574 33.2741 49.4512 34.1179C48.0449 34.9616 46.383 35.3835 44.4654 35.3835ZM44.4909 31.6761C45.5307 31.6761 46.4 31.3906 47.0989 30.8196C47.7978 30.2401 48.3176 29.4645 48.6586 28.4929C49.008 27.5213 49.1827 26.4389 49.1827 25.2457C49.1827 24.044 49.008 22.9574 48.6586 21.9858C48.3176 21.0057 47.7978 20.2259 47.0989 19.6463C46.4 19.0668 45.5307 18.777 44.4909 18.777C43.4256 18.777 42.5392 19.0668 41.8318 19.6463C41.133 20.2259 40.6088 21.0057 40.2594 21.9858C39.9185 22.9574 39.748 24.044 39.748 25.2457C39.748 26.4389 39.9185 27.5213 40.2594 28.4929C40.6088 29.4645 41.133 30.2401 41.8318 30.8196C42.5392 31.3906 43.4256 31.6761 44.4909 31.6761ZM57.0824 35V15.3636H61.5696V18.6364H61.7741C62.1321 17.5028 62.7457 16.6293 63.615 16.0156C64.4929 15.3935 65.4943 15.0824 66.6193 15.0824C66.875 15.0824 67.1605 15.0952 67.4758 15.1207C67.7997 15.1378 68.0682 15.1676 68.2812 15.2102V19.4673C68.0852 19.3991 67.7741 19.3395 67.348 19.2884C66.9304 19.2287 66.5256 19.1989 66.1335 19.1989C65.2898 19.1989 64.5312 19.3821 63.8579 19.7486C63.1932 20.1065 62.669 20.6051 62.2855 21.2443C61.902 21.8835 61.7102 22.6207 61.7102 23.456V35H57.0824ZM74.8546 28.8381L74.8418 23.2514H75.5832L82.6401 15.3636H88.0477L79.3673 25.0284H78.4085L74.8546 28.8381ZM70.6358 35V8.81818H75.2636V35H70.6358ZM82.9597 35L76.5676 26.0639L79.6869 22.804L88.4952 35H82.9597ZM102.674 35L97.1259 15.3636H101.843L105.295 29.1705H105.474L109.002 15.3636H113.668L117.197 29.0938H117.389L120.789 15.3636H125.519L119.958 35H115.139L111.457 21.7301H111.188L107.507 35H102.674ZM128.03 35V15.3636H132.658V35H128.03ZM130.357 12.5767C129.624 12.5767 128.994 12.3338 128.465 11.848C127.937 11.3537 127.673 10.7614 127.673 10.071C127.673 9.37216 127.937 8.77983 128.465 8.29403C128.994 7.79971 129.624 7.55256 130.357 7.55256C131.099 7.55256 131.729 7.79971 132.249 8.29403C132.778 8.77983 133.042 9.37216 133.042 10.071C133.042 10.7614 132.778 11.3537 132.249 11.848C131.729 12.3338 131.099 12.5767 130.357 12.5767ZM146.503 15.3636V18.9432H135.214V15.3636H146.503ZM138.001 10.6591H142.629V29.0938C142.629 29.7159 142.723 30.1932 142.91 30.5256C143.106 30.8494 143.362 31.071 143.677 31.1903C143.993 31.3097 144.342 31.3693 144.726 31.3693C145.015 31.3693 145.28 31.348 145.518 31.3054C145.765 31.2628 145.953 31.2244 146.081 31.1903L146.861 34.8082C146.613 34.8935 146.26 34.9872 145.799 35.0895C145.348 35.1918 144.794 35.2514 144.138 35.2685C142.978 35.3026 141.934 35.1278 141.005 34.7443C140.076 34.3523 139.339 33.7472 138.794 32.929C138.257 32.1108 137.993 31.0881 138.001 29.8608V10.6591ZM154.703 23.4943V35H150.075V8.81818H154.6V18.7003H154.831C155.291 17.5923 156.002 16.7187 156.966 16.0795C157.937 15.4318 159.173 15.108 160.673 15.108C162.037 15.108 163.225 15.3935 164.24 15.9645C165.254 16.5355 166.038 17.3707 166.592 18.4702C167.154 19.5696 167.436 20.9119 167.436 22.4972V35H162.808V23.2131C162.808 21.892 162.467 20.8651 161.785 20.1321C161.112 19.3906 160.166 19.0199 158.947 19.0199C158.129 19.0199 157.396 19.1989 156.748 19.5568C156.109 19.9062 155.606 20.4134 155.24 21.0781C154.882 21.7429 154.703 22.5483 154.703 23.4943ZM192.158 26.7415V15.3636H196.786V35H192.299V31.5099H192.094C191.651 32.6094 190.923 33.5085 189.908 34.2074C188.903 34.9062 187.663 35.2557 186.188 35.2557C184.901 35.2557 183.763 34.9702 182.775 34.3991C181.795 33.8196 181.028 32.9801 180.474 31.8807C179.92 30.7727 179.643 29.4347 179.643 27.8665V15.3636H184.271V27.1506C184.271 28.3949 184.611 29.3835 185.293 30.1165C185.975 30.8494 186.87 31.2159 187.978 31.2159C188.66 31.2159 189.32 31.0497 189.959 30.7173C190.599 30.3849 191.123 29.8906 191.532 29.2344C191.95 28.5696 192.158 27.7386 192.158 26.7415ZM216.345 20.554L212.126 21.0142C212.007 20.5881 211.798 20.1875 211.5 19.8125C211.21 19.4375 210.818 19.1349 210.324 18.9048C209.829 18.6747 209.224 18.5597 208.508 18.5597C207.545 18.5597 206.736 18.7685 206.079 19.1861C205.432 19.6037 205.112 20.1449 205.12 20.8097C205.112 21.3807 205.321 21.8452 205.747 22.2031C206.182 22.5611 206.897 22.8551 207.895 23.0852L211.244 23.8011C213.102 24.2017 214.483 24.8366 215.386 25.706C216.298 26.5753 216.758 27.7131 216.767 29.1193C216.758 30.3551 216.396 31.446 215.68 32.392C214.973 33.3295 213.988 34.0625 212.727 34.5909C211.466 35.1193 210.017 35.3835 208.38 35.3835C205.977 35.3835 204.042 34.8807 202.576 33.875C201.111 32.8608 200.237 31.4503 199.956 29.6435L204.468 29.2088C204.673 30.0952 205.108 30.7642 205.772 31.2159C206.437 31.6676 207.302 31.8935 208.368 31.8935C209.467 31.8935 210.349 31.6676 211.014 31.2159C211.687 30.7642 212.024 30.206 212.024 29.5412C212.024 28.9787 211.807 28.5142 211.372 28.1477C210.946 27.7812 210.281 27.5 209.378 27.304L206.028 26.6009C204.145 26.2088 202.751 25.5483 201.848 24.6193C200.944 23.6818 200.497 22.4972 200.505 21.0653C200.497 19.8551 200.825 18.8068 201.49 17.9205C202.163 17.0256 203.096 16.3352 204.29 15.8494C205.491 15.3551 206.876 15.108 208.444 15.108C210.745 15.108 212.557 15.598 213.878 16.5781C215.207 17.5582 216.03 18.8835 216.345 20.554ZM261.695 22.1903V26H225.695V22.1903H261.695ZM281.368 15.3636V18.9432H270.079V15.3636H281.368ZM272.866 10.6591H277.494V29.0938C277.494 29.7159 277.588 30.1932 277.775 30.5256C277.971 30.8494 278.227 31.071 278.542 31.1903C278.858 31.3097 279.207 31.3693 279.591 31.3693C279.88 31.3693 280.145 31.348 280.383 31.3054C280.63 31.2628 280.818 31.2244 280.946 31.1903L281.726 34.8082C281.478 34.8935 281.125 34.9872 280.665 35.0895C280.213 35.1918 279.659 35.2514 279.003 35.2685C277.843 35.3026 276.799 35.1278 275.87 34.7443C274.941 34.3523 274.204 33.7472 273.659 32.929C273.122 32.1108 272.858 31.0881 272.866 29.8608V10.6591ZM289.568 23.4943V35H284.94V8.81818H289.465V18.7003H289.696C290.156 17.5923 290.867 16.7187 291.831 16.0795C292.802 15.4318 294.038 15.108 295.538 15.108C296.902 15.108 298.09 15.3935 299.105 15.9645C300.119 16.5355 300.903 17.3707 301.457 18.4702C302.019 19.5696 302.301 20.9119 302.301 22.4972V35H297.673V23.2131C297.673 21.892 297.332 20.8651 296.65 20.1321C295.977 19.3906 295.031 19.0199 293.812 19.0199C292.994 19.0199 292.261 19.1989 291.613 19.5568C290.974 19.9062 290.471 20.4134 290.105 21.0781C289.747 21.7429 289.568 22.5483 289.568 23.4943ZM314.991 35.3835C313.022 35.3835 311.322 34.9744 309.89 34.1562C308.467 33.3295 307.372 32.1619 306.605 30.6534C305.838 29.1364 305.454 27.3509 305.454 25.2969C305.454 23.277 305.838 21.5043 306.605 19.9787C307.38 18.4446 308.463 17.2514 309.852 16.3991C311.241 15.5384 312.873 15.108 314.748 15.108C315.959 15.108 317.101 15.304 318.174 15.696C319.257 16.0795 320.211 16.6761 321.038 17.4858C321.873 18.2955 322.53 19.3267 323.007 20.5795C323.484 21.8239 323.723 23.3068 323.723 25.0284V26.4474H307.628V23.3281H319.287C319.278 22.4418 319.086 21.6534 318.711 20.9631C318.336 20.2642 317.812 19.7145 317.139 19.3139C316.474 18.9134 315.699 18.7131 314.812 18.7131C313.866 18.7131 313.035 18.9432 312.319 19.4034C311.603 19.8551 311.045 20.4517 310.645 21.1932C310.253 21.9261 310.052 22.7315 310.044 23.6094V26.3324C310.044 27.4744 310.253 28.4545 310.67 29.2727C311.088 30.0824 311.672 30.7045 312.422 31.1392C313.172 31.5653 314.049 31.7784 315.055 31.7784C315.728 31.7784 316.338 31.6847 316.883 31.4972C317.429 31.3011 317.902 31.0156 318.302 30.6406C318.703 30.2656 319.005 29.8011 319.21 29.2472L323.531 29.733C323.258 30.875 322.738 31.8722 321.971 32.7244C321.213 33.5682 320.241 34.2244 319.057 34.6932C317.872 35.1534 316.517 35.3835 314.991 35.3835ZM335.332 35V8.81818H339.96V18.6108H340.152C340.39 18.1335 340.727 17.6264 341.162 17.0895C341.596 16.544 342.184 16.0795 342.926 15.696C343.667 15.304 344.613 15.108 345.764 15.108C347.281 15.108 348.649 15.4957 349.868 16.2713C351.095 17.0384 352.066 18.1761 352.782 19.6847C353.507 21.1847 353.869 23.0256 353.869 25.2074C353.869 27.3636 353.515 29.196 352.808 30.7045C352.101 32.2131 351.137 33.3636 349.919 34.1562C348.7 34.9489 347.319 35.3452 345.777 35.3452C344.652 35.3452 343.718 35.1577 342.977 34.7827C342.235 34.4077 341.639 33.956 341.187 33.4276C340.744 32.8906 340.399 32.3835 340.152 31.9062H339.883V35H335.332ZM339.87 25.1818C339.87 26.4517 340.049 27.5639 340.407 28.5185C340.774 29.473 341.298 30.2187 341.98 30.7557C342.67 31.2841 343.505 31.5483 344.485 31.5483C345.508 31.5483 346.365 31.2756 347.055 30.7301C347.745 30.1761 348.265 29.4219 348.615 28.4673C348.973 27.5043 349.152 26.4091 349.152 25.1818C349.152 23.9631 348.977 22.8807 348.628 21.9347C348.278 20.9886 347.758 20.2472 347.068 19.7102C346.378 19.1733 345.517 18.9048 344.485 18.9048C343.497 18.9048 342.657 19.1648 341.967 19.6847C341.277 20.2045 340.753 20.9332 340.395 21.8707C340.045 22.8082 339.87 23.9119 339.87 25.1818ZM365.776 35.3835C363.808 35.3835 362.107 34.9744 360.676 34.1562C359.252 33.3295 358.157 32.1619 357.39 30.6534C356.623 29.1364 356.24 27.3509 356.24 25.2969C356.24 23.277 356.623 21.5043 357.39 19.9787C358.166 18.4446 359.248 17.2514 360.637 16.3991C362.026 15.5384 363.659 15.108 365.534 15.108C366.744 15.108 367.886 15.304 368.96 15.696C370.042 16.0795 370.997 16.6761 371.823 17.4858C372.659 18.2955 373.315 19.3267 373.792 20.5795C374.269 21.8239 374.508 23.3068 374.508 25.0284V26.4474H358.413V23.3281H370.072C370.063 22.4418 369.872 21.6534 369.497 20.9631C369.122 20.2642 368.598 19.7145 367.924 19.3139C367.259 18.9134 366.484 18.7131 365.598 18.7131C364.651 18.7131 363.821 18.9432 363.105 19.4034C362.389 19.8551 361.83 20.4517 361.43 21.1932C361.038 21.9261 360.838 22.7315 360.829 23.6094V26.3324C360.829 27.4744 361.038 28.4545 361.455 29.2727C361.873 30.0824 362.457 30.7045 363.207 31.1392C363.957 31.5653 364.835 31.7784 365.84 31.7784C366.514 31.7784 367.123 31.6847 367.669 31.4972C368.214 31.3011 368.687 31.0156 369.088 30.6406C369.488 30.2656 369.791 29.8011 369.995 29.2472L374.316 29.733C374.044 30.875 373.524 31.8722 372.757 32.7244C371.998 33.5682 371.026 34.2244 369.842 34.6932C368.657 35.1534 367.302 35.3835 365.776 35.3835ZM393.223 20.554L389.004 21.0142C388.885 20.5881 388.676 20.1875 388.378 19.8125C388.088 19.4375 387.696 19.1349 387.202 18.9048C386.707 18.6747 386.102 18.5597 385.386 18.5597C384.423 18.5597 383.614 18.7685 382.957 19.1861C382.31 19.6037 381.99 20.1449 381.999 20.8097C381.99 21.3807 382.199 21.8452 382.625 22.2031C383.06 22.5611 383.776 22.8551 384.773 23.0852L388.122 23.8011C389.98 24.2017 391.361 24.8366 392.264 25.706C393.176 26.5753 393.636 27.7131 393.645 29.1193C393.636 30.3551 393.274 31.446 392.558 32.392C391.851 33.3295 390.867 34.0625 389.605 34.5909C388.344 35.1193 386.895 35.3835 385.259 35.3835C382.855 35.3835 380.92 34.8807 379.455 33.875C377.989 32.8608 377.115 31.4503 376.834 29.6435L381.347 29.2088C381.551 30.0952 381.986 30.7642 382.651 31.2159C383.315 31.6676 384.18 31.8935 385.246 31.8935C386.345 31.8935 387.227 31.6676 387.892 31.2159C388.565 30.7642 388.902 30.206 388.902 29.5412C388.902 28.9787 388.685 28.5142 388.25 28.1477C387.824 27.7812 387.159 27.5 386.256 27.304L382.906 26.6009C381.023 26.2088 379.629 25.5483 378.726 24.6193C377.822 23.6818 377.375 22.4972 377.384 21.0653C377.375 19.8551 377.703 18.8068 378.368 17.9205C379.041 17.0256 379.974 16.3352 381.168 15.8494C382.369 15.3551 383.754 15.108 385.322 15.108C387.624 15.108 389.435 15.598 390.756 16.5781C392.085 17.5582 392.908 18.8835 393.223 20.554ZM406.546 15.3636V18.9432H395.258V15.3636H406.546ZM398.045 10.6591H402.673V29.0938C402.673 29.7159 402.767 30.1932 402.954 30.5256C403.15 30.8494 403.406 31.071 403.721 31.1903C404.036 31.3097 404.386 31.3693 404.769 31.3693C405.059 31.3693 405.323 31.348 405.562 31.3054C405.809 31.2628 405.997 31.2244 406.124 31.1903L406.904 34.8082C406.657 34.8935 406.303 34.9872 405.843 35.0895C405.392 35.1918 404.838 35.2514 404.181 35.2685C403.022 35.3026 401.978 35.1278 401.049 34.7443C400.12 34.3523 399.383 33.7472 398.838 32.929C398.301 32.1108 398.036 31.0881 398.045 29.8608V10.6591ZM2.58239 79V52.8182H7.21023V62.6108H7.40199C7.64063 62.1335 7.97727 61.6264 8.41193 61.0895C8.84659 60.544 9.43466 60.0795 10.1761 59.696C10.9176 59.304 11.8636 59.108 13.0142 59.108C14.5313 59.108 15.8991 59.4957 17.1179 60.2713C18.3452 61.0384 19.3168 62.1761 20.0327 63.6847C20.7571 65.1847 21.1193 67.0256 21.1193 69.2074C21.1193 71.3636 20.7656 73.196 20.0582 74.7045C19.3509 76.2131 18.3878 77.3636 17.169 78.1562C15.9503 78.9489 14.5696 79.3452 13.027 79.3452C11.902 79.3452 10.9688 79.1577 10.2273 78.7827C9.4858 78.4077 8.8892 77.956 8.4375 77.4276C7.99432 76.8906 7.64915 76.3835 7.40199 75.9062H7.13352V79H2.58239ZM7.12074 69.1818C7.12074 70.4517 7.29972 71.5639 7.65767 72.5185C8.02415 73.473 8.5483 74.2187 9.23011 74.7557C9.92045 75.2841 10.7557 75.5483 11.7358 75.5483C12.7585 75.5483 13.6151 75.2756 14.3054 74.7301C14.9957 74.1761 15.5156 73.4219 15.8651 72.4673C16.223 71.5043 16.402 70.4091 16.402 69.1818C16.402 67.9631 16.2273 66.8807 15.8778 65.9347C15.5284 64.9886 15.0085 64.2472 14.3182 63.7102C13.6278 63.1733 12.767 62.9048 11.7358 62.9048C10.7472 62.9048 9.90767 63.1648 9.21733 63.6847C8.52699 64.2045 8.00284 64.9332 7.64489 65.8707C7.29545 66.8082 7.12074 67.9119 7.12074 69.1818ZM24.3336 79V59.3636H28.8208V62.6364H29.0254C29.3833 61.5028 29.997 60.6293 30.8663 60.0156C31.7441 59.3935 32.7456 59.0824 33.8706 59.0824C34.1262 59.0824 34.4117 59.0952 34.7271 59.1207C35.051 59.1378 35.3194 59.1676 35.5325 59.2102V63.4673C35.3365 63.3991 35.0254 63.3395 34.5992 63.2884C34.1816 63.2287 33.7768 63.1989 33.3848 63.1989C32.541 63.1989 31.7825 63.3821 31.1092 63.7486C30.4444 64.1065 29.9203 64.6051 29.5367 65.2443C29.1532 65.8835 28.9615 66.6207 28.9615 67.456V79H24.3336ZM43.1861 79.3963C41.9417 79.3963 40.821 79.1747 39.8239 78.7315C38.8352 78.2798 38.0511 77.6151 37.4716 76.7372C36.9006 75.8594 36.615 74.777 36.615 73.4901C36.615 72.3821 36.8196 71.4659 37.2287 70.7415C37.6378 70.017 38.196 69.4375 38.9034 69.0028C39.6108 68.5682 40.4077 68.2401 41.294 68.0185C42.1889 67.7884 43.1136 67.6222 44.0682 67.5199C45.2187 67.4006 46.152 67.294 46.8679 67.2003C47.5838 67.098 48.1037 66.9446 48.4275 66.7401C48.7599 66.527 48.9261 66.1989 48.9261 65.7557V65.679C48.9261 64.7159 48.6406 63.9702 48.0696 63.4418C47.4986 62.9134 46.6761 62.6491 45.6023 62.6491C44.4687 62.6491 43.5696 62.8963 42.9048 63.3906C42.2486 63.8849 41.8054 64.4687 41.5753 65.142L37.2542 64.5284C37.5952 63.3352 38.1577 62.3381 38.9417 61.5369C39.7258 60.7273 40.6846 60.1222 41.8182 59.7216C42.9517 59.3125 44.2045 59.108 45.5767 59.108C46.5227 59.108 47.4645 59.2188 48.402 59.4403C49.3395 59.6619 50.196 60.0284 50.9716 60.5398C51.7471 61.0426 52.3693 61.7287 52.8381 62.598C53.3153 63.4673 53.554 64.554 53.554 65.858V79H49.1051V76.3026H48.9517C48.6704 76.848 48.2741 77.3594 47.7628 77.8366C47.2599 78.3054 46.625 78.6847 45.8579 78.9744C45.0994 79.2557 44.2088 79.3963 43.1861 79.3963ZM44.3878 75.9957C45.3167 75.9957 46.1221 75.8125 46.804 75.446C47.4858 75.071 48.0099 74.5767 48.3764 73.9631C48.7514 73.3494 48.9389 72.6804 48.9389 71.956V69.642C48.794 69.7614 48.5469 69.8722 48.1974 69.9744C47.8565 70.0767 47.473 70.1662 47.0469 70.2429C46.6207 70.3196 46.1989 70.3878 45.7812 70.4474C45.3636 70.5071 45.0014 70.5582 44.6946 70.6009C44.0042 70.6946 43.3864 70.848 42.8409 71.0611C42.2954 71.2741 41.865 71.5724 41.5497 71.956C41.2344 72.331 41.0767 72.8168 41.0767 73.4134C41.0767 74.2656 41.3878 74.9091 42.0099 75.3438C42.6321 75.7784 43.4247 75.9957 44.3878 75.9957ZM62.1152 67.4943V79H57.4874V59.3636H61.9107V62.7003H62.1408C62.5925 61.6009 63.3127 60.7273 64.3013 60.0795C65.2985 59.4318 66.53 59.108 67.9959 59.108C69.351 59.108 70.5314 59.3977 71.5371 59.9773C72.5513 60.5568 73.3354 61.3963 73.8894 62.4957C74.4519 63.5952 74.7288 64.929 74.7203 66.4972V79H70.0925V67.2131C70.0925 65.9006 69.7516 64.8736 69.0698 64.1321C68.3965 63.3906 67.4632 63.0199 66.27 63.0199C65.4604 63.0199 64.7402 63.1989 64.1095 63.5568C63.4874 63.9062 62.9973 64.4134 62.6394 65.0781C62.2899 65.7429 62.1152 66.5483 62.1152 67.4943ZM85.9918 79.3452C84.4492 79.3452 83.0685 78.9489 81.8498 78.1562C80.631 77.3636 79.6679 76.2131 78.9606 74.7045C78.2532 73.196 77.8995 71.3636 77.8995 69.2074C77.8995 67.0256 78.2574 65.1847 78.9733 63.6847C79.6978 62.1761 80.6736 61.0384 81.9009 60.2713C83.1282 59.4957 84.4961 59.108 86.0046 59.108C87.1552 59.108 88.1012 59.304 88.8427 59.696C89.5841 60.0795 90.1722 60.544 90.6069 61.0895C91.0415 61.6264 91.3782 62.1335 91.6168 62.6108H91.8086V52.8182H96.4492V79H91.8981V75.9062H91.6168C91.3782 76.3835 91.033 76.8906 90.5813 77.4276C90.1296 77.956 89.533 78.4077 88.7915 78.7827C88.05 79.1577 87.1168 79.3452 85.9918 79.3452ZM87.283 75.5483C88.2631 75.5483 89.0983 75.2841 89.7887 74.7557C90.479 74.2187 91.0032 73.473 91.3611 72.5185C91.7191 71.5639 91.8981 70.4517 91.8981 69.1818C91.8981 67.9119 91.7191 66.8082 91.3611 65.8707C91.0117 64.9332 90.4918 64.2045 89.8015 63.6847C89.1196 63.1648 88.2802 62.9048 87.283 62.9048C86.2518 62.9048 85.391 63.1733 84.7006 63.7102C84.0103 64.2472 83.4904 64.9886 83.141 65.9347C82.7915 66.8807 82.6168 67.9631 82.6168 69.1818C82.6168 70.4091 82.7915 71.5043 83.141 72.4673C83.4989 73.4219 84.0231 74.1761 84.7134 74.7301C85.4123 75.2756 86.2688 75.5483 87.283 75.5483ZM118.676 59.3636V62.9432H107.387V59.3636H118.676ZM110.174 54.6591H114.802V73.0938C114.802 73.7159 114.896 74.1932 115.083 74.5256C115.279 74.8494 115.535 75.071 115.85 75.1903C116.166 75.3097 116.515 75.3693 116.899 75.3693C117.189 75.3693 117.453 75.348 117.691 75.3054C117.939 75.2628 118.126 75.2244 118.254 75.1903L119.034 78.8082C118.787 78.8935 118.433 78.9872 117.973 79.0895C117.521 79.1918 116.967 79.2514 116.311 79.2685C115.152 79.3026 114.108 79.1278 113.179 78.7443C112.25 78.3523 111.512 77.7472 110.967 76.929C110.43 76.1108 110.166 75.0881 110.174 73.8608V54.6591ZM130.181 79.3835C128.263 79.3835 126.601 78.9616 125.195 78.1179C123.788 77.2741 122.698 76.0937 121.922 74.5767C121.155 73.0597 120.771 71.2869 120.771 69.2585C120.771 67.2301 121.155 65.4531 121.922 63.9276C122.698 62.402 123.788 61.2173 125.195 60.3736C126.601 59.5298 128.263 59.108 130.181 59.108C132.098 59.108 133.76 59.5298 135.166 60.3736C136.573 61.2173 137.659 62.402 138.426 63.9276C139.202 65.4531 139.59 67.2301 139.59 69.2585C139.59 71.2869 139.202 73.0597 138.426 74.5767C137.659 76.0937 136.573 77.2741 135.166 78.1179C133.76 78.9616 132.098 79.3835 130.181 79.3835ZM130.206 75.6761C131.246 75.6761 132.115 75.3906 132.814 74.8196C133.513 74.2401 134.033 73.4645 134.374 72.4929C134.723 71.5213 134.898 70.4389 134.898 69.2457C134.898 68.044 134.723 66.9574 134.374 65.9858C134.033 65.0057 133.513 64.2259 132.814 63.6463C132.115 63.0668 131.246 62.777 130.206 62.777C129.141 62.777 128.254 63.0668 127.547 63.6463C126.848 64.2259 126.324 65.0057 125.975 65.9858C125.634 66.9574 125.463 68.044 125.463 69.2457C125.463 70.4389 125.634 71.5213 125.975 72.4929C126.324 73.4645 126.848 74.2401 127.547 74.8196C128.254 75.3906 129.141 75.6761 130.206 75.6761ZM159.547 86.7727C157.885 86.7727 156.458 86.5469 155.264 86.0952C154.071 85.652 153.112 85.0554 152.388 84.3054C151.663 83.5554 151.161 82.7244 150.879 81.8125L155.047 80.8026C155.234 81.1861 155.507 81.5653 155.865 81.9403C156.223 82.3239 156.705 82.6392 157.31 82.8864C157.923 83.142 158.695 83.2699 159.624 83.2699C160.936 83.2699 162.023 82.9503 162.884 82.3111C163.744 81.6804 164.175 80.6406 164.175 79.1918V75.4716H163.945C163.706 75.9489 163.357 76.4389 162.896 76.9418C162.445 77.4446 161.844 77.8665 161.094 78.2074C160.352 78.5483 159.419 78.7188 158.294 78.7188C156.786 78.7188 155.418 78.3651 154.19 77.6577C152.972 76.9418 152 75.8764 151.276 74.4616C150.56 73.0384 150.202 71.2571 150.202 69.1179C150.202 66.9616 150.56 65.142 151.276 63.6591C152 62.1676 152.976 61.0384 154.203 60.2713C155.431 59.4957 156.798 59.108 158.307 59.108C159.458 59.108 160.404 59.304 161.145 59.696C161.895 60.0795 162.492 60.544 162.935 61.0895C163.378 61.6264 163.715 62.1335 163.945 62.6108H164.2V59.3636H168.764V79.3196C168.764 80.9986 168.364 82.3878 167.563 83.4872C166.761 84.5866 165.666 85.4091 164.277 85.9545C162.888 86.5 161.311 86.7727 159.547 86.7727ZM159.585 75.0881C160.565 75.0881 161.401 74.8494 162.091 74.3722C162.781 73.8949 163.306 73.2088 163.663 72.3139C164.021 71.419 164.2 70.3452 164.2 69.0923C164.2 67.8565 164.021 66.7741 163.663 65.8452C163.314 64.9162 162.794 64.196 162.104 63.6847C161.422 63.1648 160.583 62.9048 159.585 62.9048C158.554 62.9048 157.693 63.1733 157.003 63.7102C156.313 64.2472 155.793 64.9844 155.443 65.9219C155.094 66.8509 154.919 67.9077 154.919 69.0923C154.919 70.294 155.094 71.3466 155.443 72.25C155.801 73.1449 156.325 73.8437 157.016 74.3466C157.715 74.8409 158.571 75.0881 159.585 75.0881ZM181.48 79.3835C179.512 79.3835 177.811 78.9744 176.38 78.1562C174.956 77.3295 173.861 76.1619 173.094 74.6534C172.327 73.1364 171.943 71.3509 171.943 69.2969C171.943 67.277 172.327 65.5043 173.094 63.9787C173.87 62.4446 174.952 61.2514 176.341 60.3991C177.73 59.5384 179.363 59.108 181.238 59.108C182.448 59.108 183.59 59.304 184.664 59.696C185.746 60.0795 186.701 60.6761 187.527 61.4858C188.363 62.2955 189.019 63.3267 189.496 64.5795C189.973 65.8239 190.212 67.3068 190.212 69.0284V70.4474H174.117V67.3281H185.776C185.767 66.4418 185.576 65.6534 185.201 64.9631C184.826 64.2642 184.301 63.7145 183.628 63.3139C182.963 62.9134 182.188 62.7131 181.301 62.7131C180.355 62.7131 179.524 62.9432 178.809 63.4034C178.093 63.8551 177.534 64.4517 177.134 65.1932C176.742 65.9261 176.541 66.7315 176.533 67.6094V70.3324C176.533 71.4744 176.742 72.4545 177.159 73.2727C177.577 74.0824 178.161 74.7045 178.911 75.1392C179.661 75.5653 180.539 75.7784 181.544 75.7784C182.218 75.7784 182.827 75.6847 183.372 75.4972C183.918 75.3011 184.391 75.0156 184.791 74.6406C185.192 74.2656 185.495 73.8011 185.699 73.2472L190.02 73.733C189.747 74.875 189.228 75.8722 188.461 76.7244C187.702 77.5682 186.73 78.2244 185.546 78.6932C184.361 79.1534 183.006 79.3835 181.48 79.3835ZM203.212 59.3636V62.9432H191.924V59.3636H203.212ZM194.711 54.6591H199.339V73.0938C199.339 73.7159 199.433 74.1932 199.62 74.5256C199.816 74.8494 200.072 75.071 200.387 75.1903C200.703 75.3097 201.052 75.3693 201.435 75.3693C201.725 75.3693 201.989 75.348 202.228 75.3054C202.475 75.2628 202.663 75.2244 202.791 75.1903L203.57 78.8082C203.323 78.8935 202.97 78.9872 202.509 79.0895C202.058 79.1918 201.504 79.2514 200.847 79.2685C199.688 79.3026 198.644 79.1278 197.715 78.7443C196.786 78.3523 196.049 77.7472 195.504 76.929C194.967 76.1108 194.703 75.0881 194.711 73.8608V54.6591ZM217.449 86.3636C216.818 86.3636 216.234 86.3125 215.698 86.2102C215.169 86.1165 214.747 86.0057 214.432 85.8778L215.506 82.2727C216.179 82.4688 216.78 82.5625 217.308 82.554C217.837 82.5455 218.301 82.3793 218.702 82.0554C219.111 81.7401 219.456 81.2116 219.737 80.4702L220.134 79.4091L213.013 59.3636H217.922L222.448 74.1932H222.652L227.19 59.3636H232.112L224.25 81.3778C223.884 82.4176 223.398 83.3082 222.793 84.0497C222.188 84.7997 221.446 85.3707 220.568 85.7628C219.699 86.1634 218.659 86.3636 217.449 86.3636ZM242.492 79.3835C240.574 79.3835 238.913 78.9616 237.506 78.1179C236.1 77.2741 235.009 76.0937 234.234 74.5767C233.467 73.0597 233.083 71.2869 233.083 69.2585C233.083 67.2301 233.467 65.4531 234.234 63.9276C235.009 62.402 236.1 61.2173 237.506 60.3736C238.913 59.5298 240.574 59.108 242.492 59.108C244.41 59.108 246.072 59.5298 247.478 60.3736C248.884 61.2173 249.971 62.402 250.738 63.9276C251.513 65.4531 251.901 67.2301 251.901 69.2585C251.901 71.2869 251.513 73.0597 250.738 74.5767C249.971 76.0937 248.884 77.2741 247.478 78.1179C246.072 78.9616 244.41 79.3835 242.492 79.3835ZM242.518 75.6761C243.557 75.6761 244.427 75.3906 245.126 74.8196C245.824 74.2401 246.344 73.4645 246.685 72.4929C247.035 71.5213 247.209 70.4389 247.209 69.2457C247.209 68.044 247.035 66.9574 246.685 65.9858C246.344 65.0057 245.824 64.2259 245.126 63.6463C244.427 63.0668 243.557 62.777 242.518 62.777C241.452 62.777 240.566 63.0668 239.859 63.6463C239.16 64.2259 238.636 65.0057 238.286 65.9858C237.945 66.9574 237.775 68.044 237.775 69.2457C237.775 70.4389 237.945 71.5213 238.286 72.4929C238.636 73.4645 239.16 74.2401 239.859 74.8196C240.566 75.3906 241.452 75.6761 242.518 75.6761ZM267.625 70.7415V59.3636H272.253V79H267.765V75.5099H267.561C267.118 76.6094 266.389 77.5085 265.375 78.2074C264.369 78.9062 263.129 79.2557 261.655 79.2557C260.368 79.2557 259.23 78.9702 258.241 78.3991C257.261 77.8196 256.494 76.9801 255.94 75.8807C255.386 74.7727 255.109 73.4347 255.109 71.8665V59.3636H259.737V71.1506C259.737 72.3949 260.078 73.3835 260.76 74.1165C261.441 74.8494 262.336 75.2159 263.444 75.2159C264.126 75.2159 264.787 75.0497 265.426 74.7173C266.065 74.3849 266.589 73.8906 266.998 73.2344C267.416 72.5696 267.625 71.7386 267.625 70.7415ZM276.291 79V59.3636H280.779V62.6364H280.983C281.341 61.5028 281.955 60.6293 282.824 60.0156C283.702 59.3935 284.703 59.0824 285.828 59.0824C286.084 59.0824 286.37 59.0952 286.685 59.1207C287.009 59.1378 287.277 59.1676 287.49 59.2102V63.4673C287.294 63.3991 286.983 63.3395 286.557 63.2884C286.139 63.2287 285.735 63.1989 285.343 63.1989C284.499 63.1989 283.74 63.3821 283.067 63.7486C282.402 64.1065 281.878 64.6051 281.495 65.2443C281.111 65.8835 280.919 66.6207 280.919 67.456V79H276.291ZM302.107 79L296.559 59.3636H301.276L304.728 73.1705H304.907L308.435 59.3636H313.101L316.63 73.0938H316.822L320.222 59.3636H324.952L319.391 79H314.572L310.89 65.7301H310.621L306.94 79H302.107ZM335.466 79.3835C333.549 79.3835 331.887 78.9616 330.481 78.1179C329.074 77.2741 327.983 76.0937 327.208 74.5767C326.441 73.0597 326.057 71.2869 326.057 69.2585C326.057 67.2301 326.441 65.4531 327.208 63.9276C327.983 62.402 329.074 61.2173 330.481 60.3736C331.887 59.5298 333.549 59.108 335.466 59.108C337.384 59.108 339.046 59.5298 340.452 60.3736C341.858 61.2173 342.945 62.402 343.712 63.9276C344.488 65.4531 344.875 67.2301 344.875 69.2585C344.875 71.2869 344.488 73.0597 343.712 74.5767C342.945 76.0937 341.858 77.2741 340.452 78.1179C339.046 78.9616 337.384 79.3835 335.466 79.3835ZM335.492 75.6761C336.532 75.6761 337.401 75.3906 338.1 74.8196C338.799 74.2401 339.319 73.4645 339.659 72.4929C340.009 71.5213 340.184 70.4389 340.184 69.2457C340.184 68.044 340.009 66.9574 339.659 65.9858C339.319 65.0057 338.799 64.2259 338.1 63.6463C337.401 63.0668 336.532 62.777 335.492 62.777C334.427 62.777 333.54 63.0668 332.833 63.6463C332.134 64.2259 331.61 65.0057 331.26 65.9858C330.919 66.9574 330.749 68.044 330.749 69.2457C330.749 70.4389 330.919 71.5213 331.26 72.4929C331.61 73.4645 332.134 74.2401 332.833 74.8196C333.54 75.3906 334.427 75.6761 335.492 75.6761ZM348.083 79V59.3636H352.571V62.6364H352.775C353.133 61.5028 353.747 60.6293 354.616 60.0156C355.494 59.3935 356.495 59.0824 357.62 59.0824C357.876 59.0824 358.161 59.0952 358.477 59.1207C358.801 59.1378 359.069 59.1676 359.282 59.2102V63.4673C359.086 63.3991 358.775 63.3395 358.349 63.2884C357.931 63.2287 357.526 63.1989 357.134 63.1989C356.291 63.1989 355.532 63.3821 354.859 63.7486C354.194 64.1065 353.67 64.6051 353.286 65.2443C352.903 65.8835 352.711 66.6207 352.711 67.456V79H348.083ZM365.856 72.8381L365.843 67.2514H366.584L373.641 59.3636H379.049L370.368 69.0284H369.409L365.856 72.8381ZM361.637 79V52.8182H366.265V79H361.637ZM373.961 79L367.569 70.0639L370.688 66.804L379.496 79H373.961ZM396.909 79.3452C395.367 79.3452 393.986 78.9489 392.767 78.1562C391.549 77.3636 390.586 76.2131 389.878 74.7045C389.171 73.196 388.817 71.3636 388.817 69.2074C388.817 67.0256 389.175 65.1847 389.891 63.6847C390.615 62.1761 391.591 61.0384 392.819 60.2713C394.046 59.4957 395.414 59.108 396.922 59.108C398.073 59.108 399.019 59.304 399.76 59.696C400.502 60.0795 401.09 60.544 401.525 61.0895C401.959 61.6264 402.296 62.1335 402.534 62.6108H402.726V52.8182H407.367V79H402.816V75.9062H402.534C402.296 76.3835 401.951 76.8906 401.499 77.4276C401.047 77.956 400.451 78.4077 399.709 78.7827C398.968 79.1577 398.034 79.3452 396.909 79.3452ZM398.201 75.5483C399.181 75.5483 400.016 75.2841 400.706 74.7557C401.397 74.2187 401.921 73.473 402.279 72.5185C402.637 71.5639 402.816 70.4517 402.816 69.1818C402.816 67.9119 402.637 66.8082 402.279 65.8707C401.929 64.9332 401.409 64.2045 400.719 63.6847C400.037 63.1648 399.198 62.9048 398.201 62.9048C397.169 62.9048 396.309 63.1733 395.618 63.7102C394.928 64.2472 394.408 64.9886 394.059 65.9347C393.709 66.8807 393.534 67.9631 393.534 69.1818C393.534 70.4091 393.709 71.5043 394.059 72.4673C394.417 73.4219 394.941 74.1761 395.631 74.7301C396.33 75.2756 397.186 75.5483 398.201 75.5483ZM420.144 79.3835C418.226 79.3835 416.564 78.9616 415.158 78.1179C413.752 77.2741 412.661 76.0937 411.885 74.5767C411.118 73.0597 410.735 71.2869 410.735 69.2585C410.735 67.2301 411.118 65.4531 411.885 63.9276C412.661 62.402 413.752 61.2173 415.158 60.3736C416.564 59.5298 418.226 59.108 420.144 59.108C422.061 59.108 423.723 59.5298 425.129 60.3736C426.536 61.2173 427.622 62.402 428.389 63.9276C429.165 65.4531 429.553 67.2301 429.553 69.2585C429.553 71.2869 429.165 73.0597 428.389 74.5767C427.622 76.0937 426.536 77.2741 425.129 78.1179C423.723 78.9616 422.061 79.3835 420.144 79.3835ZM420.169 75.6761C421.209 75.6761 422.078 75.3906 422.777 74.8196C423.476 74.2401 423.996 73.4645 424.337 72.4929C424.686 71.5213 424.861 70.4389 424.861 69.2457C424.861 68.044 424.686 66.9574 424.337 65.9858C423.996 65.0057 423.476 64.2259 422.777 63.6463C422.078 63.0668 421.209 62.777 420.169 62.777C419.104 62.777 418.218 63.0668 417.51 63.6463C416.811 64.2259 416.287 65.0057 415.938 65.9858C415.597 66.9574 415.426 68.044 415.426 69.2457C415.426 70.4389 415.597 71.5213 415.938 72.4929C416.287 73.4645 416.811 74.2401 417.51 74.8196C418.218 75.3906 419.104 75.6761 420.169 75.6761ZM437.388 67.4943V79H432.761V59.3636H437.184V62.7003H437.414C437.866 61.6009 438.586 60.7273 439.575 60.0795C440.572 59.4318 441.803 59.108 443.269 59.108C444.624 59.108 445.805 59.3977 446.81 59.9773C447.825 60.5568 448.609 61.3963 449.163 62.4957C449.725 63.5952 450.002 64.929 449.994 66.4972V79H445.366V67.2131C445.366 65.9006 445.025 64.8736 444.343 64.1321C443.67 63.3906 442.737 63.0199 441.543 63.0199C440.734 63.0199 440.013 63.1989 439.383 63.5568C438.761 63.9062 438.271 64.4134 437.913 65.0781C437.563 65.7429 437.388 66.5483 437.388 67.4943ZM462.671 79.3835C460.703 79.3835 459.002 78.9744 457.57 78.1562C456.147 77.3295 455.052 76.1619 454.285 74.6534C453.518 73.1364 453.134 71.3509 453.134 69.2969C453.134 67.277 453.518 65.5043 454.285 63.9787C455.061 62.4446 456.143 61.2514 457.532 60.3991C458.921 59.5384 460.553 59.108 462.428 59.108C463.639 59.108 464.781 59.304 465.855 59.696C466.937 60.0795 467.892 60.6761 468.718 61.4858C469.553 62.2955 470.21 63.3267 470.687 64.5795C471.164 65.8239 471.403 67.3068 471.403 69.0284V70.4474H455.308V67.3281H466.967C466.958 66.4418 466.767 65.6534 466.392 64.9631C466.017 64.2642 465.492 63.7145 464.819 63.3139C464.154 62.9134 463.379 62.7131 462.492 62.7131C461.546 62.7131 460.715 62.9432 459.999 63.4034C459.284 63.8551 458.725 64.4517 458.325 65.1932C457.933 65.9261 457.732 66.7315 457.724 67.6094V70.3324C457.724 71.4744 457.933 72.4545 458.35 73.2727C458.768 74.0824 459.352 74.7045 460.102 75.1392C460.852 75.5653 461.73 75.7784 462.735 75.7784C463.409 75.7784 464.018 75.6847 464.563 75.4972C465.109 75.3011 465.582 75.0156 465.982 74.6406C466.383 74.2656 466.686 73.8011 466.89 73.2472L471.211 73.733C470.938 74.875 470.418 75.8722 469.651 76.7244C468.893 77.5682 467.921 78.2244 466.737 78.6932C465.552 79.1534 464.197 79.3835 462.671 79.3835ZM480.261 52.8182L479.839 71.304H475.723L475.314 52.8182H480.261ZM477.781 79.2812C477.006 79.2812 476.341 79.0085 475.787 78.4631C475.241 77.9176 474.969 77.2528 474.969 76.4688C474.969 75.7017 475.241 75.0455 475.787 74.5C476.341 73.9545 477.006 73.6818 477.781 73.6818C478.54 73.6818 479.196 73.9545 479.75 74.5C480.312 75.0455 480.594 75.7017 480.594 76.4688C480.594 76.9886 480.462 77.4616 480.197 77.8878C479.942 78.3139 479.601 78.6548 479.175 78.9105C478.757 79.1577 478.293 79.2812 477.781 79.2812Z" fill="#1A1A1A"/>
<defs>
<linearGradient id="paint0_linear_2992_4209" x1="461.373" y1="45.2269" x2="454.356" y2="115.265" gradientUnits="userSpaceOnUse">
<stop stop-color="#F5E3D2"/>
<stop offset="0.322172" stop-color="#F1C090"/>
<stop offset="0.51488" stop-color="#F2B06F"/>
<stop offset="0.707589" stop-color="#F0A256"/>
<stop offset="0.931547" stop-color="#272F36"/>
</linearGradient>
</defs>
</svg>
