<svg width="81" height="131" viewBox="0 0 81 131" fill="none" xmlns="http://www.w3.org/2000/svg">
<path d="M69.3294 115.089C69.0368 114.671 69.0479 114.448 68.8759 114.305C61.0343 108.137 54.4164 100.777 47.5641 93.6288C40.4995 86.2463 33.435 78.8637 27.2167 70.6727C23.8664 66.0278 20.6076 61.3427 18.4989 56.0433C17.9069 54.4465 17.3663 52.718 17.2321 50.9203C16.8722 47.3649 19.0561 44.8768 22.6919 44.7001C24.1748 44.595 25.6867 44.8048 27.1875 45.2379C29.5303 45.8473 31.7704 46.7203 34.0618 47.4616C35.2075 47.8322 36.3532 48.2028 37.5503 48.4416C39.9042 48.8278 41.2083 47.8182 41.6346 45.5559C42.061 43.2935 41.6342 41.0781 40.9328 38.9834C39.8293 35.973 38.0737 33.4675 36.0434 31.0825C31.5585 25.8437 26.4617 21.2012 20.7419 17.3783C18.4035 15.784 16.1567 14.1494 13.9099 12.5149C13.1304 11.9834 12.4536 11.1885 12.0002 10.4046C11.7076 9.98703 11.8035 8.96194 12.1296 8.70955C12.507 8.32539 13.4003 8.36998 14.0301 8.31185C14.2534 8.323 14.4656 8.55747 14.6375 8.70038C18.4142 11.0829 22.3227 13.5168 26.1285 16.2143C32.5764 20.7003 38.3097 26.0463 42.9109 32.5447C45.0395 35.651 46.5271 39.0387 46.6526 42.8062C46.7465 44.5124 46.5658 46.3393 46.0813 47.9719C44.907 51.7641 41.6689 53.8413 37.7517 53.3772C35.7931 53.1451 33.8568 52.4664 31.9607 51.8792C29.6179 51.2697 27.3265 50.5285 25.0753 49.8788C24.4567 49.7136 23.6438 49.8522 22.9738 49.8187C22.4602 51.1364 23.1259 52.1547 23.4766 53.2021C25.8377 58.8275 29.1657 63.9191 33.1861 68.5974C41.4792 78.2801 49.9152 87.7908 58.2596 97.3418C61.5227 101.042 64.6944 104.782 68.2099 108.809C68.2031 108.047 68.2254 107.601 68.2075 107.062C67.9929 105.081 67.6868 103.141 67.5638 101.12C67.5168 100.267 67.5614 99.3732 67.8293 98.491C68.057 97.5173 68.852 96.8405 69.8257 97.0682C70.5359 97.1932 71.2238 97.7649 71.6884 98.3254C72.1529 98.8859 72.2513 99.6073 72.3496 100.329C73.2792 105.927 74.3003 111.486 75.1383 117.125C75.5317 120.01 73.9194 121.81 70.9759 121.574C69.4126 121.496 67.7287 121.143 66.3306 120.447C61.071 118.169 55.8226 115.668 50.6657 113.127C49.7031 112.676 48.7115 111.91 47.9431 111.156C47.0944 110.218 47.5052 109.164 48.7536 109.271C50.4487 109.4 52.2755 109.581 53.9483 110.157C57.7807 111.423 61.4703 112.861 65.2111 114.167C66.2251 114.486 67.1474 114.845 68.1614 115.165C68.4361 115.044 68.7509 115.015 69.3294 115.089Z" fill="black"/>
</svg>
