<svg width="488" height="116" viewBox="0 0 488 116" fill="none" xmlns="http://www.w3.org/2000/svg">
<path d="M8.09233 42.8672L0.703125 16.6854H5.80398L10.5213 35.9254H10.7642L15.8011 16.6854H20.4418L25.4915 35.9382H25.7216L30.4389 16.6854H35.5398L28.1506 42.8672H23.4716L18.2301 24.4964H18.0256L12.7713 42.8672H8.09233ZM44.5932 43.2507C42.6245 43.2507 40.9242 42.8416 39.4924 42.0234C38.0691 41.1967 36.9739 40.0291 36.2068 38.5206C35.4398 37.0036 35.0563 35.218 35.0563 33.1641C35.0563 31.1442 35.4398 29.3714 36.2068 27.8459C36.9824 26.3118 38.0648 25.1186 39.454 24.2663C40.8432 23.4055 42.4753 22.9751 44.3503 22.9751C45.5605 22.9751 46.7026 23.1712 47.7764 23.5632C48.8588 23.9467 49.8134 24.5433 50.6401 25.353C51.4753 26.1626 52.1316 27.1939 52.6088 28.4467C53.0861 29.6911 53.3247 31.174 53.3247 32.8956V34.3146H37.2296V31.1953H48.8887C48.8801 30.3089 48.6884 29.5206 48.3134 28.8303C47.9384 28.1314 47.4142 27.5817 46.7409 27.1811C46.0762 26.7805 45.3006 26.5803 44.4142 26.5803C43.4682 26.5803 42.6372 26.8104 41.9213 27.2706C41.2054 27.7223 40.6472 28.3189 40.2466 29.0604C39.8546 29.7933 39.6543 30.5987 39.6458 31.4766V34.1996C39.6458 35.3416 39.8546 36.3217 40.2722 37.1399C40.6898 37.9496 41.2736 38.5717 42.0236 39.0064C42.7736 39.4325 43.6514 39.6456 44.6571 39.6456C45.3304 39.6456 45.9398 39.5518 46.4853 39.3643C47.0307 39.1683 47.5037 38.8828 47.9043 38.5078C48.3049 38.1328 48.6074 37.6683 48.812 37.1143L53.133 37.6001C52.8603 38.7422 52.3404 39.7393 51.5733 40.5916C50.8148 41.4354 49.8432 42.0916 48.6586 42.5604C47.4739 43.0206 46.1188 43.2507 44.5932 43.2507ZM224.321 42.8672V16.6854H234.139C236.151 16.6854 237.838 17.0604 239.202 17.8104C240.574 18.5604 241.61 19.5916 242.309 20.9041C243.016 22.2081 243.37 23.6911 243.37 25.353C243.37 27.032 243.016 28.5234 242.309 29.8274C241.601 31.1314 240.557 32.1584 239.176 32.9084C237.796 33.6499 236.095 34.0206 234.076 34.0206H227.568V30.1214H233.436C234.612 30.1214 235.576 29.9169 236.326 29.5078C237.076 29.0987 237.63 28.5362 237.987 27.8203C238.354 27.1044 238.537 26.282 238.537 25.353C238.537 24.424 238.354 23.6058 237.987 22.8984C237.63 22.1911 237.071 21.6413 236.313 21.2493C235.563 20.8487 234.595 20.6484 233.411 20.6484H229.064V42.8672H224.321ZM246.565 42.8672V23.2308H251.052V26.5036H251.256C251.614 25.37 252.228 24.4964 253.097 23.8828C253.975 23.2607 254.977 22.9496 256.102 22.9496C256.357 22.9496 256.643 22.9624 256.958 22.9879C257.282 23.005 257.551 23.0348 257.764 23.0774V27.3345C257.568 27.2663 257.256 27.2067 256.83 27.1555C256.413 27.0959 256.008 27.0661 255.616 27.0661C254.772 27.0661 254.014 27.2493 253.34 27.6158C252.676 27.9737 252.151 28.4723 251.768 29.1115C251.384 29.7507 251.193 30.4879 251.193 31.3232V42.8672H246.565ZM267.875 43.2507C265.957 43.2507 264.295 42.8288 262.889 41.9851C261.483 41.1413 260.392 39.9609 259.616 38.4439C258.849 36.9268 258.466 35.1541 258.466 33.1257C258.466 31.0973 258.849 29.3203 259.616 27.7947C260.392 26.2692 261.483 25.0845 262.889 24.2408C264.295 23.397 265.957 22.9751 267.875 22.9751C269.793 22.9751 271.454 23.397 272.861 24.2408C274.267 25.0845 275.354 26.2692 276.121 27.7947C276.896 29.3203 277.284 31.0973 277.284 33.1257C277.284 35.1541 276.896 36.9268 276.121 38.4439C275.354 39.9609 274.267 41.1413 272.861 41.9851C271.454 42.8288 269.793 43.2507 267.875 43.2507ZM267.9 39.5433C268.94 39.5433 269.81 39.2578 270.508 38.6868C271.207 38.1072 271.727 37.3317 272.068 36.3601C272.418 35.3885 272.592 34.3061 272.592 33.1129C272.592 31.9112 272.418 30.8246 272.068 29.853C271.727 28.8729 271.207 28.093 270.508 27.5135C269.81 26.9339 268.94 26.6442 267.9 26.6442C266.835 26.6442 265.949 26.9339 265.241 27.5135C264.543 28.093 264.018 28.8729 263.669 29.853C263.328 30.8246 263.158 31.9112 263.158 33.1129C263.158 34.3061 263.328 35.3885 263.669 36.3601C264.018 37.3317 264.543 38.1072 265.241 38.6868C265.949 39.2578 266.835 39.5433 267.9 39.5433ZM290.438 23.2308V26.8104H278.83V23.2308H290.438ZM281.732 42.8672V21.3771C281.732 20.0561 282.005 18.9567 282.55 18.0788C283.104 17.201 283.846 16.5447 284.775 16.1101C285.704 15.6754 286.735 15.4581 287.868 15.4581C288.669 15.4581 289.381 15.522 290.003 15.6499C290.625 15.7777 291.086 15.8928 291.384 15.995L290.464 19.5746C290.267 19.5149 290.02 19.4553 289.722 19.3956C289.424 19.3274 289.091 19.2933 288.725 19.2933C287.864 19.2933 287.255 19.5021 286.897 19.9197C286.547 20.3288 286.373 20.9169 286.373 21.6839V42.8672H281.732ZM301.297 43.2507C299.328 43.2507 297.628 42.8416 296.196 42.0234C294.773 41.1967 293.678 40.0291 292.911 38.5206C292.144 37.0036 291.76 35.218 291.76 33.1641C291.76 31.1442 292.144 29.3714 292.911 27.8459C293.686 26.3118 294.769 25.1186 296.158 24.2663C297.547 23.4055 299.179 22.9751 301.054 22.9751C302.264 22.9751 303.407 23.1712 304.48 23.5632C305.563 23.9467 306.517 24.5433 307.344 25.353C308.179 26.1626 308.835 27.1939 309.313 28.4467C309.79 29.6911 310.029 31.174 310.029 32.8956V34.3146H293.933V31.1953H305.593C305.584 30.3089 305.392 29.5206 305.017 28.8303C304.642 28.1314 304.118 27.5817 303.445 27.1811C302.78 26.7805 302.005 26.5803 301.118 26.5803C300.172 26.5803 299.341 26.8104 298.625 27.2706C297.909 27.7223 297.351 28.3189 296.951 29.0604C296.558 29.7933 296.358 30.5987 296.35 31.4766V34.1996C296.35 35.3416 296.558 36.3217 296.976 37.1399C297.394 37.9496 297.978 38.5717 298.728 39.0064C299.478 39.4325 300.355 39.6456 301.361 39.6456C302.034 39.6456 302.644 39.5518 303.189 39.3643C303.735 39.1683 304.208 38.8828 304.608 38.5078C305.009 38.1328 305.311 37.6683 305.516 37.1143L309.837 37.6001C309.564 38.7422 309.044 39.7393 308.277 40.5916C307.519 41.4354 306.547 42.0916 305.362 42.5604C304.178 43.0206 302.823 43.2507 301.297 43.2507ZM328.744 28.4212L324.525 28.8814C324.406 28.4553 324.197 28.0547 323.899 27.6797C323.609 27.3047 323.217 27.0021 322.722 26.772C322.228 26.5419 321.623 26.4268 320.907 26.4268C319.944 26.4268 319.134 26.6357 318.478 27.0533C317.83 27.4709 317.511 28.0121 317.519 28.6768C317.511 29.2479 317.72 29.7124 318.146 30.0703C318.58 30.4283 319.296 30.7223 320.293 30.9524L323.643 31.6683C325.501 32.0689 326.881 32.7038 327.785 33.5732C328.697 34.4425 329.157 35.5803 329.166 36.9865C329.157 38.2223 328.795 39.3132 328.079 40.2592C327.372 41.1967 326.387 41.9297 325.126 42.4581C323.864 42.9865 322.416 43.2507 320.779 43.2507C318.376 43.2507 316.441 42.7479 314.975 41.7422C313.509 40.728 312.636 39.3175 312.354 37.5107L316.867 37.076C317.072 37.9624 317.506 38.6314 318.171 39.0831C318.836 39.5348 319.701 39.7607 320.766 39.7607C321.866 39.7607 322.748 39.5348 323.413 39.0831C324.086 38.6314 324.423 38.0732 324.423 37.4084C324.423 36.8459 324.205 36.3814 323.771 36.0149C323.345 35.6484 322.68 35.3672 321.776 35.1712L318.427 34.468C316.543 34.076 315.15 33.4155 314.247 32.4865C313.343 31.549 312.896 30.3643 312.904 28.9325C312.896 27.7223 313.224 26.674 313.889 25.7876C314.562 24.8928 315.495 24.2024 316.688 23.7166C317.89 23.2223 319.275 22.9751 320.843 22.9751C323.144 22.9751 324.955 23.4652 326.276 24.4453C327.606 25.4254 328.428 26.7507 328.744 28.4212ZM347.781 28.4212L343.563 28.8814C343.443 28.4553 343.235 28.0547 342.936 27.6797C342.647 27.3047 342.254 27.0021 341.76 26.772C341.266 26.5419 340.661 26.4268 339.945 26.4268C338.982 26.4268 338.172 26.6357 337.516 27.0533C336.868 27.4709 336.549 28.0121 336.557 28.6768C336.549 29.2479 336.757 29.7124 337.183 30.0703C337.618 30.4283 338.334 30.7223 339.331 30.9524L342.681 31.6683C344.539 32.0689 345.919 32.7038 346.823 33.5732C347.735 34.4425 348.195 35.5803 348.203 36.9865C348.195 38.2223 347.833 39.3132 347.117 40.2592C346.409 41.1967 345.425 41.9297 344.164 42.4581C342.902 42.9865 341.453 43.2507 339.817 43.2507C337.414 43.2507 335.479 42.7479 334.013 41.7422C332.547 40.728 331.674 39.3175 331.392 37.5107L335.905 37.076C336.11 37.9624 336.544 38.6314 337.209 39.0831C337.874 39.5348 338.739 39.7607 339.804 39.7607C340.904 39.7607 341.786 39.5348 342.451 39.0831C343.124 38.6314 343.46 38.0732 343.46 37.4084C343.46 36.8459 343.243 36.3814 342.808 36.0149C342.382 35.6484 341.718 35.3672 340.814 35.1712L337.465 34.468C335.581 34.076 334.188 33.4155 333.284 32.4865C332.381 31.549 331.933 30.3643 331.942 28.9325C331.933 27.7223 332.262 26.674 332.926 25.7876C333.6 24.8928 334.533 24.2024 335.726 23.7166C336.928 23.2223 338.313 22.9751 339.881 22.9751C342.182 22.9751 343.993 23.4652 345.314 24.4453C346.644 25.4254 347.466 26.7507 347.781 28.4212ZM351.299 42.8672V23.2308H355.927V42.8672H351.299ZM353.626 20.4439C352.893 20.4439 352.262 20.201 351.734 19.7152C351.206 19.2209 350.941 18.6285 350.941 17.9382C350.941 17.2393 351.206 16.647 351.734 16.1612C352.262 15.6669 352.893 15.4197 353.626 15.4197C354.368 15.4197 354.998 15.6669 355.518 16.1612C356.047 16.647 356.311 17.2393 356.311 17.9382C356.311 18.6285 356.047 19.2209 355.518 19.7152C354.998 20.201 354.368 20.4439 353.626 20.4439ZM368.531 43.2507C366.614 43.2507 364.952 42.8288 363.546 41.9851C362.139 41.1413 361.049 39.9609 360.273 38.4439C359.506 36.9268 359.122 35.1541 359.122 33.1257C359.122 31.0973 359.506 29.3203 360.273 27.7947C361.049 26.2692 362.139 25.0845 363.546 24.2408C364.952 23.397 366.614 22.9751 368.531 22.9751C370.449 22.9751 372.111 23.397 373.517 24.2408C374.924 25.0845 376.01 26.2692 376.777 27.7947C377.553 29.3203 377.941 31.0973 377.941 33.1257C377.941 35.1541 377.553 36.9268 376.777 38.4439C376.01 39.9609 374.924 41.1413 373.517 41.9851C372.111 42.8288 370.449 43.2507 368.531 43.2507ZM368.557 39.5433C369.597 39.5433 370.466 39.2578 371.165 38.6868C371.864 38.1072 372.384 37.3317 372.725 36.3601C373.074 35.3885 373.249 34.3061 373.249 33.1129C373.249 31.9112 373.074 30.8246 372.725 29.853C372.384 28.8729 371.864 28.093 371.165 27.5135C370.466 26.9339 369.597 26.6442 368.557 26.6442C367.492 26.6442 366.605 26.9339 365.898 27.5135C365.199 28.093 364.675 28.8729 364.326 29.853C363.985 30.8246 363.814 31.9112 363.814 33.1129C363.814 34.3061 363.985 35.3885 364.326 36.3601C364.675 37.3317 365.199 38.1072 365.898 38.6868C366.605 39.2578 367.492 39.5433 368.557 39.5433ZM385.776 31.3615V42.8672H381.148V23.2308H385.572V26.5675H385.802C386.254 25.468 386.974 24.5945 387.962 23.9467C388.96 23.299 390.191 22.9751 391.657 22.9751C393.012 22.9751 394.193 23.2649 395.198 23.8445C396.212 24.424 396.996 25.2635 397.55 26.3629C398.113 27.4624 398.39 28.7962 398.381 30.3643V42.8672H393.754V31.0803C393.754 29.7678 393.413 28.7408 392.731 27.9993C392.058 27.2578 391.124 26.8871 389.931 26.8871C389.121 26.8871 388.401 27.0661 387.771 27.424C387.148 27.7734 386.658 28.2805 386.3 28.9453C385.951 29.6101 385.776 30.4155 385.776 31.3615ZM408.017 43.2635C406.772 43.2635 405.651 43.0419 404.654 42.5987C403.666 42.147 402.882 41.4822 402.302 40.6044C401.731 39.7266 401.446 38.6442 401.446 37.3572C401.446 36.2493 401.65 35.3331 402.059 34.6087C402.468 33.8842 403.026 33.3047 403.734 32.87C404.441 32.4354 405.238 32.1072 406.124 31.8857C407.019 31.6555 407.944 31.4893 408.899 31.3871C410.049 31.2678 410.982 31.1612 411.698 31.0675C412.414 30.9652 412.934 30.8118 413.258 30.6072C413.59 30.3942 413.757 30.0661 413.757 29.6229V29.5462C413.757 28.5831 413.471 27.8374 412.9 27.3089C412.329 26.7805 411.507 26.5163 410.433 26.5163C409.299 26.5163 408.4 26.7635 407.735 27.2578C407.079 27.7521 406.636 28.3359 406.406 29.0092L402.085 28.3956C402.426 27.2024 402.988 26.2053 403.772 25.4041C404.556 24.5945 405.515 23.9893 406.649 23.5888C407.782 23.1797 409.035 22.9751 410.407 22.9751C411.353 22.9751 412.295 23.0859 413.232 23.3075C414.17 23.5291 415.026 23.8956 415.802 24.407C416.578 24.9098 417.2 25.5959 417.669 26.4652C418.146 27.3345 418.384 28.4212 418.384 29.7251V42.8672H413.936V40.1697H413.782C413.501 40.7152 413.105 41.2266 412.593 41.7038C412.09 42.1726 411.455 42.5518 410.688 42.8416C409.93 43.1229 409.039 43.2635 408.017 43.2635ZM409.218 39.8629C410.147 39.8629 410.953 39.6797 411.634 39.3132C412.316 38.9382 412.84 38.4439 413.207 37.8303C413.582 37.2166 413.769 36.5476 413.769 35.8232V33.5092C413.624 33.6286 413.377 33.7393 413.028 33.8416C412.687 33.9439 412.303 34.0334 411.877 34.1101C411.451 34.1868 411.029 34.255 410.612 34.3146C410.194 34.3743 409.832 34.4254 409.525 34.468C408.835 34.5618 408.217 34.7152 407.671 34.9283C407.126 35.1413 406.696 35.4396 406.38 35.8232C406.065 36.1982 405.907 36.6839 405.907 37.2805C405.907 38.1328 406.218 38.7763 406.84 39.2109C407.463 39.6456 408.255 39.8629 409.218 39.8629ZM426.946 16.6854V42.8672H422.318V16.6854H426.946ZM1.43182 64.6612V60.6854H22.321V64.6612H14.2287V86.8672H9.52415V64.6612H1.43182ZM23.3844 86.8672V67.2308H27.8716V70.5036H28.0762C28.4341 69.37 29.0478 68.4964 29.9171 67.8828C30.7949 67.2607 31.7963 66.9496 32.9213 66.9496C33.177 66.9496 33.4625 66.9624 33.7779 66.9879C34.1017 67.005 34.3702 67.0348 34.5833 67.0774V71.3345C34.3872 71.2663 34.0762 71.2067 33.65 71.1555C33.2324 71.0959 32.8276 71.0661 32.4355 71.0661C31.5918 71.0661 30.8333 71.2493 30.16 71.6158C29.4952 71.9737 28.9711 72.4723 28.5875 73.1115C28.204 73.7507 28.0122 74.4879 28.0122 75.3232V86.8672H23.3844ZM42.2368 87.2635C40.9925 87.2635 39.8718 87.0419 38.8746 86.5987C37.886 86.147 37.1019 85.4822 36.5224 84.6044C35.9513 83.7266 35.6658 82.6442 35.6658 81.3572C35.6658 80.2493 35.8704 79.3331 36.2795 78.6087C36.6886 77.8842 37.2468 77.3047 37.9542 76.87C38.6616 76.4354 39.4584 76.1072 40.3448 75.8857C41.2397 75.6555 42.1644 75.4893 43.119 75.3871C44.2695 75.2678 45.2028 75.1612 45.9187 75.0675C46.6346 74.9652 47.1545 74.8118 47.4783 74.6072C47.8107 74.3942 47.9769 74.0661 47.9769 73.6229V73.5462C47.9769 72.5831 47.6914 71.8374 47.1204 71.3089C46.5493 70.7805 45.7269 70.5163 44.653 70.5163C43.5195 70.5163 42.6204 70.7635 41.9556 71.2578C41.2993 71.7521 40.8562 72.3359 40.6261 73.0092L36.305 72.3956C36.6459 71.2024 37.2084 70.2053 37.9925 69.4041C38.7766 68.5945 39.7354 67.9893 40.869 67.5888C42.0025 67.1797 43.2553 66.9751 44.6275 66.9751C45.5735 66.9751 46.5153 67.0859 47.4528 67.3075C48.3903 67.5291 49.2468 67.8956 50.0224 68.407C50.7979 68.9098 51.4201 69.5959 51.8888 70.4652C52.3661 71.3345 52.6047 72.4212 52.6047 73.7251V86.8672H48.1559V84.1697H48.0025C47.7212 84.7152 47.3249 85.2266 46.8136 85.7038C46.3107 86.1726 45.6758 86.5518 44.9087 86.8416C44.1502 87.1229 43.2596 87.2635 42.2368 87.2635ZM43.4386 83.8629C44.3675 83.8629 45.1729 83.6797 45.8547 83.3132C46.5366 82.9382 47.0607 82.4439 47.4272 81.8303C47.8022 81.2166 47.9897 80.5476 47.9897 79.8232V77.5092C47.8448 77.6286 47.5976 77.7393 47.2482 77.8416C46.9073 77.9439 46.5238 78.0334 46.0976 78.1101C45.6715 78.1868 45.2496 78.255 44.832 78.3146C44.4144 78.3743 44.0522 78.4254 43.7454 78.468C43.055 78.5618 42.4371 78.7152 41.8917 78.9283C41.3462 79.1413 40.9158 79.4396 40.6005 79.8232C40.2851 80.1982 40.1275 80.6839 40.1275 81.2805C40.1275 82.1328 40.4386 82.7763 41.0607 83.2109C41.6829 83.6456 42.4755 83.8629 43.4386 83.8629ZM56.5382 86.8672V67.2308H61.166V86.8672H56.5382ZM58.8649 64.4439C58.1319 64.4439 57.5012 64.201 56.9728 63.7152C56.4444 63.2209 56.1802 62.6285 56.1802 61.9382C56.1802 61.2393 56.4444 60.647 56.9728 60.1612C57.5012 59.6669 58.1319 59.4197 58.8649 59.4197C59.6063 59.4197 60.237 59.6669 60.7569 60.1612C61.2853 60.647 61.5495 61.2393 61.5495 61.9382C61.5495 62.6285 61.2853 63.2209 60.7569 63.7152C60.237 64.201 59.6063 64.4439 58.8649 64.4439ZM69.8327 75.3615V86.8672H65.2049V67.2308H69.6282V70.5675H69.8583C70.31 69.468 71.0302 68.5945 72.0188 67.9467C73.016 67.299 74.2475 66.9751 75.7134 66.9751C77.0685 66.9751 78.2489 67.2649 79.2546 67.8445C80.2688 68.424 81.0529 69.2635 81.6069 70.3629C82.1694 71.4624 82.4463 72.7962 82.4378 74.3643V86.8672H77.81V75.0803C77.81 73.7678 77.4691 72.7408 76.7873 71.9993C76.114 71.2578 75.1807 70.8871 73.9875 70.8871C73.1779 70.8871 72.4577 71.0661 71.827 71.424C71.2049 71.7734 70.7148 72.2805 70.3569 72.9453C70.0074 73.6101 69.8327 74.4155 69.8327 75.3615ZM86.4224 86.8672V67.2308H91.0502V86.8672H86.4224ZM88.7491 64.4439C88.0161 64.4439 87.3854 64.201 86.857 63.7152C86.3286 63.2209 86.0644 62.6285 86.0644 61.9382C86.0644 61.2393 86.3286 60.647 86.857 60.1612C87.3854 59.6669 88.0161 59.4197 88.7491 59.4197C89.4906 59.4197 90.1212 59.6669 90.6411 60.1612C91.1695 60.647 91.4337 61.2393 91.4337 61.9382C91.4337 62.6285 91.1695 63.2209 90.6411 63.7152C90.1212 64.201 89.4906 64.4439 88.7491 64.4439ZM99.7169 75.3615V86.8672H95.0891V67.2308H99.5124V70.5675H99.7425C100.194 69.468 100.914 68.5945 101.903 67.9467C102.9 67.299 104.132 66.9751 105.598 66.9751C106.953 66.9751 108.133 67.2649 109.139 67.8445C110.153 68.424 110.937 69.2635 111.491 70.3629C112.054 71.4624 112.331 72.7962 112.322 74.3643V86.8672H107.694V75.0803C107.694 73.7678 107.353 72.7408 106.671 71.9993C105.998 71.2578 105.065 70.8871 103.872 70.8871C103.062 70.8871 102.342 71.0661 101.711 71.424C101.089 71.7734 100.599 72.2805 100.241 72.9453C99.8916 73.6101 99.7169 74.4155 99.7169 75.3615ZM124.846 94.6399C123.184 94.6399 121.757 94.4141 120.564 93.9624C119.371 93.5192 118.412 92.9226 117.687 92.1726C116.963 91.4226 116.46 90.5916 116.179 89.6797L120.346 88.6697C120.534 89.0533 120.807 89.4325 121.165 89.8075C121.522 90.1911 122.004 90.5064 122.609 90.7536C123.223 91.0092 123.994 91.1371 124.923 91.1371C126.236 91.1371 127.322 90.8175 128.183 90.1783C129.044 89.5476 129.474 88.5078 129.474 87.0589V83.3388H129.244C129.005 83.8161 128.656 84.3061 128.196 84.8089C127.744 85.3118 127.143 85.7337 126.393 86.0746C125.652 86.4155 124.719 86.5859 123.594 86.5859C122.085 86.5859 120.717 86.2322 119.49 85.5249C118.271 84.8089 117.299 83.7436 116.575 82.3288C115.859 80.9055 115.501 79.1243 115.501 76.9851C115.501 74.8288 115.859 73.0092 116.575 71.5263C117.299 70.0348 118.275 68.9055 119.503 68.1385C120.73 67.3629 122.098 66.9751 123.606 66.9751C124.757 66.9751 125.703 67.1712 126.444 67.5632C127.194 67.9467 127.791 68.4112 128.234 68.9567C128.677 69.4936 129.014 70.0007 129.244 70.478H129.5V67.2308H134.064V87.1868C134.064 88.8658 133.663 90.255 132.862 91.3544C132.061 92.4538 130.966 93.2763 129.576 93.8217C128.187 94.3672 126.611 94.6399 124.846 94.6399ZM124.885 82.9553C125.865 82.9553 126.7 82.7166 127.39 82.2393C128.081 81.7621 128.605 81.076 128.963 80.1811C129.321 79.2862 129.5 78.2124 129.5 76.9595C129.5 75.7237 129.321 74.6413 128.963 73.7124C128.613 72.7834 128.094 72.0632 127.403 71.5518C126.721 71.032 125.882 70.772 124.885 70.772C123.853 70.772 122.993 71.0405 122.302 71.5774C121.612 72.1143 121.092 72.8516 120.743 73.7891C120.393 74.718 120.219 75.7749 120.219 76.9595C120.219 78.1612 120.393 79.2138 120.743 80.1172C121.101 81.0121 121.625 81.7109 122.315 82.2138C123.014 82.7081 123.871 82.9553 124.885 82.9553ZM168.911 69.5192H164.13C163.994 68.7351 163.742 68.0405 163.376 67.4354C163.009 66.8217 162.553 66.3018 162.008 65.8757C161.462 65.4496 160.84 65.13 160.141 64.9169C159.451 64.6953 158.705 64.5845 157.904 64.5845C156.481 64.5845 155.22 64.9425 154.12 65.6584C153.021 66.3658 152.16 67.4055 151.538 68.7777C150.916 70.1413 150.605 71.8075 150.605 73.7763C150.605 75.7791 150.916 77.4666 151.538 78.8388C152.168 80.2024 153.029 81.2337 154.12 81.9325C155.22 82.6229 156.477 82.968 157.891 82.968C158.676 82.968 159.408 82.8658 160.09 82.6612C160.781 82.4482 161.399 82.1371 161.944 81.728C162.498 81.3189 162.962 80.8161 163.337 80.2195C163.721 79.6229 163.985 78.9411 164.13 78.174L168.911 78.1996C168.732 79.4439 168.345 80.6115 167.748 81.7024C167.16 82.7933 166.389 83.7564 165.434 84.5916C164.48 85.4183 163.363 86.0661 162.085 86.5348C160.806 86.995 159.387 87.2251 157.828 87.2251C155.526 87.2251 153.472 86.6925 151.666 85.6271C149.859 84.5618 148.435 83.0234 147.396 81.0121C146.356 79.0007 145.836 76.5888 145.836 73.7763C145.836 70.9553 146.36 68.5433 147.408 66.5405C148.457 64.5291 149.884 62.9908 151.691 61.9254C153.498 60.8601 155.543 60.3274 157.828 60.3274C159.285 60.3274 160.64 60.532 161.893 60.941C163.146 61.3501 164.262 61.951 165.242 62.7436C166.222 63.5277 167.028 64.4908 167.658 65.6328C168.298 66.7663 168.715 68.0618 168.911 69.5192ZM180.896 87.2507C178.978 87.2507 177.316 86.8288 175.91 85.9851C174.503 85.1413 173.413 83.9609 172.637 82.4439C171.87 80.9268 171.486 79.1541 171.486 77.1257C171.486 75.0973 171.87 73.3203 172.637 71.7947C173.413 70.2692 174.503 69.0845 175.91 68.2408C177.316 67.397 178.978 66.9751 180.896 66.9751C182.813 66.9751 184.475 67.397 185.881 68.2408C187.288 69.0845 188.374 70.2692 189.141 71.7947C189.917 73.3203 190.305 75.0973 190.305 77.1257C190.305 79.1541 189.917 80.9268 189.141 82.4439C188.374 83.9609 187.288 85.1413 185.881 85.9851C184.475 86.8288 182.813 87.2507 180.896 87.2507ZM180.921 83.5433C181.961 83.5433 182.83 83.2578 183.529 82.6868C184.228 82.1072 184.748 81.3317 185.089 80.3601C185.438 79.3885 185.613 78.3061 185.613 77.1129C185.613 75.9112 185.438 74.8246 185.089 73.853C184.748 72.8729 184.228 72.093 183.529 71.5135C182.83 70.9339 181.961 70.6442 180.921 70.6442C179.856 70.6442 178.969 70.9339 178.262 71.5135C177.563 72.093 177.039 72.8729 176.69 73.853C176.349 74.8246 176.178 75.9112 176.178 77.1129C176.178 78.3061 176.349 79.3885 176.69 80.3601C177.039 81.3317 177.563 82.1072 178.262 82.6868C178.969 83.2578 179.856 83.5433 180.921 83.5433ZM206.028 78.6087V67.2308H210.656V86.8672H206.169V83.3771H205.964C205.521 84.4766 204.792 85.3757 203.778 86.0746C202.772 86.7734 201.532 87.1229 200.058 87.1229C198.771 87.1229 197.633 86.8374 196.645 86.2663C195.665 85.6868 194.897 84.8473 194.343 83.7479C193.79 82.6399 193.513 81.3018 193.513 79.7337V67.2308H198.14V79.0178C198.14 80.2621 198.481 81.2507 199.163 81.9837C199.845 82.7166 200.74 83.0831 201.848 83.0831C202.53 83.0831 203.19 82.9169 203.829 82.5845C204.468 82.2521 204.993 81.7578 205.402 81.1016C205.819 80.4368 206.028 79.6058 206.028 78.6087ZM214.695 86.8672V67.2308H219.182V70.5036H219.387C219.745 69.37 220.358 68.4964 221.228 67.8828C222.105 67.2607 223.107 66.9496 224.232 66.9496C224.487 66.9496 224.773 66.9624 225.088 66.9879C225.412 67.005 225.681 67.0348 225.894 67.0774V71.3345C225.698 71.2663 225.387 71.2067 224.96 71.1555C224.543 71.0959 224.138 71.0661 223.746 71.0661C222.902 71.0661 222.144 71.2493 221.47 71.6158C220.806 71.9737 220.282 72.4723 219.898 73.1115C219.514 73.7507 219.323 74.4879 219.323 75.3232V86.8672H214.695ZM243.768 72.4212L239.549 72.8814C239.43 72.4553 239.221 72.0547 238.923 71.6797C238.633 71.3047 238.241 71.0021 237.747 70.772C237.253 70.5419 236.647 70.4268 235.932 70.4268C234.968 70.4268 234.159 70.6357 233.503 71.0533C232.855 71.4709 232.535 72.0121 232.544 72.6768C232.535 73.2479 232.744 73.7124 233.17 74.0703C233.605 74.4283 234.321 74.7223 235.318 74.9524L238.667 75.6683C240.525 76.0689 241.906 76.7038 242.809 77.5732C243.721 78.4425 244.182 79.5803 244.19 80.9865C244.182 82.2223 243.819 83.3132 243.103 84.2592C242.396 85.1967 241.412 85.9297 240.15 86.4581C238.889 86.9865 237.44 87.2507 235.804 87.2507C233.4 87.2507 231.466 86.7479 230 85.7422C228.534 84.728 227.66 83.3175 227.379 81.5107L231.892 81.076C232.096 81.9624 232.531 82.6314 233.196 83.0831C233.861 83.5348 234.726 83.7607 235.791 83.7607C236.89 83.7607 237.772 83.5348 238.437 83.0831C239.111 82.6314 239.447 82.0732 239.447 81.4084C239.447 80.8459 239.23 80.3814 238.795 80.0149C238.369 79.6484 237.704 79.3672 236.801 79.1712L233.451 78.468C231.568 78.076 230.174 77.4155 229.271 76.4865C228.368 75.549 227.92 74.3643 227.929 72.9325C227.92 71.7223 228.248 70.674 228.913 69.7876C229.586 68.8928 230.52 68.2024 231.713 67.7166C232.915 67.2223 234.299 66.9751 235.868 66.9751C238.169 66.9751 239.98 67.4652 241.301 68.4453C242.63 69.4254 243.453 70.7507 243.768 72.4212ZM255.979 87.2507C254.011 87.2507 252.31 86.8416 250.878 86.0234C249.455 85.1967 248.36 84.0291 247.593 82.5206C246.826 81.0036 246.442 79.218 246.442 77.1641C246.442 75.1442 246.826 73.3714 247.593 71.8459C248.369 70.3118 249.451 69.1186 250.84 68.2663C252.229 67.4055 253.861 66.9751 255.736 66.9751C256.947 66.9751 258.089 67.1712 259.163 67.5632C260.245 67.9467 261.199 68.5433 262.026 69.353C262.861 70.1626 263.518 71.1939 263.995 72.4467C264.472 73.6911 264.711 75.174 264.711 76.8956V78.3146H248.616V75.1953H260.275C260.266 74.3089 260.074 73.5206 259.699 72.8303C259.324 72.1314 258.8 71.5817 258.127 71.1811C257.462 70.7805 256.687 70.5803 255.8 70.5803C254.854 70.5803 254.023 70.8104 253.307 71.2706C252.592 71.7223 252.033 72.3189 251.633 73.0604C251.241 73.7933 251.04 74.5987 251.032 75.4766V78.1996C251.032 79.3416 251.241 80.3217 251.658 81.1399C252.076 81.9496 252.66 82.5717 253.41 83.0064C254.16 83.4325 255.038 83.6456 256.043 83.6456C256.717 83.6456 257.326 83.5518 257.871 83.3643C258.417 83.1683 258.89 82.8828 259.29 82.5078C259.691 82.1328 259.994 81.6683 260.198 81.1143L264.519 81.6001C264.246 82.7422 263.726 83.7393 262.959 84.5916C262.201 85.4354 261.229 86.0916 260.045 86.5604C258.86 87.0206 257.505 87.2507 255.979 87.2507ZM283.426 72.4212L279.207 72.8814C279.088 72.4553 278.879 72.0547 278.581 71.6797C278.291 71.3047 277.899 71.0021 277.405 70.772C276.91 70.5419 276.305 70.4268 275.589 70.4268C274.626 70.4268 273.816 70.6357 273.16 71.0533C272.513 71.4709 272.193 72.0121 272.201 72.6768C272.193 73.2479 272.402 73.7124 272.828 74.0703C273.263 74.4283 273.978 74.7223 274.976 74.9524L278.325 75.6683C280.183 76.0689 281.564 76.7038 282.467 77.5732C283.379 78.4425 283.839 79.5803 283.848 80.9865C283.839 82.2223 283.477 83.3132 282.761 84.2592C282.054 85.1967 281.069 85.9297 279.808 86.4581C278.547 86.9865 277.098 87.2507 275.461 87.2507C273.058 87.2507 271.123 86.7479 269.657 85.7422C268.191 84.728 267.318 83.3175 267.037 81.5107L271.549 81.076C271.754 81.9624 272.189 82.6314 272.853 83.0831C273.518 83.5348 274.383 83.7607 275.449 83.7607C276.548 83.7607 277.43 83.5348 278.095 83.0831C278.768 82.6314 279.105 82.0732 279.105 81.4084C279.105 80.8459 278.888 80.3814 278.453 80.0149C278.027 79.6484 277.362 79.3672 276.459 79.1712L273.109 78.468C271.226 78.076 269.832 77.4155 268.929 76.4865C268.025 75.549 267.578 74.3643 267.586 72.9325C267.578 71.7223 267.906 70.674 268.571 69.7876C269.244 68.8928 270.177 68.2024 271.37 67.7166C272.572 67.2223 273.957 66.9751 275.525 66.9751C277.826 66.9751 279.638 67.4652 280.959 68.4453C282.288 69.4254 283.111 70.7507 283.426 72.4212Z" fill="#1A1A1A"/>
<path d="M88.329 29.7763C88.329 32.5973 87.8006 35.0135 86.7438 37.0249C85.6955 39.0277 84.2637 40.5618 82.4483 41.6271C80.6415 42.6925 78.5918 43.2251 76.2992 43.2251C74.0065 43.2251 71.9526 42.6925 70.1372 41.6271C68.3304 40.5533 66.8986 39.0149 65.8418 37.0121C64.7935 35.0007 64.2693 32.5888 64.2693 29.7763C64.2693 26.9553 64.7935 24.5433 65.8418 22.5405C66.8986 20.5291 68.3304 18.9908 70.1372 17.9254C71.9526 16.8601 74.0065 16.3274 76.2992 16.3274C78.5918 16.3274 80.6415 16.8601 82.4483 17.9254C84.2637 18.9908 85.6955 20.5291 86.7438 22.5405C87.8006 24.5433 88.329 26.9553 88.329 29.7763ZM83.5605 29.7763C83.5605 27.7905 83.2494 26.1158 82.6273 24.7521C82.0137 23.38 81.1614 22.3445 80.0705 21.6456C78.9796 20.9382 77.7225 20.5845 76.2992 20.5845C74.8759 20.5845 73.6188 20.9382 72.5279 21.6456C71.4369 22.3445 70.5804 23.38 69.9583 24.7521C69.3446 26.1158 69.0378 27.7905 69.0378 29.7763C69.0378 31.7621 69.3446 33.4411 69.9583 34.8132C70.5804 36.1768 71.4369 37.2124 72.5279 37.9197C73.6188 38.6186 74.8759 38.968 76.2992 38.968C77.7225 38.968 78.9796 38.6186 80.0705 37.9197C81.1614 37.2124 82.0137 36.1768 82.6273 34.8132C83.2494 33.4411 83.5605 31.7621 83.5605 29.7763ZM91.8885 42.8672V23.2308H96.3757V26.5036H96.5802C96.9382 25.37 97.5518 24.4964 98.4211 23.8828C99.299 23.2607 100.3 22.9496 101.425 22.9496C101.681 22.9496 101.967 22.9624 102.282 22.9879C102.606 23.005 102.874 23.0348 103.087 23.0774V27.3345C102.891 27.2663 102.58 27.2067 102.154 27.1555C101.736 27.0959 101.332 27.0661 100.94 27.0661C100.096 27.0661 99.3373 27.2493 98.664 27.6158C97.9993 27.9737 97.4751 28.4723 97.0916 29.1115C96.7081 29.7507 96.5163 30.4879 96.5163 31.3232V42.8672H91.8885ZM113.173 50.6399C111.511 50.6399 110.084 50.4141 108.89 49.9624C107.697 49.5192 106.738 48.9226 106.014 48.1726C105.29 47.4226 104.787 46.5916 104.505 45.6797L108.673 44.6697C108.861 45.0533 109.133 45.4325 109.491 45.8075C109.849 46.1911 110.331 46.5064 110.936 46.7536C111.55 47.0092 112.321 47.1371 113.25 47.1371C114.562 47.1371 115.649 46.8175 116.51 46.1783C117.371 45.5476 117.801 44.5078 117.801 43.0589V39.3388H117.571C117.332 39.8161 116.983 40.3061 116.523 40.8089C116.071 41.3118 115.47 41.7337 114.72 42.0746C113.978 42.4155 113.045 42.5859 111.92 42.5859C110.412 42.5859 109.044 42.2322 107.817 41.5249C106.598 40.8089 105.626 39.7436 104.902 38.3288C104.186 36.9055 103.828 35.1243 103.828 32.9851C103.828 30.8288 104.186 29.0092 104.902 27.5263C105.626 26.0348 106.602 24.9055 107.829 24.1385C109.057 23.3629 110.425 22.9751 111.933 22.9751C113.084 22.9751 114.03 23.1712 114.771 23.5632C115.521 23.9467 116.118 24.4112 116.561 24.9567C117.004 25.4936 117.341 26.0007 117.571 26.478H117.826V23.2308H122.39V43.1868C122.39 44.8658 121.99 46.255 121.189 47.3544C120.388 48.4538 119.292 49.2763 117.903 49.8217C116.514 50.3672 114.937 50.6399 113.173 50.6399ZM113.211 38.9553C114.192 38.9553 115.027 38.7166 115.717 38.2393C116.407 37.7621 116.932 37.076 117.29 36.1811C117.648 35.2862 117.826 34.2124 117.826 32.9595C117.826 31.7237 117.648 30.6413 117.29 29.7124C116.94 28.7834 116.42 28.0632 115.73 27.5518C115.048 27.032 114.209 26.772 113.211 26.772C112.18 26.772 111.319 27.0405 110.629 27.5774C109.939 28.1143 109.419 28.8516 109.069 29.7891C108.72 30.718 108.545 31.7749 108.545 32.9595C108.545 34.1612 108.72 35.2138 109.069 36.1172C109.427 37.0121 109.951 37.7109 110.642 38.2138C111.341 38.7081 112.197 38.9553 113.211 38.9553ZM132.064 43.2635C130.82 43.2635 129.699 43.0419 128.702 42.5987C127.713 42.147 126.929 41.4822 126.349 40.6044C125.778 39.7266 125.493 38.6442 125.493 37.3572C125.493 36.2493 125.697 35.3331 126.106 34.6087C126.516 33.8842 127.074 33.3047 127.781 32.87C128.489 32.4354 129.285 32.1072 130.172 31.8857C131.067 31.6555 131.991 31.4893 132.946 31.3871C134.097 31.2678 135.03 31.1612 135.746 31.0675C136.462 30.9652 136.981 30.8118 137.305 30.6072C137.638 30.3942 137.804 30.0661 137.804 29.6229V29.5462C137.804 28.5831 137.518 27.8374 136.947 27.3089C136.376 26.7805 135.554 26.5163 134.48 26.5163C133.347 26.5163 132.447 26.7635 131.783 27.2578C131.126 27.7521 130.683 28.3359 130.453 29.0092L126.132 28.3956C126.473 27.2024 127.035 26.2053 127.82 25.4041C128.604 24.5945 129.562 23.9893 130.696 23.5888C131.83 23.1797 133.082 22.9751 134.455 22.9751C135.401 22.9751 136.342 23.0859 137.28 23.3075C138.217 23.5291 139.074 23.8956 139.849 24.407C140.625 24.9098 141.247 25.5959 141.716 26.4652C142.193 27.3345 142.432 28.4212 142.432 29.7251V42.8672H137.983V40.1697H137.83C137.548 40.7152 137.152 41.2266 136.641 41.7038C136.138 42.1726 135.503 42.5518 134.736 42.8416C133.977 43.1229 133.087 43.2635 132.064 43.2635ZM133.266 39.8629C134.195 39.8629 135 39.6797 135.682 39.3132C136.364 38.9382 136.888 38.4439 137.254 37.8303C137.629 37.2166 137.817 36.5476 137.817 35.8232V33.5092C137.672 33.6286 137.425 33.7393 137.075 33.8416C136.734 33.9439 136.351 34.0334 135.925 34.1101C135.499 34.1868 135.077 34.255 134.659 34.3146C134.241 34.3743 133.879 34.4254 133.572 34.468C132.882 34.5618 132.264 34.7152 131.719 34.9283C131.173 35.1413 130.743 35.4396 130.428 35.8232C130.112 36.1982 129.955 36.6839 129.955 37.2805C129.955 38.1328 130.266 38.7763 130.888 39.2109C131.51 39.6456 132.303 39.8629 133.266 39.8629ZM150.993 31.3615V42.8672H146.365V23.2308H150.788V26.5675H151.019C151.47 25.468 152.19 24.5945 153.179 23.9467C154.176 23.299 155.408 22.9751 156.874 22.9751C158.229 22.9751 159.409 23.2649 160.415 23.8445C161.429 24.424 162.213 25.2635 162.767 26.3629C163.33 27.4624 163.607 28.7962 163.598 30.3643V42.8672H158.97V31.0803C158.97 29.7678 158.629 28.7408 157.948 27.9993C157.274 27.2578 156.341 26.8871 155.148 26.8871C154.338 26.8871 153.618 27.0661 152.987 27.424C152.365 27.7734 151.875 28.2805 151.517 28.9453C151.168 29.6101 150.993 30.4155 150.993 31.3615ZM167.583 42.8672V23.2308H172.211V42.8672H167.583ZM169.909 20.4439C169.176 20.4439 168.546 20.201 168.017 19.7152C167.489 19.2209 167.225 18.6285 167.225 17.9382C167.225 17.2393 167.489 16.647 168.017 16.1612C168.546 15.6669 169.176 15.4197 169.909 15.4197C170.651 15.4197 171.282 15.6669 171.801 16.1612C172.33 16.647 172.594 17.2393 172.594 17.9382C172.594 18.6285 172.33 19.2209 171.801 19.7152C171.282 20.201 170.651 20.4439 169.909 20.4439ZM191.769 28.4212L187.551 28.8814C187.431 28.4553 187.222 28.0547 186.924 27.6797C186.634 27.3047 186.242 27.0021 185.748 26.772C185.254 26.5419 184.649 26.4268 183.933 26.4268C182.97 26.4268 182.16 26.6357 181.504 27.0533C180.856 27.4709 180.536 28.0121 180.545 28.6768C180.536 29.2479 180.745 29.7124 181.171 30.0703C181.606 30.4283 182.322 30.7223 183.319 30.9524L186.668 31.6683C188.526 32.0689 189.907 32.7038 190.81 33.5732C191.722 34.4425 192.183 35.5803 192.191 36.9865C192.183 38.2223 191.82 39.3132 191.105 40.2592C190.397 41.1967 189.413 41.9297 188.151 42.4581C186.89 42.9865 185.441 43.2507 183.805 43.2507C181.401 43.2507 179.467 42.7479 178.001 41.7422C176.535 40.728 175.661 39.3175 175.38 37.5107L179.893 37.076C180.097 37.9624 180.532 38.6314 181.197 39.0831C181.862 39.5348 182.727 39.7607 183.792 39.7607C184.891 39.7607 185.774 39.5348 186.438 39.0831C187.112 38.6314 187.448 38.0732 187.448 37.4084C187.448 36.8459 187.231 36.3814 186.796 36.0149C186.37 35.6484 185.705 35.3672 184.802 35.1712L181.453 34.468C179.569 34.076 178.176 33.4155 177.272 32.4865C176.369 31.549 175.921 30.3643 175.93 28.9325C175.921 27.7223 176.249 26.674 176.914 25.7876C177.587 24.8928 178.521 24.2024 179.714 23.7166C180.916 23.2223 182.301 22.9751 183.869 22.9751C186.17 22.9751 187.981 23.4652 189.302 24.4453C190.632 25.4254 191.454 26.7507 191.769 28.4212ZM203.98 43.2507C202.012 43.2507 200.311 42.8416 198.88 42.0234C197.456 41.1967 196.361 40.0291 195.594 38.5206C194.827 37.0036 194.443 35.218 194.443 33.1641C194.443 31.1442 194.827 29.3714 195.594 27.8459C196.37 26.3118 197.452 25.1186 198.841 24.2663C200.23 23.4055 201.863 22.9751 203.738 22.9751C204.948 22.9751 206.09 23.1712 207.164 23.5632C208.246 23.9467 209.201 24.5433 210.027 25.353C210.863 26.1626 211.519 27.1939 211.996 28.4467C212.473 29.6911 212.712 31.174 212.712 32.8956V34.3146H196.617V31.1953H208.276C208.267 30.3089 208.076 29.5206 207.701 28.8303C207.326 28.1314 206.801 27.5817 206.128 27.1811C205.463 26.7805 204.688 26.5803 203.801 26.5803C202.855 26.5803 202.024 26.8104 201.309 27.2706C200.593 27.7223 200.034 28.3189 199.634 29.0604C199.242 29.7933 199.041 30.5987 199.033 31.4766V34.1996C199.033 35.3416 199.242 36.3217 199.659 37.1399C200.077 37.9496 200.661 38.5717 201.411 39.0064C202.161 39.4325 203.039 39.6456 204.044 39.6456C204.718 39.6456 205.327 39.5518 205.872 39.3643C206.418 39.1683 206.891 38.8828 207.291 38.5078C207.692 38.1328 207.995 37.6683 208.199 37.1143L212.52 37.6001C212.247 38.7422 211.728 39.7393 210.961 40.5916C210.202 41.4354 209.23 42.0916 208.046 42.5604C206.861 43.0206 205.506 43.2507 203.98 43.2507Z" fill="#DA7717"/>
<path d="M128.047 108.132C143.725 96.6302 256.457 94.7382 294.957 102.739" stroke="#DA7717" stroke-width="4" stroke-linecap="round"/>
</svg>
