<svg width="460" height="460" viewBox="0 0 460 460" fill="none" xmlns="http://www.w3.org/2000/svg">
<g opacity="0.5">
<path d="M460 230C460 357.025 357.025 460 230 460C102.975 460 0 357.025 0 230C0 102.975 102.975 0 230 0C357.025 0 460 102.975 460 230ZM23 230C23 344.323 115.677 437 230 437C344.323 437 437 344.323 437 230C437 115.677 344.323 23 230 23C115.677 23 23 115.677 23 230Z" fill="url(#paint0_linear_3300_6652)"/>
<path d="M418.899 229.387C418.899 124.89 334.188 40.1794 229.692 40.1794C125.195 40.1794 40.4844 124.89 40.4844 229.387C40.4844 333.883 125.195 418.594 229.692 418.594C334.188 418.594 418.899 333.883 418.899 229.387ZM66.9734 229.387C66.9734 139.52 139.825 66.6684 229.692 66.6684C319.558 66.6684 392.41 139.52 392.41 229.387C392.41 319.253 319.558 392.105 229.692 392.105C139.825 392.105 66.9734 319.253 66.9734 229.387Z" fill="url(#paint1_linear_3300_6652)"/>
</g>
<rect x="87" y="25" width="340" height="409" rx="20" fill="#FAFAFA"/>
<path d="M147.885 64.3622H145.229C145.153 63.9266 145.013 63.5407 144.81 63.2045C144.606 62.8636 144.353 62.5748 144.05 62.3381C143.747 62.1013 143.401 61.9238 143.013 61.8054C142.629 61.6823 142.215 61.6207 141.77 61.6207C140.979 61.6207 140.278 61.8196 139.668 62.2173C139.057 62.6103 138.579 63.188 138.233 63.9503C137.887 64.7079 137.714 65.6335 137.714 66.7273C137.714 67.84 137.887 68.7775 138.233 69.5398C138.583 70.2973 139.062 70.8703 139.668 71.2585C140.278 71.642 140.977 71.8338 141.763 71.8338C142.198 71.8338 142.606 71.777 142.984 71.6634C143.368 71.545 143.711 71.3722 144.014 71.1449C144.322 70.9176 144.58 70.6383 144.788 70.3068C145.001 69.9754 145.148 69.5966 145.229 69.1705L147.885 69.1847C147.786 69.8759 147.57 70.5246 147.239 71.1307C146.912 71.7367 146.483 72.2718 145.953 72.7358C145.423 73.1951 144.803 73.5549 144.092 73.8153C143.382 74.071 142.594 74.1989 141.727 74.1989C140.449 74.1989 139.308 73.9029 138.304 73.3111C137.3 72.7192 136.509 71.8646 135.932 70.7472C135.354 69.6297 135.065 68.2898 135.065 66.7273C135.065 65.16 135.357 63.8201 135.939 62.7074C136.521 61.59 137.314 60.7353 138.318 60.1435C139.322 59.5516 140.458 59.2557 141.727 59.2557C142.537 59.2557 143.29 59.3693 143.986 59.5966C144.682 59.8239 145.302 60.1577 145.847 60.598C146.391 61.0336 146.839 61.5687 147.189 62.2031C147.544 62.8329 147.776 63.5526 147.885 64.3622ZM152.924 74.2202C152.232 74.2202 151.61 74.0971 151.056 73.8509C150.506 73.5999 150.071 73.2306 149.749 72.7429C149.432 72.2552 149.273 71.6539 149.273 70.9389C149.273 70.3234 149.387 69.8144 149.614 69.4119C149.841 69.0095 150.151 68.6875 150.544 68.446C150.937 68.2045 151.38 68.0223 151.872 67.8991C152.37 67.7713 152.883 67.679 153.414 67.6222C154.053 67.5559 154.571 67.4967 154.969 67.4446C155.367 67.3878 155.656 67.3026 155.835 67.1889C156.02 67.0705 156.112 66.8883 156.112 66.642V66.5994C156.112 66.0644 155.954 65.6501 155.637 65.3565C155.319 65.063 154.862 64.9162 154.266 64.9162C153.636 64.9162 153.137 65.0535 152.767 65.3281C152.403 65.6027 152.156 65.9271 152.029 66.3011L149.628 65.9602C149.817 65.2973 150.13 64.7434 150.566 64.2983C151.001 63.8485 151.534 63.5123 152.164 63.2898C152.793 63.0625 153.489 62.9489 154.252 62.9489C154.777 62.9489 155.3 63.0104 155.821 63.1335C156.342 63.2566 156.818 63.4602 157.249 63.7443C157.68 64.0237 158.025 64.4048 158.286 64.8878C158.551 65.3707 158.683 65.9744 158.683 66.6989V74H156.212V72.5014H156.127C155.97 72.8045 155.75 73.0885 155.466 73.3537C155.187 73.6141 154.834 73.8248 154.408 73.9858C153.986 74.142 153.492 74.2202 152.924 74.2202ZM153.591 72.331C154.107 72.331 154.555 72.2292 154.933 72.0256C155.312 71.8172 155.603 71.5426 155.807 71.2017C156.015 70.8608 156.12 70.4891 156.12 70.0866V68.8011C156.039 68.8674 155.902 68.929 155.708 68.9858C155.518 69.0426 155.305 69.0923 155.068 69.1349C154.832 69.1776 154.597 69.2154 154.365 69.2486C154.133 69.2817 153.932 69.3101 153.762 69.3338C153.378 69.3859 153.035 69.4711 152.732 69.5895C152.429 69.7079 152.19 69.8736 152.014 70.0866C151.839 70.295 151.752 70.5649 151.752 70.8963C151.752 71.3698 151.924 71.7273 152.27 71.9688C152.616 72.2102 153.056 72.331 153.591 72.331ZM163.44 59.4545V74H160.869V59.4545H163.44ZM170.442 74.2131C169.353 74.2131 168.418 73.974 167.637 73.4957C166.86 73.0175 166.261 72.357 165.84 71.5142C165.423 70.6667 165.215 69.6913 165.215 68.5881C165.215 67.4801 165.428 66.5024 165.854 65.6548C166.28 64.8026 166.881 64.1397 167.658 63.6662C168.439 63.188 169.362 62.9489 170.428 62.9489C171.313 62.9489 172.097 63.1122 172.779 63.4389C173.465 63.7609 174.012 64.2178 174.419 64.8097C174.827 65.3968 175.059 66.0833 175.115 66.8693H172.658C172.559 66.3437 172.322 65.9058 171.948 65.5554C171.578 65.2003 171.084 65.0227 170.463 65.0227C169.938 65.0227 169.476 65.1648 169.078 65.4489C168.681 65.7282 168.371 66.1307 168.148 66.6562C167.93 67.1818 167.821 67.8116 167.821 68.5455C167.821 69.2888 167.93 69.928 168.148 70.4631C168.366 70.9934 168.671 71.4029 169.064 71.6918C169.462 71.9759 169.928 72.1179 170.463 72.1179C170.842 72.1179 171.181 72.0469 171.479 71.9048C171.782 71.758 172.035 71.5473 172.239 71.2727C172.443 70.9981 172.582 70.6643 172.658 70.2713H175.115C175.054 71.0431 174.827 71.7273 174.434 72.3239C174.041 72.9157 173.505 73.3797 172.828 73.7159C172.151 74.0473 171.356 74.2131 170.442 74.2131ZM183.78 69.4119V63.0909H186.351V74H183.858V72.0611H183.744C183.498 72.6719 183.093 73.1714 182.53 73.5597C181.971 73.9479 181.282 74.142 180.463 74.142C179.748 74.142 179.116 73.9834 178.567 73.6662C178.022 73.3442 177.596 72.8778 177.288 72.267C176.98 71.6515 176.826 70.9081 176.826 70.0369V63.0909H179.398V69.6392C179.398 70.3305 179.587 70.8797 179.966 71.2869C180.344 71.6941 180.842 71.8977 181.457 71.8977C181.836 71.8977 182.203 71.8054 182.558 71.6207C182.913 71.4361 183.204 71.1615 183.432 70.7969C183.664 70.4276 183.78 69.9659 183.78 69.4119ZM191.165 59.4545V74H188.594V59.4545H191.165ZM196.549 74.2202C195.857 74.2202 195.235 74.0971 194.681 73.8509C194.131 73.5999 193.696 73.2306 193.374 72.7429C193.057 72.2552 192.898 71.6539 192.898 70.9389C192.898 70.3234 193.012 69.8144 193.239 69.4119C193.466 69.0095 193.776 68.6875 194.169 68.446C194.562 68.2045 195.005 68.0223 195.497 67.8991C195.995 67.7713 196.508 67.679 197.039 67.6222C197.678 67.5559 198.196 67.4967 198.594 67.4446C198.992 67.3878 199.281 67.3026 199.46 67.1889C199.645 67.0705 199.737 66.8883 199.737 66.642V66.5994C199.737 66.0644 199.579 65.6501 199.262 65.3565C198.944 65.063 198.487 64.9162 197.891 64.9162C197.261 64.9162 196.762 65.0535 196.392 65.3281C196.028 65.6027 195.781 65.9271 195.654 66.3011L193.253 65.9602C193.442 65.2973 193.755 64.7434 194.191 64.2983C194.626 63.8485 195.159 63.5123 195.789 63.2898C196.418 63.0625 197.114 62.9489 197.877 62.9489C198.402 62.9489 198.925 63.0104 199.446 63.1335C199.967 63.2566 200.443 63.4602 200.874 63.7443C201.305 64.0237 201.65 64.4048 201.911 64.8878C202.176 65.3707 202.308 65.9744 202.308 66.6989V74H199.837V72.5014H199.752C199.595 72.8045 199.375 73.0885 199.091 73.3537C198.812 73.6141 198.459 73.8248 198.033 73.9858C197.611 74.142 197.117 74.2202 196.549 74.2202ZM197.216 72.331C197.732 72.331 198.18 72.2292 198.558 72.0256C198.937 71.8172 199.228 71.5426 199.432 71.2017C199.64 70.8608 199.745 70.4891 199.745 70.0866V68.8011C199.664 68.8674 199.527 68.929 199.333 68.9858C199.143 69.0426 198.93 69.0923 198.693 69.1349C198.457 69.1776 198.222 69.2154 197.99 69.2486C197.758 69.2817 197.557 69.3101 197.387 69.3338C197.003 69.3859 196.66 69.4711 196.357 69.5895C196.054 69.7079 195.815 69.8736 195.639 70.0866C195.464 70.295 195.377 70.5649 195.377 70.8963C195.377 71.3698 195.549 71.7273 195.895 71.9688C196.241 72.2102 196.681 72.331 197.216 72.331ZM209.941 63.0909V65.0795H203.67V63.0909H209.941ZM205.218 60.4773H207.789V70.7188C207.789 71.0644 207.841 71.3295 207.945 71.5142C208.054 71.6941 208.196 71.8172 208.372 71.8835C208.547 71.9498 208.741 71.983 208.954 71.983C209.115 71.983 209.262 71.9711 209.394 71.9474C209.532 71.9238 209.636 71.9025 209.707 71.8835L210.14 73.8935C210.003 73.9408 209.806 73.9929 209.55 74.0497C209.3 74.1065 208.992 74.1397 208.627 74.1491C207.983 74.1681 207.403 74.071 206.887 73.858C206.371 73.6402 205.961 73.304 205.658 72.8494C205.36 72.3949 205.213 71.8267 205.218 71.1449V60.4773ZM216.404 74.2131C215.31 74.2131 214.365 73.9858 213.57 73.5312C212.779 73.072 212.171 72.4233 211.745 71.5852C211.318 70.7424 211.105 69.7505 211.105 68.6094C211.105 67.4872 211.318 66.5024 211.745 65.6548C212.175 64.8026 212.777 64.1397 213.549 63.6662C214.32 63.188 215.227 62.9489 216.269 62.9489C216.941 62.9489 217.576 63.0578 218.172 63.2756C218.773 63.4886 219.304 63.8201 219.763 64.2699C220.227 64.7197 220.592 65.2926 220.857 65.9886C221.122 66.6799 221.255 67.5038 221.255 68.4602V69.2486H212.313V67.5156H218.79C218.785 67.0232 218.679 66.5852 218.47 66.2017C218.262 65.8134 217.971 65.508 217.597 65.2855C217.228 65.063 216.797 64.9517 216.304 64.9517C215.779 64.9517 215.317 65.0795 214.919 65.3352C214.522 65.5862 214.211 65.9176 213.989 66.3295C213.771 66.7367 213.66 67.1842 213.655 67.6719V69.1847C213.655 69.8191 213.771 70.3636 214.003 70.8182C214.235 71.268 214.559 71.6136 214.976 71.8551C215.393 72.0919 215.88 72.2102 216.439 72.2102C216.813 72.2102 217.152 72.1581 217.455 72.054C217.758 71.9451 218.021 71.7865 218.243 71.5781C218.466 71.3698 218.634 71.1117 218.747 70.804L221.148 71.0739C220.996 71.7083 220.708 72.2623 220.282 72.7358C219.86 73.2045 219.32 73.5691 218.662 73.8295C218.004 74.0852 217.251 74.2131 216.404 74.2131ZM229.189 78.0909C228.838 78.0909 228.514 78.0625 228.216 78.0057C227.922 77.9536 227.688 77.892 227.512 77.821L228.109 75.8182C228.483 75.9271 228.817 75.9792 229.11 75.9744C229.404 75.9697 229.662 75.8774 229.885 75.6974C230.112 75.5223 230.304 75.2287 230.46 74.8168L230.68 74.2273L226.724 63.0909H229.451L231.966 71.3295H232.079L234.6 63.0909H237.335L232.967 75.321C232.763 75.8987 232.493 76.3935 232.157 76.8054C231.821 77.2221 231.409 77.5393 230.922 77.7571C230.439 77.9796 229.861 78.0909 229.189 78.0909ZM243.101 74.2131C242.036 74.2131 241.113 73.9787 240.332 73.5099C239.55 73.0412 238.944 72.3854 238.513 71.5426C238.087 70.6998 237.874 69.715 237.874 68.5881C237.874 67.4612 238.087 66.474 238.513 65.6264C238.944 64.7789 239.55 64.1207 240.332 63.652C241.113 63.1832 242.036 62.9489 243.101 62.9489C244.167 62.9489 245.09 63.1832 245.871 63.652C246.653 64.1207 247.256 64.7789 247.682 65.6264C248.113 66.474 248.329 67.4612 248.329 68.5881C248.329 69.715 248.113 70.6998 247.682 71.5426C247.256 72.3854 246.653 73.0412 245.871 73.5099C245.09 73.9787 244.167 74.2131 243.101 74.2131ZM243.116 72.1534C243.693 72.1534 244.176 71.9948 244.564 71.6776C244.953 71.3556 245.242 70.9247 245.431 70.3849C245.625 69.8452 245.722 69.2438 245.722 68.581C245.722 67.9134 245.625 67.3097 245.431 66.7699C245.242 66.2254 244.953 65.7921 244.564 65.4702C244.176 65.1482 243.693 64.9872 243.116 64.9872C242.524 64.9872 242.031 65.1482 241.638 65.4702C241.25 65.7921 240.959 66.2254 240.765 66.7699C240.575 67.3097 240.481 67.9134 240.481 68.581C240.481 69.2438 240.575 69.8452 240.765 70.3849C240.959 70.9247 241.25 71.3556 241.638 71.6776C242.031 71.9948 242.524 72.1534 243.116 72.1534ZM257.064 69.4119V63.0909H259.635V74H257.142V72.0611H257.028C256.782 72.6719 256.377 73.1714 255.814 73.5597C255.255 73.9479 254.566 74.142 253.747 74.142C253.032 74.142 252.4 73.9834 251.851 73.6662C251.306 73.3442 250.88 72.8778 250.573 72.267C250.265 71.6515 250.111 70.9081 250.111 70.0369V63.0909H252.682V69.6392C252.682 70.3305 252.871 70.8797 253.25 71.2869C253.629 71.6941 254.126 71.8977 254.742 71.8977C255.12 71.8977 255.487 71.8054 255.842 71.6207C256.198 71.4361 256.489 71.1615 256.716 70.7969C256.948 70.4276 257.064 69.9659 257.064 69.4119ZM261.879 74V63.0909H264.372V64.9091H264.485C264.684 64.2794 265.025 63.794 265.508 63.4531C265.996 63.1075 266.552 62.9347 267.177 62.9347C267.319 62.9347 267.478 62.9418 267.653 62.956C267.833 62.9654 267.982 62.982 268.1 63.0057V65.3707C267.992 65.3329 267.819 65.2997 267.582 65.2713C267.35 65.2382 267.125 65.2216 266.907 65.2216C266.438 65.2216 266.017 65.3234 265.643 65.527C265.274 65.7259 264.983 66.0028 264.769 66.358C264.556 66.7131 264.45 67.1226 264.45 67.5866V74H261.879ZM273.969 78.0909V63.0909H276.498V64.8949H276.647C276.78 64.6297 276.967 64.348 277.208 64.0497C277.45 63.7467 277.776 63.4886 278.188 63.2756C278.6 63.0578 279.126 62.9489 279.765 62.9489C280.608 62.9489 281.368 63.1643 282.045 63.5952C282.727 64.0213 283.266 64.6534 283.664 65.4915C284.067 66.3248 284.268 67.3475 284.268 68.5597C284.268 69.7576 284.071 70.7756 283.678 71.6136C283.285 72.4517 282.75 73.0909 282.073 73.5312C281.396 73.9716 280.629 74.1918 279.772 74.1918C279.147 74.1918 278.629 74.0876 278.217 73.8793C277.805 73.6709 277.473 73.42 277.222 73.1264C276.976 72.8281 276.784 72.5464 276.647 72.2812H276.54V78.0909H273.969ZM276.491 68.5455C276.491 69.2509 276.59 69.8688 276.789 70.3991C276.993 70.9295 277.284 71.3437 277.663 71.642C278.046 71.9356 278.51 72.0824 279.055 72.0824C279.623 72.0824 280.099 71.9309 280.482 71.6278C280.866 71.3201 281.155 70.901 281.349 70.3707C281.548 69.8357 281.647 69.2273 281.647 68.5455C281.647 67.8684 281.55 67.267 281.356 66.7415C281.162 66.2159 280.873 65.804 280.489 65.5057C280.106 65.2074 279.628 65.0582 279.055 65.0582C278.505 65.0582 278.039 65.2027 277.656 65.4915C277.272 65.7803 276.981 66.1851 276.782 66.706C276.588 67.2268 276.491 67.84 276.491 68.5455ZM289.209 74.2202C288.517 74.2202 287.895 74.0971 287.341 73.8509C286.792 73.5999 286.356 73.2306 286.034 72.7429C285.717 72.2552 285.558 71.6539 285.558 70.9389C285.558 70.3234 285.672 69.8144 285.899 69.4119C286.126 69.0095 286.436 68.6875 286.829 68.446C287.222 68.2045 287.665 68.0223 288.158 67.8991C288.655 67.7713 289.168 67.679 289.699 67.6222C290.338 67.5559 290.856 67.4967 291.254 67.4446C291.652 67.3878 291.941 67.3026 292.121 67.1889C292.305 67.0705 292.398 66.8883 292.398 66.642V66.5994C292.398 66.0644 292.239 65.6501 291.922 65.3565C291.605 65.063 291.148 64.9162 290.551 64.9162C289.921 64.9162 289.422 65.0535 289.052 65.3281C288.688 65.6027 288.442 65.9271 288.314 66.3011L285.913 65.9602C286.103 65.2973 286.415 64.7434 286.851 64.2983C287.286 63.8485 287.819 63.5123 288.449 63.2898C289.078 63.0625 289.774 62.9489 290.537 62.9489C291.062 62.9489 291.586 63.0104 292.106 63.1335C292.627 63.2566 293.103 63.4602 293.534 63.7443C293.965 64.0237 294.31 64.4048 294.571 64.8878C294.836 65.3707 294.969 65.9744 294.969 66.6989V74H292.497V72.5014H292.412C292.256 72.8045 292.035 73.0885 291.751 73.3537C291.472 73.6141 291.119 73.8248 290.693 73.9858C290.272 74.142 289.777 74.2202 289.209 74.2202ZM289.876 72.331C290.392 72.331 290.84 72.2292 291.219 72.0256C291.597 71.8172 291.889 71.5426 292.092 71.2017C292.301 70.8608 292.405 70.4891 292.405 70.0866V68.8011C292.324 68.8674 292.187 68.929 291.993 68.9858C291.803 69.0426 291.59 69.0923 291.354 69.1349C291.117 69.1776 290.882 69.2154 290.65 69.2486C290.418 69.2817 290.217 69.3101 290.047 69.3338C289.663 69.3859 289.32 69.4711 289.017 69.5895C288.714 69.7079 288.475 69.8736 288.3 70.0866C288.124 70.295 288.037 70.5649 288.037 70.8963C288.037 71.3698 288.21 71.7273 288.555 71.9688C288.901 72.2102 289.341 72.331 289.876 72.331ZM297.154 78.0909V63.0909H299.682V64.8949H299.831C299.964 64.6297 300.151 64.348 300.392 64.0497C300.634 63.7467 300.961 63.4886 301.373 63.2756C301.785 63.0578 302.31 62.9489 302.949 62.9489C303.792 62.9489 304.552 63.1643 305.229 63.5952C305.911 64.0213 306.451 64.6534 306.848 65.4915C307.251 66.3248 307.452 67.3475 307.452 68.5597C307.452 69.7576 307.256 70.7756 306.863 71.6136C306.47 72.4517 305.935 73.0909 305.258 73.5312C304.58 73.9716 303.813 74.1918 302.956 74.1918C302.331 74.1918 301.813 74.0876 301.401 73.8793C300.989 73.6709 300.658 73.42 300.407 73.1264C300.16 72.8281 299.969 72.5464 299.831 72.2812H299.725V78.0909H297.154ZM299.675 68.5455C299.675 69.2509 299.775 69.8688 299.973 70.3991C300.177 70.9295 300.468 71.3437 300.847 71.642C301.231 71.9356 301.695 72.0824 302.239 72.0824C302.807 72.0824 303.283 71.9309 303.667 71.6278C304.05 71.3201 304.339 70.901 304.533 70.3707C304.732 69.8357 304.831 69.2273 304.831 68.5455C304.831 67.8684 304.734 67.267 304.54 66.7415C304.346 66.2159 304.057 65.804 303.674 65.5057C303.29 65.2074 302.812 65.0582 302.239 65.0582C301.69 65.0582 301.223 65.2027 300.84 65.4915C300.456 65.7803 300.165 66.1851 299.966 66.706C299.772 67.2268 299.675 67.84 299.675 68.5455ZM314.083 74.2131C312.99 74.2131 312.045 73.9858 311.25 73.5312C310.459 73.072 309.85 72.4233 309.424 71.5852C308.998 70.7424 308.785 69.7505 308.785 68.6094C308.785 67.4872 308.998 66.5024 309.424 65.6548C309.855 64.8026 310.456 64.1397 311.228 63.6662C312 63.188 312.907 62.9489 313.948 62.9489C314.621 62.9489 315.255 63.0578 315.852 63.2756C316.453 63.4886 316.983 63.8201 317.443 64.2699C317.907 64.7197 318.271 65.2926 318.537 65.9886C318.802 66.6799 318.934 67.5038 318.934 68.4602V69.2486H309.992V67.5156H316.47C316.465 67.0232 316.358 66.5852 316.15 66.2017C315.942 65.8134 315.651 65.508 315.277 65.2855C314.907 65.063 314.476 64.9517 313.984 64.9517C313.458 64.9517 312.997 65.0795 312.599 65.3352C312.201 65.5862 311.891 65.9176 311.669 66.3295C311.451 66.7367 311.34 67.1842 311.335 67.6719V69.1847C311.335 69.8191 311.451 70.3636 311.683 70.8182C311.915 71.268 312.239 71.6136 312.656 71.8551C313.072 72.0919 313.56 72.2102 314.119 72.2102C314.493 72.2102 314.831 72.1581 315.135 72.054C315.438 71.9451 315.7 71.7865 315.923 71.5781C316.145 71.3698 316.313 71.1117 316.427 70.804L318.828 71.0739C318.676 71.7083 318.387 72.2623 317.961 72.7358C317.54 73.2045 317 73.5691 316.342 73.8295C315.684 74.0852 314.931 74.2131 314.083 74.2131ZM320.709 74V63.0909H323.202V64.9091H323.316C323.515 64.2794 323.856 63.794 324.339 63.4531C324.826 63.1075 325.383 62.9347 326.008 62.9347C326.15 62.9347 326.308 62.9418 326.483 62.956C326.663 62.9654 326.813 62.982 326.931 63.0057V65.3707C326.822 65.3329 326.649 65.2997 326.412 65.2713C326.18 65.2382 325.956 65.2216 325.738 65.2216C325.269 65.2216 324.848 65.3234 324.474 65.527C324.104 65.7259 323.813 66.0028 323.6 66.358C323.387 66.7131 323.28 67.1226 323.28 67.5866V74H320.709ZM332.8 78.0909V63.0909H335.328V64.8949H335.477C335.61 64.6297 335.797 64.348 336.039 64.0497C336.28 63.7467 336.607 63.4886 337.019 63.2756C337.431 63.0578 337.956 62.9489 338.595 62.9489C339.438 62.9489 340.198 63.1643 340.875 63.5952C341.557 64.0213 342.097 64.6534 342.495 65.4915C342.897 66.3248 343.098 67.3475 343.098 68.5597C343.098 69.7576 342.902 70.7756 342.509 71.6136C342.116 72.4517 341.581 73.0909 340.904 73.5312C340.227 73.9716 339.459 74.1918 338.602 74.1918C337.977 74.1918 337.459 74.0876 337.047 73.8793C336.635 73.6709 336.304 73.42 336.053 73.1264C335.807 72.8281 335.615 72.5464 335.477 72.2812H335.371V78.0909H332.8ZM335.321 68.5455C335.321 69.2509 335.421 69.8688 335.62 70.3991C335.823 70.9295 336.114 71.3437 336.493 71.642C336.877 71.9356 337.341 72.0824 337.885 72.0824C338.453 72.0824 338.929 71.9309 339.313 71.6278C339.696 71.3201 339.985 70.901 340.179 70.3707C340.378 69.8357 340.477 69.2273 340.477 68.5455C340.477 67.8684 340.38 67.267 340.186 66.7415C339.992 66.2159 339.703 65.804 339.32 65.5057C338.936 65.2074 338.458 65.0582 337.885 65.0582C337.336 65.0582 336.87 65.2027 336.486 65.4915C336.102 65.7803 335.811 66.1851 335.612 66.706C335.418 67.2268 335.321 67.84 335.321 68.5455ZM344.9 74V63.0909H347.393V64.9091H347.506C347.705 64.2794 348.046 63.794 348.529 63.4531C349.017 63.1075 349.573 62.9347 350.198 62.9347C350.34 62.9347 350.499 62.9418 350.674 62.956C350.854 62.9654 351.003 62.982 351.122 63.0057V65.3707C351.013 65.3329 350.84 65.2997 350.603 65.2713C350.371 65.2382 350.146 65.2216 349.928 65.2216C349.46 65.2216 349.038 65.3234 348.664 65.527C348.295 65.7259 348.004 66.0028 347.791 66.358C347.577 66.7131 347.471 67.1226 347.471 67.5866V74H344.9ZM352.43 74V63.0909H355.001V74H352.43ZM353.722 61.5426C353.315 61.5426 352.965 61.4077 352.671 61.1378C352.378 60.8632 352.231 60.5341 352.231 60.1506C352.231 59.7623 352.378 59.4332 352.671 59.1634C352.965 58.8887 353.315 58.7514 353.722 58.7514C354.134 58.7514 354.485 58.8887 354.773 59.1634C355.067 59.4332 355.214 59.7623 355.214 60.1506C355.214 60.5341 355.067 60.8632 354.773 61.1378C354.485 61.4077 354.134 61.5426 353.722 61.5426ZM362.003 74.2131C360.914 74.2131 359.979 73.974 359.198 73.4957C358.421 73.0175 357.822 72.357 357.401 71.5142C356.984 70.6667 356.776 69.6913 356.776 68.5881C356.776 67.4801 356.989 66.5024 357.415 65.6548C357.841 64.8026 358.442 64.1397 359.219 63.6662C360 63.188 360.923 62.9489 361.989 62.9489C362.874 62.9489 363.658 63.1122 364.34 63.4389C365.026 63.7609 365.573 64.2178 365.98 64.8097C366.387 65.3968 366.619 66.0833 366.676 66.8693H364.219C364.119 66.3437 363.883 65.9058 363.509 65.5554C363.139 65.2003 362.645 65.0227 362.024 65.0227C361.499 65.0227 361.037 65.1648 360.639 65.4489C360.242 65.7282 359.931 66.1307 359.709 66.6562C359.491 67.1818 359.382 67.8116 359.382 68.5455C359.382 69.2888 359.491 69.928 359.709 70.4631C359.927 70.9934 360.232 71.4029 360.625 71.6918C361.023 71.9759 361.489 72.1179 362.024 72.1179C362.403 72.1179 362.742 72.0469 363.04 71.9048C363.343 71.758 363.596 71.5473 363.8 71.2727C364.003 70.9981 364.143 70.6643 364.219 70.2713H366.676C366.615 71.0431 366.387 71.7273 365.994 72.3239C365.601 72.9157 365.066 73.3797 364.389 73.7159C363.712 74.0473 362.917 74.2131 362.003 74.2131ZM373.217 74.2131C372.123 74.2131 371.179 73.9858 370.383 73.5312C369.592 73.072 368.984 72.4233 368.558 71.5852C368.132 70.7424 367.919 69.7505 367.919 68.6094C367.919 67.4872 368.132 66.5024 368.558 65.6548C368.989 64.8026 369.59 64.1397 370.362 63.6662C371.134 63.188 372.04 62.9489 373.082 62.9489C373.754 62.9489 374.389 63.0578 374.985 63.2756C375.587 63.4886 376.117 63.8201 376.576 64.2699C377.04 64.7197 377.405 65.2926 377.67 65.9886C377.935 66.6799 378.068 67.5038 378.068 68.4602V69.2486H369.126V67.5156H375.603C375.599 67.0232 375.492 66.5852 375.284 66.2017C375.075 65.8134 374.784 65.508 374.41 65.2855C374.041 65.063 373.61 64.9517 373.118 64.9517C372.592 64.9517 372.13 65.0795 371.733 65.3352C371.335 65.5862 371.025 65.9176 370.802 66.3295C370.584 66.7367 370.473 67.1842 370.468 67.6719V69.1847C370.468 69.8191 370.584 70.3636 370.816 70.8182C371.048 71.268 371.373 71.6136 371.789 71.8551C372.206 72.0919 372.694 72.2102 373.252 72.2102C373.627 72.2102 373.965 72.1581 374.268 72.054C374.571 71.9451 374.834 71.7865 375.056 71.5781C375.279 71.3698 375.447 71.1117 375.561 70.804L377.961 71.0739C377.81 71.7083 377.521 72.2623 377.095 72.7358C376.673 73.2045 376.134 73.5691 375.475 73.8295C374.817 74.0852 374.065 74.2131 373.217 74.2131Z" fill="#1A1A1A"/>
<path opacity="0.7" d="M125.801 116.364C125.741 115.86 125.5 115.469 125.075 115.19C124.651 114.912 124.131 114.773 123.514 114.773C123.063 114.773 122.669 114.846 122.331 114.991C121.996 115.137 121.734 115.338 121.545 115.593C121.36 115.848 121.267 116.138 121.267 116.463C121.267 116.735 121.332 116.969 121.461 117.164C121.594 117.356 121.763 117.517 121.968 117.646C122.174 117.772 122.389 117.877 122.614 117.96C122.84 118.039 123.047 118.104 123.236 118.153L124.27 118.432C124.535 118.501 124.83 118.598 125.155 118.72C125.483 118.843 125.796 119.01 126.094 119.222C126.396 119.431 126.645 119.7 126.84 120.028C127.036 120.356 127.134 120.759 127.134 121.236C127.134 121.786 126.989 122.283 126.701 122.727C126.416 123.171 125.998 123.524 125.448 123.786C124.901 124.048 124.237 124.179 123.455 124.179C122.725 124.179 122.094 124.061 121.56 123.826C121.03 123.591 120.612 123.263 120.308 122.842C120.006 122.421 119.835 121.932 119.795 121.375H121.068C121.101 121.759 121.231 122.078 121.456 122.33C121.685 122.578 121.973 122.764 122.321 122.886C122.672 123.006 123.05 123.065 123.455 123.065C123.925 123.065 124.348 122.989 124.722 122.837C125.097 122.681 125.393 122.465 125.612 122.19C125.831 121.912 125.94 121.587 125.94 121.216C125.94 120.878 125.846 120.603 125.657 120.391C125.468 120.179 125.219 120.006 124.911 119.874C124.603 119.741 124.27 119.625 123.912 119.526L122.659 119.168C121.864 118.939 121.234 118.612 120.77 118.188C120.306 117.764 120.074 117.209 120.074 116.523C120.074 115.953 120.228 115.455 120.536 115.031C120.848 114.604 121.265 114.272 121.789 114.037C122.316 113.798 122.904 113.679 123.554 113.679C124.21 113.679 124.794 113.797 125.304 114.032C125.814 114.264 126.219 114.582 126.517 114.987C126.819 115.391 126.978 115.85 126.994 116.364H125.801ZM132.203 124.159C131.468 124.159 130.833 123.997 130.299 123.672C129.769 123.344 129.36 122.886 129.071 122.3C128.786 121.71 128.644 121.024 128.644 120.241C128.644 119.459 128.786 118.77 129.071 118.173C129.36 117.573 129.761 117.106 130.274 116.771C130.791 116.433 131.395 116.264 132.084 116.264C132.482 116.264 132.874 116.33 133.262 116.463C133.65 116.596 134.003 116.811 134.321 117.109C134.639 117.404 134.893 117.795 135.082 118.283C135.271 118.77 135.365 119.37 135.365 120.082V120.58H129.479V119.565H134.172C134.172 119.134 134.086 118.75 133.914 118.412C133.744 118.074 133.503 117.807 133.188 117.612C132.876 117.416 132.508 117.318 132.084 117.318C131.617 117.318 131.212 117.434 130.871 117.666C130.533 117.895 130.273 118.193 130.09 118.561C129.908 118.929 129.817 119.323 129.817 119.744V120.42C129.817 120.997 129.916 121.486 130.115 121.887C130.317 122.285 130.597 122.588 130.955 122.797C131.313 123.002 131.729 123.105 132.203 123.105C132.512 123.105 132.79 123.062 133.039 122.976C133.29 122.886 133.508 122.754 133.69 122.578C133.872 122.399 134.013 122.177 134.112 121.912L135.246 122.23C135.127 122.615 134.926 122.953 134.644 123.244C134.363 123.533 134.015 123.758 133.6 123.92C133.186 124.08 132.72 124.159 132.203 124.159ZM137.15 124V116.364H138.284V117.517H138.363C138.502 117.139 138.754 116.833 139.119 116.597C139.483 116.362 139.894 116.244 140.352 116.244C140.438 116.244 140.546 116.246 140.675 116.249C140.804 116.253 140.902 116.258 140.968 116.264V117.457C140.928 117.447 140.837 117.433 140.695 117.413C140.556 117.389 140.408 117.378 140.252 117.378C139.881 117.378 139.55 117.456 139.258 117.612C138.97 117.764 138.741 117.976 138.572 118.248C138.406 118.516 138.323 118.823 138.323 119.168V124H137.15ZM148.836 116.364L146.012 124H144.819L141.995 116.364H143.268L145.376 122.449H145.455L147.563 116.364H148.836ZM150.384 124V116.364H151.558V124H150.384ZM150.981 115.091C150.752 115.091 150.555 115.013 150.389 114.857C150.227 114.701 150.146 114.514 150.146 114.295C150.146 114.077 150.227 113.889 150.389 113.734C150.555 113.578 150.752 113.5 150.981 113.5C151.21 113.5 151.405 113.578 151.568 113.734C151.733 113.889 151.816 114.077 151.816 114.295C151.816 114.514 151.733 114.701 151.568 114.857C151.405 115.013 151.21 115.091 150.981 115.091ZM156.809 124.159C156.093 124.159 155.477 123.99 154.96 123.652C154.442 123.314 154.045 122.848 153.766 122.255C153.488 121.662 153.349 120.984 153.349 120.222C153.349 119.446 153.491 118.762 153.776 118.168C154.065 117.572 154.466 117.106 154.979 116.771C155.496 116.433 156.1 116.264 156.789 116.264C157.326 116.264 157.81 116.364 158.241 116.562C158.672 116.761 159.025 117.04 159.3 117.398C159.575 117.756 159.746 118.173 159.812 118.651H158.638C158.549 118.303 158.35 117.994 158.042 117.726C157.737 117.454 157.326 117.318 156.809 117.318C156.352 117.318 155.951 117.437 155.606 117.676C155.264 117.911 154.998 118.245 154.805 118.675C154.616 119.103 154.522 119.605 154.522 120.182C154.522 120.772 154.615 121.286 154.8 121.723C154.989 122.161 155.254 122.5 155.596 122.742C155.941 122.984 156.345 123.105 156.809 123.105C157.114 123.105 157.391 123.052 157.639 122.946C157.888 122.84 158.098 122.688 158.271 122.489C158.443 122.29 158.566 122.051 158.638 121.773H159.812C159.746 122.223 159.581 122.629 159.32 122.991C159.061 123.349 158.718 123.634 158.29 123.846C157.866 124.055 157.372 124.159 156.809 124.159ZM164.729 124.159C163.993 124.159 163.358 123.997 162.825 123.672C162.294 123.344 161.885 122.886 161.597 122.3C161.312 121.71 161.169 121.024 161.169 120.241C161.169 119.459 161.312 118.77 161.597 118.173C161.885 117.573 162.286 117.106 162.8 116.771C163.317 116.433 163.92 116.264 164.609 116.264C165.007 116.264 165.4 116.33 165.788 116.463C166.175 116.596 166.528 116.811 166.847 117.109C167.165 117.404 167.418 117.795 167.607 118.283C167.796 118.77 167.891 119.37 167.891 120.082V120.58H162.004V119.565H166.697C166.697 119.134 166.611 118.75 166.439 118.412C166.27 118.074 166.028 117.807 165.713 117.612C165.402 117.416 165.034 117.318 164.609 117.318C164.142 117.318 163.738 117.434 163.396 117.666C163.058 117.895 162.798 118.193 162.616 118.561C162.433 118.929 162.342 119.323 162.342 119.744V120.42C162.342 120.997 162.442 121.486 162.641 121.887C162.843 122.285 163.123 122.588 163.481 122.797C163.839 123.002 164.255 123.105 164.729 123.105C165.037 123.105 165.315 123.062 165.564 122.976C165.816 122.886 166.033 122.754 166.215 122.578C166.397 122.399 166.538 122.177 166.638 121.912L167.771 122.23C167.652 122.615 167.451 122.953 167.17 123.244C166.888 123.533 166.54 123.758 166.126 123.92C165.711 124.08 165.246 124.159 164.729 124.159Z" fill="#1A1A1A"/>
<path d="M128.278 161V149.364H132.426C133.331 149.364 134.081 149.528 134.676 149.858C135.271 150.187 135.716 150.638 136.011 151.21C136.307 151.778 136.455 152.419 136.455 153.131C136.455 153.847 136.305 154.491 136.006 155.062C135.71 155.631 135.263 156.081 134.665 156.415C134.07 156.744 133.322 156.909 132.42 156.909H129.568V155.42H132.261C132.833 155.42 133.297 155.322 133.653 155.125C134.009 154.924 134.271 154.652 134.438 154.307C134.604 153.962 134.688 153.57 134.688 153.131C134.688 152.691 134.604 152.301 134.438 151.96C134.271 151.619 134.008 151.352 133.648 151.159C133.292 150.966 132.822 150.869 132.239 150.869H130.034V161H128.278ZM142.028 161.176C141.169 161.176 140.428 160.992 139.807 160.625C139.189 160.254 138.712 159.733 138.375 159.062C138.042 158.388 137.875 157.598 137.875 156.693C137.875 155.799 138.042 155.011 138.375 154.33C138.712 153.648 139.182 153.116 139.784 152.733C140.39 152.35 141.098 152.159 141.909 152.159C142.402 152.159 142.879 152.241 143.341 152.403C143.803 152.566 144.218 152.822 144.585 153.17C144.953 153.519 145.242 153.972 145.455 154.528C145.667 155.081 145.773 155.754 145.773 156.545V157.148H138.835V155.875H144.108C144.108 155.428 144.017 155.032 143.835 154.688C143.653 154.339 143.398 154.064 143.068 153.864C142.742 153.663 142.36 153.562 141.92 153.562C141.443 153.562 141.027 153.68 140.67 153.915C140.318 154.146 140.045 154.449 139.852 154.824C139.663 155.195 139.568 155.598 139.568 156.034V157.028C139.568 157.612 139.67 158.108 139.875 158.517C140.083 158.926 140.373 159.239 140.744 159.455C141.116 159.667 141.549 159.773 142.045 159.773C142.367 159.773 142.661 159.727 142.926 159.636C143.191 159.542 143.42 159.402 143.614 159.216C143.807 159.03 143.955 158.801 144.057 158.528L145.665 158.818C145.536 159.292 145.305 159.706 144.972 160.062C144.642 160.415 144.227 160.689 143.727 160.886C143.231 161.08 142.665 161.176 142.028 161.176ZM147.658 161V152.273H149.3V153.659H149.391C149.55 153.189 149.83 152.82 150.232 152.551C150.637 152.278 151.095 152.142 151.607 152.142C151.713 152.142 151.838 152.146 151.982 152.153C152.129 152.161 152.245 152.17 152.328 152.182V153.807C152.26 153.788 152.139 153.767 151.964 153.744C151.79 153.718 151.616 153.705 151.442 153.705C151.04 153.705 150.682 153.79 150.368 153.96C150.057 154.127 149.811 154.36 149.629 154.659C149.447 154.955 149.357 155.292 149.357 155.67V161H147.658ZM160.338 154.403L158.798 154.676C158.734 154.479 158.632 154.292 158.491 154.114C158.355 153.936 158.17 153.79 157.935 153.676C157.7 153.562 157.406 153.506 157.054 153.506C156.573 153.506 156.171 153.614 155.849 153.83C155.527 154.042 155.366 154.316 155.366 154.653C155.366 154.945 155.474 155.18 155.69 155.358C155.906 155.536 156.255 155.682 156.736 155.795L158.122 156.114C158.925 156.299 159.524 156.585 159.918 156.972C160.312 157.358 160.509 157.86 160.509 158.477C160.509 159 160.357 159.466 160.054 159.875C159.755 160.28 159.336 160.598 158.798 160.83C158.264 161.061 157.645 161.176 156.94 161.176C155.963 161.176 155.166 160.968 154.548 160.551C153.931 160.131 153.552 159.534 153.412 158.761L155.054 158.511C155.156 158.939 155.366 159.263 155.685 159.483C156.003 159.699 156.418 159.807 156.929 159.807C157.486 159.807 157.931 159.691 158.264 159.46C158.598 159.225 158.764 158.939 158.764 158.602C158.764 158.33 158.662 158.1 158.457 157.915C158.257 157.729 157.948 157.589 157.531 157.494L156.054 157.17C155.24 156.985 154.637 156.689 154.247 156.284C153.861 155.879 153.668 155.366 153.668 154.744C153.668 154.229 153.812 153.778 154.099 153.392C154.387 153.006 154.785 152.705 155.293 152.489C155.8 152.269 156.382 152.159 157.037 152.159C157.98 152.159 158.723 152.364 159.264 152.773C159.806 153.178 160.164 153.722 160.338 154.403ZM166.053 161.176C165.234 161.176 164.52 160.989 163.911 160.614C163.301 160.239 162.827 159.714 162.49 159.04C162.153 158.366 161.984 157.578 161.984 156.676C161.984 155.771 162.153 154.979 162.49 154.301C162.827 153.623 163.301 153.097 163.911 152.722C164.52 152.347 165.234 152.159 166.053 152.159C166.871 152.159 167.585 152.347 168.195 152.722C168.804 153.097 169.278 153.623 169.615 154.301C169.952 154.979 170.121 155.771 170.121 156.676C170.121 157.578 169.952 158.366 169.615 159.04C169.278 159.714 168.804 160.239 168.195 160.614C167.585 160.989 166.871 161.176 166.053 161.176ZM166.058 159.75C166.589 159.75 167.028 159.61 167.376 159.33C167.725 159.049 167.982 158.676 168.149 158.21C168.32 157.744 168.405 157.231 168.405 156.67C168.405 156.114 168.32 155.602 168.149 155.136C167.982 154.667 167.725 154.29 167.376 154.006C167.028 153.722 166.589 153.58 166.058 153.58C165.524 153.58 165.081 153.722 164.729 154.006C164.38 154.29 164.121 154.667 163.95 155.136C163.784 155.602 163.7 156.114 163.7 156.67C163.7 157.231 163.784 157.744 163.95 158.21C164.121 158.676 164.38 159.049 164.729 159.33C165.081 159.61 165.524 159.75 166.058 159.75ZM173.716 155.818V161H172.017V152.273H173.648V153.693H173.756C173.956 153.231 174.271 152.86 174.699 152.58C175.131 152.299 175.674 152.159 176.33 152.159C176.924 152.159 177.445 152.284 177.892 152.534C178.339 152.78 178.686 153.148 178.932 153.636C179.178 154.125 179.301 154.729 179.301 155.449V161H177.602V155.653C177.602 155.021 177.438 154.527 177.108 154.17C176.778 153.811 176.326 153.631 175.75 153.631C175.356 153.631 175.006 153.716 174.699 153.886C174.396 154.057 174.155 154.307 173.977 154.636C173.803 154.962 173.716 155.356 173.716 155.818ZM184.119 161.193C183.566 161.193 183.066 161.091 182.619 160.886C182.172 160.678 181.818 160.377 181.557 159.983C181.299 159.589 181.17 159.106 181.17 158.534C181.17 158.042 181.265 157.636 181.455 157.318C181.644 157 181.9 156.748 182.222 156.562C182.544 156.377 182.903 156.237 183.301 156.142C183.699 156.047 184.104 155.975 184.517 155.926C185.04 155.866 185.464 155.816 185.79 155.778C186.116 155.737 186.352 155.67 186.5 155.58C186.648 155.489 186.722 155.341 186.722 155.136V155.097C186.722 154.6 186.581 154.216 186.301 153.943C186.025 153.67 185.612 153.534 185.062 153.534C184.491 153.534 184.04 153.661 183.71 153.915C183.384 154.165 183.159 154.443 183.034 154.75L181.438 154.386C181.627 153.856 181.903 153.428 182.267 153.102C182.634 152.773 183.057 152.534 183.534 152.386C184.011 152.235 184.513 152.159 185.04 152.159C185.388 152.159 185.758 152.201 186.148 152.284C186.542 152.364 186.909 152.511 187.25 152.727C187.595 152.943 187.877 153.252 188.097 153.653C188.316 154.051 188.426 154.568 188.426 155.205V161H186.767V159.807H186.699C186.589 160.027 186.424 160.242 186.205 160.455C185.985 160.667 185.703 160.843 185.358 160.983C185.013 161.123 184.6 161.193 184.119 161.193ZM184.489 159.83C184.958 159.83 185.36 159.737 185.693 159.551C186.03 159.366 186.286 159.123 186.46 158.824C186.638 158.521 186.727 158.197 186.727 157.852V156.727C186.667 156.788 186.549 156.845 186.375 156.898C186.205 156.947 186.009 156.991 185.79 157.028C185.57 157.062 185.356 157.095 185.148 157.125C184.939 157.152 184.765 157.174 184.625 157.193C184.295 157.235 183.994 157.305 183.722 157.403C183.453 157.502 183.237 157.644 183.074 157.83C182.915 158.011 182.835 158.254 182.835 158.557C182.835 158.977 182.991 159.295 183.301 159.511C183.612 159.723 184.008 159.83 184.489 159.83ZM192.388 149.364V161H190.689V149.364H192.388ZM205.391 152.42C205.33 151.883 205.08 151.466 204.641 151.17C204.201 150.871 203.648 150.722 202.982 150.722C202.504 150.722 202.091 150.797 201.743 150.949C201.394 151.097 201.124 151.301 200.93 151.562C200.741 151.82 200.646 152.114 200.646 152.443C200.646 152.72 200.711 152.958 200.839 153.159C200.972 153.36 201.144 153.528 201.357 153.665C201.572 153.797 201.804 153.909 202.05 154C202.296 154.087 202.533 154.159 202.76 154.216L203.896 154.511C204.268 154.602 204.648 154.725 205.038 154.881C205.429 155.036 205.79 155.241 206.124 155.494C206.457 155.748 206.726 156.062 206.93 156.438C207.139 156.812 207.243 157.261 207.243 157.784C207.243 158.443 207.072 159.028 206.732 159.54C206.394 160.051 205.904 160.455 205.26 160.75C204.62 161.045 203.845 161.193 202.936 161.193C202.065 161.193 201.311 161.055 200.675 160.778C200.038 160.502 199.54 160.11 199.18 159.602C198.821 159.091 198.622 158.485 198.584 157.784H200.345C200.379 158.205 200.516 158.555 200.754 158.835C200.997 159.112 201.305 159.318 201.68 159.455C202.059 159.587 202.474 159.653 202.925 159.653C203.421 159.653 203.862 159.576 204.249 159.42C204.639 159.261 204.946 159.042 205.169 158.761C205.393 158.477 205.504 158.146 205.504 157.767C205.504 157.422 205.406 157.14 205.209 156.92C205.016 156.701 204.752 156.519 204.419 156.375C204.089 156.231 203.716 156.104 203.3 155.994L201.925 155.619C200.993 155.366 200.254 154.992 199.709 154.5C199.167 154.008 198.896 153.356 198.896 152.545C198.896 151.875 199.078 151.29 199.442 150.79C199.805 150.29 200.298 149.902 200.919 149.625C201.54 149.345 202.241 149.205 203.021 149.205C203.809 149.205 204.504 149.343 205.107 149.619C205.713 149.896 206.19 150.277 206.538 150.761C206.887 151.242 207.069 151.795 207.084 152.42H205.391ZM213.278 152.273V153.636H208.511V152.273H213.278ZM209.79 150.182H211.489V158.438C211.489 158.767 211.538 159.015 211.636 159.182C211.735 159.345 211.862 159.456 212.017 159.517C212.176 159.574 212.348 159.602 212.534 159.602C212.67 159.602 212.79 159.593 212.892 159.574C212.994 159.555 213.074 159.54 213.131 159.528L213.438 160.932C213.339 160.97 213.199 161.008 213.017 161.045C212.835 161.087 212.608 161.11 212.335 161.114C211.888 161.121 211.472 161.042 211.085 160.875C210.699 160.708 210.386 160.451 210.148 160.102C209.909 159.754 209.79 159.316 209.79 158.79V150.182ZM217.697 161.193C217.144 161.193 216.644 161.091 216.197 160.886C215.75 160.678 215.396 160.377 215.135 159.983C214.877 159.589 214.749 159.106 214.749 158.534C214.749 158.042 214.843 157.636 215.033 157.318C215.222 157 215.478 156.748 215.8 156.562C216.122 156.377 216.482 156.237 216.879 156.142C217.277 156.047 217.682 155.975 218.095 155.926C218.618 155.866 219.042 155.816 219.368 155.778C219.694 155.737 219.93 155.67 220.078 155.58C220.226 155.489 220.3 155.341 220.3 155.136V155.097C220.3 154.6 220.16 154.216 219.879 153.943C219.603 153.67 219.19 153.534 218.641 153.534C218.069 153.534 217.618 153.661 217.288 153.915C216.963 154.165 216.737 154.443 216.612 154.75L215.016 154.386C215.205 153.856 215.482 153.428 215.845 153.102C216.213 152.773 216.635 152.534 217.112 152.386C217.589 152.235 218.091 152.159 218.618 152.159C218.966 152.159 219.336 152.201 219.726 152.284C220.12 152.364 220.487 152.511 220.828 152.727C221.173 152.943 221.455 153.252 221.675 153.653C221.894 154.051 222.004 154.568 222.004 155.205V161H220.345V159.807H220.277C220.167 160.027 220.002 160.242 219.783 160.455C219.563 160.667 219.281 160.843 218.936 160.983C218.591 161.123 218.179 161.193 217.697 161.193ZM218.067 159.83C218.536 159.83 218.938 159.737 219.271 159.551C219.608 159.366 219.864 159.123 220.038 158.824C220.216 158.521 220.305 158.197 220.305 157.852V156.727C220.245 156.788 220.127 156.845 219.953 156.898C219.783 156.947 219.588 156.991 219.368 157.028C219.148 157.062 218.934 157.095 218.726 157.125C218.518 157.152 218.343 157.174 218.203 157.193C217.874 157.235 217.572 157.305 217.3 157.403C217.031 157.502 216.815 157.644 216.652 157.83C216.493 158.011 216.413 158.254 216.413 158.557C216.413 158.977 216.569 159.295 216.879 159.511C217.19 159.723 217.586 159.83 218.067 159.83ZM228.341 152.273V153.636H223.574V152.273H228.341ZM224.852 150.182H226.551V158.438C226.551 158.767 226.6 159.015 226.699 159.182C226.797 159.345 226.924 159.456 227.08 159.517C227.239 159.574 227.411 159.602 227.597 159.602C227.733 159.602 227.852 159.593 227.955 159.574C228.057 159.555 228.136 159.54 228.193 159.528L228.5 160.932C228.402 160.97 228.261 161.008 228.08 161.045C227.898 161.087 227.67 161.11 227.398 161.114C226.951 161.121 226.534 161.042 226.148 160.875C225.761 160.708 225.449 160.451 225.21 160.102C224.972 159.754 224.852 159.316 224.852 158.79V150.182ZM233.888 161.176C233.028 161.176 232.287 160.992 231.666 160.625C231.049 160.254 230.571 159.733 230.234 159.062C229.901 158.388 229.734 157.598 229.734 156.693C229.734 155.799 229.901 155.011 230.234 154.33C230.571 153.648 231.041 153.116 231.643 152.733C232.25 152.35 232.958 152.159 233.768 152.159C234.261 152.159 234.738 152.241 235.2 152.403C235.662 152.566 236.077 152.822 236.445 153.17C236.812 153.519 237.102 153.972 237.314 154.528C237.526 155.081 237.632 155.754 237.632 156.545V157.148H230.695V155.875H235.967C235.967 155.428 235.876 155.032 235.695 154.688C235.513 154.339 235.257 154.064 234.928 153.864C234.602 153.663 234.219 153.562 233.78 153.562C233.303 153.562 232.886 153.68 232.53 153.915C232.178 154.146 231.905 154.449 231.712 154.824C231.522 155.195 231.428 155.598 231.428 156.034V157.028C231.428 157.612 231.53 158.108 231.734 158.517C231.943 158.926 232.232 159.239 232.604 159.455C232.975 159.667 233.409 159.773 233.905 159.773C234.227 159.773 234.52 159.727 234.786 159.636C235.051 159.542 235.28 159.402 235.473 159.216C235.666 159.03 235.814 158.801 235.916 158.528L237.524 158.818C237.395 159.292 237.164 159.706 236.831 160.062C236.501 160.415 236.087 160.689 235.587 160.886C235.09 161.08 234.524 161.176 233.888 161.176ZM239.517 161V152.273H241.148V153.693H241.256C241.438 153.212 241.735 152.837 242.148 152.568C242.561 152.295 243.055 152.159 243.631 152.159C244.214 152.159 244.703 152.295 245.097 152.568C245.494 152.841 245.788 153.216 245.977 153.693H246.068C246.277 153.227 246.608 152.856 247.062 152.58C247.517 152.299 248.059 152.159 248.688 152.159C249.479 152.159 250.125 152.407 250.625 152.903C251.129 153.4 251.381 154.148 251.381 155.148V161H249.682V155.307C249.682 154.716 249.521 154.288 249.199 154.023C248.877 153.758 248.492 153.625 248.045 153.625C247.492 153.625 247.062 153.795 246.756 154.136C246.449 154.473 246.295 154.907 246.295 155.438V161H244.602V155.199C244.602 154.725 244.455 154.345 244.159 154.057C243.864 153.769 243.479 153.625 243.006 153.625C242.684 153.625 242.386 153.71 242.114 153.881C241.845 154.047 241.627 154.28 241.46 154.58C241.297 154.879 241.216 155.225 241.216 155.619V161H239.517ZM257.419 161.176C256.559 161.176 255.819 160.992 255.197 160.625C254.58 160.254 254.103 159.733 253.766 159.062C253.432 158.388 253.266 157.598 253.266 156.693C253.266 155.799 253.432 155.011 253.766 154.33C254.103 153.648 254.572 153.116 255.175 152.733C255.781 152.35 256.489 152.159 257.3 152.159C257.792 152.159 258.269 152.241 258.732 152.403C259.194 152.566 259.608 152.822 259.976 153.17C260.343 153.519 260.633 153.972 260.845 154.528C261.057 155.081 261.163 155.754 261.163 156.545V157.148H254.226V155.875H259.499C259.499 155.428 259.408 155.032 259.226 154.688C259.044 154.339 258.788 154.064 258.459 153.864C258.133 153.663 257.75 153.562 257.311 153.562C256.834 153.562 256.417 153.68 256.061 153.915C255.709 154.146 255.436 154.449 255.243 154.824C255.054 155.195 254.959 155.598 254.959 156.034V157.028C254.959 157.612 255.061 158.108 255.266 158.517C255.474 158.926 255.764 159.239 256.135 159.455C256.506 159.667 256.94 159.773 257.436 159.773C257.758 159.773 258.052 159.727 258.317 159.636C258.582 159.542 258.811 159.402 259.004 159.216C259.197 159.03 259.345 158.801 259.447 158.528L261.055 158.818C260.927 159.292 260.696 159.706 260.362 160.062C260.033 160.415 259.618 160.689 259.118 160.886C258.622 161.08 258.055 161.176 257.419 161.176ZM264.747 155.818V161H263.048V152.273H264.679V153.693H264.787C264.988 153.231 265.302 152.86 265.73 152.58C266.162 152.299 266.705 152.159 267.361 152.159C267.955 152.159 268.476 152.284 268.923 152.534C269.37 152.78 269.717 153.148 269.963 153.636C270.209 154.125 270.332 154.729 270.332 155.449V161H268.634V155.653C268.634 155.021 268.469 154.527 268.139 154.17C267.81 153.811 267.357 153.631 266.781 153.631C266.387 153.631 266.037 153.716 265.73 153.886C265.427 154.057 265.187 154.307 265.009 154.636C264.834 154.962 264.747 155.356 264.747 155.818ZM276.685 152.273V153.636H271.918V152.273H276.685ZM273.196 150.182H274.895V158.438C274.895 158.767 274.944 159.015 275.043 159.182C275.141 159.345 275.268 159.456 275.423 159.517C275.582 159.574 275.755 159.602 275.94 159.602C276.077 159.602 276.196 159.593 276.298 159.574C276.401 159.555 276.48 159.54 276.537 159.528L276.844 160.932C276.745 160.97 276.605 161.008 276.423 161.045C276.241 161.087 276.014 161.11 275.741 161.114C275.295 161.121 274.878 161.042 274.491 160.875C274.105 160.708 273.793 160.451 273.554 160.102C273.315 159.754 273.196 159.316 273.196 158.79V150.182Z" fill="#1A1A1A"/>
<path d="M372.3 157.3L369.7 154.7C369.384 154.383 369.313 154.021 369.488 153.613C369.663 153.204 369.975 153 370.425 153H375.575C376.025 153 376.338 153.204 376.512 153.613C376.688 154.021 376.617 154.383 376.3 154.7L373.7 157.3C373.6 157.4 373.492 157.475 373.375 157.525C373.259 157.575 373.134 157.6 373 157.6C372.867 157.6 372.742 157.575 372.625 157.525C372.509 157.475 372.4 157.4 372.3 157.3Z" fill="#1A1A1A"/>
<rect x="119" y="133" width="276" height="44" rx="5" stroke="#1A1A1A" stroke-opacity="0.5" stroke-width="0.5"/>
<path opacity="0.7" d="M122.082 284L119.298 273.818H120.551L122.679 282.111H122.778L124.946 273.818H126.338L128.506 282.111H128.605L130.733 273.818H131.986L129.202 284H127.929L125.682 275.886H125.602L123.355 284H122.082ZM135.754 284.159C135.065 284.159 134.46 283.995 133.94 283.667C133.423 283.339 133.018 282.88 132.727 282.29C132.438 281.7 132.294 281.01 132.294 280.222C132.294 279.426 132.438 278.732 132.727 278.138C133.018 277.545 133.423 277.085 133.94 276.756C134.46 276.428 135.065 276.264 135.754 276.264C136.444 276.264 137.047 276.428 137.564 276.756C138.084 277.085 138.489 277.545 138.777 278.138C139.069 278.732 139.214 279.426 139.214 280.222C139.214 281.01 139.069 281.7 138.777 282.29C138.489 282.88 138.084 283.339 137.564 283.667C137.047 283.995 136.444 284.159 135.754 284.159ZM135.754 283.105C136.278 283.105 136.709 282.971 137.047 282.702C137.385 282.434 137.635 282.081 137.798 281.643C137.96 281.206 138.041 280.732 138.041 280.222C138.041 279.711 137.96 279.236 137.798 278.795C137.635 278.354 137.385 277.998 137.047 277.726C136.709 277.454 136.278 277.318 135.754 277.318C135.231 277.318 134.8 277.454 134.462 277.726C134.124 277.998 133.873 278.354 133.711 278.795C133.549 279.236 133.467 279.711 133.467 280.222C133.467 280.732 133.549 281.206 133.711 281.643C133.873 282.081 134.124 282.434 134.462 282.702C134.8 282.971 135.231 283.105 135.754 283.105ZM141.006 284V276.364H142.139V277.517H142.219C142.358 277.139 142.61 276.833 142.974 276.597C143.339 276.362 143.75 276.244 144.207 276.244C144.293 276.244 144.401 276.246 144.53 276.249C144.66 276.253 144.757 276.258 144.824 276.264V277.457C144.784 277.447 144.693 277.433 144.55 277.413C144.411 277.389 144.264 277.378 144.108 277.378C143.737 277.378 143.405 277.456 143.113 277.612C142.825 277.764 142.596 277.976 142.427 278.248C142.262 278.516 142.179 278.823 142.179 279.168V284H141.006ZM148.866 284.159C148.229 284.159 147.667 283.998 147.18 283.677C146.693 283.352 146.312 282.895 146.037 282.305C145.762 281.711 145.624 281.01 145.624 280.202C145.624 279.4 145.762 278.704 146.037 278.114C146.312 277.524 146.695 277.068 147.185 276.746C147.676 276.425 148.242 276.264 148.885 276.264C149.383 276.264 149.775 276.347 150.064 276.513C150.355 276.675 150.577 276.861 150.73 277.07C150.886 277.275 151.007 277.444 151.093 277.577H151.192V273.818H152.366V284H151.232V282.827H151.093C151.007 282.966 150.884 283.142 150.725 283.354C150.566 283.562 150.339 283.75 150.044 283.915C149.749 284.078 149.356 284.159 148.866 284.159ZM149.025 283.105C149.495 283.105 149.893 282.982 150.218 282.737C150.543 282.489 150.79 282.146 150.959 281.708C151.128 281.267 151.212 280.759 151.212 280.182C151.212 279.612 151.129 279.113 150.964 278.685C150.798 278.254 150.553 277.92 150.228 277.681C149.903 277.439 149.502 277.318 149.025 277.318C148.528 277.318 148.113 277.446 147.782 277.701C147.454 277.953 147.207 278.296 147.041 278.73C146.879 279.161 146.797 279.645 146.797 280.182C146.797 280.725 146.88 281.219 147.046 281.663C147.215 282.104 147.464 282.455 147.792 282.717C148.123 282.976 148.534 283.105 149.025 283.105ZM166.967 277H165.734C165.661 276.645 165.534 276.334 165.351 276.065C165.172 275.797 164.954 275.571 164.695 275.389C164.44 275.204 164.157 275.064 163.845 274.972C163.533 274.879 163.209 274.832 162.871 274.832C162.254 274.832 161.696 274.988 161.195 275.3C160.698 275.611 160.302 276.07 160.007 276.677C159.715 277.283 159.569 278.027 159.569 278.909C159.569 279.791 159.715 280.535 160.007 281.141C160.302 281.748 160.698 282.207 161.195 282.518C161.696 282.83 162.254 282.986 162.871 282.986C163.209 282.986 163.533 282.939 163.845 282.847C164.157 282.754 164.44 282.616 164.695 282.434C164.954 282.248 165.172 282.021 165.351 281.753C165.534 281.481 165.661 281.17 165.734 280.818H166.967C166.874 281.339 166.705 281.804 166.46 282.215C166.215 282.626 165.91 282.976 165.545 283.264C165.181 283.549 164.771 283.766 164.317 283.915C163.867 284.065 163.384 284.139 162.871 284.139C162.002 284.139 161.23 283.927 160.554 283.503C159.878 283.079 159.346 282.475 158.958 281.693C158.57 280.911 158.376 279.983 158.376 278.909C158.376 277.835 158.57 276.907 158.958 276.125C159.346 275.343 159.878 274.74 160.554 274.315C161.23 273.891 162.002 273.679 162.871 273.679C163.384 273.679 163.867 273.754 164.317 273.903C164.771 274.052 165.181 274.271 165.545 274.559C165.91 274.844 166.215 275.192 166.46 275.603C166.705 276.011 166.874 276.476 166.967 277ZM171.903 284.159C171.213 284.159 170.608 283.995 170.088 283.667C169.571 283.339 169.167 282.88 168.875 282.29C168.587 281.7 168.442 281.01 168.442 280.222C168.442 279.426 168.587 278.732 168.875 278.138C169.167 277.545 169.571 277.085 170.088 276.756C170.608 276.428 171.213 276.264 171.903 276.264C172.592 276.264 173.195 276.428 173.712 276.756C174.233 277.085 174.637 277.545 174.925 278.138C175.217 278.732 175.363 279.426 175.363 280.222C175.363 281.01 175.217 281.7 174.925 282.29C174.637 282.88 174.233 283.339 173.712 283.667C173.195 283.995 172.592 284.159 171.903 284.159ZM171.903 283.105C172.426 283.105 172.857 282.971 173.195 282.702C173.533 282.434 173.784 282.081 173.946 281.643C174.108 281.206 174.19 280.732 174.19 280.222C174.19 279.711 174.108 279.236 173.946 278.795C173.784 278.354 173.533 277.998 173.195 277.726C172.857 277.454 172.426 277.318 171.903 277.318C171.379 277.318 170.948 277.454 170.61 277.726C170.272 277.998 170.022 278.354 169.859 278.795C169.697 279.236 169.616 279.711 169.616 280.222C169.616 280.732 169.697 281.206 169.859 281.643C170.022 282.081 170.272 282.434 170.61 282.702C170.948 282.971 171.379 283.105 171.903 283.105ZM181.966 280.878V276.364H183.14V284H181.966V282.707H181.887C181.708 283.095 181.43 283.425 181.052 283.697C180.674 283.965 180.197 284.099 179.62 284.099C179.143 284.099 178.718 283.995 178.347 283.786C177.976 283.574 177.684 283.256 177.472 282.832C177.26 282.404 177.154 281.866 177.154 281.216V276.364H178.327V281.136C178.327 281.693 178.483 282.137 178.795 282.469C179.109 282.8 179.51 282.966 179.998 282.966C180.289 282.966 180.586 282.891 180.888 282.742C181.193 282.593 181.448 282.364 181.653 282.056C181.862 281.748 181.966 281.355 181.966 280.878ZM186.462 279.406V284H185.289V276.364H186.422V277.557H186.522C186.701 277.169 186.972 276.857 187.337 276.622C187.702 276.384 188.172 276.264 188.749 276.264C189.266 276.264 189.718 276.37 190.106 276.582C190.494 276.791 190.796 277.109 191.011 277.537C191.226 277.961 191.334 278.498 191.334 279.148V284H190.161V279.227C190.161 278.627 190.005 278.16 189.694 277.825C189.382 277.487 188.954 277.318 188.411 277.318C188.036 277.318 187.702 277.399 187.407 277.562C187.115 277.724 186.885 277.961 186.716 278.273C186.547 278.584 186.462 278.962 186.462 279.406ZM196.799 276.364V277.358H192.842V276.364H196.799ZM193.995 274.534H195.169V281.812C195.169 282.144 195.217 282.393 195.313 282.558C195.412 282.721 195.538 282.83 195.691 282.886C195.846 282.939 196.01 282.966 196.183 282.966C196.312 282.966 196.418 282.959 196.501 282.946C196.584 282.929 196.65 282.916 196.7 282.906L196.938 283.96C196.859 283.99 196.748 284.02 196.605 284.05C196.463 284.083 196.282 284.099 196.063 284.099C195.732 284.099 195.407 284.028 195.089 283.886C194.774 283.743 194.512 283.526 194.303 283.234C194.098 282.943 193.995 282.575 193.995 282.131V274.534Z" fill="#1A1A1A"/>
<path d="M132.534 309.364V321H130.773V311.125H130.705L127.92 312.943V311.261L130.824 309.364H132.534ZM140.097 309.364V321H138.335V311.125H138.267L135.483 312.943V311.261L138.386 309.364H140.097ZM147.295 321.193C146.398 321.189 145.631 320.953 144.994 320.483C144.358 320.013 143.871 319.33 143.534 318.432C143.197 317.534 143.028 316.453 143.028 315.188C143.028 313.926 143.197 312.848 143.534 311.955C143.875 311.061 144.364 310.379 145 309.909C145.64 309.439 146.405 309.205 147.295 309.205C148.186 309.205 148.949 309.441 149.585 309.915C150.222 310.384 150.708 311.066 151.045 311.96C151.386 312.85 151.557 313.926 151.557 315.188C151.557 316.456 151.388 317.54 151.051 318.438C150.714 319.331 150.227 320.015 149.591 320.489C148.955 320.958 148.189 321.193 147.295 321.193ZM147.295 319.676C148.083 319.676 148.699 319.292 149.142 318.523C149.589 317.754 149.812 316.642 149.812 315.188C149.812 314.222 149.71 313.405 149.506 312.739C149.305 312.068 149.015 311.561 148.636 311.216C148.261 310.867 147.814 310.693 147.295 310.693C146.511 310.693 145.896 311.08 145.449 311.852C145.002 312.625 144.777 313.737 144.773 315.188C144.773 316.157 144.873 316.977 145.074 317.648C145.278 318.314 145.568 318.82 145.943 319.165C146.318 319.506 146.769 319.676 147.295 319.676ZM157.624 321.193C156.726 321.189 155.959 320.953 155.322 320.483C154.686 320.013 154.199 319.33 153.862 318.432C153.525 317.534 153.357 316.453 153.357 315.188C153.357 313.926 153.525 312.848 153.862 311.955C154.203 311.061 154.692 310.379 155.328 309.909C155.968 309.439 156.733 309.205 157.624 309.205C158.514 309.205 159.277 309.441 159.913 309.915C160.55 310.384 161.036 311.066 161.374 311.96C161.714 312.85 161.885 313.926 161.885 315.188C161.885 316.456 161.716 317.54 161.379 318.438C161.042 319.331 160.555 320.015 159.919 320.489C159.283 320.958 158.518 321.193 157.624 321.193ZM157.624 319.676C158.411 319.676 159.027 319.292 159.47 318.523C159.917 317.754 160.141 316.642 160.141 315.188C160.141 314.222 160.038 313.405 159.834 312.739C159.633 312.068 159.343 311.561 158.964 311.216C158.589 310.867 158.143 310.693 157.624 310.693C156.839 310.693 156.224 311.08 155.777 311.852C155.33 312.625 155.105 313.737 155.101 315.188C155.101 316.157 155.201 316.977 155.402 317.648C155.607 318.314 155.896 318.82 156.271 319.165C156.646 319.506 157.097 319.676 157.624 319.676ZM169.065 314.443V315.92H163.906V314.443H169.065ZM179.956 309.364V321H178.195V311.125H178.126L175.342 312.943V311.261L178.246 309.364H179.956ZM186.945 321.159C186.232 321.159 185.592 321.023 185.024 320.75C184.46 320.473 184.009 320.095 183.672 319.614C183.335 319.133 183.155 318.583 183.132 317.966H184.837C184.878 318.466 185.1 318.877 185.501 319.199C185.903 319.521 186.384 319.682 186.945 319.682C187.392 319.682 187.787 319.58 188.132 319.375C188.481 319.167 188.753 318.881 188.95 318.517C189.151 318.153 189.251 317.739 189.251 317.273C189.251 316.799 189.149 316.377 188.945 316.006C188.74 315.634 188.458 315.343 188.098 315.131C187.742 314.919 187.333 314.811 186.871 314.807C186.518 314.807 186.164 314.867 185.808 314.989C185.452 315.11 185.164 315.269 184.945 315.466L183.337 315.227L183.99 309.364H190.388V310.869H185.45L185.081 314.125H185.149C185.376 313.905 185.678 313.722 186.053 313.574C186.431 313.426 186.837 313.352 187.268 313.352C187.977 313.352 188.607 313.521 189.161 313.858C189.717 314.195 190.155 314.655 190.473 315.239C190.795 315.818 190.954 316.485 190.95 317.239C190.954 317.992 190.784 318.665 190.439 319.256C190.098 319.847 189.625 320.312 189.018 320.653C188.416 320.991 187.725 321.159 186.945 321.159ZM197.077 321.193C196.179 321.189 195.412 320.953 194.776 320.483C194.139 320.013 193.652 319.33 193.315 318.432C192.978 317.534 192.81 316.453 192.81 315.188C192.81 313.926 192.978 312.848 193.315 311.955C193.656 311.061 194.145 310.379 194.781 309.909C195.421 309.439 196.187 309.205 197.077 309.205C197.967 309.205 198.73 309.441 199.366 309.915C200.003 310.384 200.49 311.066 200.827 311.96C201.168 312.85 201.338 313.926 201.338 315.188C201.338 316.456 201.17 317.54 200.832 318.438C200.495 319.331 200.009 320.015 199.372 320.489C198.736 320.958 197.971 321.193 197.077 321.193ZM197.077 319.676C197.865 319.676 198.48 319.292 198.923 318.523C199.37 317.754 199.594 316.642 199.594 315.188C199.594 314.222 199.491 313.405 199.287 312.739C199.086 312.068 198.796 311.561 198.418 311.216C198.043 310.867 197.596 310.693 197.077 310.693C196.293 310.693 195.677 311.08 195.23 311.852C194.783 312.625 194.558 313.737 194.554 315.188C194.554 316.157 194.654 316.977 194.855 317.648C195.06 318.314 195.349 318.82 195.724 319.165C196.099 319.506 196.55 319.676 197.077 319.676ZM207.405 321.193C206.507 321.189 205.74 320.953 205.104 320.483C204.467 320.013 203.981 319.33 203.643 318.432C203.306 317.534 203.138 316.453 203.138 315.188C203.138 313.926 203.306 312.848 203.643 311.955C203.984 311.061 204.473 310.379 205.109 309.909C205.75 309.439 206.515 309.205 207.405 309.205C208.295 309.205 209.058 309.441 209.695 309.915C210.331 310.384 210.818 311.066 211.155 311.96C211.496 312.85 211.666 313.926 211.666 315.188C211.666 316.456 211.498 317.54 211.161 318.438C210.823 319.331 210.337 320.015 209.7 320.489C209.064 320.958 208.299 321.193 207.405 321.193ZM207.405 319.676C208.193 319.676 208.808 319.292 209.251 318.523C209.698 317.754 209.922 316.642 209.922 315.188C209.922 314.222 209.82 313.405 209.615 312.739C209.414 312.068 209.125 311.561 208.746 311.216C208.371 310.867 207.924 310.693 207.405 310.693C206.621 310.693 206.005 311.08 205.558 311.852C205.111 312.625 204.886 313.737 204.882 315.188C204.882 316.157 204.982 316.977 205.183 317.648C205.388 318.314 205.678 318.82 206.053 319.165C206.428 319.506 206.878 319.676 207.405 319.676Z" fill="#1A1A1A"/>
<path d="M372.3 317.3L369.7 314.7C369.384 314.383 369.313 314.021 369.488 313.613C369.663 313.204 369.975 313 370.425 313H375.575C376.025 313 376.338 313.204 376.512 313.613C376.688 314.021 376.617 314.383 376.3 314.7L373.7 317.3C373.6 317.4 373.492 317.475 373.375 317.525C373.259 317.575 373.134 317.6 373 317.6C372.867 317.6 372.742 317.575 372.625 317.525C372.509 317.475 372.4 317.4 372.3 317.3Z" fill="#1A1A1A"/>
<rect x="119" y="293" width="276" height="44" rx="5" stroke="#1A1A1A" stroke-opacity="0.5" stroke-width="0.5"/>
<path d="M132.411 380.69V381.969H119.371V380.69H132.411ZM132.411 383.452V384.73H119.371V383.452H132.411ZM131.177 375.909V389H129.355L122.701 379.399H122.586V389H120.604V375.909H122.439L129.093 385.523H129.214V375.909H131.177ZM138.598 389.179C137.72 389.179 136.936 389.028 136.246 388.725C135.56 388.423 135.016 388.003 134.616 387.466C134.219 386.925 134.006 386.298 133.977 385.587H135.984C136.009 385.974 136.139 386.311 136.374 386.597C136.612 386.878 136.923 387.095 137.307 387.249C137.69 387.402 138.116 387.479 138.585 387.479C139.101 387.479 139.557 387.389 139.953 387.21C140.354 387.031 140.667 386.782 140.893 386.462C141.119 386.138 141.232 385.766 141.232 385.344C141.232 384.905 141.119 384.519 140.893 384.187C140.671 383.85 140.345 383.586 139.915 383.394C139.489 383.202 138.973 383.107 138.368 383.107H137.262V381.496H138.368C138.854 381.496 139.28 381.408 139.646 381.234C140.017 381.059 140.307 380.816 140.516 380.505C140.724 380.19 140.829 379.821 140.829 379.399C140.829 378.994 140.737 378.643 140.554 378.344C140.375 378.042 140.119 377.805 139.787 377.635C139.459 377.464 139.071 377.379 138.624 377.379C138.197 377.379 137.799 377.458 137.428 377.616C137.062 377.769 136.763 377.991 136.533 378.281C136.303 378.566 136.18 378.909 136.163 379.31H134.251C134.273 378.602 134.482 377.98 134.878 377.443C135.278 376.906 135.807 376.487 136.463 376.184C137.119 375.881 137.848 375.73 138.649 375.73C139.489 375.73 140.213 375.894 140.822 376.222C141.436 376.546 141.909 376.979 142.241 377.52C142.578 378.061 142.744 378.653 142.74 379.297C142.744 380.03 142.54 380.652 142.126 381.163C141.717 381.675 141.172 382.018 140.49 382.192V382.295C141.359 382.427 142.033 382.772 142.51 383.33C142.991 383.888 143.23 384.581 143.226 385.408C143.23 386.128 143.03 386.773 142.625 387.344C142.224 387.915 141.677 388.365 140.982 388.693C140.288 389.017 139.493 389.179 138.598 389.179ZM150.2 389.217C149.19 389.213 148.327 388.947 147.611 388.418C146.895 387.89 146.347 387.121 145.968 386.111C145.589 385.101 145.399 383.884 145.399 382.461C145.399 381.042 145.589 379.83 145.968 378.824C146.352 377.818 146.901 377.051 147.617 376.523C148.337 375.994 149.198 375.73 150.2 375.73C151.201 375.73 152.06 375.996 152.776 376.529C153.491 377.058 154.039 377.825 154.418 378.83C154.802 379.832 154.994 381.042 154.994 382.461C154.994 383.888 154.804 385.107 154.425 386.117C154.045 387.123 153.498 387.892 152.782 388.425C152.066 388.953 151.205 389.217 150.2 389.217ZM150.2 387.511C151.086 387.511 151.778 387.078 152.277 386.213C152.78 385.348 153.031 384.097 153.031 382.461C153.031 381.374 152.916 380.456 152.686 379.706C152.46 378.952 152.134 378.381 151.708 377.993C151.286 377.601 150.783 377.405 150.2 377.405C149.317 377.405 148.625 377.839 148.122 378.709C147.619 379.578 147.366 380.829 147.362 382.461C147.362 383.552 147.474 384.474 147.7 385.229C147.93 385.979 148.256 386.548 148.678 386.935C149.1 387.319 149.607 387.511 150.2 387.511ZM159.299 387.21L159.203 387.907C159.139 388.418 159.03 388.951 158.877 389.505C158.728 390.063 158.572 390.581 158.41 391.058C158.252 391.536 158.123 391.915 158.02 392.196H156.665C156.721 391.932 156.797 391.574 156.895 391.122C156.993 390.675 157.089 390.174 157.183 389.62C157.277 389.066 157.347 388.501 157.394 387.926L157.458 387.21H159.299ZM166.055 389.217C165.045 389.213 164.182 388.947 163.466 388.418C162.75 387.89 162.203 387.121 161.824 386.111C161.444 385.101 161.255 383.884 161.255 382.461C161.255 381.042 161.444 379.83 161.824 378.824C162.207 377.818 162.757 377.051 163.473 376.523C164.193 375.994 165.054 375.73 166.055 375.73C167.056 375.73 167.915 375.996 168.631 376.529C169.347 377.058 169.895 377.825 170.274 378.83C170.657 379.832 170.849 381.042 170.849 382.461C170.849 383.888 170.659 385.107 170.28 386.117C169.901 387.123 169.353 387.892 168.637 388.425C167.922 388.953 167.061 389.217 166.055 389.217ZM166.055 387.511C166.941 387.511 167.634 387.078 168.132 386.213C168.635 385.348 168.887 384.097 168.887 382.461C168.887 381.374 168.772 380.456 168.542 379.706C168.316 378.952 167.99 378.381 167.564 377.993C167.142 377.601 166.639 377.405 166.055 377.405C165.173 377.405 164.48 377.839 163.978 378.709C163.475 379.578 163.221 380.829 163.217 382.461C163.217 383.552 163.33 384.474 163.556 385.229C163.786 385.979 164.112 386.548 164.534 386.935C164.956 387.319 165.463 387.511 166.055 387.511ZM177.674 389.217C176.664 389.213 175.801 388.947 175.085 388.418C174.369 387.89 173.822 387.121 173.443 386.111C173.063 385.101 172.874 383.884 172.874 382.461C172.874 381.042 173.063 379.83 173.443 378.824C173.826 377.818 174.376 377.051 175.092 376.523C175.812 375.994 176.673 375.73 177.674 375.73C178.676 375.73 179.534 375.996 180.25 376.529C180.966 377.058 181.514 377.825 181.893 378.83C182.276 379.832 182.468 381.042 182.468 382.461C182.468 383.888 182.279 385.107 181.899 386.117C181.52 387.123 180.972 387.892 180.257 388.425C179.541 388.953 178.68 389.217 177.674 389.217ZM177.674 387.511C178.561 387.511 179.253 387.078 179.752 386.213C180.254 385.348 180.506 384.097 180.506 382.461C180.506 381.374 180.391 380.456 180.161 379.706C179.935 378.952 179.609 378.381 179.183 377.993C178.761 377.601 178.258 377.405 177.674 377.405C176.792 377.405 176.1 377.839 175.597 378.709C175.094 379.578 174.84 380.829 174.836 382.461C174.836 383.552 174.949 384.474 175.175 385.229C175.405 385.979 175.731 386.548 176.153 386.935C176.575 387.319 177.082 387.511 177.674 387.511ZM189.293 389.217C188.283 389.213 187.42 388.947 186.705 388.418C185.989 387.89 185.441 387.121 185.062 386.111C184.683 385.101 184.493 383.884 184.493 382.461C184.493 381.042 184.683 379.83 185.062 378.824C185.445 377.818 185.995 377.051 186.711 376.523C187.431 375.994 188.292 375.73 189.293 375.73C190.295 375.73 191.153 375.996 191.869 376.529C192.585 377.058 193.133 377.825 193.512 378.83C193.896 379.832 194.087 381.042 194.087 382.461C194.087 383.888 193.898 385.107 193.518 386.117C193.139 387.123 192.592 387.892 191.876 388.425C191.16 388.953 190.299 389.217 189.293 389.217ZM189.293 387.511C190.18 387.511 190.872 387.078 191.371 386.213C191.874 385.348 192.125 384.097 192.125 382.461C192.125 381.374 192.01 380.456 191.78 379.706C191.554 378.952 191.228 378.381 190.802 377.993C190.38 377.601 189.877 377.405 189.293 377.405C188.411 377.405 187.719 377.839 187.216 378.709C186.713 379.578 186.46 380.829 186.455 382.461C186.455 383.552 186.568 384.474 186.794 385.229C187.024 385.979 187.35 386.548 187.772 386.935C188.194 387.319 188.701 387.511 189.293 387.511Z" fill="#1A1A1A"/>
<path d="M229 382C229 368.745 239.745 358 253 358H371C384.255 358 395 368.745 395 382C395 395.255 384.255 406 371 406H253C239.745 406 229 395.255 229 382Z" fill="url(#paint2_linear_3300_6652)"/>
<path d="M258.278 388V376.364H262.426C263.331 376.364 264.081 376.528 264.676 376.858C265.271 377.187 265.716 377.638 266.011 378.21C266.307 378.778 266.455 379.419 266.455 380.131C266.455 380.847 266.305 381.491 266.006 382.062C265.71 382.631 265.263 383.081 264.665 383.415C264.07 383.744 263.322 383.909 262.42 383.909H259.568V382.42H262.261C262.833 382.42 263.297 382.322 263.653 382.125C264.009 381.924 264.271 381.652 264.438 381.307C264.604 380.962 264.688 380.57 264.688 380.131C264.688 379.691 264.604 379.301 264.438 378.96C264.271 378.619 264.008 378.352 263.648 378.159C263.292 377.966 262.822 377.869 262.239 377.869H260.034V388H258.278ZM270.075 376.364V388H268.376V376.364H270.075ZM274.901 388.193C274.348 388.193 273.848 388.091 273.401 387.886C272.954 387.678 272.599 387.377 272.338 386.983C272.08 386.589 271.952 386.106 271.952 385.534C271.952 385.042 272.046 384.636 272.236 384.318C272.425 384 272.681 383.748 273.003 383.562C273.325 383.377 273.685 383.237 274.082 383.142C274.48 383.047 274.885 382.975 275.298 382.926C275.821 382.866 276.245 382.816 276.571 382.778C276.897 382.737 277.134 382.67 277.281 382.58C277.429 382.489 277.503 382.341 277.503 382.136V382.097C277.503 381.6 277.363 381.216 277.082 380.943C276.806 380.67 276.393 380.534 275.844 380.534C275.272 380.534 274.821 380.661 274.491 380.915C274.166 381.165 273.94 381.443 273.815 381.75L272.219 381.386C272.408 380.856 272.685 380.428 273.048 380.102C273.416 379.773 273.838 379.534 274.315 379.386C274.793 379.235 275.295 379.159 275.821 379.159C276.17 379.159 276.539 379.201 276.929 379.284C277.323 379.364 277.69 379.511 278.031 379.727C278.376 379.943 278.658 380.252 278.878 380.653C279.098 381.051 279.207 381.568 279.207 382.205V388H277.548V386.807H277.48C277.37 387.027 277.205 387.242 276.986 387.455C276.766 387.667 276.484 387.843 276.139 387.983C275.795 388.123 275.382 388.193 274.901 388.193ZM275.27 386.83C275.74 386.83 276.141 386.737 276.474 386.551C276.812 386.366 277.067 386.123 277.241 385.824C277.42 385.521 277.509 385.197 277.509 384.852V383.727C277.448 383.788 277.33 383.845 277.156 383.898C276.986 383.947 276.791 383.991 276.571 384.028C276.351 384.062 276.137 384.095 275.929 384.125C275.721 384.152 275.546 384.174 275.406 384.193C275.077 384.235 274.776 384.305 274.503 384.403C274.234 384.502 274.018 384.644 273.855 384.83C273.696 385.011 273.616 385.254 273.616 385.557C273.616 385.977 273.772 386.295 274.082 386.511C274.393 386.723 274.789 386.83 275.27 386.83ZM285.146 388.176C284.302 388.176 283.574 387.985 282.964 387.602C282.358 387.216 281.893 386.684 281.567 386.006C281.241 385.328 281.078 384.551 281.078 383.676C281.078 382.79 281.245 382.008 281.578 381.33C281.911 380.648 282.381 380.116 282.987 379.733C283.593 379.35 284.307 379.159 285.129 379.159C285.792 379.159 286.383 379.282 286.902 379.528C287.421 379.771 287.839 380.112 288.158 380.551C288.48 380.991 288.671 381.504 288.732 382.091H287.078C286.987 381.682 286.779 381.33 286.453 381.034C286.131 380.739 285.699 380.591 285.158 380.591C284.684 380.591 284.269 380.716 283.913 380.966C283.561 381.212 283.286 381.564 283.089 382.023C282.893 382.477 282.794 383.015 282.794 383.636C282.794 384.273 282.891 384.822 283.084 385.284C283.277 385.746 283.55 386.104 283.902 386.358C284.258 386.612 284.677 386.739 285.158 386.739C285.48 386.739 285.771 386.68 286.033 386.562C286.298 386.441 286.519 386.269 286.697 386.045C286.879 385.822 287.006 385.553 287.078 385.239H288.732C288.671 385.803 288.487 386.307 288.18 386.75C287.874 387.193 287.463 387.542 286.947 387.795C286.436 388.049 285.836 388.176 285.146 388.176ZM294.31 388.176C293.45 388.176 292.709 387.992 292.088 387.625C291.471 387.254 290.993 386.733 290.656 386.062C290.323 385.388 290.156 384.598 290.156 383.693C290.156 382.799 290.323 382.011 290.656 381.33C290.993 380.648 291.463 380.116 292.065 379.733C292.671 379.35 293.38 379.159 294.19 379.159C294.683 379.159 295.16 379.241 295.622 379.403C296.084 379.566 296.499 379.822 296.866 380.17C297.234 380.519 297.524 380.972 297.736 381.528C297.948 382.081 298.054 382.754 298.054 383.545V384.148H291.116V382.875H296.389C296.389 382.428 296.298 382.032 296.116 381.688C295.935 381.339 295.679 381.064 295.349 380.864C295.024 380.663 294.641 380.562 294.202 380.562C293.724 380.562 293.308 380.68 292.952 380.915C292.599 381.146 292.327 381.449 292.134 381.824C291.944 382.195 291.849 382.598 291.849 383.034V384.028C291.849 384.612 291.952 385.108 292.156 385.517C292.365 385.926 292.654 386.239 293.026 386.455C293.397 386.667 293.83 386.773 294.327 386.773C294.649 386.773 294.942 386.727 295.207 386.636C295.473 386.542 295.702 386.402 295.895 386.216C296.088 386.03 296.236 385.801 296.338 385.528L297.946 385.818C297.817 386.292 297.586 386.706 297.253 387.062C296.923 387.415 296.509 387.689 296.009 387.886C295.512 388.08 294.946 388.176 294.31 388.176ZM306.713 388.193C306.16 388.193 305.66 388.091 305.213 387.886C304.766 387.678 304.412 387.377 304.151 386.983C303.893 386.589 303.764 386.106 303.764 385.534C303.764 385.042 303.859 384.636 304.048 384.318C304.238 384 304.493 383.748 304.815 383.562C305.137 383.377 305.497 383.237 305.895 383.142C306.293 383.047 306.698 382.975 307.111 382.926C307.634 382.866 308.058 382.816 308.384 382.778C308.709 382.737 308.946 382.67 309.094 382.58C309.241 382.489 309.315 382.341 309.315 382.136V382.097C309.315 381.6 309.175 381.216 308.895 380.943C308.618 380.67 308.205 380.534 307.656 380.534C307.084 380.534 306.634 380.661 306.304 380.915C305.978 381.165 305.753 381.443 305.628 381.75L304.031 381.386C304.221 380.856 304.497 380.428 304.861 380.102C305.228 379.773 305.651 379.534 306.128 379.386C306.605 379.235 307.107 379.159 307.634 379.159C307.982 379.159 308.351 379.201 308.741 379.284C309.135 379.364 309.503 379.511 309.844 379.727C310.188 379.943 310.471 380.252 310.69 380.653C310.91 381.051 311.02 381.568 311.02 382.205V388H309.361V386.807H309.293C309.183 387.027 309.018 387.242 308.798 387.455C308.579 387.667 308.296 387.843 307.952 387.983C307.607 388.123 307.194 388.193 306.713 388.193ZM307.082 386.83C307.552 386.83 307.954 386.737 308.287 386.551C308.624 386.366 308.88 386.123 309.054 385.824C309.232 385.521 309.321 385.197 309.321 384.852V383.727C309.26 383.788 309.143 383.845 308.969 383.898C308.798 383.947 308.603 383.991 308.384 384.028C308.164 384.062 307.95 384.095 307.741 384.125C307.533 384.152 307.359 384.174 307.219 384.193C306.889 384.235 306.588 384.305 306.315 384.403C306.046 384.502 305.83 384.644 305.668 384.83C305.509 385.011 305.429 385.254 305.429 385.557C305.429 385.977 305.584 386.295 305.895 386.511C306.205 386.723 306.601 386.83 307.082 386.83ZM314.982 382.818V388H313.283V379.273H314.913V380.693H315.021C315.222 380.231 315.536 379.86 315.964 379.58C316.396 379.299 316.94 379.159 317.595 379.159C318.19 379.159 318.711 379.284 319.158 379.534C319.605 379.78 319.951 380.148 320.197 380.636C320.444 381.125 320.567 381.729 320.567 382.449V388H318.868V382.653C318.868 382.021 318.703 381.527 318.374 381.17C318.044 380.811 317.591 380.631 317.016 380.631C316.622 380.631 316.271 380.716 315.964 380.886C315.661 381.057 315.421 381.307 315.243 381.636C315.069 381.962 314.982 382.356 314.982 382.818ZM330.756 388.176C329.938 388.176 329.223 387.989 328.614 387.614C328.004 387.239 327.53 386.714 327.193 386.04C326.856 385.366 326.688 384.578 326.688 383.676C326.688 382.771 326.856 381.979 327.193 381.301C327.53 380.623 328.004 380.097 328.614 379.722C329.223 379.347 329.938 379.159 330.756 379.159C331.574 379.159 332.288 379.347 332.898 379.722C333.508 380.097 333.981 380.623 334.318 381.301C334.655 381.979 334.824 382.771 334.824 383.676C334.824 384.578 334.655 385.366 334.318 386.04C333.981 386.714 333.508 387.239 332.898 387.614C332.288 387.989 331.574 388.176 330.756 388.176ZM330.761 386.75C331.292 386.75 331.731 386.61 332.08 386.33C332.428 386.049 332.686 385.676 332.852 385.21C333.023 384.744 333.108 384.231 333.108 383.67C333.108 383.114 333.023 382.602 332.852 382.136C332.686 381.667 332.428 381.29 332.08 381.006C331.731 380.722 331.292 380.58 330.761 380.58C330.227 380.58 329.784 380.722 329.432 381.006C329.083 381.29 328.824 381.667 328.653 382.136C328.487 382.602 328.403 383.114 328.403 383.67C328.403 384.231 328.487 384.744 328.653 385.21C328.824 385.676 329.083 386.049 329.432 386.33C329.784 386.61 330.227 386.75 330.761 386.75ZM336.72 388V379.273H338.362V380.659H338.453C338.612 380.189 338.893 379.82 339.294 379.551C339.699 379.278 340.158 379.142 340.669 379.142C340.775 379.142 340.9 379.146 341.044 379.153C341.192 379.161 341.307 379.17 341.391 379.182V380.807C341.322 380.788 341.201 380.767 341.027 380.744C340.853 380.718 340.679 380.705 340.504 380.705C340.103 380.705 339.745 380.79 339.43 380.96C339.12 381.127 338.874 381.36 338.692 381.659C338.51 381.955 338.419 382.292 338.419 382.67V388H336.72ZM345.815 388.17C345.111 388.17 344.482 387.991 343.929 387.631C343.38 387.267 342.948 386.75 342.634 386.08C342.323 385.405 342.168 384.597 342.168 383.653C342.168 382.71 342.325 381.903 342.639 381.233C342.957 380.562 343.393 380.049 343.946 379.693C344.499 379.337 345.126 379.159 345.827 379.159C346.368 379.159 346.804 379.25 347.134 379.432C347.467 379.61 347.724 379.818 347.906 380.057C348.092 380.295 348.236 380.506 348.338 380.688H348.44V376.364H350.139V388H348.48V386.642H348.338C348.236 386.828 348.088 387.04 347.895 387.278C347.705 387.517 347.444 387.725 347.111 387.903C346.777 388.081 346.346 388.17 345.815 388.17ZM346.19 386.722C346.679 386.722 347.092 386.593 347.429 386.335C347.77 386.074 348.027 385.712 348.202 385.25C348.38 384.788 348.469 384.25 348.469 383.636C348.469 383.03 348.382 382.5 348.207 382.045C348.033 381.591 347.777 381.237 347.44 380.983C347.103 380.729 346.687 380.602 346.19 380.602C345.679 380.602 345.253 380.735 344.912 381C344.571 381.265 344.313 381.627 344.139 382.085C343.969 382.544 343.884 383.061 343.884 383.636C343.884 384.22 343.971 384.744 344.145 385.21C344.319 385.676 344.577 386.045 344.918 386.318C345.262 386.587 345.687 386.722 346.19 386.722ZM356.325 388.176C355.465 388.176 354.725 387.992 354.104 387.625C353.486 387.254 353.009 386.733 352.672 386.062C352.339 385.388 352.172 384.598 352.172 383.693C352.172 382.799 352.339 382.011 352.672 381.33C353.009 380.648 353.479 380.116 354.081 379.733C354.687 379.35 355.395 379.159 356.206 379.159C356.698 379.159 357.176 379.241 357.638 379.403C358.1 379.566 358.515 379.822 358.882 380.17C359.25 380.519 359.539 380.972 359.751 381.528C359.964 382.081 360.07 382.754 360.07 383.545V384.148H353.132V382.875H358.405C358.405 382.428 358.314 382.032 358.132 381.688C357.95 381.339 357.695 381.064 357.365 380.864C357.039 380.663 356.657 380.562 356.217 380.562C355.74 380.562 355.323 380.68 354.967 380.915C354.615 381.146 354.342 381.449 354.149 381.824C353.96 382.195 353.865 382.598 353.865 383.034V384.028C353.865 384.612 353.967 385.108 354.172 385.517C354.38 385.926 354.67 386.239 355.041 386.455C355.412 386.667 355.846 386.773 356.342 386.773C356.664 386.773 356.958 386.727 357.223 386.636C357.488 386.542 357.717 386.402 357.911 386.216C358.104 386.03 358.251 385.801 358.354 385.528L359.962 385.818C359.833 386.292 359.602 386.706 359.268 387.062C358.939 387.415 358.524 387.689 358.024 387.886C357.528 388.08 356.962 388.176 356.325 388.176ZM361.955 388V379.273H363.597V380.659H363.688C363.847 380.189 364.127 379.82 364.528 379.551C364.934 379.278 365.392 379.142 365.903 379.142C366.009 379.142 366.134 379.146 366.278 379.153C366.426 379.161 366.542 379.17 366.625 379.182V380.807C366.557 380.788 366.436 380.767 366.261 380.744C366.087 380.718 365.913 380.705 365.739 380.705C365.337 380.705 364.979 380.79 364.665 380.96C364.354 381.127 364.108 381.36 363.926 381.659C363.744 381.955 363.653 382.292 363.653 382.67V388H361.955Z" fill="#FAFAFA"/>
<path opacity="0.7" d="M123.375 204H120.233V193.818H123.514C124.502 193.818 125.347 194.022 126.05 194.43C126.752 194.834 127.291 195.416 127.665 196.175C128.04 196.93 128.227 197.835 128.227 198.889C128.227 199.95 128.038 200.863 127.661 201.629C127.283 202.391 126.732 202.978 126.01 203.388C125.287 203.796 124.409 204 123.375 204ZM121.466 202.906H123.295C124.137 202.906 124.835 202.744 125.388 202.419C125.942 202.094 126.355 201.632 126.626 201.032C126.898 200.432 127.034 199.718 127.034 198.889C127.034 198.067 126.9 197.36 126.631 196.766C126.363 196.17 125.962 195.712 125.428 195.394C124.895 195.073 124.23 194.912 123.435 194.912H121.466V202.906ZM133.338 204.159C132.602 204.159 131.968 203.997 131.434 203.672C130.904 203.344 130.494 202.886 130.206 202.3C129.921 201.71 129.778 201.024 129.778 200.241C129.778 199.459 129.921 198.77 130.206 198.173C130.494 197.573 130.895 197.106 131.409 196.771C131.926 196.433 132.529 196.264 133.219 196.264C133.616 196.264 134.009 196.33 134.397 196.463C134.785 196.596 135.138 196.811 135.456 197.109C135.774 197.404 136.028 197.795 136.217 198.283C136.406 198.77 136.5 199.37 136.5 200.082V200.58H130.614V199.565H135.307C135.307 199.134 135.221 198.75 135.048 198.412C134.879 198.074 134.637 197.807 134.322 197.612C134.011 197.416 133.643 197.318 133.219 197.318C132.751 197.318 132.347 197.434 132.006 197.666C131.668 197.895 131.407 198.193 131.225 198.561C131.043 198.929 130.952 199.323 130.952 199.744V200.42C130.952 200.997 131.051 201.486 131.25 201.887C131.452 202.285 131.732 202.588 132.09 202.797C132.448 203.002 132.864 203.105 133.338 203.105C133.646 203.105 133.925 203.062 134.173 202.976C134.425 202.886 134.642 202.754 134.825 202.578C135.007 202.399 135.148 202.177 135.247 201.912L136.381 202.23C136.261 202.615 136.061 202.953 135.779 203.244C135.497 203.533 135.149 203.758 134.735 203.92C134.321 204.08 133.855 204.159 133.338 204.159ZM140.532 204.179C140.048 204.179 139.609 204.088 139.214 203.906C138.82 203.72 138.507 203.453 138.275 203.105C138.043 202.754 137.927 202.33 137.927 201.832C137.927 201.395 138.013 201.04 138.185 200.768C138.358 200.493 138.588 200.278 138.876 200.122C139.165 199.966 139.483 199.85 139.831 199.774C140.182 199.695 140.535 199.632 140.89 199.585C141.354 199.526 141.73 199.481 142.018 199.451C142.31 199.418 142.522 199.363 142.655 199.287C142.791 199.211 142.859 199.078 142.859 198.889V198.849C142.859 198.359 142.724 197.978 142.456 197.706C142.191 197.434 141.788 197.298 141.248 197.298C140.688 197.298 140.249 197.421 139.93 197.666C139.612 197.911 139.388 198.173 139.259 198.452L138.146 198.054C138.344 197.59 138.61 197.229 138.941 196.97C139.276 196.708 139.64 196.526 140.035 196.423C140.433 196.317 140.824 196.264 141.208 196.264C141.453 196.264 141.735 196.294 142.053 196.354C142.375 196.41 142.685 196.528 142.983 196.707C143.285 196.886 143.535 197.156 143.734 197.517C143.933 197.878 144.032 198.362 144.032 198.969V204H142.859V202.966H142.799C142.719 203.132 142.587 203.309 142.401 203.498C142.216 203.687 141.969 203.848 141.661 203.98C141.352 204.113 140.976 204.179 140.532 204.179ZM140.711 203.125C141.175 203.125 141.566 203.034 141.884 202.852C142.206 202.669 142.448 202.434 142.61 202.146C142.776 201.857 142.859 201.554 142.859 201.236V200.162C142.809 200.222 142.7 200.276 142.531 200.326C142.365 200.372 142.173 200.414 141.954 200.45C141.738 200.483 141.528 200.513 141.322 200.54C141.12 200.563 140.956 200.583 140.83 200.599C140.525 200.639 140.24 200.704 139.975 200.793C139.713 200.879 139.501 201.01 139.339 201.186C139.18 201.358 139.1 201.594 139.1 201.892C139.1 202.3 139.251 202.608 139.553 202.817C139.857 203.022 140.244 203.125 140.711 203.125ZM149.057 204.159C148.421 204.159 147.859 203.998 147.372 203.677C146.884 203.352 146.503 202.895 146.228 202.305C145.953 201.711 145.816 201.01 145.816 200.202C145.816 199.4 145.953 198.704 146.228 198.114C146.503 197.524 146.886 197.068 147.377 196.746C147.867 196.425 148.434 196.264 149.077 196.264C149.574 196.264 149.967 196.347 150.255 196.513C150.547 196.675 150.769 196.861 150.921 197.07C151.077 197.275 151.198 197.444 151.284 197.577H151.384V193.818H152.557V204H151.423V202.827H151.284C151.198 202.966 151.075 203.142 150.916 203.354C150.757 203.562 150.53 203.75 150.235 203.915C149.94 204.078 149.548 204.159 149.057 204.159ZM149.216 203.105C149.687 203.105 150.084 202.982 150.409 202.737C150.734 202.489 150.981 202.146 151.15 201.708C151.319 201.267 151.404 200.759 151.404 200.182C151.404 199.612 151.321 199.113 151.155 198.685C150.989 198.254 150.744 197.92 150.419 197.681C150.094 197.439 149.693 197.318 149.216 197.318C148.719 197.318 148.305 197.446 147.973 197.701C147.645 197.953 147.398 198.296 147.232 198.73C147.07 199.161 146.989 199.645 146.989 200.182C146.989 200.725 147.072 201.219 147.237 201.663C147.406 202.104 147.655 202.455 147.983 202.717C148.315 202.976 148.726 203.105 149.216 203.105ZM156.042 193.818V204H154.869V193.818H156.042ZM158.191 204V196.364H159.364V204H158.191ZM158.788 195.091C158.559 195.091 158.362 195.013 158.196 194.857C158.034 194.701 157.952 194.514 157.952 194.295C157.952 194.077 158.034 193.889 158.196 193.734C158.362 193.578 158.559 193.5 158.788 193.5C159.016 193.5 159.212 193.578 159.374 193.734C159.54 193.889 159.623 194.077 159.623 194.295C159.623 194.514 159.54 194.701 159.374 194.857C159.212 195.013 159.016 195.091 158.788 195.091ZM162.687 199.406V204H161.513V196.364H162.647V197.557H162.746C162.925 197.169 163.197 196.857 163.562 196.622C163.926 196.384 164.397 196.264 164.974 196.264C165.491 196.264 165.943 196.37 166.331 196.582C166.719 196.791 167.02 197.109 167.236 197.537C167.451 197.961 167.559 198.498 167.559 199.148V204H166.385V199.227C166.385 198.627 166.23 198.16 165.918 197.825C165.607 197.487 165.179 197.318 164.635 197.318C164.261 197.318 163.926 197.399 163.631 197.562C163.34 197.724 163.109 197.961 162.94 198.273C162.771 198.584 162.687 198.962 162.687 199.406ZM172.904 204.159C172.169 204.159 171.534 203.997 171 203.672C170.47 203.344 170.061 202.886 169.772 202.3C169.487 201.71 169.345 201.024 169.345 200.241C169.345 199.459 169.487 198.77 169.772 198.173C170.061 197.573 170.462 197.106 170.975 196.771C171.493 196.433 172.096 196.264 172.785 196.264C173.183 196.264 173.576 196.33 173.963 196.463C174.351 196.596 174.704 196.811 175.022 197.109C175.341 197.404 175.594 197.795 175.783 198.283C175.972 198.77 176.066 199.37 176.066 200.082V200.58H170.18V199.565H174.873C174.873 199.134 174.787 198.75 174.615 198.412C174.446 198.074 174.204 197.807 173.889 197.612C173.577 197.416 173.209 197.318 172.785 197.318C172.318 197.318 171.913 197.434 171.572 197.666C171.234 197.895 170.974 198.193 170.792 198.561C170.609 198.929 170.518 199.323 170.518 199.744V200.42C170.518 200.997 170.618 201.486 170.816 201.887C171.019 202.285 171.299 202.588 171.657 202.797C172.015 203.002 172.431 203.105 172.904 203.105C173.213 203.105 173.491 203.062 173.74 202.976C173.992 202.886 174.209 202.754 174.391 202.578C174.573 202.399 174.714 202.177 174.814 201.912L175.947 202.23C175.828 202.615 175.627 202.953 175.346 203.244C175.064 203.533 174.716 203.758 174.301 203.92C173.887 204.08 173.422 204.159 172.904 204.159Z" fill="#1A1A1A"/>
<path d="M128.119 241V239.727L132.057 235.648C132.477 235.205 132.824 234.816 133.097 234.483C133.373 234.146 133.58 233.826 133.716 233.523C133.852 233.22 133.92 232.898 133.92 232.557C133.92 232.17 133.83 231.837 133.648 231.557C133.466 231.273 133.218 231.055 132.903 230.903C132.589 230.748 132.235 230.67 131.841 230.67C131.424 230.67 131.061 230.756 130.75 230.926C130.439 231.097 130.201 231.337 130.034 231.648C129.867 231.958 129.784 232.322 129.784 232.739H128.108C128.108 232.03 128.271 231.411 128.597 230.881C128.922 230.35 129.369 229.939 129.938 229.648C130.506 229.352 131.152 229.205 131.875 229.205C132.606 229.205 133.25 229.35 133.807 229.642C134.367 229.93 134.805 230.324 135.119 230.824C135.434 231.32 135.591 231.881 135.591 232.506C135.591 232.938 135.509 233.36 135.347 233.773C135.188 234.186 134.909 234.646 134.511 235.153C134.114 235.657 133.561 236.269 132.852 236.989L130.54 239.409V239.494H135.778V241H128.119ZM143.097 234.443V235.92H137.938V234.443H143.097ZM149.233 241.159C148.453 241.159 147.756 241.025 147.142 240.756C146.532 240.487 146.049 240.114 145.693 239.636C145.341 239.155 145.152 238.598 145.125 237.966H146.909C146.932 238.311 147.047 238.61 147.256 238.864C147.468 239.114 147.744 239.307 148.085 239.443C148.426 239.58 148.805 239.648 149.222 239.648C149.68 239.648 150.085 239.568 150.438 239.409C150.794 239.25 151.072 239.028 151.273 238.744C151.473 238.456 151.574 238.125 151.574 237.75C151.574 237.36 151.473 237.017 151.273 236.722C151.076 236.422 150.786 236.187 150.403 236.017C150.025 235.847 149.566 235.761 149.028 235.761H148.045V234.33H149.028C149.46 234.33 149.839 234.252 150.165 234.097C150.494 233.941 150.752 233.725 150.938 233.449C151.123 233.169 151.216 232.841 151.216 232.466C151.216 232.106 151.134 231.794 150.972 231.528C150.813 231.259 150.585 231.049 150.29 230.898C149.998 230.746 149.653 230.67 149.256 230.67C148.877 230.67 148.523 230.741 148.193 230.881C147.867 231.017 147.602 231.214 147.398 231.472C147.193 231.725 147.083 232.03 147.068 232.386H145.369C145.388 231.758 145.574 231.205 145.926 230.727C146.282 230.25 146.752 229.877 147.335 229.608C147.919 229.339 148.566 229.205 149.278 229.205C150.025 229.205 150.669 229.35 151.21 229.642C151.756 229.93 152.176 230.314 152.472 230.795C152.771 231.277 152.919 231.803 152.915 232.375C152.919 233.027 152.737 233.58 152.369 234.034C152.006 234.489 151.521 234.794 150.915 234.949V235.04C151.688 235.157 152.286 235.464 152.71 235.96C153.138 236.456 153.35 237.072 153.347 237.807C153.35 238.447 153.172 239.021 152.812 239.528C152.456 240.036 151.97 240.436 151.352 240.727C150.735 241.015 150.028 241.159 149.233 241.159ZM161.643 241L159.075 232.273H160.831L162.541 238.682H162.626L164.342 232.273H166.098L167.803 238.653H167.888L169.587 232.273H171.342L168.78 241H167.047L165.274 234.699H165.143L163.371 241H161.643ZM176.365 241.176C175.547 241.176 174.833 240.989 174.223 240.614C173.613 240.239 173.14 239.714 172.803 239.04C172.465 238.366 172.297 237.578 172.297 236.676C172.297 235.771 172.465 234.979 172.803 234.301C173.14 233.623 173.613 233.097 174.223 232.722C174.833 232.347 175.547 232.159 176.365 232.159C177.183 232.159 177.897 232.347 178.507 232.722C179.117 233.097 179.59 233.623 179.928 234.301C180.265 234.979 180.433 235.771 180.433 236.676C180.433 237.578 180.265 238.366 179.928 239.04C179.59 239.714 179.117 240.239 178.507 240.614C177.897 240.989 177.183 241.176 176.365 241.176ZM176.371 239.75C176.901 239.75 177.34 239.61 177.689 239.33C178.037 239.049 178.295 238.676 178.462 238.21C178.632 237.744 178.717 237.231 178.717 236.67C178.717 236.114 178.632 235.602 178.462 235.136C178.295 234.667 178.037 234.29 177.689 234.006C177.34 233.722 176.901 233.58 176.371 233.58C175.837 233.58 175.393 233.722 175.041 234.006C174.693 234.29 174.433 234.667 174.263 235.136C174.096 235.602 174.013 236.114 174.013 236.67C174.013 237.231 174.096 237.744 174.263 238.21C174.433 238.676 174.693 239.049 175.041 239.33C175.393 239.61 175.837 239.75 176.371 239.75ZM182.33 241V232.273H183.972V233.659H184.062C184.222 233.189 184.502 232.82 184.903 232.551C185.309 232.278 185.767 232.142 186.278 232.142C186.384 232.142 186.509 232.146 186.653 232.153C186.801 232.161 186.917 232.17 187 232.182V233.807C186.932 233.788 186.811 233.767 186.636 233.744C186.462 233.718 186.288 233.705 186.114 233.705C185.712 233.705 185.354 233.79 185.04 233.96C184.729 234.127 184.483 234.36 184.301 234.659C184.119 234.955 184.028 235.292 184.028 235.67V241H182.33ZM190.033 238.04L190.021 235.966H190.317L193.794 232.273H195.828L191.862 236.477H191.595L190.033 238.04ZM188.47 241V229.364H190.169V241H188.47ZM193.982 241L190.857 236.852L192.027 235.665L196.067 241H193.982ZM197.376 241V232.273H199.075V241H197.376ZM198.234 230.926C197.939 230.926 197.685 230.828 197.473 230.631C197.265 230.43 197.161 230.191 197.161 229.915C197.161 229.634 197.265 229.396 197.473 229.199C197.685 228.998 197.939 228.898 198.234 228.898C198.53 228.898 198.782 228.998 198.99 229.199C199.202 229.396 199.308 229.634 199.308 229.915C199.308 230.191 199.202 230.43 198.99 230.631C198.782 230.828 198.53 230.926 198.234 230.926ZM203.06 235.818V241H201.361V232.273H202.991V233.693H203.099C203.3 233.231 203.615 232.86 204.043 232.58C204.474 232.299 205.018 232.159 205.673 232.159C206.268 232.159 206.789 232.284 207.236 232.534C207.683 232.78 208.029 233.148 208.276 233.636C208.522 234.125 208.645 234.729 208.645 235.449V241H206.946V235.653C206.946 235.021 206.781 234.527 206.452 234.17C206.122 233.811 205.67 233.631 205.094 233.631C204.7 233.631 204.349 233.716 204.043 233.886C203.74 234.057 203.499 234.307 203.321 234.636C203.147 234.962 203.06 235.356 203.06 235.818ZM214.582 244.455C213.889 244.455 213.293 244.364 212.793 244.182C212.296 244 211.891 243.759 211.577 243.46C211.262 243.161 211.027 242.833 210.872 242.477L212.332 241.875C212.435 242.042 212.571 242.218 212.741 242.403C212.916 242.593 213.151 242.754 213.446 242.886C213.745 243.019 214.13 243.085 214.599 243.085C215.243 243.085 215.776 242.928 216.196 242.614C216.616 242.303 216.827 241.807 216.827 241.125V239.409H216.719C216.616 239.595 216.469 239.801 216.276 240.028C216.086 240.256 215.825 240.453 215.491 240.619C215.158 240.786 214.724 240.869 214.19 240.869C213.501 240.869 212.88 240.708 212.327 240.386C211.777 240.061 211.342 239.581 211.02 238.949C210.702 238.312 210.543 237.53 210.543 236.602C210.543 235.674 210.7 234.879 211.014 234.216C211.332 233.553 211.768 233.045 212.321 232.693C212.874 232.337 213.501 232.159 214.202 232.159C214.743 232.159 215.181 232.25 215.514 232.432C215.848 232.61 216.107 232.818 216.293 233.057C216.482 233.295 216.628 233.506 216.73 233.688H216.855V232.273H218.52V241.193C218.52 241.943 218.346 242.559 217.997 243.04C217.649 243.521 217.177 243.877 216.582 244.108C215.991 244.339 215.325 244.455 214.582 244.455ZM214.565 239.46C215.054 239.46 215.467 239.347 215.804 239.119C216.145 238.888 216.402 238.559 216.577 238.131C216.755 237.699 216.844 237.182 216.844 236.58C216.844 235.992 216.757 235.475 216.582 235.028C216.408 234.581 216.152 234.233 215.815 233.983C215.478 233.729 215.062 233.602 214.565 233.602C214.054 233.602 213.628 233.735 213.287 234C212.946 234.261 212.688 234.617 212.514 235.068C212.344 235.519 212.259 236.023 212.259 236.58C212.259 237.152 212.346 237.653 212.52 238.085C212.694 238.517 212.952 238.854 213.293 239.097C213.637 239.339 214.062 239.46 214.565 239.46ZM228.3 241.17C227.595 241.17 226.966 240.991 226.413 240.631C225.864 240.267 225.432 239.75 225.118 239.08C224.807 238.405 224.652 237.597 224.652 236.653C224.652 235.71 224.809 234.903 225.124 234.233C225.442 233.562 225.877 233.049 226.43 232.693C226.983 232.337 227.61 232.159 228.311 232.159C228.853 232.159 229.288 232.25 229.618 232.432C229.951 232.61 230.209 232.818 230.391 233.057C230.576 233.295 230.72 233.506 230.822 233.688H230.925V229.364H232.624V241H230.964V239.642H230.822C230.72 239.828 230.572 240.04 230.379 240.278C230.19 240.517 229.929 240.725 229.595 240.903C229.262 241.081 228.83 241.17 228.3 241.17ZM228.675 239.722C229.163 239.722 229.576 239.593 229.913 239.335C230.254 239.074 230.512 238.712 230.686 238.25C230.864 237.788 230.953 237.25 230.953 236.636C230.953 236.03 230.866 235.5 230.692 235.045C230.518 234.591 230.262 234.237 229.925 233.983C229.588 233.729 229.171 233.602 228.675 233.602C228.163 233.602 227.737 233.735 227.396 234C227.055 234.265 226.798 234.627 226.624 235.085C226.453 235.544 226.368 236.061 226.368 236.636C226.368 237.22 226.455 237.744 226.629 238.21C226.804 238.676 227.061 239.045 227.402 239.318C227.747 239.587 228.171 239.722 228.675 239.722ZM237.588 241.193C237.035 241.193 236.535 241.091 236.088 240.886C235.641 240.678 235.287 240.377 235.026 239.983C234.768 239.589 234.639 239.106 234.639 238.534C234.639 238.042 234.734 237.636 234.923 237.318C235.113 237 235.368 236.748 235.69 236.562C236.012 236.377 236.372 236.237 236.77 236.142C237.168 236.047 237.573 235.975 237.986 235.926C238.509 235.866 238.933 235.816 239.259 235.778C239.584 235.737 239.821 235.67 239.969 235.58C240.116 235.489 240.19 235.341 240.19 235.136V235.097C240.19 234.6 240.05 234.216 239.77 233.943C239.493 233.67 239.08 233.534 238.531 233.534C237.959 233.534 237.509 233.661 237.179 233.915C236.853 234.165 236.628 234.443 236.503 234.75L234.906 234.386C235.096 233.856 235.372 233.428 235.736 233.102C236.103 232.773 236.526 232.534 237.003 232.386C237.48 232.235 237.982 232.159 238.509 232.159C238.857 232.159 239.226 232.201 239.616 232.284C240.01 232.364 240.378 232.511 240.719 232.727C241.063 232.943 241.346 233.252 241.565 233.653C241.785 234.051 241.895 234.568 241.895 235.205V241H240.236V239.807H240.168C240.058 240.027 239.893 240.242 239.673 240.455C239.454 240.667 239.171 240.843 238.827 240.983C238.482 241.123 238.069 241.193 237.588 241.193ZM237.957 239.83C238.427 239.83 238.829 239.737 239.162 239.551C239.499 239.366 239.755 239.123 239.929 238.824C240.107 238.521 240.196 238.197 240.196 237.852V236.727C240.135 236.788 240.018 236.845 239.844 236.898C239.673 236.947 239.478 236.991 239.259 237.028C239.039 237.062 238.825 237.095 238.616 237.125C238.408 237.152 238.234 237.174 238.094 237.193C237.764 237.235 237.463 237.305 237.19 237.403C236.921 237.502 236.705 237.644 236.543 237.83C236.384 238.011 236.304 238.254 236.304 238.557C236.304 238.977 236.459 239.295 236.77 239.511C237.08 239.723 237.476 239.83 237.957 239.83ZM244.919 244.273C244.665 244.273 244.434 244.252 244.226 244.21C244.018 244.172 243.862 244.131 243.76 244.085L244.169 242.693C244.48 242.777 244.756 242.813 244.999 242.801C245.241 242.79 245.455 242.699 245.641 242.528C245.83 242.358 245.997 242.08 246.141 241.693L246.351 241.114L243.158 232.273H244.976L247.186 239.045H247.277L249.487 232.273H251.311L247.714 242.165C247.548 242.619 247.336 243.004 247.078 243.318C246.821 243.636 246.514 243.875 246.158 244.034C245.802 244.193 245.389 244.273 244.919 244.273ZM259.447 234.403L257.908 234.676C257.843 234.479 257.741 234.292 257.601 234.114C257.464 233.936 257.279 233.79 257.044 233.676C256.809 233.562 256.516 233.506 256.163 233.506C255.682 233.506 255.281 233.614 254.959 233.83C254.637 234.042 254.476 234.316 254.476 234.653C254.476 234.945 254.584 235.18 254.8 235.358C255.016 235.536 255.364 235.682 255.845 235.795L257.232 236.114C258.035 236.299 258.633 236.585 259.027 236.972C259.421 237.358 259.618 237.86 259.618 238.477C259.618 239 259.466 239.466 259.163 239.875C258.864 240.28 258.446 240.598 257.908 240.83C257.374 241.061 256.754 241.176 256.05 241.176C255.072 241.176 254.275 240.968 253.658 240.551C253.04 240.131 252.661 239.534 252.521 238.761L254.163 238.511C254.266 238.939 254.476 239.263 254.794 239.483C255.112 239.699 255.527 239.807 256.038 239.807C256.595 239.807 257.04 239.691 257.374 239.46C257.707 239.225 257.874 238.939 257.874 238.602C257.874 238.33 257.771 238.1 257.567 237.915C257.366 237.729 257.057 237.589 256.641 237.494L255.163 237.17C254.349 236.985 253.747 236.689 253.357 236.284C252.97 235.879 252.777 235.366 252.777 234.744C252.777 234.229 252.921 233.778 253.209 233.392C253.497 233.006 253.894 232.705 254.402 232.489C254.91 232.269 255.491 232.159 256.146 232.159C257.089 232.159 257.832 232.364 258.374 232.773C258.915 233.178 259.273 233.722 259.447 234.403Z" fill="#1A1A1A"/>
<path d="M372.3 237.3L369.7 234.7C369.384 234.383 369.313 234.021 369.488 233.613C369.663 233.204 369.975 233 370.425 233H375.575C376.025 233 376.338 233.204 376.512 233.613C376.688 234.021 376.617 234.383 376.3 234.7L373.7 237.3C373.6 237.4 373.492 237.475 373.375 237.525C373.259 237.575 373.134 237.6 373 237.6C372.867 237.6 372.742 237.575 372.625 237.525C372.509 237.475 372.4 237.4 372.3 237.3Z" fill="#1A1A1A"/>
<rect x="119" y="213" width="276" height="44" rx="5" stroke="#1A1A1A" stroke-opacity="0.5" stroke-width="0.5"/>
<defs>
<linearGradient id="paint0_linear_3300_6652" x1="36.0835" y1="69.5711" x2="439.882" y2="346.103" gradientUnits="userSpaceOnUse">
<stop stop-color="#002E5A"/>
<stop offset="1" stop-color="#0D5EBB"/>
</linearGradient>
<linearGradient id="paint1_linear_3300_6652" x1="70.1681" y1="361.362" x2="402.348" y2="133.875" gradientUnits="userSpaceOnUse">
<stop stop-color="#002E5A"/>
<stop offset="1" stop-color="#0D5EBB"/>
</linearGradient>
<linearGradient id="paint2_linear_3300_6652" x1="242.021" y1="365.26" x2="274.41" y2="441.967" gradientUnits="userSpaceOnUse">
<stop stop-color="#002E5A"/>
<stop offset="1" stop-color="#0D5EBB"/>
</linearGradient>
</defs>
</svg>
