<svg width="159" height="58" viewBox="0 0 159 58" fill="none" xmlns="http://www.w3.org/2000/svg">
<path d="M5.9446 35.8672H0.882102L10.0994 9.68537H15.9545L25.1847 35.8672H20.1222L13.1293 15.0547H12.9247L5.9446 35.8672ZM6.1108 25.6016H19.9176V29.4112H6.1108V25.6016ZM27.9132 35.8672V9.68537H32.541V19.478H32.7328C32.9714 19.0007 33.3081 18.4936 33.7427 17.9567C34.1774 17.4112 34.7654 16.9467 35.5069 16.5632C36.2484 16.1712 37.1944 15.9751 38.345 15.9751C39.862 15.9751 41.2299 16.3629 42.4487 17.1385C43.676 17.9055 44.6475 19.0433 45.3635 20.5518C46.0879 22.0518 46.4501 23.8928 46.4501 26.0746C46.4501 28.2308 46.0964 30.0632 45.389 31.5717C44.6816 33.0803 43.7186 34.2308 42.4998 35.0234C41.2811 35.8161 39.9004 36.2124 38.3578 36.2124C37.2328 36.2124 36.2995 36.0249 35.5581 35.6499C34.8166 35.2749 34.22 34.8232 33.7683 34.2947C33.3251 33.7578 32.9799 33.2507 32.7328 32.7734H32.4643V35.8672H27.9132ZM32.4515 26.049C32.4515 27.3189 32.6305 28.4311 32.9885 29.3857C33.3549 30.3402 33.8791 31.0859 34.5609 31.6229C35.2512 32.1513 36.0865 32.4155 37.0666 32.4155C38.0893 32.4155 38.9458 32.1428 39.6362 31.5973C40.3265 31.0433 40.8464 30.2891 41.1958 29.3345C41.5538 28.3714 41.7328 27.2763 41.7328 26.049C41.7328 24.8303 41.5581 23.7479 41.2086 22.8018C40.8592 21.8558 40.3393 21.1143 39.649 20.5774C38.9586 20.0405 38.0978 19.772 37.0666 19.772C36.0779 19.772 35.2385 20.032 34.5481 20.5518C33.8578 21.0717 33.3336 21.8004 32.9757 22.7379C32.6262 23.6754 32.4515 24.7791 32.4515 26.049ZM58.2297 36.2507C56.3121 36.2507 54.6502 35.8288 53.244 34.9851C51.8377 34.1413 50.7468 32.9609 49.9712 31.4439C49.2042 29.9268 48.8207 28.1541 48.8207 26.1257C48.8207 24.0973 49.2042 22.3203 49.9712 20.7947C50.7468 19.2692 51.8377 18.0845 53.244 17.2408C54.6502 16.397 56.3121 15.9751 58.2297 15.9751C60.1474 15.9751 61.8093 16.397 63.2155 17.2408C64.6218 18.0845 65.7084 19.2692 66.4755 20.7947C67.2511 22.3203 67.6388 24.0973 67.6388 26.1257C67.6388 28.1541 67.2511 29.9268 66.4755 31.4439C65.7084 32.9609 64.6218 34.1413 63.2155 34.9851C61.8093 35.8288 60.1474 36.2507 58.2297 36.2507ZM58.2553 32.5433C59.2951 32.5433 60.1644 32.2578 60.8633 31.6868C61.5621 31.1072 62.082 30.3317 62.4229 29.3601C62.7724 28.3885 62.9471 27.3061 62.9471 26.1129C62.9471 24.9112 62.7724 23.8246 62.4229 22.853C62.082 21.8729 61.5621 21.093 60.8633 20.5135C60.1644 19.9339 59.2951 19.6442 58.2553 19.6442C57.19 19.6442 56.3036 19.9339 55.5962 20.5135C54.8974 21.093 54.3732 21.8729 54.0238 22.853C53.6829 23.8246 53.5124 24.9112 53.5124 26.1129C53.5124 27.3061 53.6829 28.3885 54.0238 29.3601C54.3732 30.3317 54.8974 31.1072 55.5962 31.6868C56.3036 32.2578 57.19 32.5433 58.2553 32.5433ZM83.3624 27.6087V16.2308H87.9902V35.8672H83.503V32.3771H83.2984C82.8553 33.4766 82.1266 34.3757 81.1124 35.0746C80.1067 35.7734 78.8666 36.1229 77.3922 36.1229C76.1053 36.1229 74.9675 35.8374 73.9788 35.2663C72.9987 34.6868 72.2317 33.8473 71.6777 32.7479C71.1237 31.6399 70.8467 30.3018 70.8467 28.7337V16.2308H75.4746V28.0178C75.4746 29.2621 75.8155 30.2507 76.4973 30.9837C77.1791 31.7166 78.074 32.0831 79.182 32.0831C79.8638 32.0831 80.5243 31.9169 81.1635 31.5845C81.8027 31.2521 82.3269 30.7578 82.7359 30.1016C83.1536 29.4368 83.3624 28.6058 83.3624 27.6087ZM101.834 16.2308V19.8104H90.5461V16.2308H101.834ZM93.3331 11.5263H97.9609V29.9609C97.9609 30.5831 98.0547 31.0604 98.2422 31.3928C98.4382 31.7166 98.6939 31.9382 99.0092 32.0575C99.3245 32.1768 99.674 32.2365 100.058 32.2365C100.347 32.2365 100.611 32.2152 100.85 32.1726C101.097 32.13 101.285 32.0916 101.413 32.0575L102.192 35.6754C101.945 35.7607 101.592 35.8544 101.131 35.9567C100.68 36.0589 100.126 36.1186 99.4694 36.1357C98.3103 36.1697 97.2663 35.995 96.3373 35.6115C95.4084 35.2195 94.6711 34.6143 94.1257 33.7962C93.5888 32.978 93.3245 31.9553 93.3331 30.728V11.5263ZM129.903 9.68537H134.646V26.7905C134.646 28.6655 134.203 30.3146 133.317 31.7379C132.439 33.1612 131.203 34.2734 129.609 35.0746C128.016 35.8672 126.153 36.2635 124.023 36.2635C121.883 36.2635 120.017 35.8672 118.423 35.0746C116.83 34.2734 115.594 33.1612 114.716 31.7379C113.838 30.3146 113.399 28.6655 113.399 26.7905V9.68537H118.142V26.3942C118.142 27.4851 118.381 28.4567 118.858 29.3089C119.344 30.1612 120.026 30.8303 120.903 31.3161C121.781 31.7933 122.821 32.032 124.023 32.032C125.224 32.032 126.264 31.7933 127.142 31.3161C128.028 30.8303 128.71 30.1612 129.187 29.3089C129.665 28.4567 129.903 27.4851 129.903 26.3942V9.68537ZM154.397 21.4212L150.178 21.8814C150.059 21.4553 149.85 21.0547 149.552 20.6797C149.262 20.3047 148.87 20.0021 148.375 19.772C147.881 19.5419 147.276 19.4268 146.56 19.4268C145.597 19.4268 144.787 19.6357 144.131 20.0533C143.483 20.4709 143.164 21.0121 143.172 21.6768C143.164 22.2479 143.373 22.7124 143.799 23.0703C144.233 23.4283 144.949 23.7223 145.947 23.9524L149.296 24.6683C151.154 25.0689 152.535 25.7038 153.438 26.5732C154.35 27.4425 154.81 28.5803 154.819 29.9865C154.81 31.2223 154.448 32.3132 153.732 33.2592C153.025 34.1967 152.04 34.9297 150.779 35.4581C149.518 35.9865 148.069 36.2507 146.432 36.2507C144.029 36.2507 142.094 35.7479 140.628 34.7422C139.162 33.728 138.289 32.3175 138.008 30.5107L142.52 30.076C142.725 30.9624 143.16 31.6314 143.824 32.0831C144.489 32.5348 145.354 32.7607 146.42 32.7607C147.519 32.7607 148.401 32.5348 149.066 32.0831C149.739 31.6314 150.076 31.0732 150.076 30.4084C150.076 29.8459 149.858 29.3814 149.424 29.0149C148.998 28.6484 148.333 28.3672 147.429 28.1712L144.08 27.468C142.197 27.076 140.803 26.4155 139.9 25.4865C138.996 24.549 138.549 23.3643 138.557 21.9325C138.549 20.7223 138.877 19.674 139.542 18.7876C140.215 17.8928 141.148 17.2024 142.341 16.7166C143.543 16.2223 144.928 15.9751 146.496 15.9751C148.797 15.9751 150.608 16.4652 151.929 17.4453C153.259 18.4254 154.081 19.7507 154.397 21.4212Z" fill="#FAFAFA"/>
<path d="M17 55.1321C30.1504 43.6302 124.707 41.7382 157 49.7391" stroke="#DA7717" stroke-width="4" stroke-linecap="round"/>
</svg>
