<svg width="258" height="74" viewBox="0 0 258 74" fill="none" xmlns="http://www.w3.org/2000/svg">
<path d="M8.09233 35L0.703125 8.81818H5.80398L10.5213 28.0582H10.7642L15.8011 8.81818H20.4418L25.4915 28.071H25.7216L30.4389 8.81818H35.5398L28.1506 35H23.4716L18.2301 16.6293H18.0256L12.7713 35H8.09233ZM42.5318 23.4943V35H37.9039V8.81818H42.4295V18.7003H42.6596C43.1198 17.5923 43.8315 16.7187 44.7946 16.0795C45.7661 15.4318 47.0019 15.108 48.5019 15.108C49.8656 15.108 51.0545 15.3935 52.0687 15.9645C53.0829 16.5355 53.867 17.3707 54.421 18.4702C54.9835 19.5696 55.2647 20.9119 55.2647 22.4972V35H50.6369V23.2131C50.6369 21.892 50.296 20.8651 49.6142 20.1321C48.9409 19.3906 47.9948 19.0199 46.7761 19.0199C45.9579 19.0199 45.225 19.1989 44.5772 19.5568C43.938 19.9062 43.4352 20.4134 43.0687 21.0781C42.7108 21.7429 42.5318 22.5483 42.5318 23.4943ZM61.4354 42.3636C60.8047 42.3636 60.2209 42.3125 59.6839 42.2102C59.1555 42.1165 58.7337 42.0057 58.4183 41.8778L59.4922 38.2727C60.1655 38.4688 60.7663 38.5625 61.2947 38.554C61.8231 38.5455 62.2876 38.3793 62.6882 38.0554C63.0973 37.7401 63.4425 37.2116 63.7237 36.4702L64.12 35.4091L56.9993 15.3636H61.9084L66.4339 30.1932H66.6385L71.1768 15.3636H76.0987L68.2365 37.3778C67.87 38.4176 67.3842 39.3082 66.7791 40.0497C66.174 40.7997 65.4325 41.3707 64.5547 41.7628C63.6854 42.1634 62.6456 42.3636 61.4354 42.3636ZM95.3562 35.3835C93.3959 35.3835 91.7127 34.9531 90.3064 34.0923C88.9087 33.2315 87.8306 32.0426 87.0721 30.5256C86.3221 29 85.9471 27.2443 85.9471 25.2585C85.9471 23.2642 86.3306 21.5043 87.0976 19.9787C87.8647 18.4446 88.9471 17.2514 90.3448 16.3991C91.751 15.5384 93.413 15.108 95.3306 15.108C96.9243 15.108 98.3348 15.402 99.5621 15.9901C100.798 16.5696 101.782 17.392 102.515 18.4574C103.248 19.5142 103.666 20.75 103.768 22.1648H99.3448C99.1658 21.2187 98.7397 20.4304 98.0664 19.7997C97.4016 19.1605 96.511 18.8409 95.3945 18.8409C94.4485 18.8409 93.6175 19.0966 92.9016 19.608C92.1857 20.1108 91.6275 20.8352 91.2269 21.7812C90.8348 22.7273 90.6388 23.8608 90.6388 25.1818C90.6388 26.5199 90.8348 27.6705 91.2269 28.6335C91.6189 29.5881 92.1687 30.3253 92.876 30.8452C93.5919 31.3565 94.4314 31.6122 95.3945 31.6122C96.0763 31.6122 96.6857 31.4844 97.2226 31.2287C97.7681 30.9645 98.2241 30.5852 98.5905 30.0909C98.957 29.5966 99.2084 28.9957 99.3448 28.2884H103.768C103.657 29.6776 103.248 30.9091 102.541 31.983C101.833 33.0483 100.87 33.8835 99.6516 34.4886C98.4329 35.0852 97.001 35.3835 95.3562 35.3835ZM111.476 23.4943V35H106.848V8.81818H111.374V18.7003H111.604C112.064 17.5923 112.776 16.7187 113.739 16.0795C114.71 15.4318 115.946 15.108 117.446 15.108C118.81 15.108 119.999 15.3935 121.013 15.9645C122.027 16.5355 122.811 17.3707 123.365 18.4702C123.928 19.5696 124.209 20.9119 124.209 22.4972V35H119.581V23.2131C119.581 21.892 119.24 20.8651 118.558 20.1321C117.885 19.3906 116.939 19.0199 115.72 19.0199C114.902 19.0199 114.169 19.1989 113.521 19.5568C112.882 19.9062 112.379 20.4134 112.013 21.0781C111.655 21.7429 111.476 22.5483 111.476 23.4943ZM136.772 35.3835C134.854 35.3835 133.192 34.9616 131.786 34.1179C130.38 33.2741 129.289 32.0937 128.513 30.5767C127.746 29.0597 127.363 27.2869 127.363 25.2585C127.363 23.2301 127.746 21.4531 128.513 19.9276C129.289 18.402 130.38 17.2173 131.786 16.3736C133.192 15.5298 134.854 15.108 136.772 15.108C138.689 15.108 140.351 15.5298 141.757 16.3736C143.164 17.2173 144.25 18.402 145.017 19.9276C145.793 21.4531 146.181 23.2301 146.181 25.2585C146.181 27.2869 145.793 29.0597 145.017 30.5767C144.25 32.0937 143.164 33.2741 141.757 34.1179C140.351 34.9616 138.689 35.3835 136.772 35.3835ZM136.797 31.6761C137.837 31.6761 138.706 31.3906 139.405 30.8196C140.104 30.2401 140.624 29.4645 140.965 28.4929C141.314 27.5213 141.489 26.4389 141.489 25.2457C141.489 24.044 141.314 22.9574 140.965 21.9858C140.624 21.0057 140.104 20.2259 139.405 19.6463C138.706 19.0668 137.837 18.777 136.797 18.777C135.732 18.777 134.845 19.0668 134.138 19.6463C133.439 20.2259 132.915 21.0057 132.566 21.9858C132.225 22.9574 132.054 24.044 132.054 25.2457C132.054 26.4389 132.225 27.5213 132.566 28.4929C132.915 29.4645 133.439 30.2401 134.138 30.8196C134.845 31.3906 135.732 31.6761 136.797 31.6761ZM157.954 35.3835C156.036 35.3835 154.374 34.9616 152.968 34.1179C151.562 33.2741 150.471 32.0937 149.695 30.5767C148.928 29.0597 148.545 27.2869 148.545 25.2585C148.545 23.2301 148.928 21.4531 149.695 19.9276C150.471 18.402 151.562 17.2173 152.968 16.3736C154.374 15.5298 156.036 15.108 157.954 15.108C159.872 15.108 161.534 15.5298 162.94 16.3736C164.346 17.2173 165.433 18.402 166.2 19.9276C166.975 21.4531 167.363 23.2301 167.363 25.2585C167.363 27.2869 166.975 29.0597 166.2 30.5767C165.433 32.0937 164.346 33.2741 162.94 34.1179C161.534 34.9616 159.872 35.3835 157.954 35.3835ZM157.98 31.6761C159.019 31.6761 159.889 31.3906 160.587 30.8196C161.286 30.2401 161.806 29.4645 162.147 28.4929C162.497 27.5213 162.671 26.4389 162.671 25.2457C162.671 24.044 162.497 22.9574 162.147 21.9858C161.806 21.0057 161.286 20.2259 160.587 19.6463C159.889 19.0668 159.019 18.777 157.98 18.777C156.914 18.777 156.028 19.0668 155.32 19.6463C154.622 20.2259 154.097 21.0057 153.748 21.9858C153.407 22.9574 153.237 24.044 153.237 25.2457C153.237 26.4389 153.407 27.5213 153.748 28.4929C154.097 29.4645 154.622 30.2401 155.32 30.8196C156.028 31.3906 156.914 31.6761 157.98 31.6761ZM186.091 20.554L181.872 21.0142C181.753 20.5881 181.544 20.1875 181.246 19.8125C180.956 19.4375 180.564 19.1349 180.07 18.9048C179.575 18.6747 178.97 18.5597 178.254 18.5597C177.291 18.5597 176.481 18.7685 175.825 19.1861C175.178 19.6037 174.858 20.1449 174.866 20.8097C174.858 21.3807 175.067 21.8452 175.493 22.2031C175.928 22.5611 176.643 22.8551 177.641 23.0852L180.99 23.8011C182.848 24.2017 184.229 24.8366 185.132 25.706C186.044 26.5753 186.504 27.7131 186.513 29.1193C186.504 30.3551 186.142 31.446 185.426 32.392C184.719 33.3295 183.734 34.0625 182.473 34.5909C181.212 35.1193 179.763 35.3835 178.126 35.3835C175.723 35.3835 173.788 34.8807 172.322 33.875C170.856 32.8608 169.983 31.4503 169.702 29.6435L174.214 29.2088C174.419 30.0952 174.854 30.7642 175.518 31.2159C176.183 31.6676 177.048 31.8935 178.114 31.8935C179.213 31.8935 180.095 31.6676 180.76 31.2159C181.433 30.7642 181.77 30.206 181.77 29.5412C181.77 28.9787 181.553 28.5142 181.118 28.1477C180.692 27.7812 180.027 27.5 179.124 27.304L175.774 26.6009C173.891 26.2088 172.497 25.5483 171.594 24.6193C170.69 23.6818 170.243 22.4972 170.251 21.0653C170.243 19.8551 170.571 18.8068 171.236 17.9205C171.909 17.0256 172.842 16.3352 174.035 15.8494C175.237 15.3551 176.622 15.108 178.19 15.108C180.491 15.108 182.303 15.598 183.624 16.5781C184.953 17.5582 185.776 18.8835 186.091 20.554ZM198.302 35.3835C196.333 35.3835 194.633 34.9744 193.201 34.1562C191.778 33.3295 190.683 32.1619 189.916 30.6534C189.149 29.1364 188.765 27.3509 188.765 25.2969C188.765 23.277 189.149 21.5043 189.916 19.9787C190.691 18.4446 191.774 17.2514 193.163 16.3991C194.552 15.5384 196.184 15.108 198.059 15.108C199.269 15.108 200.411 15.304 201.485 15.696C202.568 16.0795 203.522 16.6761 204.349 17.4858C205.184 18.2955 205.84 19.3267 206.318 20.5795C206.795 21.8239 207.033 23.3068 207.033 25.0284V26.4474H190.938V23.3281H202.597C202.589 22.4418 202.397 21.6534 202.022 20.9631C201.647 20.2642 201.123 19.7145 200.45 19.3139C199.785 18.9134 199.009 18.7131 198.123 18.7131C197.177 18.7131 196.346 18.9432 195.63 19.4034C194.914 19.8551 194.356 20.4517 193.955 21.1932C193.563 21.9261 193.363 22.7315 193.355 23.6094V26.3324C193.355 27.4744 193.563 28.4545 193.981 29.2727C194.399 30.0824 194.982 30.7045 195.732 31.1392C196.482 31.5653 197.36 31.7784 198.366 31.7784C199.039 31.7784 199.649 31.6847 200.194 31.4972C200.739 31.3011 201.212 31.0156 201.613 30.6406C202.014 30.2656 202.316 29.8011 202.521 29.2472L206.842 29.733C206.569 30.875 206.049 31.8722 205.282 32.7244C204.524 33.5682 203.552 34.2244 202.367 34.6932C201.183 35.1534 199.828 35.3835 198.302 35.3835ZM230.954 26.7415V15.3636H235.582V35H231.095V31.5099H230.89C230.447 32.6094 229.718 33.5085 228.704 34.2074C227.698 34.9062 226.458 35.2557 224.984 35.2557C223.697 35.2557 222.559 34.9702 221.57 34.3991C220.59 33.8196 219.823 32.9801 219.269 31.8807C218.715 30.7727 218.438 29.4347 218.438 27.8665V15.3636H223.066V27.1506C223.066 28.3949 223.407 29.3835 224.089 30.1165C224.771 30.8494 225.666 31.2159 226.774 31.2159C227.455 31.2159 228.116 31.0497 228.755 30.7173C229.394 30.3849 229.918 29.8906 230.328 29.2344C230.745 28.5696 230.954 27.7386 230.954 26.7415ZM255.141 20.554L250.922 21.0142C250.802 20.5881 250.594 20.1875 250.295 19.8125C250.006 19.4375 249.614 19.1349 249.119 18.9048C248.625 18.6747 248.02 18.5597 247.304 18.5597C246.341 18.5597 245.531 18.7685 244.875 19.1861C244.227 19.6037 243.908 20.1449 243.916 20.8097C243.908 21.3807 244.116 21.8452 244.543 22.2031C244.977 22.5611 245.693 22.8551 246.69 23.0852L250.04 23.8011C251.898 24.2017 253.278 24.8366 254.182 25.706C255.094 26.5753 255.554 27.7131 255.562 29.1193C255.554 30.3551 255.192 31.446 254.476 32.392C253.768 33.3295 252.784 34.0625 251.523 34.5909C250.261 35.1193 248.812 35.3835 247.176 35.3835C244.773 35.3835 242.838 34.8807 241.372 33.875C239.906 32.8608 239.033 31.4503 238.751 29.6435L243.264 29.2088C243.469 30.0952 243.903 30.7642 244.568 31.2159C245.233 31.6676 246.098 31.8935 247.163 31.8935C248.263 31.8935 249.145 31.6676 249.81 31.2159C250.483 30.7642 250.82 30.206 250.82 29.5412C250.82 28.9787 250.602 28.5142 250.168 28.1477C249.741 27.7812 249.077 27.5 248.173 27.304L244.824 26.6009C242.94 26.2088 241.547 25.5483 240.643 24.6193C239.74 23.6818 239.293 22.4972 239.301 21.0653C239.293 19.8551 239.621 18.8068 240.285 17.9205C240.959 17.0256 241.892 16.3352 243.085 15.8494C244.287 15.3551 245.672 15.108 247.24 15.108C249.541 15.108 251.352 15.598 252.673 16.5781C254.003 17.5582 254.825 18.8835 255.141 20.554Z" fill="#1A1A1A"/>
<rect x="101" y="68" width="56" height="6" rx="3" fill="#DA7717"/>
</svg>
