<svg width="123" height="42" viewBox="0 0 123 42" fill="none" xmlns="http://www.w3.org/2000/svg">
<path d="M1.2642 21V6.45455H4.33949V12.456H10.5824V6.45455H13.6506V21H10.5824V14.9915H4.33949V21H1.2642ZM20.6582 21.2131C19.555 21.2131 18.6009 20.9787 17.796 20.5099C16.9958 20.0365 16.3779 19.3783 15.9423 18.5355C15.5067 17.688 15.2889 16.7055 15.2889 15.5881C15.2889 14.4612 15.5067 13.4763 15.9423 12.6335C16.3779 11.786 16.9958 11.1278 17.796 10.6591C18.6009 10.1856 19.555 9.94886 20.6582 9.94886C21.7615 9.94886 22.7132 10.1856 23.5134 10.6591C24.3183 11.1278 24.9385 11.786 25.3741 12.6335C25.8098 13.4763 26.0276 14.4612 26.0276 15.5881C26.0276 16.7055 25.8098 17.688 25.3741 18.5355C24.9385 19.3783 24.3183 20.0365 23.5134 20.5099C22.7132 20.9787 21.7615 21.2131 20.6582 21.2131ZM20.6724 18.8693C21.1743 18.8693 21.5934 18.7273 21.9295 18.4432C22.2657 18.1544 22.519 17.7614 22.6895 17.2642C22.8647 16.767 22.9523 16.2012 22.9523 15.5668C22.9523 14.9323 22.8647 14.3665 22.6895 13.8693C22.519 13.3722 22.2657 12.9792 21.9295 12.6903C21.5934 12.4015 21.1743 12.2571 20.6724 12.2571C20.1658 12.2571 19.7397 12.4015 19.394 12.6903C19.0531 12.9792 18.7951 13.3722 18.6199 13.8693C18.4494 14.3665 18.3642 14.9323 18.3642 15.5668C18.3642 16.2012 18.4494 16.767 18.6199 17.2642C18.7951 17.7614 19.0531 18.1544 19.394 18.4432C19.7397 18.7273 20.1658 18.8693 20.6724 18.8693ZM29.4734 21L26.5047 10.0909H29.5658L31.2561 17.4205H31.3555L33.1169 10.0909H36.1212L37.9109 17.3778H38.0033L39.6652 10.0909H42.7192L39.7575 21H36.5544L34.6794 14.1392H34.5445L32.6695 21H29.4734ZM48.1621 21V10.0909H51.1876V21H48.1621ZM49.682 8.68466C49.2322 8.68466 48.8463 8.53551 48.5243 8.23722C48.2071 7.93419 48.0484 7.57197 48.0484 7.15057C48.0484 6.7339 48.2071 6.37642 48.5243 6.07812C48.8463 5.77509 49.2322 5.62358 49.682 5.62358C50.1318 5.62358 50.5153 5.77509 50.8325 6.07812C51.1545 6.37642 51.3155 6.7339 51.3155 7.15057C51.3155 7.57197 51.1545 7.93419 50.8325 8.23722C50.5153 8.53551 50.1318 8.68466 49.682 8.68466ZM59.0138 10.0909V12.3636H52.4442V10.0909H59.0138ZM53.9357 7.47727H56.9613V17.6477C56.9613 17.9271 57.0039 18.1449 57.0891 18.3011C57.1744 18.4527 57.2927 18.5592 57.4442 18.6207C57.6005 18.6823 57.7804 18.7131 57.984 18.7131C58.1261 18.7131 58.2681 18.7012 58.4102 18.6776C58.5522 18.6491 58.6611 18.6278 58.7369 18.6136L59.2127 20.8651C59.0612 20.9124 58.8481 20.9669 58.5735 21.0284C58.2989 21.0947 57.9651 21.1349 57.5721 21.1491C56.8429 21.1776 56.2037 21.0805 55.6545 20.858C55.11 20.6354 54.6862 20.2898 54.3832 19.821C54.0801 19.3523 53.931 18.7604 53.9357 18.0455V7.47727ZM66.9656 21L63.9969 10.0909H67.058L68.7483 17.4205H68.8477L70.6091 10.0909H73.6134L75.4031 17.3778H75.4955L77.1574 10.0909H80.2114L77.2497 21H74.0466L72.1716 14.1392H72.0366L70.1616 21H66.9656ZM86.0809 21.2131C84.9777 21.2131 84.0236 20.9787 83.2187 20.5099C82.4185 20.0365 81.8006 19.3783 81.365 18.5355C80.9294 17.688 80.7116 16.7055 80.7116 15.5881C80.7116 14.4612 80.9294 13.4763 81.365 12.6335C81.8006 11.786 82.4185 11.1278 83.2187 10.6591C84.0236 10.1856 84.9777 9.94886 86.0809 9.94886C87.1841 9.94886 88.1358 10.1856 88.936 10.6591C89.7409 11.1278 90.3612 11.786 90.7968 12.6335C91.2324 13.4763 91.4502 14.4612 91.4502 15.5881C91.4502 16.7055 91.2324 17.688 90.7968 18.5355C90.3612 19.3783 89.7409 20.0365 88.936 20.5099C88.1358 20.9787 87.1841 21.2131 86.0809 21.2131ZM86.0951 18.8693C86.597 18.8693 87.016 18.7273 87.3522 18.4432C87.6884 18.1544 87.9417 17.7614 88.1121 17.2642C88.2873 16.767 88.3749 16.2012 88.3749 15.5668C88.3749 14.9323 88.2873 14.3665 88.1121 13.8693C87.9417 13.3722 87.6884 12.9792 87.3522 12.6903C87.016 12.4015 86.597 12.2571 86.0951 12.2571C85.5885 12.2571 85.1623 12.4015 84.8167 12.6903C84.4758 12.9792 84.2177 13.3722 84.0425 13.8693C83.8721 14.3665 83.7869 14.9323 83.7869 15.5668C83.7869 16.2012 83.8721 16.767 84.0425 17.2642C84.2177 17.7614 84.4758 18.1544 84.8167 18.4432C85.1623 18.7273 85.5885 18.8693 86.0951 18.8693ZM93.0175 21V10.0909H95.9508V11.9943H96.0644C96.2633 11.3172 96.5971 10.8059 97.0658 10.4602C97.5346 10.1098 98.0744 9.93466 98.6852 9.93466C98.8367 9.93466 99 9.94413 99.1752 9.96307C99.3504 9.98201 99.5043 10.008 99.6369 10.0412V12.7259C99.4948 12.6832 99.2983 12.6454 99.0474 12.6122C98.7964 12.5791 98.5668 12.5625 98.3585 12.5625C97.9134 12.5625 97.5157 12.6596 97.1653 12.8537C96.8196 13.0431 96.545 13.3082 96.3414 13.6491C96.1425 13.9901 96.0431 14.383 96.0431 14.8281V21H93.0175ZM103.543 17.8608L103.55 14.2315H103.99L107.484 10.0909H110.957L106.263 15.5739H105.545L103.543 17.8608ZM100.801 21V6.45455H103.827V21H100.801ZM107.619 21L104.409 16.2486L106.426 14.1108L111.163 21H107.619ZM121.118 13.2017L118.349 13.3722C118.301 13.1354 118.199 12.9223 118.043 12.733C117.887 12.5388 117.681 12.3849 117.425 12.2713C117.174 12.1529 116.874 12.0938 116.523 12.0938C116.055 12.0938 115.659 12.1932 115.337 12.392C115.015 12.5862 114.854 12.8466 114.854 13.1733C114.854 13.4337 114.958 13.6539 115.167 13.8338C115.375 14.0137 115.733 14.1581 116.239 14.267L118.214 14.6648C119.274 14.8826 120.065 15.233 120.586 15.7159C121.107 16.1989 121.367 16.8333 121.367 17.6193C121.367 18.3343 121.156 18.9616 120.735 19.5014C120.318 20.0412 119.745 20.4626 119.016 20.7656C118.292 21.0639 117.456 21.2131 116.509 21.2131C115.065 21.2131 113.914 20.9124 113.057 20.3111C112.205 19.705 111.706 18.8812 111.559 17.8395L114.535 17.6832C114.625 18.1236 114.842 18.4598 115.188 18.6918C115.534 18.919 115.976 19.0327 116.516 19.0327C117.046 19.0327 117.473 18.9309 117.795 18.7273C118.121 18.5189 118.287 18.2514 118.292 17.9247C118.287 17.6501 118.171 17.4252 117.944 17.25C117.716 17.0701 117.366 16.9328 116.893 16.8381L115.003 16.4616C113.938 16.2486 113.145 15.8793 112.624 15.3537C112.108 14.8281 111.85 14.1581 111.85 13.3438C111.85 12.643 112.039 12.0393 112.418 11.5327C112.802 11.026 113.339 10.6354 114.03 10.3608C114.726 10.0862 115.541 9.94886 116.474 9.94886C117.851 9.94886 118.936 10.2401 119.726 10.8224C120.522 11.4048 120.986 12.1979 121.118 13.2017Z" fill="#FAFAFA"/>
<rect y="36" width="56" height="6" rx="3" fill="#DA7717"/>
</svg>
