<svg width="460" height="460" viewBox="0 0 460 460" fill="none" xmlns="http://www.w3.org/2000/svg">
<g opacity="0.5">
<path d="M460 230C460 357.025 357.025 460 230 460C102.975 460 0 357.025 0 230C0 102.975 102.975 0 230 0C357.025 0 460 102.975 460 230ZM23 230C23 344.323 115.677 437 230 437C344.323 437 437 344.323 437 230C437 115.677 344.323 23 230 23C115.677 23 23 115.677 23 230Z" fill="url(#paint0_linear_3301_6657)"/>
<path d="M418.899 229.387C418.899 124.89 334.188 40.1794 229.692 40.1794C125.195 40.1794 40.4844 124.89 40.4844 229.387C40.4844 333.883 125.195 418.594 229.692 418.594C334.188 418.594 418.899 333.883 418.899 229.387ZM66.9734 229.387C66.9734 139.52 139.825 66.6684 229.692 66.6684C319.558 66.6684 392.41 139.52 392.41 229.387C392.41 319.253 319.558 392.105 229.692 392.105C139.825 392.105 66.9734 319.253 66.9734 229.387Z" fill="url(#paint1_linear_3301_6657)"/>
</g>
<rect x="87" y="65" width="340" height="329" rx="20" fill="#FAFAFA"/>
<path d="M147.885 104.362H145.229C145.153 103.927 145.013 103.541 144.81 103.205C144.606 102.864 144.353 102.575 144.05 102.338C143.747 102.101 143.401 101.924 143.013 101.805C142.629 101.682 142.215 101.621 141.77 101.621C140.979 101.621 140.278 101.82 139.668 102.217C139.057 102.61 138.579 103.188 138.233 103.95C137.887 104.708 137.714 105.634 137.714 106.727C137.714 107.84 137.887 108.777 138.233 109.54C138.583 110.297 139.062 110.87 139.668 111.259C140.278 111.642 140.977 111.834 141.763 111.834C142.198 111.834 142.606 111.777 142.984 111.663C143.368 111.545 143.711 111.372 144.014 111.145C144.322 110.918 144.58 110.638 144.788 110.307C145.001 109.975 145.148 109.597 145.229 109.17L147.885 109.185C147.786 109.876 147.57 110.525 147.239 111.131C146.912 111.737 146.483 112.272 145.953 112.736C145.423 113.195 144.803 113.555 144.092 113.815C143.382 114.071 142.594 114.199 141.727 114.199C140.449 114.199 139.308 113.903 138.304 113.311C137.3 112.719 136.509 111.865 135.932 110.747C135.354 109.63 135.065 108.29 135.065 106.727C135.065 105.16 135.357 103.82 135.939 102.707C136.521 101.59 137.314 100.735 138.318 100.143C139.322 99.5516 140.458 99.2557 141.727 99.2557C142.537 99.2557 143.29 99.3693 143.986 99.5966C144.682 99.8239 145.302 100.158 145.847 100.598C146.391 101.034 146.839 101.569 147.189 102.203C147.544 102.833 147.776 103.553 147.885 104.362ZM152.924 114.22C152.232 114.22 151.61 114.097 151.056 113.851C150.506 113.6 150.071 113.231 149.749 112.743C149.432 112.255 149.273 111.654 149.273 110.939C149.273 110.323 149.387 109.814 149.614 109.412C149.841 109.009 150.151 108.688 150.544 108.446C150.937 108.205 151.38 108.022 151.872 107.899C152.37 107.771 152.883 107.679 153.414 107.622C154.053 107.556 154.571 107.497 154.969 107.445C155.367 107.388 155.656 107.303 155.835 107.189C156.02 107.071 156.112 106.888 156.112 106.642V106.599C156.112 106.064 155.954 105.65 155.637 105.357C155.319 105.063 154.862 104.916 154.266 104.916C153.636 104.916 153.137 105.054 152.767 105.328C152.403 105.603 152.156 105.927 152.029 106.301L149.628 105.96C149.817 105.297 150.13 104.743 150.566 104.298C151.001 103.848 151.534 103.512 152.164 103.29C152.793 103.062 153.489 102.949 154.252 102.949C154.777 102.949 155.3 103.01 155.821 103.134C156.342 103.257 156.818 103.46 157.249 103.744C157.68 104.024 158.025 104.405 158.286 104.888C158.551 105.371 158.683 105.974 158.683 106.699V114H156.212V112.501H156.127C155.97 112.804 155.75 113.089 155.466 113.354C155.187 113.614 154.834 113.825 154.408 113.986C153.986 114.142 153.492 114.22 152.924 114.22ZM153.591 112.331C154.107 112.331 154.555 112.229 154.933 112.026C155.312 111.817 155.603 111.543 155.807 111.202C156.015 110.861 156.12 110.489 156.12 110.087V108.801C156.039 108.867 155.902 108.929 155.708 108.986C155.518 109.043 155.305 109.092 155.068 109.135C154.832 109.178 154.597 109.215 154.365 109.249C154.133 109.282 153.932 109.31 153.762 109.334C153.378 109.386 153.035 109.471 152.732 109.589C152.429 109.708 152.19 109.874 152.014 110.087C151.839 110.295 151.752 110.565 151.752 110.896C151.752 111.37 151.924 111.727 152.27 111.969C152.616 112.21 153.056 112.331 153.591 112.331ZM163.44 99.4545V114H160.869V99.4545H163.44ZM170.442 114.213C169.353 114.213 168.418 113.974 167.637 113.496C166.86 113.018 166.261 112.357 165.84 111.514C165.423 110.667 165.215 109.691 165.215 108.588C165.215 107.48 165.428 106.502 165.854 105.655C166.28 104.803 166.881 104.14 167.658 103.666C168.439 103.188 169.362 102.949 170.428 102.949C171.313 102.949 172.097 103.112 172.779 103.439C173.465 103.761 174.012 104.218 174.419 104.81C174.827 105.397 175.059 106.083 175.115 106.869H172.658C172.559 106.344 172.322 105.906 171.948 105.555C171.578 105.2 171.084 105.023 170.463 105.023C169.938 105.023 169.476 105.165 169.078 105.449C168.681 105.728 168.371 106.131 168.148 106.656C167.93 107.182 167.821 107.812 167.821 108.545C167.821 109.289 167.93 109.928 168.148 110.463C168.366 110.993 168.671 111.403 169.064 111.692C169.462 111.976 169.928 112.118 170.463 112.118C170.842 112.118 171.181 112.047 171.479 111.905C171.782 111.758 172.035 111.547 172.239 111.273C172.443 110.998 172.582 110.664 172.658 110.271H175.115C175.054 111.043 174.827 111.727 174.434 112.324C174.041 112.916 173.505 113.38 172.828 113.716C172.151 114.047 171.356 114.213 170.442 114.213ZM183.78 109.412V103.091H186.351V114H183.858V112.061H183.744C183.498 112.672 183.093 113.171 182.53 113.56C181.971 113.948 181.282 114.142 180.463 114.142C179.748 114.142 179.116 113.983 178.567 113.666C178.022 113.344 177.596 112.878 177.288 112.267C176.98 111.652 176.826 110.908 176.826 110.037V103.091H179.398V109.639C179.398 110.33 179.587 110.88 179.966 111.287C180.344 111.694 180.842 111.898 181.457 111.898C181.836 111.898 182.203 111.805 182.558 111.621C182.913 111.436 183.204 111.161 183.432 110.797C183.664 110.428 183.78 109.966 183.78 109.412ZM191.165 99.4545V114H188.594V99.4545H191.165ZM196.549 114.22C195.857 114.22 195.235 114.097 194.681 113.851C194.131 113.6 193.696 113.231 193.374 112.743C193.057 112.255 192.898 111.654 192.898 110.939C192.898 110.323 193.012 109.814 193.239 109.412C193.466 109.009 193.776 108.688 194.169 108.446C194.562 108.205 195.005 108.022 195.497 107.899C195.995 107.771 196.508 107.679 197.039 107.622C197.678 107.556 198.196 107.497 198.594 107.445C198.992 107.388 199.281 107.303 199.46 107.189C199.645 107.071 199.737 106.888 199.737 106.642V106.599C199.737 106.064 199.579 105.65 199.262 105.357C198.944 105.063 198.487 104.916 197.891 104.916C197.261 104.916 196.762 105.054 196.392 105.328C196.028 105.603 195.781 105.927 195.654 106.301L193.253 105.96C193.442 105.297 193.755 104.743 194.191 104.298C194.626 103.848 195.159 103.512 195.789 103.29C196.418 103.062 197.114 102.949 197.877 102.949C198.402 102.949 198.925 103.01 199.446 103.134C199.967 103.257 200.443 103.46 200.874 103.744C201.305 104.024 201.65 104.405 201.911 104.888C202.176 105.371 202.308 105.974 202.308 106.699V114H199.837V112.501H199.752C199.595 112.804 199.375 113.089 199.091 113.354C198.812 113.614 198.459 113.825 198.033 113.986C197.611 114.142 197.117 114.22 196.549 114.22ZM197.216 112.331C197.732 112.331 198.18 112.229 198.558 112.026C198.937 111.817 199.228 111.543 199.432 111.202C199.64 110.861 199.745 110.489 199.745 110.087V108.801C199.664 108.867 199.527 108.929 199.333 108.986C199.143 109.043 198.93 109.092 198.693 109.135C198.457 109.178 198.222 109.215 197.99 109.249C197.758 109.282 197.557 109.31 197.387 109.334C197.003 109.386 196.66 109.471 196.357 109.589C196.054 109.708 195.815 109.874 195.639 110.087C195.464 110.295 195.377 110.565 195.377 110.896C195.377 111.37 195.549 111.727 195.895 111.969C196.241 112.21 196.681 112.331 197.216 112.331ZM209.941 103.091V105.08H203.67V103.091H209.941ZM205.218 100.477H207.789V110.719C207.789 111.064 207.841 111.33 207.945 111.514C208.054 111.694 208.196 111.817 208.372 111.884C208.547 111.95 208.741 111.983 208.954 111.983C209.115 111.983 209.262 111.971 209.394 111.947C209.532 111.924 209.636 111.902 209.707 111.884L210.14 113.893C210.003 113.941 209.806 113.993 209.55 114.05C209.3 114.107 208.992 114.14 208.627 114.149C207.983 114.168 207.403 114.071 206.887 113.858C206.371 113.64 205.961 113.304 205.658 112.849C205.36 112.395 205.213 111.827 205.218 111.145V100.477ZM216.404 114.213C215.31 114.213 214.365 113.986 213.57 113.531C212.779 113.072 212.171 112.423 211.745 111.585C211.318 110.742 211.105 109.75 211.105 108.609C211.105 107.487 211.318 106.502 211.745 105.655C212.175 104.803 212.777 104.14 213.549 103.666C214.32 103.188 215.227 102.949 216.269 102.949C216.941 102.949 217.576 103.058 218.172 103.276C218.773 103.489 219.304 103.82 219.763 104.27C220.227 104.72 220.592 105.293 220.857 105.989C221.122 106.68 221.255 107.504 221.255 108.46V109.249H212.313V107.516H218.79C218.785 107.023 218.679 106.585 218.47 106.202C218.262 105.813 217.971 105.508 217.597 105.286C217.228 105.063 216.797 104.952 216.304 104.952C215.779 104.952 215.317 105.08 214.919 105.335C214.522 105.586 214.211 105.918 213.989 106.33C213.771 106.737 213.66 107.184 213.655 107.672V109.185C213.655 109.819 213.771 110.364 214.003 110.818C214.235 111.268 214.559 111.614 214.976 111.855C215.393 112.092 215.88 112.21 216.439 112.21C216.813 112.21 217.152 112.158 217.455 112.054C217.758 111.945 218.021 111.786 218.243 111.578C218.466 111.37 218.634 111.112 218.747 110.804L221.148 111.074C220.996 111.708 220.708 112.262 220.282 112.736C219.86 113.205 219.32 113.569 218.662 113.83C218.004 114.085 217.251 114.213 216.404 114.213ZM229.189 118.091C228.838 118.091 228.514 118.063 228.216 118.006C227.922 117.954 227.688 117.892 227.512 117.821L228.109 115.818C228.483 115.927 228.817 115.979 229.11 115.974C229.404 115.97 229.662 115.877 229.885 115.697C230.112 115.522 230.304 115.229 230.46 114.817L230.68 114.227L226.724 103.091H229.451L231.966 111.33H232.079L234.6 103.091H237.335L232.967 115.321C232.763 115.899 232.493 116.393 232.157 116.805C231.821 117.222 231.409 117.539 230.922 117.757C230.439 117.98 229.861 118.091 229.189 118.091ZM243.101 114.213C242.036 114.213 241.113 113.979 240.332 113.51C239.55 113.041 238.944 112.385 238.513 111.543C238.087 110.7 237.874 109.715 237.874 108.588C237.874 107.461 238.087 106.474 238.513 105.626C238.944 104.779 239.55 104.121 240.332 103.652C241.113 103.183 242.036 102.949 243.101 102.949C244.167 102.949 245.09 103.183 245.871 103.652C246.653 104.121 247.256 104.779 247.682 105.626C248.113 106.474 248.329 107.461 248.329 108.588C248.329 109.715 248.113 110.7 247.682 111.543C247.256 112.385 246.653 113.041 245.871 113.51C245.09 113.979 244.167 114.213 243.101 114.213ZM243.116 112.153C243.693 112.153 244.176 111.995 244.564 111.678C244.953 111.356 245.242 110.925 245.431 110.385C245.625 109.845 245.722 109.244 245.722 108.581C245.722 107.913 245.625 107.31 245.431 106.77C245.242 106.225 244.953 105.792 244.564 105.47C244.176 105.148 243.693 104.987 243.116 104.987C242.524 104.987 242.031 105.148 241.638 105.47C241.25 105.792 240.959 106.225 240.765 106.77C240.575 107.31 240.481 107.913 240.481 108.581C240.481 109.244 240.575 109.845 240.765 110.385C240.959 110.925 241.25 111.356 241.638 111.678C242.031 111.995 242.524 112.153 243.116 112.153ZM257.064 109.412V103.091H259.635V114H257.142V112.061H257.028C256.782 112.672 256.377 113.171 255.814 113.56C255.255 113.948 254.566 114.142 253.747 114.142C253.032 114.142 252.4 113.983 251.851 113.666C251.306 113.344 250.88 112.878 250.573 112.267C250.265 111.652 250.111 110.908 250.111 110.037V103.091H252.682V109.639C252.682 110.33 252.871 110.88 253.25 111.287C253.629 111.694 254.126 111.898 254.742 111.898C255.12 111.898 255.487 111.805 255.842 111.621C256.198 111.436 256.489 111.161 256.716 110.797C256.948 110.428 257.064 109.966 257.064 109.412ZM261.879 114V103.091H264.372V104.909H264.485C264.684 104.279 265.025 103.794 265.508 103.453C265.996 103.107 266.552 102.935 267.177 102.935C267.319 102.935 267.478 102.942 267.653 102.956C267.833 102.965 267.982 102.982 268.1 103.006V105.371C267.992 105.333 267.819 105.3 267.582 105.271C267.35 105.238 267.125 105.222 266.907 105.222C266.438 105.222 266.017 105.323 265.643 105.527C265.274 105.726 264.983 106.003 264.769 106.358C264.556 106.713 264.45 107.123 264.45 107.587V114H261.879ZM273.969 118.091V103.091H276.498V104.895H276.647C276.78 104.63 276.967 104.348 277.208 104.05C277.45 103.747 277.776 103.489 278.188 103.276C278.6 103.058 279.126 102.949 279.765 102.949C280.608 102.949 281.368 103.164 282.045 103.595C282.727 104.021 283.266 104.653 283.664 105.491C284.067 106.325 284.268 107.348 284.268 108.56C284.268 109.758 284.071 110.776 283.678 111.614C283.285 112.452 282.75 113.091 282.073 113.531C281.396 113.972 280.629 114.192 279.772 114.192C279.147 114.192 278.629 114.088 278.217 113.879C277.805 113.671 277.473 113.42 277.222 113.126C276.976 112.828 276.784 112.546 276.647 112.281H276.54V118.091H273.969ZM276.491 108.545C276.491 109.251 276.59 109.869 276.789 110.399C276.993 110.929 277.284 111.344 277.663 111.642C278.046 111.936 278.51 112.082 279.055 112.082C279.623 112.082 280.099 111.931 280.482 111.628C280.866 111.32 281.155 110.901 281.349 110.371C281.548 109.836 281.647 109.227 281.647 108.545C281.647 107.868 281.55 107.267 281.356 106.741C281.162 106.216 280.873 105.804 280.489 105.506C280.106 105.207 279.628 105.058 279.055 105.058C278.505 105.058 278.039 105.203 277.656 105.491C277.272 105.78 276.981 106.185 276.782 106.706C276.588 107.227 276.491 107.84 276.491 108.545ZM289.209 114.22C288.517 114.22 287.895 114.097 287.341 113.851C286.792 113.6 286.356 113.231 286.034 112.743C285.717 112.255 285.558 111.654 285.558 110.939C285.558 110.323 285.672 109.814 285.899 109.412C286.126 109.009 286.436 108.688 286.829 108.446C287.222 108.205 287.665 108.022 288.158 107.899C288.655 107.771 289.168 107.679 289.699 107.622C290.338 107.556 290.856 107.497 291.254 107.445C291.652 107.388 291.941 107.303 292.121 107.189C292.305 107.071 292.398 106.888 292.398 106.642V106.599C292.398 106.064 292.239 105.65 291.922 105.357C291.605 105.063 291.148 104.916 290.551 104.916C289.921 104.916 289.422 105.054 289.052 105.328C288.688 105.603 288.442 105.927 288.314 106.301L285.913 105.96C286.103 105.297 286.415 104.743 286.851 104.298C287.286 103.848 287.819 103.512 288.449 103.29C289.078 103.062 289.774 102.949 290.537 102.949C291.062 102.949 291.586 103.01 292.106 103.134C292.627 103.257 293.103 103.46 293.534 103.744C293.965 104.024 294.31 104.405 294.571 104.888C294.836 105.371 294.969 105.974 294.969 106.699V114H292.497V112.501H292.412C292.256 112.804 292.035 113.089 291.751 113.354C291.472 113.614 291.119 113.825 290.693 113.986C290.272 114.142 289.777 114.22 289.209 114.22ZM289.876 112.331C290.392 112.331 290.84 112.229 291.219 112.026C291.597 111.817 291.889 111.543 292.092 111.202C292.301 110.861 292.405 110.489 292.405 110.087V108.801C292.324 108.867 292.187 108.929 291.993 108.986C291.803 109.043 291.59 109.092 291.354 109.135C291.117 109.178 290.882 109.215 290.65 109.249C290.418 109.282 290.217 109.31 290.047 109.334C289.663 109.386 289.32 109.471 289.017 109.589C288.714 109.708 288.475 109.874 288.3 110.087C288.124 110.295 288.037 110.565 288.037 110.896C288.037 111.37 288.21 111.727 288.555 111.969C288.901 112.21 289.341 112.331 289.876 112.331ZM297.154 118.091V103.091H299.682V104.895H299.831C299.964 104.63 300.151 104.348 300.392 104.05C300.634 103.747 300.961 103.489 301.373 103.276C301.785 103.058 302.31 102.949 302.949 102.949C303.792 102.949 304.552 103.164 305.229 103.595C305.911 104.021 306.451 104.653 306.848 105.491C307.251 106.325 307.452 107.348 307.452 108.56C307.452 109.758 307.256 110.776 306.863 111.614C306.47 112.452 305.935 113.091 305.258 113.531C304.58 113.972 303.813 114.192 302.956 114.192C302.331 114.192 301.813 114.088 301.401 113.879C300.989 113.671 300.658 113.42 300.407 113.126C300.16 112.828 299.969 112.546 299.831 112.281H299.725V118.091H297.154ZM299.675 108.545C299.675 109.251 299.775 109.869 299.973 110.399C300.177 110.929 300.468 111.344 300.847 111.642C301.231 111.936 301.695 112.082 302.239 112.082C302.807 112.082 303.283 111.931 303.667 111.628C304.05 111.32 304.339 110.901 304.533 110.371C304.732 109.836 304.831 109.227 304.831 108.545C304.831 107.868 304.734 107.267 304.54 106.741C304.346 106.216 304.057 105.804 303.674 105.506C303.29 105.207 302.812 105.058 302.239 105.058C301.69 105.058 301.223 105.203 300.84 105.491C300.456 105.78 300.165 106.185 299.966 106.706C299.772 107.227 299.675 107.84 299.675 108.545ZM314.083 114.213C312.99 114.213 312.045 113.986 311.25 113.531C310.459 113.072 309.85 112.423 309.424 111.585C308.998 110.742 308.785 109.75 308.785 108.609C308.785 107.487 308.998 106.502 309.424 105.655C309.855 104.803 310.456 104.14 311.228 103.666C312 103.188 312.907 102.949 313.948 102.949C314.621 102.949 315.255 103.058 315.852 103.276C316.453 103.489 316.983 103.82 317.443 104.27C317.907 104.72 318.271 105.293 318.537 105.989C318.802 106.68 318.934 107.504 318.934 108.46V109.249H309.992V107.516H316.47C316.465 107.023 316.358 106.585 316.15 106.202C315.942 105.813 315.651 105.508 315.277 105.286C314.907 105.063 314.476 104.952 313.984 104.952C313.458 104.952 312.997 105.08 312.599 105.335C312.201 105.586 311.891 105.918 311.669 106.33C311.451 106.737 311.34 107.184 311.335 107.672V109.185C311.335 109.819 311.451 110.364 311.683 110.818C311.915 111.268 312.239 111.614 312.656 111.855C313.072 112.092 313.56 112.21 314.119 112.21C314.493 112.21 314.831 112.158 315.135 112.054C315.438 111.945 315.7 111.786 315.923 111.578C316.145 111.37 316.313 111.112 316.427 110.804L318.828 111.074C318.676 111.708 318.387 112.262 317.961 112.736C317.54 113.205 317 113.569 316.342 113.83C315.684 114.085 314.931 114.213 314.083 114.213ZM320.709 114V103.091H323.202V104.909H323.316C323.515 104.279 323.856 103.794 324.339 103.453C324.826 103.107 325.383 102.935 326.008 102.935C326.15 102.935 326.308 102.942 326.483 102.956C326.663 102.965 326.813 102.982 326.931 103.006V105.371C326.822 105.333 326.649 105.3 326.412 105.271C326.18 105.238 325.956 105.222 325.738 105.222C325.269 105.222 324.848 105.323 324.474 105.527C324.104 105.726 323.813 106.003 323.6 106.358C323.387 106.713 323.28 107.123 323.28 107.587V114H320.709ZM332.8 118.091V103.091H335.328V104.895H335.477C335.61 104.63 335.797 104.348 336.039 104.05C336.28 103.747 336.607 103.489 337.019 103.276C337.431 103.058 337.956 102.949 338.595 102.949C339.438 102.949 340.198 103.164 340.875 103.595C341.557 104.021 342.097 104.653 342.495 105.491C342.897 106.325 343.098 107.348 343.098 108.56C343.098 109.758 342.902 110.776 342.509 111.614C342.116 112.452 341.581 113.091 340.904 113.531C340.227 113.972 339.459 114.192 338.602 114.192C337.977 114.192 337.459 114.088 337.047 113.879C336.635 113.671 336.304 113.42 336.053 113.126C335.807 112.828 335.615 112.546 335.477 112.281H335.371V118.091H332.8ZM335.321 108.545C335.321 109.251 335.421 109.869 335.62 110.399C335.823 110.929 336.114 111.344 336.493 111.642C336.877 111.936 337.341 112.082 337.885 112.082C338.453 112.082 338.929 111.931 339.313 111.628C339.696 111.32 339.985 110.901 340.179 110.371C340.378 109.836 340.477 109.227 340.477 108.545C340.477 107.868 340.38 107.267 340.186 106.741C339.992 106.216 339.703 105.804 339.32 105.506C338.936 105.207 338.458 105.058 337.885 105.058C337.336 105.058 336.87 105.203 336.486 105.491C336.102 105.78 335.811 106.185 335.612 106.706C335.418 107.227 335.321 107.84 335.321 108.545ZM344.9 114V103.091H347.393V104.909H347.506C347.705 104.279 348.046 103.794 348.529 103.453C349.017 103.107 349.573 102.935 350.198 102.935C350.34 102.935 350.499 102.942 350.674 102.956C350.854 102.965 351.003 102.982 351.122 103.006V105.371C351.013 105.333 350.84 105.3 350.603 105.271C350.371 105.238 350.146 105.222 349.928 105.222C349.46 105.222 349.038 105.323 348.664 105.527C348.295 105.726 348.004 106.003 347.791 106.358C347.577 106.713 347.471 107.123 347.471 107.587V114H344.9ZM352.43 114V103.091H355.001V114H352.43ZM353.722 101.543C353.315 101.543 352.965 101.408 352.671 101.138C352.378 100.863 352.231 100.534 352.231 100.151C352.231 99.7623 352.378 99.4332 352.671 99.1634C352.965 98.8887 353.315 98.7514 353.722 98.7514C354.134 98.7514 354.485 98.8887 354.773 99.1634C355.067 99.4332 355.214 99.7623 355.214 100.151C355.214 100.534 355.067 100.863 354.773 101.138C354.485 101.408 354.134 101.543 353.722 101.543ZM362.003 114.213C360.914 114.213 359.979 113.974 359.198 113.496C358.421 113.018 357.822 112.357 357.401 111.514C356.984 110.667 356.776 109.691 356.776 108.588C356.776 107.48 356.989 106.502 357.415 105.655C357.841 104.803 358.442 104.14 359.219 103.666C360 103.188 360.923 102.949 361.989 102.949C362.874 102.949 363.658 103.112 364.34 103.439C365.026 103.761 365.573 104.218 365.98 104.81C366.387 105.397 366.619 106.083 366.676 106.869H364.219C364.119 106.344 363.883 105.906 363.509 105.555C363.139 105.2 362.645 105.023 362.024 105.023C361.499 105.023 361.037 105.165 360.639 105.449C360.242 105.728 359.931 106.131 359.709 106.656C359.491 107.182 359.382 107.812 359.382 108.545C359.382 109.289 359.491 109.928 359.709 110.463C359.927 110.993 360.232 111.403 360.625 111.692C361.023 111.976 361.489 112.118 362.024 112.118C362.403 112.118 362.742 112.047 363.04 111.905C363.343 111.758 363.596 111.547 363.8 111.273C364.003 110.998 364.143 110.664 364.219 110.271H366.676C366.615 111.043 366.387 111.727 365.994 112.324C365.601 112.916 365.066 113.38 364.389 113.716C363.712 114.047 362.917 114.213 362.003 114.213ZM373.217 114.213C372.123 114.213 371.179 113.986 370.383 113.531C369.592 113.072 368.984 112.423 368.558 111.585C368.132 110.742 367.919 109.75 367.919 108.609C367.919 107.487 368.132 106.502 368.558 105.655C368.989 104.803 369.59 104.14 370.362 103.666C371.134 103.188 372.04 102.949 373.082 102.949C373.754 102.949 374.389 103.058 374.985 103.276C375.587 103.489 376.117 103.82 376.576 104.27C377.04 104.72 377.405 105.293 377.67 105.989C377.935 106.68 378.068 107.504 378.068 108.46V109.249H369.126V107.516H375.603C375.599 107.023 375.492 106.585 375.284 106.202C375.075 105.813 374.784 105.508 374.41 105.286C374.041 105.063 373.61 104.952 373.118 104.952C372.592 104.952 372.13 105.08 371.733 105.335C371.335 105.586 371.025 105.918 370.802 106.33C370.584 106.737 370.473 107.184 370.468 107.672V109.185C370.468 109.819 370.584 110.364 370.816 110.818C371.048 111.268 371.373 111.614 371.789 111.855C372.206 112.092 372.694 112.21 373.252 112.21C373.627 112.21 373.965 112.158 374.268 112.054C374.571 111.945 374.834 111.786 375.056 111.578C375.279 111.37 375.447 111.112 375.561 110.804L377.961 111.074C377.81 111.708 377.521 112.262 377.095 112.736C376.673 113.205 376.134 113.569 375.475 113.83C374.817 114.085 374.065 114.213 373.217 114.213Z" fill="#1A1A1A"/>
<path opacity="0.7" d="M125.801 156.364C125.741 155.86 125.5 155.469 125.075 155.19C124.651 154.912 124.131 154.773 123.514 154.773C123.063 154.773 122.669 154.846 122.331 154.991C121.996 155.137 121.734 155.338 121.545 155.593C121.36 155.848 121.267 156.138 121.267 156.463C121.267 156.735 121.332 156.969 121.461 157.164C121.594 157.356 121.763 157.517 121.968 157.646C122.174 157.772 122.389 157.877 122.614 157.96C122.84 158.039 123.047 158.104 123.236 158.153L124.27 158.432C124.535 158.501 124.83 158.598 125.155 158.72C125.483 158.843 125.796 159.01 126.094 159.222C126.396 159.431 126.645 159.7 126.84 160.028C127.036 160.356 127.134 160.759 127.134 161.236C127.134 161.786 126.989 162.283 126.701 162.727C126.416 163.171 125.998 163.524 125.448 163.786C124.901 164.048 124.237 164.179 123.455 164.179C122.725 164.179 122.094 164.061 121.56 163.826C121.03 163.591 120.612 163.263 120.308 162.842C120.006 162.421 119.835 161.932 119.795 161.375H121.068C121.101 161.759 121.231 162.078 121.456 162.33C121.685 162.578 121.973 162.764 122.321 162.886C122.672 163.006 123.05 163.065 123.455 163.065C123.925 163.065 124.348 162.989 124.722 162.837C125.097 162.681 125.393 162.465 125.612 162.19C125.831 161.912 125.94 161.587 125.94 161.216C125.94 160.878 125.846 160.603 125.657 160.391C125.468 160.179 125.219 160.006 124.911 159.874C124.603 159.741 124.27 159.625 123.912 159.526L122.659 159.168C121.864 158.939 121.234 158.612 120.77 158.188C120.306 157.764 120.074 157.209 120.074 156.523C120.074 155.953 120.228 155.455 120.536 155.031C120.848 154.604 121.265 154.272 121.789 154.037C122.316 153.798 122.904 153.679 123.554 153.679C124.21 153.679 124.794 153.797 125.304 154.032C125.814 154.264 126.219 154.582 126.517 154.987C126.819 155.391 126.978 155.85 126.994 156.364H125.801ZM132.203 164.159C131.468 164.159 130.833 163.997 130.299 163.672C129.769 163.344 129.36 162.886 129.071 162.3C128.786 161.71 128.644 161.024 128.644 160.241C128.644 159.459 128.786 158.77 129.071 158.173C129.36 157.573 129.761 157.106 130.274 156.771C130.791 156.433 131.395 156.264 132.084 156.264C132.482 156.264 132.874 156.33 133.262 156.463C133.65 156.596 134.003 156.811 134.321 157.109C134.639 157.404 134.893 157.795 135.082 158.283C135.271 158.77 135.365 159.37 135.365 160.082V160.58H129.479V159.565H134.172C134.172 159.134 134.086 158.75 133.914 158.412C133.744 158.074 133.503 157.807 133.188 157.612C132.876 157.416 132.508 157.318 132.084 157.318C131.617 157.318 131.212 157.434 130.871 157.666C130.533 157.895 130.273 158.193 130.09 158.561C129.908 158.929 129.817 159.323 129.817 159.744V160.42C129.817 160.997 129.916 161.486 130.115 161.887C130.317 162.285 130.597 162.588 130.955 162.797C131.313 163.002 131.729 163.105 132.203 163.105C132.512 163.105 132.79 163.062 133.039 162.976C133.29 162.886 133.508 162.754 133.69 162.578C133.872 162.399 134.013 162.177 134.112 161.912L135.246 162.23C135.127 162.615 134.926 162.953 134.644 163.244C134.363 163.533 134.015 163.758 133.6 163.92C133.186 164.08 132.72 164.159 132.203 164.159ZM137.15 164V156.364H138.284V157.517H138.363C138.502 157.139 138.754 156.833 139.119 156.597C139.483 156.362 139.894 156.244 140.352 156.244C140.438 156.244 140.546 156.246 140.675 156.249C140.804 156.253 140.902 156.258 140.968 156.264V157.457C140.928 157.447 140.837 157.433 140.695 157.413C140.556 157.389 140.408 157.378 140.252 157.378C139.881 157.378 139.55 157.456 139.258 157.612C138.97 157.764 138.741 157.976 138.572 158.248C138.406 158.516 138.323 158.823 138.323 159.168V164H137.15ZM148.836 156.364L146.012 164H144.819L141.995 156.364H143.268L145.376 162.449H145.455L147.563 156.364H148.836ZM150.384 164V156.364H151.558V164H150.384ZM150.981 155.091C150.752 155.091 150.555 155.013 150.389 154.857C150.227 154.701 150.146 154.514 150.146 154.295C150.146 154.077 150.227 153.889 150.389 153.734C150.555 153.578 150.752 153.5 150.981 153.5C151.21 153.5 151.405 153.578 151.568 153.734C151.733 153.889 151.816 154.077 151.816 154.295C151.816 154.514 151.733 154.701 151.568 154.857C151.405 155.013 151.21 155.091 150.981 155.091ZM156.809 164.159C156.093 164.159 155.477 163.99 154.96 163.652C154.442 163.314 154.045 162.848 153.766 162.255C153.488 161.662 153.349 160.984 153.349 160.222C153.349 159.446 153.491 158.762 153.776 158.168C154.065 157.572 154.466 157.106 154.979 156.771C155.496 156.433 156.1 156.264 156.789 156.264C157.326 156.264 157.81 156.364 158.241 156.562C158.672 156.761 159.025 157.04 159.3 157.398C159.575 157.756 159.746 158.173 159.812 158.651H158.638C158.549 158.303 158.35 157.994 158.042 157.726C157.737 157.454 157.326 157.318 156.809 157.318C156.352 157.318 155.951 157.437 155.606 157.676C155.264 157.911 154.998 158.245 154.805 158.675C154.616 159.103 154.522 159.605 154.522 160.182C154.522 160.772 154.615 161.286 154.8 161.723C154.989 162.161 155.254 162.5 155.596 162.742C155.941 162.984 156.345 163.105 156.809 163.105C157.114 163.105 157.391 163.052 157.639 162.946C157.888 162.84 158.098 162.688 158.271 162.489C158.443 162.29 158.566 162.051 158.638 161.773H159.812C159.746 162.223 159.581 162.629 159.32 162.991C159.061 163.349 158.718 163.634 158.29 163.846C157.866 164.055 157.372 164.159 156.809 164.159ZM164.729 164.159C163.993 164.159 163.358 163.997 162.825 163.672C162.294 163.344 161.885 162.886 161.597 162.3C161.312 161.71 161.169 161.024 161.169 160.241C161.169 159.459 161.312 158.77 161.597 158.173C161.885 157.573 162.286 157.106 162.8 156.771C163.317 156.433 163.92 156.264 164.609 156.264C165.007 156.264 165.4 156.33 165.788 156.463C166.175 156.596 166.528 156.811 166.847 157.109C167.165 157.404 167.418 157.795 167.607 158.283C167.796 158.77 167.891 159.37 167.891 160.082V160.58H162.004V159.565H166.697C166.697 159.134 166.611 158.75 166.439 158.412C166.27 158.074 166.028 157.807 165.713 157.612C165.402 157.416 165.034 157.318 164.609 157.318C164.142 157.318 163.738 157.434 163.396 157.666C163.058 157.895 162.798 158.193 162.616 158.561C162.433 158.929 162.342 159.323 162.342 159.744V160.42C162.342 160.997 162.442 161.486 162.641 161.887C162.843 162.285 163.123 162.588 163.481 162.797C163.839 163.002 164.255 163.105 164.729 163.105C165.037 163.105 165.315 163.062 165.564 162.976C165.816 162.886 166.033 162.754 166.215 162.578C166.397 162.399 166.538 162.177 166.638 161.912L167.771 162.23C167.652 162.615 167.451 162.953 167.17 163.244C166.888 163.533 166.54 163.758 166.126 163.92C165.711 164.08 165.246 164.159 164.729 164.159Z" fill="#1A1A1A"/>
<path d="M128.278 201V189.364H132.426C133.331 189.364 134.081 189.528 134.676 189.858C135.271 190.187 135.716 190.638 136.011 191.21C136.307 191.778 136.455 192.419 136.455 193.131C136.455 193.847 136.305 194.491 136.006 195.062C135.71 195.631 135.263 196.081 134.665 196.415C134.07 196.744 133.322 196.909 132.42 196.909H129.568V195.42H132.261C132.833 195.42 133.297 195.322 133.653 195.125C134.009 194.924 134.271 194.652 134.438 194.307C134.604 193.962 134.688 193.57 134.688 193.131C134.688 192.691 134.604 192.301 134.438 191.96C134.271 191.619 134.008 191.352 133.648 191.159C133.292 190.966 132.822 190.869 132.239 190.869H130.034V201H128.278ZM138.376 201V192.273H140.018V193.659H140.109C140.268 193.189 140.549 192.82 140.95 192.551C141.356 192.278 141.814 192.142 142.325 192.142C142.431 192.142 142.556 192.146 142.7 192.153C142.848 192.161 142.964 192.17 143.047 192.182V193.807C142.979 193.788 142.857 193.767 142.683 193.744C142.509 193.718 142.335 193.705 142.161 193.705C141.759 193.705 141.401 193.79 141.087 193.96C140.776 194.127 140.53 194.36 140.348 194.659C140.166 194.955 140.075 195.292 140.075 195.67V201H138.376ZM147.881 201.176C147.063 201.176 146.348 200.989 145.739 200.614C145.129 200.239 144.655 199.714 144.318 199.04C143.981 198.366 143.812 197.578 143.812 196.676C143.812 195.771 143.981 194.979 144.318 194.301C144.655 193.623 145.129 193.097 145.739 192.722C146.348 192.347 147.063 192.159 147.881 192.159C148.699 192.159 149.413 192.347 150.023 192.722C150.633 193.097 151.106 193.623 151.443 194.301C151.78 194.979 151.949 195.771 151.949 196.676C151.949 197.578 151.78 198.366 151.443 199.04C151.106 199.714 150.633 200.239 150.023 200.614C149.413 200.989 148.699 201.176 147.881 201.176ZM147.886 199.75C148.417 199.75 148.856 199.61 149.205 199.33C149.553 199.049 149.811 198.676 149.977 198.21C150.148 197.744 150.233 197.231 150.233 196.67C150.233 196.114 150.148 195.602 149.977 195.136C149.811 194.667 149.553 194.29 149.205 194.006C148.856 193.722 148.417 193.58 147.886 193.58C147.352 193.58 146.909 193.722 146.557 194.006C146.208 194.29 145.949 194.667 145.778 195.136C145.612 195.602 145.528 196.114 145.528 196.67C145.528 197.231 145.612 197.744 145.778 198.21C145.949 198.676 146.208 199.049 146.557 199.33C146.909 199.61 147.352 199.75 147.886 199.75ZM157.999 192.273V193.636H153.067V192.273H157.999ZM154.419 201V191.261C154.419 190.716 154.538 190.263 154.777 189.903C155.016 189.54 155.332 189.269 155.726 189.091C156.12 188.909 156.548 188.818 157.01 188.818C157.351 188.818 157.643 188.847 157.885 188.903C158.127 188.956 158.307 189.006 158.425 189.051L158.027 190.426C157.947 190.403 157.845 190.377 157.72 190.347C157.595 190.312 157.444 190.295 157.266 190.295C156.853 190.295 156.557 190.398 156.379 190.602C156.205 190.807 156.118 191.102 156.118 191.489V201H154.419ZM163.169 201.176C162.309 201.176 161.569 200.992 160.947 200.625C160.33 200.254 159.853 199.733 159.516 199.062C159.182 198.388 159.016 197.598 159.016 196.693C159.016 195.799 159.182 195.011 159.516 194.33C159.853 193.648 160.322 193.116 160.925 192.733C161.531 192.35 162.239 192.159 163.05 192.159C163.542 192.159 164.019 192.241 164.482 192.403C164.944 192.566 165.358 192.822 165.726 193.17C166.093 193.519 166.383 193.972 166.595 194.528C166.807 195.081 166.913 195.754 166.913 196.545V197.148H159.976V195.875H165.249C165.249 195.428 165.158 195.032 164.976 194.688C164.794 194.339 164.538 194.064 164.209 193.864C163.883 193.663 163.5 193.562 163.061 193.562C162.584 193.562 162.167 193.68 161.811 193.915C161.459 194.146 161.186 194.449 160.993 194.824C160.804 195.195 160.709 195.598 160.709 196.034V197.028C160.709 197.612 160.811 198.108 161.016 198.517C161.224 198.926 161.514 199.239 161.885 199.455C162.256 199.667 162.69 199.773 163.186 199.773C163.508 199.773 163.802 199.727 164.067 199.636C164.332 199.542 164.561 199.402 164.754 199.216C164.947 199.03 165.095 198.801 165.197 198.528L166.805 198.818C166.677 199.292 166.446 199.706 166.112 200.062C165.783 200.415 165.368 200.689 164.868 200.886C164.372 201.08 163.805 201.176 163.169 201.176ZM175.338 194.403L173.798 194.676C173.734 194.479 173.632 194.292 173.491 194.114C173.355 193.936 173.17 193.79 172.935 193.676C172.7 193.562 172.406 193.506 172.054 193.506C171.573 193.506 171.171 193.614 170.849 193.83C170.527 194.042 170.366 194.316 170.366 194.653C170.366 194.945 170.474 195.18 170.69 195.358C170.906 195.536 171.255 195.682 171.736 195.795L173.122 196.114C173.925 196.299 174.524 196.585 174.918 196.972C175.312 197.358 175.509 197.86 175.509 198.477C175.509 199 175.357 199.466 175.054 199.875C174.755 200.28 174.336 200.598 173.798 200.83C173.264 201.061 172.645 201.176 171.94 201.176C170.963 201.176 170.166 200.968 169.548 200.551C168.931 200.131 168.552 199.534 168.412 198.761L170.054 198.511C170.156 198.939 170.366 199.263 170.685 199.483C171.003 199.699 171.418 199.807 171.929 199.807C172.486 199.807 172.931 199.691 173.264 199.46C173.598 199.225 173.764 198.939 173.764 198.602C173.764 198.33 173.662 198.1 173.457 197.915C173.257 197.729 172.948 197.589 172.531 197.494L171.054 197.17C170.24 196.985 169.637 196.689 169.247 196.284C168.861 195.879 168.668 195.366 168.668 194.744C168.668 194.229 168.812 193.778 169.099 193.392C169.387 193.006 169.785 192.705 170.293 192.489C170.8 192.269 171.382 192.159 172.037 192.159C172.98 192.159 173.723 192.364 174.264 192.773C174.806 193.178 175.164 193.722 175.338 194.403ZM183.916 194.403L182.376 194.676C182.312 194.479 182.21 194.292 182.07 194.114C181.933 193.936 181.748 193.79 181.513 193.676C181.278 193.562 180.984 193.506 180.632 193.506C180.151 193.506 179.75 193.614 179.428 193.83C179.106 194.042 178.945 194.316 178.945 194.653C178.945 194.945 179.053 195.18 179.268 195.358C179.484 195.536 179.833 195.682 180.314 195.795L181.7 196.114C182.503 196.299 183.102 196.585 183.496 196.972C183.89 197.358 184.087 197.86 184.087 198.477C184.087 199 183.935 199.466 183.632 199.875C183.333 200.28 182.914 200.598 182.376 200.83C181.842 201.061 181.223 201.176 180.518 201.176C179.541 201.176 178.744 200.968 178.126 200.551C177.509 200.131 177.13 199.534 176.99 198.761L178.632 198.511C178.734 198.939 178.945 199.263 179.263 199.483C179.581 199.699 179.996 199.807 180.507 199.807C181.064 199.807 181.509 199.691 181.842 199.46C182.176 199.225 182.342 198.939 182.342 198.602C182.342 198.33 182.24 198.1 182.036 197.915C181.835 197.729 181.526 197.589 181.109 197.494L179.632 197.17C178.818 196.985 178.215 196.689 177.825 196.284C177.439 195.879 177.246 195.366 177.246 194.744C177.246 194.229 177.39 193.778 177.678 193.392C177.965 193.006 178.363 192.705 178.871 192.489C179.378 192.269 179.96 192.159 180.615 192.159C181.558 192.159 182.301 192.364 182.842 192.773C183.384 193.178 183.742 193.722 183.916 194.403ZM185.955 201V192.273H187.653V201H185.955ZM186.812 190.926C186.517 190.926 186.263 190.828 186.051 190.631C185.843 190.43 185.739 190.191 185.739 189.915C185.739 189.634 185.843 189.396 186.051 189.199C186.263 188.998 186.517 188.898 186.812 188.898C187.108 188.898 187.36 188.998 187.568 189.199C187.78 189.396 187.886 189.634 187.886 189.915C187.886 190.191 187.78 190.43 187.568 190.631C187.36 190.828 187.108 190.926 186.812 190.926ZM193.615 201.176C192.797 201.176 192.083 200.989 191.473 200.614C190.863 200.239 190.39 199.714 190.053 199.04C189.715 198.366 189.547 197.578 189.547 196.676C189.547 195.771 189.715 194.979 190.053 194.301C190.39 193.623 190.863 193.097 191.473 192.722C192.083 192.347 192.797 192.159 193.615 192.159C194.433 192.159 195.147 192.347 195.757 192.722C196.367 193.097 196.84 193.623 197.178 194.301C197.515 194.979 197.683 195.771 197.683 196.676C197.683 197.578 197.515 198.366 197.178 199.04C196.84 199.714 196.367 200.239 195.757 200.614C195.147 200.989 194.433 201.176 193.615 201.176ZM193.621 199.75C194.151 199.75 194.59 199.61 194.939 199.33C195.287 199.049 195.545 198.676 195.712 198.21C195.882 197.744 195.967 197.231 195.967 196.67C195.967 196.114 195.882 195.602 195.712 195.136C195.545 194.667 195.287 194.29 194.939 194.006C194.59 193.722 194.151 193.58 193.621 193.58C193.087 193.58 192.643 193.722 192.291 194.006C191.943 194.29 191.683 194.667 191.513 195.136C191.346 195.602 191.263 196.114 191.263 196.67C191.263 197.231 191.346 197.744 191.513 198.21C191.683 198.676 191.943 199.049 192.291 199.33C192.643 199.61 193.087 199.75 193.621 199.75ZM201.278 195.818V201H199.58V192.273H201.21V193.693H201.318C201.519 193.231 201.833 192.86 202.261 192.58C202.693 192.299 203.237 192.159 203.892 192.159C204.487 192.159 205.008 192.284 205.455 192.534C205.902 192.78 206.248 193.148 206.494 193.636C206.741 194.125 206.864 194.729 206.864 195.449V201H205.165V195.653C205.165 195.021 205 194.527 204.67 194.17C204.341 193.811 203.888 193.631 203.312 193.631C202.919 193.631 202.568 193.716 202.261 193.886C201.958 194.057 201.718 194.307 201.54 194.636C201.366 194.962 201.278 195.356 201.278 195.818ZM211.682 201.193C211.129 201.193 210.629 201.091 210.182 200.886C209.735 200.678 209.381 200.377 209.119 199.983C208.862 199.589 208.733 199.106 208.733 198.534C208.733 198.042 208.828 197.636 209.017 197.318C209.206 197 209.462 196.748 209.784 196.562C210.106 196.377 210.466 196.237 210.864 196.142C211.261 196.047 211.667 195.975 212.08 195.926C212.602 195.866 213.027 195.816 213.352 195.778C213.678 195.737 213.915 195.67 214.062 195.58C214.21 195.489 214.284 195.341 214.284 195.136V195.097C214.284 194.6 214.144 194.216 213.864 193.943C213.587 193.67 213.174 193.534 212.625 193.534C212.053 193.534 211.602 193.661 211.273 193.915C210.947 194.165 210.722 194.443 210.597 194.75L209 194.386C209.189 193.856 209.466 193.428 209.83 193.102C210.197 192.773 210.619 192.534 211.097 192.386C211.574 192.235 212.076 192.159 212.602 192.159C212.951 192.159 213.32 192.201 213.71 192.284C214.104 192.364 214.472 192.511 214.812 192.727C215.157 192.943 215.439 193.252 215.659 193.653C215.879 194.051 215.989 194.568 215.989 195.205V201H214.33V199.807H214.261C214.152 200.027 213.987 200.242 213.767 200.455C213.547 200.667 213.265 200.843 212.92 200.983C212.576 201.123 212.163 201.193 211.682 201.193ZM212.051 199.83C212.521 199.83 212.922 199.737 213.256 199.551C213.593 199.366 213.848 199.123 214.023 198.824C214.201 198.521 214.29 198.197 214.29 197.852V196.727C214.229 196.788 214.112 196.845 213.938 196.898C213.767 196.947 213.572 196.991 213.352 197.028C213.133 197.062 212.919 197.095 212.71 197.125C212.502 197.152 212.328 197.174 212.188 197.193C211.858 197.235 211.557 197.305 211.284 197.403C211.015 197.502 210.799 197.644 210.636 197.83C210.477 198.011 210.398 198.254 210.398 198.557C210.398 198.977 210.553 199.295 210.864 199.511C211.174 199.723 211.57 199.83 212.051 199.83ZM219.95 189.364V201H218.251V189.364H219.95ZM236.271 193.148H234.499C234.43 192.769 234.304 192.436 234.118 192.148C233.932 191.86 233.705 191.616 233.436 191.415C233.167 191.214 232.866 191.062 232.533 190.96C232.203 190.858 231.853 190.807 231.482 190.807C230.811 190.807 230.211 190.975 229.68 191.312C229.154 191.65 228.737 192.144 228.43 192.795C228.127 193.447 227.976 194.242 227.976 195.182C227.976 196.129 228.127 196.928 228.43 197.58C228.737 198.231 229.156 198.723 229.686 199.057C230.216 199.39 230.813 199.557 231.476 199.557C231.843 199.557 232.192 199.508 232.521 199.409C232.855 199.307 233.156 199.157 233.425 198.96C233.694 198.763 233.921 198.523 234.107 198.239C234.296 197.951 234.427 197.621 234.499 197.25L236.271 197.256C236.177 197.828 235.993 198.354 235.72 198.835C235.451 199.312 235.105 199.725 234.68 200.074C234.26 200.419 233.779 200.686 233.237 200.875C232.696 201.064 232.105 201.159 231.464 201.159C230.457 201.159 229.559 200.92 228.771 200.443C227.983 199.962 227.362 199.275 226.908 198.381C226.457 197.487 226.232 196.42 226.232 195.182C226.232 193.939 226.459 192.873 226.913 191.983C227.368 191.089 227.989 190.403 228.777 189.926C229.565 189.445 230.461 189.205 231.464 189.205C232.082 189.205 232.658 189.294 233.192 189.472C233.73 189.646 234.213 189.903 234.641 190.244C235.069 190.581 235.423 190.994 235.703 191.483C235.983 191.968 236.173 192.523 236.271 193.148ZM239.389 189.364L242.628 198.841H242.759L245.997 189.364H247.895L243.707 201H241.679L237.491 189.364H239.389Z" fill="#1A1A1A"/>
<rect x="119" y="173" width="276" height="44" rx="5" stroke="#1A1A1A" stroke-opacity="0.5" stroke-width="0.5"/>
<path opacity="0.7" d="M123.375 244H120.233V233.818H123.514C124.502 233.818 125.347 234.022 126.05 234.43C126.752 234.834 127.291 235.416 127.665 236.175C128.04 236.93 128.227 237.835 128.227 238.889C128.227 239.95 128.038 240.863 127.661 241.629C127.283 242.391 126.732 242.978 126.01 243.388C125.287 243.796 124.409 244 123.375 244ZM121.466 242.906H123.295C124.137 242.906 124.835 242.744 125.388 242.419C125.942 242.094 126.355 241.632 126.626 241.032C126.898 240.432 127.034 239.718 127.034 238.889C127.034 238.067 126.9 237.36 126.631 236.766C126.363 236.17 125.962 235.712 125.428 235.394C124.895 235.073 124.23 234.912 123.435 234.912H121.466V242.906ZM133.338 244.159C132.602 244.159 131.968 243.997 131.434 243.672C130.904 243.344 130.494 242.886 130.206 242.3C129.921 241.71 129.778 241.024 129.778 240.241C129.778 239.459 129.921 238.77 130.206 238.173C130.494 237.573 130.895 237.106 131.409 236.771C131.926 236.433 132.529 236.264 133.219 236.264C133.616 236.264 134.009 236.33 134.397 236.463C134.785 236.596 135.138 236.811 135.456 237.109C135.774 237.404 136.028 237.795 136.217 238.283C136.406 238.77 136.5 239.37 136.5 240.082V240.58H130.614V239.565H135.307C135.307 239.134 135.221 238.75 135.048 238.412C134.879 238.074 134.637 237.807 134.322 237.612C134.011 237.416 133.643 237.318 133.219 237.318C132.751 237.318 132.347 237.434 132.006 237.666C131.668 237.895 131.407 238.193 131.225 238.561C131.043 238.929 130.952 239.323 130.952 239.744V240.42C130.952 240.997 131.051 241.486 131.25 241.887C131.452 242.285 131.732 242.588 132.09 242.797C132.448 243.002 132.864 243.105 133.338 243.105C133.646 243.105 133.925 243.062 134.173 242.976C134.425 242.886 134.642 242.754 134.825 242.578C135.007 242.399 135.148 242.177 135.247 241.912L136.381 242.23C136.261 242.615 136.061 242.953 135.779 243.244C135.497 243.533 135.149 243.758 134.735 243.92C134.321 244.08 133.855 244.159 133.338 244.159ZM140.532 244.179C140.048 244.179 139.609 244.088 139.214 243.906C138.82 243.72 138.507 243.453 138.275 243.105C138.043 242.754 137.927 242.33 137.927 241.832C137.927 241.395 138.013 241.04 138.185 240.768C138.358 240.493 138.588 240.278 138.876 240.122C139.165 239.966 139.483 239.85 139.831 239.774C140.182 239.695 140.535 239.632 140.89 239.585C141.354 239.526 141.73 239.481 142.018 239.451C142.31 239.418 142.522 239.363 142.655 239.287C142.791 239.211 142.859 239.078 142.859 238.889V238.849C142.859 238.359 142.724 237.978 142.456 237.706C142.191 237.434 141.788 237.298 141.248 237.298C140.688 237.298 140.249 237.421 139.93 237.666C139.612 237.911 139.388 238.173 139.259 238.452L138.146 238.054C138.344 237.59 138.61 237.229 138.941 236.97C139.276 236.708 139.64 236.526 140.035 236.423C140.433 236.317 140.824 236.264 141.208 236.264C141.453 236.264 141.735 236.294 142.053 236.354C142.375 236.41 142.685 236.528 142.983 236.707C143.285 236.886 143.535 237.156 143.734 237.517C143.933 237.878 144.032 238.362 144.032 238.969V244H142.859V242.966H142.799C142.719 243.132 142.587 243.309 142.401 243.498C142.216 243.687 141.969 243.848 141.661 243.98C141.352 244.113 140.976 244.179 140.532 244.179ZM140.711 243.125C141.175 243.125 141.566 243.034 141.884 242.852C142.206 242.669 142.448 242.434 142.61 242.146C142.776 241.857 142.859 241.554 142.859 241.236V240.162C142.809 240.222 142.7 240.276 142.531 240.326C142.365 240.372 142.173 240.414 141.954 240.45C141.738 240.483 141.528 240.513 141.322 240.54C141.12 240.563 140.956 240.583 140.83 240.599C140.525 240.639 140.24 240.704 139.975 240.793C139.713 240.879 139.501 241.01 139.339 241.186C139.18 241.358 139.1 241.594 139.1 241.892C139.1 242.3 139.251 242.608 139.553 242.817C139.857 243.022 140.244 243.125 140.711 243.125ZM149.057 244.159C148.421 244.159 147.859 243.998 147.372 243.677C146.884 243.352 146.503 242.895 146.228 242.305C145.953 241.711 145.816 241.01 145.816 240.202C145.816 239.4 145.953 238.704 146.228 238.114C146.503 237.524 146.886 237.068 147.377 236.746C147.867 236.425 148.434 236.264 149.077 236.264C149.574 236.264 149.967 236.347 150.255 236.513C150.547 236.675 150.769 236.861 150.921 237.07C151.077 237.275 151.198 237.444 151.284 237.577H151.384V233.818H152.557V244H151.423V242.827H151.284C151.198 242.966 151.075 243.142 150.916 243.354C150.757 243.562 150.53 243.75 150.235 243.915C149.94 244.078 149.548 244.159 149.057 244.159ZM149.216 243.105C149.687 243.105 150.084 242.982 150.409 242.737C150.734 242.489 150.981 242.146 151.15 241.708C151.319 241.267 151.404 240.759 151.404 240.182C151.404 239.612 151.321 239.113 151.155 238.685C150.989 238.254 150.744 237.92 150.419 237.681C150.094 237.439 149.693 237.318 149.216 237.318C148.719 237.318 148.305 237.446 147.973 237.701C147.645 237.953 147.398 238.296 147.232 238.73C147.07 239.161 146.989 239.645 146.989 240.182C146.989 240.725 147.072 241.219 147.237 241.663C147.406 242.104 147.655 242.455 147.983 242.717C148.315 242.976 148.726 243.105 149.216 243.105ZM156.042 233.818V244H154.869V233.818H156.042ZM158.191 244V236.364H159.364V244H158.191ZM158.788 235.091C158.559 235.091 158.362 235.013 158.196 234.857C158.034 234.701 157.952 234.514 157.952 234.295C157.952 234.077 158.034 233.889 158.196 233.734C158.362 233.578 158.559 233.5 158.788 233.5C159.016 233.5 159.212 233.578 159.374 233.734C159.54 233.889 159.623 234.077 159.623 234.295C159.623 234.514 159.54 234.701 159.374 234.857C159.212 235.013 159.016 235.091 158.788 235.091ZM162.687 239.406V244H161.513V236.364H162.647V237.557H162.746C162.925 237.169 163.197 236.857 163.562 236.622C163.926 236.384 164.397 236.264 164.974 236.264C165.491 236.264 165.943 236.37 166.331 236.582C166.719 236.791 167.02 237.109 167.236 237.537C167.451 237.961 167.559 238.498 167.559 239.148V244H166.385V239.227C166.385 238.627 166.23 238.16 165.918 237.825C165.607 237.487 165.179 237.318 164.635 237.318C164.261 237.318 163.926 237.399 163.631 237.562C163.34 237.724 163.109 237.961 162.94 238.273C162.771 238.584 162.687 238.962 162.687 239.406ZM172.904 244.159C172.169 244.159 171.534 243.997 171 243.672C170.47 243.344 170.061 242.886 169.772 242.3C169.487 241.71 169.345 241.024 169.345 240.241C169.345 239.459 169.487 238.77 169.772 238.173C170.061 237.573 170.462 237.106 170.975 236.771C171.493 236.433 172.096 236.264 172.785 236.264C173.183 236.264 173.576 236.33 173.963 236.463C174.351 236.596 174.704 236.811 175.022 237.109C175.341 237.404 175.594 237.795 175.783 238.283C175.972 238.77 176.066 239.37 176.066 240.082V240.58H170.18V239.565H174.873C174.873 239.134 174.787 238.75 174.615 238.412C174.446 238.074 174.204 237.807 173.889 237.612C173.577 237.416 173.209 237.318 172.785 237.318C172.318 237.318 171.913 237.434 171.572 237.666C171.234 237.895 170.974 238.193 170.792 238.561C170.609 238.929 170.518 239.323 170.518 239.744V240.42C170.518 240.997 170.618 241.486 170.816 241.887C171.019 242.285 171.299 242.588 171.657 242.797C172.015 243.002 172.431 243.105 172.904 243.105C173.213 243.105 173.491 243.062 173.74 242.976C173.992 242.886 174.209 242.754 174.391 242.578C174.573 242.399 174.714 242.177 174.814 241.912L175.947 242.23C175.828 242.615 175.627 242.953 175.346 243.244C175.064 243.533 174.716 243.758 174.301 243.92C173.887 244.08 173.422 244.159 172.904 244.159Z" fill="#1A1A1A"/>
<path d="M131.96 281.159C131.248 281.159 130.608 281.023 130.04 280.75C129.475 280.473 129.025 280.095 128.688 279.614C128.35 279.133 128.17 278.583 128.148 277.966H129.852C129.894 278.466 130.116 278.877 130.517 279.199C130.919 279.521 131.4 279.682 131.96 279.682C132.407 279.682 132.803 279.58 133.148 279.375C133.496 279.167 133.769 278.881 133.966 278.517C134.167 278.153 134.267 277.739 134.267 277.273C134.267 276.799 134.165 276.377 133.96 276.006C133.756 275.634 133.473 275.343 133.114 275.131C132.758 274.919 132.348 274.811 131.886 274.807C131.534 274.807 131.18 274.867 130.824 274.989C130.468 275.11 130.18 275.269 129.96 275.466L128.352 275.227L129.006 269.364H135.403V270.869H130.466L130.097 274.125H130.165C130.392 273.905 130.693 273.722 131.068 273.574C131.447 273.426 131.852 273.352 132.284 273.352C132.992 273.352 133.623 273.521 134.176 273.858C134.733 274.195 135.17 274.655 135.489 275.239C135.811 275.818 135.97 276.485 135.966 277.239C135.97 277.992 135.799 278.665 135.455 279.256C135.114 279.847 134.64 280.312 134.034 280.653C133.432 280.991 132.741 281.159 131.96 281.159ZM145.565 281.17C144.861 281.17 144.232 280.991 143.679 280.631C143.13 280.267 142.698 279.75 142.384 279.08C142.073 278.405 141.918 277.597 141.918 276.653C141.918 275.71 142.075 274.903 142.389 274.233C142.707 273.562 143.143 273.049 143.696 272.693C144.249 272.337 144.876 272.159 145.577 272.159C146.118 272.159 146.554 272.25 146.884 272.432C147.217 272.61 147.474 272.818 147.656 273.057C147.842 273.295 147.986 273.506 148.088 273.688H148.19V269.364H149.889V281H148.23V279.642H148.088C147.986 279.828 147.838 280.04 147.645 280.278C147.455 280.517 147.194 280.725 146.861 280.903C146.527 281.081 146.096 281.17 145.565 281.17ZM145.94 279.722C146.429 279.722 146.842 279.593 147.179 279.335C147.52 279.074 147.777 278.712 147.952 278.25C148.13 277.788 148.219 277.25 148.219 276.636C148.219 276.03 148.132 275.5 147.957 275.045C147.783 274.591 147.527 274.237 147.19 273.983C146.853 273.729 146.437 273.602 145.94 273.602C145.429 273.602 145.003 273.735 144.662 274C144.321 274.265 144.063 274.627 143.889 275.085C143.719 275.544 143.634 276.061 143.634 276.636C143.634 277.22 143.721 277.744 143.895 278.21C144.069 278.676 144.327 279.045 144.668 279.318C145.012 279.587 145.437 279.722 145.94 279.722ZM154.854 281.193C154.301 281.193 153.801 281.091 153.354 280.886C152.907 280.678 152.553 280.377 152.291 279.983C152.034 279.589 151.905 279.106 151.905 278.534C151.905 278.042 152 277.636 152.189 277.318C152.378 277 152.634 276.748 152.956 276.562C153.278 276.377 153.638 276.237 154.036 276.142C154.433 276.047 154.839 275.975 155.251 275.926C155.774 275.866 156.198 275.816 156.524 275.778C156.85 275.737 157.087 275.67 157.234 275.58C157.382 275.489 157.456 275.341 157.456 275.136V275.097C157.456 274.6 157.316 274.216 157.036 273.943C156.759 273.67 156.346 273.534 155.797 273.534C155.225 273.534 154.774 273.661 154.445 273.915C154.119 274.165 153.893 274.443 153.768 274.75L152.172 274.386C152.361 273.856 152.638 273.428 153.001 273.102C153.369 272.773 153.791 272.534 154.268 272.386C154.746 272.235 155.248 272.159 155.774 272.159C156.123 272.159 156.492 272.201 156.882 272.284C157.276 272.364 157.643 272.511 157.984 272.727C158.329 272.943 158.611 273.252 158.831 273.653C159.051 274.051 159.161 274.568 159.161 275.205V281H157.501V279.807H157.433C157.323 280.027 157.159 280.242 156.939 280.455C156.719 280.667 156.437 280.843 156.092 280.983C155.748 281.123 155.335 281.193 154.854 281.193ZM155.223 279.83C155.693 279.83 156.094 279.737 156.428 279.551C156.765 279.366 157.02 279.123 157.195 278.824C157.373 278.521 157.462 278.197 157.462 277.852V276.727C157.401 276.788 157.284 276.845 157.109 276.898C156.939 276.947 156.744 276.991 156.524 277.028C156.304 277.062 156.09 277.095 155.882 277.125C155.674 277.152 155.5 277.174 155.359 277.193C155.03 277.235 154.729 277.305 154.456 277.403C154.187 277.502 153.971 277.644 153.808 277.83C153.649 278.011 153.57 278.254 153.57 278.557C153.57 278.977 153.725 279.295 154.036 279.511C154.346 279.723 154.742 279.83 155.223 279.83ZM162.185 284.273C161.931 284.273 161.7 284.252 161.491 284.21C161.283 284.172 161.128 284.131 161.026 284.085L161.435 282.693C161.745 282.777 162.022 282.813 162.264 282.801C162.507 282.79 162.721 282.699 162.906 282.528C163.096 282.358 163.262 282.08 163.406 281.693L163.616 281.114L160.423 272.273H162.241L164.452 279.045H164.543L166.753 272.273H168.577L164.98 282.165C164.813 282.619 164.601 283.004 164.344 283.318C164.086 283.636 163.779 283.875 163.423 284.034C163.067 284.193 162.654 284.273 162.185 284.273ZM176.713 274.403L175.173 274.676C175.109 274.479 175.007 274.292 174.866 274.114C174.73 273.936 174.545 273.79 174.31 273.676C174.075 273.562 173.781 273.506 173.429 273.506C172.948 273.506 172.546 273.614 172.224 273.83C171.902 274.042 171.741 274.316 171.741 274.653C171.741 274.945 171.849 275.18 172.065 275.358C172.281 275.536 172.63 275.682 173.111 275.795L174.497 276.114C175.3 276.299 175.899 276.585 176.293 276.972C176.687 277.358 176.884 277.86 176.884 278.477C176.884 279 176.732 279.466 176.429 279.875C176.13 280.28 175.711 280.598 175.173 280.83C174.639 281.061 174.02 281.176 173.315 281.176C172.338 281.176 171.541 280.968 170.923 280.551C170.306 280.131 169.927 279.534 169.787 278.761L171.429 278.511C171.531 278.939 171.741 279.263 172.06 279.483C172.378 279.699 172.793 279.807 173.304 279.807C173.861 279.807 174.306 279.691 174.639 279.46C174.973 279.225 175.139 278.939 175.139 278.602C175.139 278.33 175.037 278.1 174.832 277.915C174.632 277.729 174.323 277.589 173.906 277.494L172.429 277.17C171.615 276.985 171.012 276.689 170.622 276.284C170.236 275.879 170.043 275.366 170.043 274.744C170.043 274.229 170.187 273.778 170.474 273.392C170.762 273.006 171.16 272.705 171.668 272.489C172.175 272.269 172.757 272.159 173.412 272.159C174.355 272.159 175.098 272.364 175.639 272.773C176.181 273.178 176.539 273.722 176.713 274.403Z" fill="#1A1A1A"/>
<path opacity="0.8" d="M357.057 279V270.273H362.29V271.21H358.114V274.159H361.898V275.097H358.114V279H357.057ZM363.963 279V272.455H364.969V279H363.963ZM364.475 271.364C364.279 271.364 364.11 271.297 363.968 271.163C363.828 271.03 363.759 270.869 363.759 270.682C363.759 270.494 363.828 270.334 363.968 270.2C364.11 270.067 364.279 270 364.475 270C364.671 270 364.838 270.067 364.978 270.2C365.12 270.334 365.191 270.494 365.191 270.682C365.191 270.869 365.12 271.03 364.978 271.163C364.838 271.297 364.671 271.364 364.475 271.364ZM367.561 272.455L369.129 275.131L370.697 272.455H371.857L369.743 275.727L371.857 279H370.697L369.129 276.46L367.561 279H366.402L368.482 275.727L366.402 272.455H367.561ZM375.766 279.136C375.136 279.136 374.592 278.997 374.134 278.719C373.68 278.438 373.329 278.045 373.082 277.543C372.837 277.037 372.715 276.449 372.715 275.778C372.715 275.108 372.837 274.517 373.082 274.006C373.329 273.491 373.673 273.091 374.113 272.804C374.556 272.514 375.073 272.369 375.664 272.369C376.005 272.369 376.342 272.426 376.674 272.54C377.006 272.653 377.309 272.838 377.582 273.094C377.854 273.347 378.072 273.682 378.234 274.099C378.396 274.517 378.477 275.031 378.477 275.642V276.068H373.431V275.199H377.454C377.454 274.83 377.38 274.5 377.232 274.21C377.087 273.92 376.88 273.692 376.61 273.524C376.343 273.357 376.028 273.273 375.664 273.273C375.263 273.273 374.917 273.372 374.624 273.571C374.335 273.767 374.112 274.023 373.955 274.338C373.799 274.653 373.721 274.991 373.721 275.352V275.932C373.721 276.426 373.806 276.845 373.977 277.189C374.15 277.53 374.39 277.79 374.697 277.969C375.004 278.145 375.36 278.233 375.766 278.233C376.031 278.233 376.269 278.196 376.482 278.122C376.698 278.045 376.884 277.932 377.04 277.781C377.197 277.628 377.317 277.437 377.403 277.21L378.374 277.483C378.272 277.812 378.1 278.102 377.859 278.352C377.617 278.599 377.319 278.793 376.964 278.932C376.609 279.068 376.21 279.136 375.766 279.136ZM382.478 279.136C381.933 279.136 381.451 278.999 381.033 278.723C380.616 278.445 380.289 278.053 380.053 277.547C379.817 277.038 379.7 276.438 379.7 275.744C379.7 275.057 379.817 274.46 380.053 273.955C380.289 273.449 380.617 273.058 381.038 272.783C381.458 272.507 381.944 272.369 382.495 272.369C382.921 272.369 383.258 272.44 383.505 272.582C383.755 272.722 383.945 272.881 384.076 273.06C384.21 273.236 384.313 273.381 384.387 273.494H384.472V270.273H385.478V279H384.506V277.994H384.387C384.313 278.114 384.208 278.264 384.072 278.446C383.935 278.625 383.741 278.786 383.488 278.928C383.235 279.067 382.898 279.136 382.478 279.136ZM382.614 278.233C383.018 278.233 383.359 278.128 383.637 277.918C383.915 277.705 384.127 277.411 384.272 277.036C384.417 276.658 384.489 276.222 384.489 275.727C384.489 275.239 384.418 274.811 384.276 274.445C384.134 274.075 383.924 273.788 383.646 273.584C383.367 273.376 383.023 273.273 382.614 273.273C382.188 273.273 381.833 273.382 381.549 273.601C381.268 273.817 381.056 274.111 380.914 274.483C380.775 274.852 380.705 275.267 380.705 275.727C380.705 276.193 380.776 276.616 380.918 276.997C381.063 277.375 381.276 277.676 381.558 277.901C381.842 278.122 382.194 278.233 382.614 278.233Z" fill="#1A1A1A"/>
<rect x="119" y="253" width="276" height="44" rx="5" stroke="#1A1A1A" stroke-opacity="0.5" stroke-width="0.5"/>
<path d="M132.411 340.69V341.969H119.371V340.69H132.411ZM132.411 343.452V344.73H119.371V343.452H132.411ZM131.177 335.909V349H129.355L122.701 339.399H122.586V349H120.604V335.909H122.439L129.093 345.523H129.214V335.909H131.177ZM139.007 335.909V349H137.026V337.891H136.949L133.817 339.936V338.044L137.083 335.909H139.007ZM146.869 349.179C146.068 349.179 145.348 349.026 144.709 348.719C144.074 348.408 143.567 347.982 143.188 347.44C142.808 346.899 142.606 346.281 142.58 345.587H144.498C144.545 346.149 144.794 346.612 145.246 346.974C145.697 347.336 146.239 347.517 146.869 347.517C147.372 347.517 147.817 347.402 148.205 347.172C148.597 346.938 148.904 346.616 149.126 346.207C149.352 345.798 149.464 345.331 149.464 344.807C149.464 344.274 149.349 343.799 149.119 343.381C148.889 342.964 148.572 342.636 148.167 342.397C147.766 342.158 147.306 342.037 146.786 342.033C146.39 342.033 145.991 342.101 145.591 342.237C145.19 342.374 144.866 342.553 144.619 342.774L142.81 342.506L143.545 335.909H150.743V337.603H145.188L144.773 341.266H144.849C145.105 341.018 145.444 340.812 145.866 340.646C146.292 340.479 146.748 340.396 147.234 340.396C148.031 340.396 148.74 340.586 149.362 340.965C149.989 341.344 150.481 341.862 150.839 342.518C151.201 343.17 151.38 343.92 151.376 344.768C151.38 345.616 151.188 346.373 150.8 347.038C150.417 347.702 149.884 348.227 149.202 348.61C148.525 348.989 147.747 349.179 146.869 349.179ZM155.748 347.21L155.652 347.907C155.588 348.418 155.479 348.951 155.326 349.505C155.177 350.063 155.021 350.581 154.859 351.058C154.702 351.536 154.572 351.915 154.469 352.196H153.114C153.17 351.932 153.246 351.574 153.344 351.122C153.442 350.675 153.538 350.174 153.632 349.62C153.726 349.066 153.796 348.501 153.843 347.926L153.907 347.21H155.748ZM162.504 349.217C161.494 349.213 160.631 348.947 159.915 348.418C159.2 347.89 158.652 347.121 158.273 346.111C157.893 345.101 157.704 343.884 157.704 342.461C157.704 341.042 157.893 339.83 158.273 338.824C158.656 337.818 159.206 337.051 159.922 336.523C160.642 335.994 161.503 335.73 162.504 335.73C163.506 335.73 164.364 335.996 165.08 336.529C165.796 337.058 166.344 337.825 166.723 338.83C167.107 339.832 167.298 341.042 167.298 342.461C167.298 343.888 167.109 345.107 166.729 346.117C166.35 347.123 165.803 347.892 165.087 348.425C164.371 348.953 163.51 349.217 162.504 349.217ZM162.504 347.511C163.391 347.511 164.083 347.078 164.582 346.213C165.085 345.348 165.336 344.097 165.336 342.461C165.336 341.374 165.221 340.456 164.991 339.706C164.765 338.952 164.439 338.381 164.013 337.993C163.591 337.601 163.088 337.405 162.504 337.405C161.622 337.405 160.93 337.839 160.427 338.709C159.924 339.578 159.67 340.829 159.666 342.461C159.666 343.552 159.779 344.474 160.005 345.229C160.235 345.979 160.561 346.548 160.983 346.935C161.405 347.319 161.912 347.511 162.504 347.511ZM174.123 349.217C173.113 349.213 172.251 348.947 171.535 348.418C170.819 347.89 170.271 347.121 169.892 346.111C169.513 345.101 169.323 343.884 169.323 342.461C169.323 341.042 169.513 339.83 169.892 338.824C170.275 337.818 170.825 337.051 171.541 336.523C172.261 335.994 173.122 335.73 174.123 335.73C175.125 335.73 175.983 335.996 176.699 336.529C177.415 337.058 177.963 337.825 178.342 338.83C178.726 339.832 178.917 341.042 178.917 342.461C178.917 343.888 178.728 345.107 178.349 346.117C177.969 347.123 177.422 347.892 176.706 348.425C175.99 348.953 175.129 349.217 174.123 349.217ZM174.123 347.511C175.01 347.511 175.702 347.078 176.201 346.213C176.704 345.348 176.955 344.097 176.955 342.461C176.955 341.374 176.84 340.456 176.61 339.706C176.384 338.952 176.058 338.381 175.632 337.993C175.21 337.601 174.707 337.405 174.123 337.405C173.241 337.405 172.549 337.839 172.046 338.709C171.543 339.578 171.29 340.829 171.285 342.461C171.285 343.552 171.398 344.474 171.624 345.229C171.854 345.979 172.18 346.548 172.602 346.935C173.024 347.319 173.531 347.511 174.123 347.511ZM185.743 349.217C184.733 349.213 183.87 348.947 183.154 348.418C182.438 347.89 181.89 347.121 181.511 346.111C181.132 345.101 180.942 343.884 180.942 342.461C180.942 341.042 181.132 339.83 181.511 338.824C181.895 337.818 182.444 337.051 183.16 336.523C183.88 335.994 184.741 335.73 185.743 335.73C186.744 335.73 187.603 335.996 188.319 336.529C189.034 337.058 189.582 337.825 189.961 338.83C190.345 339.832 190.537 341.042 190.537 342.461C190.537 343.888 190.347 345.107 189.968 346.117C189.588 347.123 189.041 347.892 188.325 348.425C187.609 348.953 186.748 349.217 185.743 349.217ZM185.743 347.511C186.629 347.511 187.321 347.078 187.82 346.213C188.323 345.348 188.574 344.097 188.574 342.461C188.574 341.374 188.459 340.456 188.229 339.706C188.003 338.952 187.677 338.381 187.251 337.993C186.829 337.601 186.326 337.405 185.743 337.405C184.86 337.405 184.168 337.839 183.665 338.709C183.162 339.578 182.909 340.829 182.904 342.461C182.904 343.552 183.017 344.474 183.243 345.229C183.473 345.979 183.799 346.548 184.221 346.935C184.643 347.319 185.15 347.511 185.743 347.511Z" fill="#1A1A1A"/>
<path d="M229 342C229 328.745 239.745 318 253 318H371C384.255 318 395 328.745 395 342C395 355.255 384.255 366 371 366H253C239.745 366 229 355.255 229 342Z" fill="url(#paint2_linear_3301_6657)"/>
<path d="M258.278 348V336.364H262.426C263.331 336.364 264.081 336.528 264.676 336.858C265.271 337.187 265.716 337.638 266.011 338.21C266.307 338.778 266.455 339.419 266.455 340.131C266.455 340.847 266.305 341.491 266.006 342.062C265.71 342.631 265.263 343.081 264.665 343.415C264.07 343.744 263.322 343.909 262.42 343.909H259.568V342.42H262.261C262.833 342.42 263.297 342.322 263.653 342.125C264.009 341.924 264.271 341.652 264.438 341.307C264.604 340.962 264.688 340.57 264.688 340.131C264.688 339.691 264.604 339.301 264.438 338.96C264.271 338.619 264.008 338.352 263.648 338.159C263.292 337.966 262.822 337.869 262.239 337.869H260.034V348H258.278ZM270.075 336.364V348H268.376V336.364H270.075ZM274.901 348.193C274.348 348.193 273.848 348.091 273.401 347.886C272.954 347.678 272.599 347.377 272.338 346.983C272.08 346.589 271.952 346.106 271.952 345.534C271.952 345.042 272.046 344.636 272.236 344.318C272.425 344 272.681 343.748 273.003 343.562C273.325 343.377 273.685 343.237 274.082 343.142C274.48 343.047 274.885 342.975 275.298 342.926C275.821 342.866 276.245 342.816 276.571 342.778C276.897 342.737 277.134 342.67 277.281 342.58C277.429 342.489 277.503 342.341 277.503 342.136V342.097C277.503 341.6 277.363 341.216 277.082 340.943C276.806 340.67 276.393 340.534 275.844 340.534C275.272 340.534 274.821 340.661 274.491 340.915C274.166 341.165 273.94 341.443 273.815 341.75L272.219 341.386C272.408 340.856 272.685 340.428 273.048 340.102C273.416 339.773 273.838 339.534 274.315 339.386C274.793 339.235 275.295 339.159 275.821 339.159C276.17 339.159 276.539 339.201 276.929 339.284C277.323 339.364 277.69 339.511 278.031 339.727C278.376 339.943 278.658 340.252 278.878 340.653C279.098 341.051 279.207 341.568 279.207 342.205V348H277.548V346.807H277.48C277.37 347.027 277.205 347.242 276.986 347.455C276.766 347.667 276.484 347.843 276.139 347.983C275.795 348.123 275.382 348.193 274.901 348.193ZM275.27 346.83C275.74 346.83 276.141 346.737 276.474 346.551C276.812 346.366 277.067 346.123 277.241 345.824C277.42 345.521 277.509 345.197 277.509 344.852V343.727C277.448 343.788 277.33 343.845 277.156 343.898C276.986 343.947 276.791 343.991 276.571 344.028C276.351 344.062 276.137 344.095 275.929 344.125C275.721 344.152 275.546 344.174 275.406 344.193C275.077 344.235 274.776 344.305 274.503 344.403C274.234 344.502 274.018 344.644 273.855 344.83C273.696 345.011 273.616 345.254 273.616 345.557C273.616 345.977 273.772 346.295 274.082 346.511C274.393 346.723 274.789 346.83 275.27 346.83ZM285.146 348.176C284.302 348.176 283.574 347.985 282.964 347.602C282.358 347.216 281.893 346.684 281.567 346.006C281.241 345.328 281.078 344.551 281.078 343.676C281.078 342.79 281.245 342.008 281.578 341.33C281.911 340.648 282.381 340.116 282.987 339.733C283.593 339.35 284.307 339.159 285.129 339.159C285.792 339.159 286.383 339.282 286.902 339.528C287.421 339.771 287.839 340.112 288.158 340.551C288.48 340.991 288.671 341.504 288.732 342.091H287.078C286.987 341.682 286.779 341.33 286.453 341.034C286.131 340.739 285.699 340.591 285.158 340.591C284.684 340.591 284.269 340.716 283.913 340.966C283.561 341.212 283.286 341.564 283.089 342.023C282.893 342.477 282.794 343.015 282.794 343.636C282.794 344.273 282.891 344.822 283.084 345.284C283.277 345.746 283.55 346.104 283.902 346.358C284.258 346.612 284.677 346.739 285.158 346.739C285.48 346.739 285.771 346.68 286.033 346.562C286.298 346.441 286.519 346.269 286.697 346.045C286.879 345.822 287.006 345.553 287.078 345.239H288.732C288.671 345.803 288.487 346.307 288.18 346.75C287.874 347.193 287.463 347.542 286.947 347.795C286.436 348.049 285.836 348.176 285.146 348.176ZM294.31 348.176C293.45 348.176 292.709 347.992 292.088 347.625C291.471 347.254 290.993 346.733 290.656 346.062C290.323 345.388 290.156 344.598 290.156 343.693C290.156 342.799 290.323 342.011 290.656 341.33C290.993 340.648 291.463 340.116 292.065 339.733C292.671 339.35 293.38 339.159 294.19 339.159C294.683 339.159 295.16 339.241 295.622 339.403C296.084 339.566 296.499 339.822 296.866 340.17C297.234 340.519 297.524 340.972 297.736 341.528C297.948 342.081 298.054 342.754 298.054 343.545V344.148H291.116V342.875H296.389C296.389 342.428 296.298 342.032 296.116 341.688C295.935 341.339 295.679 341.064 295.349 340.864C295.024 340.663 294.641 340.562 294.202 340.562C293.724 340.562 293.308 340.68 292.952 340.915C292.599 341.146 292.327 341.449 292.134 341.824C291.944 342.195 291.849 342.598 291.849 343.034V344.028C291.849 344.612 291.952 345.108 292.156 345.517C292.365 345.926 292.654 346.239 293.026 346.455C293.397 346.667 293.83 346.773 294.327 346.773C294.649 346.773 294.942 346.727 295.207 346.636C295.473 346.542 295.702 346.402 295.895 346.216C296.088 346.03 296.236 345.801 296.338 345.528L297.946 345.818C297.817 346.292 297.586 346.706 297.253 347.062C296.923 347.415 296.509 347.689 296.009 347.886C295.512 348.08 294.946 348.176 294.31 348.176ZM306.713 348.193C306.16 348.193 305.66 348.091 305.213 347.886C304.766 347.678 304.412 347.377 304.151 346.983C303.893 346.589 303.764 346.106 303.764 345.534C303.764 345.042 303.859 344.636 304.048 344.318C304.238 344 304.493 343.748 304.815 343.562C305.137 343.377 305.497 343.237 305.895 343.142C306.293 343.047 306.698 342.975 307.111 342.926C307.634 342.866 308.058 342.816 308.384 342.778C308.709 342.737 308.946 342.67 309.094 342.58C309.241 342.489 309.315 342.341 309.315 342.136V342.097C309.315 341.6 309.175 341.216 308.895 340.943C308.618 340.67 308.205 340.534 307.656 340.534C307.084 340.534 306.634 340.661 306.304 340.915C305.978 341.165 305.753 341.443 305.628 341.75L304.031 341.386C304.221 340.856 304.497 340.428 304.861 340.102C305.228 339.773 305.651 339.534 306.128 339.386C306.605 339.235 307.107 339.159 307.634 339.159C307.982 339.159 308.351 339.201 308.741 339.284C309.135 339.364 309.503 339.511 309.844 339.727C310.188 339.943 310.471 340.252 310.69 340.653C310.91 341.051 311.02 341.568 311.02 342.205V348H309.361V346.807H309.293C309.183 347.027 309.018 347.242 308.798 347.455C308.579 347.667 308.296 347.843 307.952 347.983C307.607 348.123 307.194 348.193 306.713 348.193ZM307.082 346.83C307.552 346.83 307.954 346.737 308.287 346.551C308.624 346.366 308.88 346.123 309.054 345.824C309.232 345.521 309.321 345.197 309.321 344.852V343.727C309.26 343.788 309.143 343.845 308.969 343.898C308.798 343.947 308.603 343.991 308.384 344.028C308.164 344.062 307.95 344.095 307.741 344.125C307.533 344.152 307.359 344.174 307.219 344.193C306.889 344.235 306.588 344.305 306.315 344.403C306.046 344.502 305.83 344.644 305.668 344.83C305.509 345.011 305.429 345.254 305.429 345.557C305.429 345.977 305.584 346.295 305.895 346.511C306.205 346.723 306.601 346.83 307.082 346.83ZM314.982 342.818V348H313.283V339.273H314.913V340.693H315.021C315.222 340.231 315.536 339.86 315.964 339.58C316.396 339.299 316.94 339.159 317.595 339.159C318.19 339.159 318.711 339.284 319.158 339.534C319.605 339.78 319.951 340.148 320.197 340.636C320.444 341.125 320.567 341.729 320.567 342.449V348H318.868V342.653C318.868 342.021 318.703 341.527 318.374 341.17C318.044 340.811 317.591 340.631 317.016 340.631C316.622 340.631 316.271 340.716 315.964 340.886C315.661 341.057 315.421 341.307 315.243 341.636C315.069 341.962 314.982 342.356 314.982 342.818ZM330.756 348.176C329.938 348.176 329.223 347.989 328.614 347.614C328.004 347.239 327.53 346.714 327.193 346.04C326.856 345.366 326.688 344.578 326.688 343.676C326.688 342.771 326.856 341.979 327.193 341.301C327.53 340.623 328.004 340.097 328.614 339.722C329.223 339.347 329.938 339.159 330.756 339.159C331.574 339.159 332.288 339.347 332.898 339.722C333.508 340.097 333.981 340.623 334.318 341.301C334.655 341.979 334.824 342.771 334.824 343.676C334.824 344.578 334.655 345.366 334.318 346.04C333.981 346.714 333.508 347.239 332.898 347.614C332.288 347.989 331.574 348.176 330.756 348.176ZM330.761 346.75C331.292 346.75 331.731 346.61 332.08 346.33C332.428 346.049 332.686 345.676 332.852 345.21C333.023 344.744 333.108 344.231 333.108 343.67C333.108 343.114 333.023 342.602 332.852 342.136C332.686 341.667 332.428 341.29 332.08 341.006C331.731 340.722 331.292 340.58 330.761 340.58C330.227 340.58 329.784 340.722 329.432 341.006C329.083 341.29 328.824 341.667 328.653 342.136C328.487 342.602 328.403 343.114 328.403 343.67C328.403 344.231 328.487 344.744 328.653 345.21C328.824 345.676 329.083 346.049 329.432 346.33C329.784 346.61 330.227 346.75 330.761 346.75ZM336.72 348V339.273H338.362V340.659H338.453C338.612 340.189 338.893 339.82 339.294 339.551C339.699 339.278 340.158 339.142 340.669 339.142C340.775 339.142 340.9 339.146 341.044 339.153C341.192 339.161 341.307 339.17 341.391 339.182V340.807C341.322 340.788 341.201 340.767 341.027 340.744C340.853 340.718 340.679 340.705 340.504 340.705C340.103 340.705 339.745 340.79 339.43 340.96C339.12 341.127 338.874 341.36 338.692 341.659C338.51 341.955 338.419 342.292 338.419 342.67V348H336.72ZM345.815 348.17C345.111 348.17 344.482 347.991 343.929 347.631C343.38 347.267 342.948 346.75 342.634 346.08C342.323 345.405 342.168 344.597 342.168 343.653C342.168 342.71 342.325 341.903 342.639 341.233C342.957 340.562 343.393 340.049 343.946 339.693C344.499 339.337 345.126 339.159 345.827 339.159C346.368 339.159 346.804 339.25 347.134 339.432C347.467 339.61 347.724 339.818 347.906 340.057C348.092 340.295 348.236 340.506 348.338 340.688H348.44V336.364H350.139V348H348.48V346.642H348.338C348.236 346.828 348.088 347.04 347.895 347.278C347.705 347.517 347.444 347.725 347.111 347.903C346.777 348.081 346.346 348.17 345.815 348.17ZM346.19 346.722C346.679 346.722 347.092 346.593 347.429 346.335C347.77 346.074 348.027 345.712 348.202 345.25C348.38 344.788 348.469 344.25 348.469 343.636C348.469 343.03 348.382 342.5 348.207 342.045C348.033 341.591 347.777 341.237 347.44 340.983C347.103 340.729 346.687 340.602 346.19 340.602C345.679 340.602 345.253 340.735 344.912 341C344.571 341.265 344.313 341.627 344.139 342.085C343.969 342.544 343.884 343.061 343.884 343.636C343.884 344.22 343.971 344.744 344.145 345.21C344.319 345.676 344.577 346.045 344.918 346.318C345.262 346.587 345.687 346.722 346.19 346.722ZM356.325 348.176C355.465 348.176 354.725 347.992 354.104 347.625C353.486 347.254 353.009 346.733 352.672 346.062C352.339 345.388 352.172 344.598 352.172 343.693C352.172 342.799 352.339 342.011 352.672 341.33C353.009 340.648 353.479 340.116 354.081 339.733C354.687 339.35 355.395 339.159 356.206 339.159C356.698 339.159 357.176 339.241 357.638 339.403C358.1 339.566 358.515 339.822 358.882 340.17C359.25 340.519 359.539 340.972 359.751 341.528C359.964 342.081 360.07 342.754 360.07 343.545V344.148H353.132V342.875H358.405C358.405 342.428 358.314 342.032 358.132 341.688C357.95 341.339 357.695 341.064 357.365 340.864C357.039 340.663 356.657 340.562 356.217 340.562C355.74 340.562 355.323 340.68 354.967 340.915C354.615 341.146 354.342 341.449 354.149 341.824C353.96 342.195 353.865 342.598 353.865 343.034V344.028C353.865 344.612 353.967 345.108 354.172 345.517C354.38 345.926 354.67 346.239 355.041 346.455C355.412 346.667 355.846 346.773 356.342 346.773C356.664 346.773 356.958 346.727 357.223 346.636C357.488 346.542 357.717 346.402 357.911 346.216C358.104 346.03 358.251 345.801 358.354 345.528L359.962 345.818C359.833 346.292 359.602 346.706 359.268 347.062C358.939 347.415 358.524 347.689 358.024 347.886C357.528 348.08 356.962 348.176 356.325 348.176ZM361.955 348V339.273H363.597V340.659H363.688C363.847 340.189 364.127 339.82 364.528 339.551C364.934 339.278 365.392 339.142 365.903 339.142C366.009 339.142 366.134 339.146 366.278 339.153C366.426 339.161 366.542 339.17 366.625 339.182V340.807C366.557 340.788 366.436 340.767 366.261 340.744C366.087 340.718 365.913 340.705 365.739 340.705C365.337 340.705 364.979 340.79 364.665 340.96C364.354 341.127 364.108 341.36 363.926 341.659C363.744 341.955 363.653 342.292 363.653 342.67V348H361.955Z" fill="#FAFAFA"/>
<defs>
<linearGradient id="paint0_linear_3301_6657" x1="36.0835" y1="69.5711" x2="439.882" y2="346.103" gradientUnits="userSpaceOnUse">
<stop stop-color="#002E5A"/>
<stop offset="1" stop-color="#0D5EBB"/>
</linearGradient>
<linearGradient id="paint1_linear_3301_6657" x1="70.1681" y1="361.362" x2="402.348" y2="133.875" gradientUnits="userSpaceOnUse">
<stop stop-color="#002E5A"/>
<stop offset="1" stop-color="#0D5EBB"/>
</linearGradient>
<linearGradient id="paint2_linear_3301_6657" x1="242.021" y1="325.26" x2="274.41" y2="401.967" gradientUnits="userSpaceOnUse">
<stop stop-color="#002E5A"/>
<stop offset="1" stop-color="#0D5EBB"/>
</linearGradient>
</defs>
</svg>
