<svg width="289" height="60" viewBox="0 0 289 60" fill="none" xmlns="http://www.w3.org/2000/svg">
<path d="M8.09233 35L0.703125 8.81818H5.80398L10.5213 28.0582H10.7642L15.8011 8.81818H20.4418L25.4915 28.071H25.7216L30.4389 8.81818H35.5398L28.1506 35H23.4716L18.2301 16.6293H18.0256L12.7713 35H8.09233ZM42.5318 23.4943V35H37.9039V8.81818H42.4295V18.7003H42.6596C43.1198 17.5923 43.8315 16.7187 44.7946 16.0795C45.7661 15.4318 47.0019 15.108 48.5019 15.108C49.8656 15.108 51.0545 15.3935 52.0687 15.9645C53.0829 16.5355 53.867 17.3707 54.421 18.4702C54.9835 19.5696 55.2647 20.9119 55.2647 22.4972V35H50.6369V23.2131C50.6369 21.892 50.296 20.8651 49.6142 20.1321C48.9409 19.3906 47.9948 19.0199 46.7761 19.0199C45.9579 19.0199 45.225 19.1989 44.5772 19.5568C43.938 19.9062 43.4352 20.4134 43.0687 21.0781C42.7108 21.7429 42.5318 22.5483 42.5318 23.4943ZM61.4354 42.3636C60.8047 42.3636 60.2209 42.3125 59.6839 42.2102C59.1555 42.1165 58.7337 42.0057 58.4183 41.8778L59.4922 38.2727C60.1655 38.4688 60.7663 38.5625 61.2947 38.554C61.8231 38.5455 62.2876 38.3793 62.6882 38.0554C63.0973 37.7401 63.4425 37.2116 63.7237 36.4702L64.12 35.4091L56.9993 15.3636H61.9084L66.4339 30.1932H66.6385L71.1768 15.3636H76.0987L68.2365 37.3778C67.87 38.4176 67.3842 39.3082 66.7791 40.0497C66.174 40.7997 65.4325 41.3707 64.5547 41.7628C63.6854 42.1634 62.6456 42.3636 61.4354 42.3636ZM109.406 17.652H104.625C104.488 16.8679 104.237 16.1733 103.87 15.5682C103.504 14.9545 103.048 14.4347 102.502 14.0085C101.957 13.5824 101.335 13.2628 100.636 13.0497C99.9456 12.8281 99.1999 12.7173 98.3988 12.7173C96.9755 12.7173 95.7141 13.0753 94.6147 13.7912C93.5152 14.4986 92.6544 15.5384 92.0323 16.9105C91.4101 18.2741 91.0991 19.9403 91.0991 21.9091C91.0991 23.9119 91.4101 25.5994 92.0323 26.9716C92.663 28.3352 93.5238 29.3665 94.6147 30.0653C95.7141 30.7557 96.9712 31.1009 98.386 31.1009C99.1701 31.1009 99.903 30.9986 100.585 30.794C101.275 30.581 101.893 30.2699 102.439 29.8608C102.993 29.4517 103.457 28.9489 103.832 28.3523C104.216 27.7557 104.48 27.0739 104.625 26.3068L109.406 26.3324C109.227 27.5767 108.839 28.7443 108.243 29.8352C107.654 30.9261 106.883 31.8892 105.929 32.7244C104.974 33.5511 103.858 34.1989 102.579 34.6676C101.301 35.1278 99.8817 35.358 98.3221 35.358C96.0209 35.358 93.9669 34.8253 92.1601 33.7599C90.3533 32.6946 88.93 31.1562 87.8902 29.1449C86.8505 27.1335 86.3306 24.7216 86.3306 21.9091C86.3306 19.0881 86.8547 16.6761 87.903 14.6733C88.9513 12.6619 90.3789 11.1236 92.1857 10.0582C93.9925 8.9929 96.038 8.46023 98.3221 8.46023C99.7794 8.46023 101.135 8.66477 102.387 9.07386C103.64 9.48295 104.757 10.0838 105.737 10.8764C106.717 11.6605 107.522 12.6236 108.153 13.7656C108.792 14.8991 109.21 16.1946 109.406 17.652ZM117.453 23.4943V35H112.825V8.81818H117.35V18.7003H117.58C118.041 17.5923 118.752 16.7187 119.715 16.0795C120.687 15.4318 121.923 15.108 123.423 15.108C124.786 15.108 125.975 15.3935 126.989 15.9645C128.004 16.5355 128.788 17.3707 129.342 18.4702C129.904 19.5696 130.186 20.9119 130.186 22.4972V35H125.558V23.2131C125.558 21.892 125.217 20.8651 124.535 20.1321C123.862 19.3906 122.916 19.0199 121.697 19.0199C120.879 19.0199 120.146 19.1989 119.498 19.5568C118.859 19.9062 118.356 20.4134 117.989 21.0781C117.632 21.7429 117.453 22.5483 117.453 23.4943ZM142.748 35.3835C140.831 35.3835 139.169 34.9616 137.762 34.1179C136.356 33.2741 135.265 32.0937 134.49 30.5767C133.723 29.0597 133.339 27.2869 133.339 25.2585C133.339 23.2301 133.723 21.4531 134.49 19.9276C135.265 18.402 136.356 17.2173 137.762 16.3736C139.169 15.5298 140.831 15.108 142.748 15.108C144.666 15.108 146.328 15.5298 147.734 16.3736C149.14 17.2173 150.227 18.402 150.994 19.9276C151.769 21.4531 152.157 23.2301 152.157 25.2585C152.157 27.2869 151.769 29.0597 150.994 30.5767C150.227 32.0937 149.14 33.2741 147.734 34.1179C146.328 34.9616 144.666 35.3835 142.748 35.3835ZM142.774 31.6761C143.814 31.6761 144.683 31.3906 145.382 30.8196C146.081 30.2401 146.6 29.4645 146.941 28.4929C147.291 27.5213 147.466 26.4389 147.466 25.2457C147.466 24.044 147.291 22.9574 146.941 21.9858C146.6 21.0057 146.081 20.2259 145.382 19.6463C144.683 19.0668 143.814 18.777 142.774 18.777C141.708 18.777 140.822 19.0668 140.115 19.6463C139.416 20.2259 138.892 21.0057 138.542 21.9858C138.201 22.9574 138.031 24.044 138.031 25.2457C138.031 26.4389 138.201 27.5213 138.542 28.4929C138.892 29.4645 139.416 30.2401 140.115 30.8196C140.822 31.3906 141.708 31.6761 142.774 31.6761ZM163.931 35.3835C162.013 35.3835 160.351 34.9616 158.945 34.1179C157.538 33.2741 156.448 32.0937 155.672 30.5767C154.905 29.0597 154.521 27.2869 154.521 25.2585C154.521 23.2301 154.905 21.4531 155.672 19.9276C156.448 18.402 157.538 17.2173 158.945 16.3736C160.351 15.5298 162.013 15.108 163.931 15.108C165.848 15.108 167.51 15.5298 168.916 16.3736C170.323 17.2173 171.409 18.402 172.176 19.9276C172.952 21.4531 173.34 23.2301 173.34 25.2585C173.34 27.2869 172.952 29.0597 172.176 30.5767C171.409 32.0937 170.323 33.2741 168.916 34.1179C167.51 34.9616 165.848 35.3835 163.931 35.3835ZM163.956 31.6761C164.996 31.6761 165.865 31.3906 166.564 30.8196C167.263 30.2401 167.783 29.4645 168.124 28.4929C168.473 27.5213 168.648 26.4389 168.648 25.2457C168.648 24.044 168.473 22.9574 168.124 21.9858C167.783 21.0057 167.263 20.2259 166.564 19.6463C165.865 19.0668 164.996 18.777 163.956 18.777C162.891 18.777 162.004 19.0668 161.297 19.6463C160.598 20.2259 160.074 21.0057 159.725 21.9858C159.384 22.9574 159.213 24.044 159.213 25.2457C159.213 26.4389 159.384 27.5213 159.725 28.4929C160.074 29.4645 160.598 30.2401 161.297 30.8196C162.004 31.3906 162.891 31.6761 163.956 31.6761ZM192.067 20.554L187.849 21.0142C187.729 20.5881 187.521 20.1875 187.222 19.8125C186.932 19.4375 186.54 19.1349 186.046 18.9048C185.552 18.6747 184.947 18.5597 184.231 18.5597C183.268 18.5597 182.458 18.7685 181.802 19.1861C181.154 19.6037 180.834 20.1449 180.843 20.8097C180.834 21.3807 181.043 21.8452 181.469 22.2031C181.904 22.5611 182.62 22.8551 183.617 23.0852L186.967 23.8011C188.825 24.2017 190.205 24.8366 191.109 25.706C192.021 26.5753 192.481 27.7131 192.489 29.1193C192.481 30.3551 192.119 31.446 191.403 32.392C190.695 33.3295 189.711 34.0625 188.45 34.5909C187.188 35.1193 185.739 35.3835 184.103 35.3835C181.7 35.3835 179.765 34.8807 178.299 33.875C176.833 32.8608 175.959 31.4503 175.678 29.6435L180.191 29.2088C180.396 30.0952 180.83 30.7642 181.495 31.2159C182.16 31.6676 183.025 31.8935 184.09 31.8935C185.19 31.8935 186.072 31.6676 186.736 31.2159C187.41 30.7642 187.746 30.206 187.746 29.5412C187.746 28.9787 187.529 28.5142 187.094 28.1477C186.668 27.7812 186.004 27.5 185.1 27.304L181.751 26.6009C179.867 26.2088 178.474 25.5483 177.57 24.6193C176.667 23.6818 176.219 22.4972 176.228 21.0653C176.219 19.8551 176.548 18.8068 177.212 17.9205C177.886 17.0256 178.819 16.3352 180.012 15.8494C181.214 15.3551 182.599 15.108 184.167 15.108C186.468 15.108 188.279 15.598 189.6 16.5781C190.93 17.5582 191.752 18.8835 192.067 20.554ZM204.279 35.3835C202.31 35.3835 200.609 34.9744 199.178 34.1562C197.754 33.3295 196.659 32.1619 195.892 30.6534C195.125 29.1364 194.742 27.3509 194.742 25.2969C194.742 23.277 195.125 21.5043 195.892 19.9787C196.668 18.4446 197.75 17.2514 199.139 16.3991C200.529 15.5384 202.161 15.108 204.036 15.108C205.246 15.108 206.388 15.304 207.462 15.696C208.544 16.0795 209.499 16.6761 210.325 17.4858C211.161 18.2955 211.817 19.3267 212.294 20.5795C212.771 21.8239 213.01 23.3068 213.01 25.0284V26.4474H196.915V23.3281H208.574C208.565 22.4418 208.374 21.6534 207.999 20.9631C207.624 20.2642 207.1 19.7145 206.426 19.3139C205.761 18.9134 204.986 18.7131 204.1 18.7131C203.154 18.7131 202.323 18.9432 201.607 19.4034C200.891 19.8551 200.333 20.4517 199.932 21.1932C199.54 21.9261 199.34 22.7315 199.331 23.6094V26.3324C199.331 27.4744 199.54 28.4545 199.958 29.2727C200.375 30.0824 200.959 30.7045 201.709 31.1392C202.459 31.5653 203.337 31.7784 204.342 31.7784C205.016 31.7784 205.625 31.6847 206.171 31.4972C206.716 31.3011 207.189 31.0156 207.59 30.6406C207.99 30.2656 208.293 29.8011 208.497 29.2472L212.818 29.733C212.546 30.875 212.026 31.8722 211.259 32.7244C210.5 33.5682 209.529 34.2244 208.344 34.6932C207.159 35.1534 205.804 35.3835 204.279 35.3835ZM241.124 8.81818H245.867V25.9233C245.867 27.7983 245.423 29.4474 244.537 30.8707C243.659 32.294 242.423 33.4062 240.83 34.2074C239.236 35 237.374 35.3963 235.243 35.3963C233.104 35.3963 231.237 35 229.644 34.2074C228.05 33.4062 226.814 32.294 225.936 30.8707C225.058 29.4474 224.619 27.7983 224.619 25.9233V8.81818H229.362V25.527C229.362 26.6179 229.601 27.5895 230.078 28.4418C230.564 29.294 231.246 29.9631 232.124 30.4489C233.002 30.9261 234.041 31.1648 235.243 31.1648C236.445 31.1648 237.484 30.9261 238.362 30.4489C239.249 29.9631 239.93 29.294 240.408 28.4418C240.885 27.5895 241.124 26.6179 241.124 25.527V8.81818ZM265.617 20.554L261.398 21.0142C261.279 20.5881 261.07 20.1875 260.772 19.8125C260.482 19.4375 260.09 19.1349 259.596 18.9048C259.101 18.6747 258.496 18.5597 257.78 18.5597C256.817 18.5597 256.008 18.7685 255.351 19.1861C254.704 19.6037 254.384 20.1449 254.393 20.8097C254.384 21.3807 254.593 21.8452 255.019 22.2031C255.454 22.5611 256.17 22.8551 257.167 23.0852L260.516 23.8011C262.374 24.2017 263.755 24.8366 264.658 25.706C265.57 26.5753 266.03 27.7131 266.039 29.1193C266.03 30.3551 265.668 31.446 264.952 32.392C264.245 33.3295 263.261 34.0625 261.999 34.5909C260.738 35.1193 259.289 35.3835 257.653 35.3835C255.249 35.3835 253.315 34.8807 251.849 33.875C250.383 32.8608 249.509 31.4503 249.228 29.6435L253.741 29.2088C253.945 30.0952 254.38 30.7642 255.045 31.2159C255.709 31.6676 256.574 31.8935 257.64 31.8935C258.739 31.8935 259.621 31.6676 260.286 31.2159C260.959 30.7642 261.296 30.206 261.296 29.5412C261.296 28.9787 261.079 28.5142 260.644 28.1477C260.218 27.7812 259.553 27.5 258.65 27.304L255.3 26.6009C253.417 26.2088 252.023 25.5483 251.12 24.6193C250.217 23.6818 249.769 22.4972 249.778 21.0653C249.769 19.8551 250.097 18.8068 250.762 17.9205C251.435 17.0256 252.369 16.3352 253.562 15.8494C254.763 15.3551 256.148 15.108 257.717 15.108C260.018 15.108 261.829 15.598 263.15 16.5781C264.479 17.5582 265.302 18.8835 265.617 20.554ZM273.558 27.304V26.9716C273.567 25.429 273.712 24.2017 273.993 23.2898C274.283 22.3778 274.692 21.6449 275.22 21.0909C275.749 20.5284 276.392 20.0128 277.151 19.544C277.671 19.2202 278.135 18.8665 278.544 18.483C278.962 18.0909 279.29 17.6562 279.529 17.179C279.767 16.6932 279.886 16.152 279.886 15.5554C279.886 14.8821 279.729 14.2983 279.413 13.804C279.098 13.3097 278.672 12.9261 278.135 12.6534C277.607 12.3807 277.014 12.2443 276.358 12.2443C275.753 12.2443 275.178 12.3764 274.632 12.6406C274.095 12.8963 273.648 13.2884 273.29 13.8168C272.94 14.3366 272.744 14.9972 272.702 15.7983H268.151C268.193 14.179 268.585 12.8239 269.327 11.733C270.077 10.642 271.065 9.82386 272.293 9.27841C273.529 8.73295 274.892 8.46023 276.384 8.46023C278.011 8.46023 279.443 8.74574 280.679 9.31676C281.923 9.88778 282.891 10.7017 283.581 11.7585C284.28 12.8068 284.629 14.0511 284.629 15.4915C284.629 16.4631 284.472 17.3324 284.156 18.0994C283.85 18.8665 283.411 19.5483 282.84 20.1449C282.269 20.7415 281.591 21.2741 280.807 21.7429C280.117 22.169 279.55 22.6122 279.107 23.0724C278.672 23.5327 278.348 24.0739 278.135 24.696C277.93 25.3097 277.824 26.0682 277.815 26.9716V27.304H273.558ZM275.783 35.2812C275.016 35.2812 274.355 35.0085 273.801 34.4631C273.247 33.9176 272.97 33.2528 272.97 32.4688C272.97 31.7017 273.247 31.0455 273.801 30.5C274.355 29.9545 275.016 29.6818 275.783 29.6818C276.541 29.6818 277.198 29.9545 277.752 30.5C278.314 31.0455 278.595 31.7017 278.595 32.4688C278.595 32.9886 278.463 33.4616 278.199 33.8878C277.943 34.3139 277.602 34.6548 277.176 34.9105C276.759 35.1577 276.294 35.2812 275.783 35.2812Z" fill="#1A1A1A"/>
<path d="M152 58C167.62 46.8099 248.642 42.0443 287 49.8284" stroke="#DA7717" stroke-width="4" stroke-linecap="round"/>
</svg>
