<svg width="460" height="460" viewBox="0 0 460 460" fill="none" xmlns="http://www.w3.org/2000/svg">
<g opacity="0.5">
<path d="M460 230C460 357.025 357.025 460 230 460C102.975 460 0 357.025 0 230C0 102.975 102.975 0 230 0C357.025 0 460 102.975 460 230ZM23 230C23 344.323 115.677 437 230 437C344.323 437 437 344.323 437 230C437 115.677 344.323 23 230 23C115.677 23 23 115.677 23 230Z" fill="url(#paint0_linear_3300_6654)"/>
<path d="M418.899 229.387C418.899 124.89 334.188 40.1794 229.692 40.1794C125.195 40.1794 40.4844 124.89 40.4844 229.387C40.4844 333.883 125.195 418.594 229.692 418.594C334.188 418.594 418.899 333.883 418.899 229.387ZM66.9734 229.387C66.9734 139.52 139.825 66.6684 229.692 66.6684C319.558 66.6684 392.41 139.52 392.41 229.387C392.41 319.253 319.558 392.105 229.692 392.105C139.825 392.105 66.9734 319.253 66.9734 229.387Z" fill="url(#paint1_linear_3300_6654)"/>
</g>
<rect x="87" y="65" width="340" height="329" rx="20" fill="#FAFAFA"/>
<path d="M147.885 104.362H145.229C145.153 103.927 145.013 103.541 144.81 103.205C144.606 102.864 144.353 102.575 144.05 102.338C143.747 102.101 143.401 101.924 143.013 101.805C142.629 101.682 142.215 101.621 141.77 101.621C140.979 101.621 140.278 101.82 139.668 102.217C139.057 102.61 138.579 103.188 138.233 103.95C137.887 104.708 137.714 105.634 137.714 106.727C137.714 107.84 137.887 108.777 138.233 109.54C138.583 110.297 139.062 110.87 139.668 111.259C140.278 111.642 140.977 111.834 141.763 111.834C142.198 111.834 142.606 111.777 142.984 111.663C143.368 111.545 143.711 111.372 144.014 111.145C144.322 110.918 144.58 110.638 144.788 110.307C145.001 109.975 145.148 109.597 145.229 109.17L147.885 109.185C147.786 109.876 147.57 110.525 147.239 111.131C146.912 111.737 146.483 112.272 145.953 112.736C145.423 113.195 144.803 113.555 144.092 113.815C143.382 114.071 142.594 114.199 141.727 114.199C140.449 114.199 139.308 113.903 138.304 113.311C137.3 112.719 136.509 111.865 135.932 110.747C135.354 109.63 135.065 108.29 135.065 106.727C135.065 105.16 135.357 103.82 135.939 102.707C136.521 101.59 137.314 100.735 138.318 100.143C139.322 99.5516 140.458 99.2557 141.727 99.2557C142.537 99.2557 143.29 99.3693 143.986 99.5966C144.682 99.8239 145.302 100.158 145.847 100.598C146.391 101.034 146.839 101.569 147.189 102.203C147.544 102.833 147.776 103.553 147.885 104.362ZM152.924 114.22C152.232 114.22 151.61 114.097 151.056 113.851C150.506 113.6 150.071 113.231 149.749 112.743C149.432 112.255 149.273 111.654 149.273 110.939C149.273 110.323 149.387 109.814 149.614 109.412C149.841 109.009 150.151 108.688 150.544 108.446C150.937 108.205 151.38 108.022 151.872 107.899C152.37 107.771 152.883 107.679 153.414 107.622C154.053 107.556 154.571 107.497 154.969 107.445C155.367 107.388 155.656 107.303 155.835 107.189C156.02 107.071 156.112 106.888 156.112 106.642V106.599C156.112 106.064 155.954 105.65 155.637 105.357C155.319 105.063 154.862 104.916 154.266 104.916C153.636 104.916 153.137 105.054 152.767 105.328C152.403 105.603 152.156 105.927 152.029 106.301L149.628 105.96C149.817 105.297 150.13 104.743 150.566 104.298C151.001 103.848 151.534 103.512 152.164 103.29C152.793 103.062 153.489 102.949 154.252 102.949C154.777 102.949 155.3 103.01 155.821 103.134C156.342 103.257 156.818 103.46 157.249 103.744C157.68 104.024 158.025 104.405 158.286 104.888C158.551 105.371 158.683 105.974 158.683 106.699V114H156.212V112.501H156.127C155.97 112.804 155.75 113.089 155.466 113.354C155.187 113.614 154.834 113.825 154.408 113.986C153.986 114.142 153.492 114.22 152.924 114.22ZM153.591 112.331C154.107 112.331 154.555 112.229 154.933 112.026C155.312 111.817 155.603 111.543 155.807 111.202C156.015 110.861 156.12 110.489 156.12 110.087V108.801C156.039 108.867 155.902 108.929 155.708 108.986C155.518 109.043 155.305 109.092 155.068 109.135C154.832 109.178 154.597 109.215 154.365 109.249C154.133 109.282 153.932 109.31 153.762 109.334C153.378 109.386 153.035 109.471 152.732 109.589C152.429 109.708 152.19 109.874 152.014 110.087C151.839 110.295 151.752 110.565 151.752 110.896C151.752 111.37 151.924 111.727 152.27 111.969C152.616 112.21 153.056 112.331 153.591 112.331ZM163.44 99.4545V114H160.869V99.4545H163.44ZM170.442 114.213C169.353 114.213 168.418 113.974 167.637 113.496C166.86 113.018 166.261 112.357 165.84 111.514C165.423 110.667 165.215 109.691 165.215 108.588C165.215 107.48 165.428 106.502 165.854 105.655C166.28 104.803 166.881 104.14 167.658 103.666C168.439 103.188 169.362 102.949 170.428 102.949C171.313 102.949 172.097 103.112 172.779 103.439C173.465 103.761 174.012 104.218 174.419 104.81C174.827 105.397 175.059 106.083 175.115 106.869H172.658C172.559 106.344 172.322 105.906 171.948 105.555C171.578 105.2 171.084 105.023 170.463 105.023C169.938 105.023 169.476 105.165 169.078 105.449C168.681 105.728 168.371 106.131 168.148 106.656C167.93 107.182 167.821 107.812 167.821 108.545C167.821 109.289 167.93 109.928 168.148 110.463C168.366 110.993 168.671 111.403 169.064 111.692C169.462 111.976 169.928 112.118 170.463 112.118C170.842 112.118 171.181 112.047 171.479 111.905C171.782 111.758 172.035 111.547 172.239 111.273C172.443 110.998 172.582 110.664 172.658 110.271H175.115C175.054 111.043 174.827 111.727 174.434 112.324C174.041 112.916 173.505 113.38 172.828 113.716C172.151 114.047 171.356 114.213 170.442 114.213ZM183.78 109.412V103.091H186.351V114H183.858V112.061H183.744C183.498 112.672 183.093 113.171 182.53 113.56C181.971 113.948 181.282 114.142 180.463 114.142C179.748 114.142 179.116 113.983 178.567 113.666C178.022 113.344 177.596 112.878 177.288 112.267C176.98 111.652 176.826 110.908 176.826 110.037V103.091H179.398V109.639C179.398 110.33 179.587 110.88 179.966 111.287C180.344 111.694 180.842 111.898 181.457 111.898C181.836 111.898 182.203 111.805 182.558 111.621C182.913 111.436 183.204 111.161 183.432 110.797C183.664 110.428 183.78 109.966 183.78 109.412ZM191.165 99.4545V114H188.594V99.4545H191.165ZM196.549 114.22C195.857 114.22 195.235 114.097 194.681 113.851C194.131 113.6 193.696 113.231 193.374 112.743C193.057 112.255 192.898 111.654 192.898 110.939C192.898 110.323 193.012 109.814 193.239 109.412C193.466 109.009 193.776 108.688 194.169 108.446C194.562 108.205 195.005 108.022 195.497 107.899C195.995 107.771 196.508 107.679 197.039 107.622C197.678 107.556 198.196 107.497 198.594 107.445C198.992 107.388 199.281 107.303 199.46 107.189C199.645 107.071 199.737 106.888 199.737 106.642V106.599C199.737 106.064 199.579 105.65 199.262 105.357C198.944 105.063 198.487 104.916 197.891 104.916C197.261 104.916 196.762 105.054 196.392 105.328C196.028 105.603 195.781 105.927 195.654 106.301L193.253 105.96C193.442 105.297 193.755 104.743 194.191 104.298C194.626 103.848 195.159 103.512 195.789 103.29C196.418 103.062 197.114 102.949 197.877 102.949C198.402 102.949 198.925 103.01 199.446 103.134C199.967 103.257 200.443 103.46 200.874 103.744C201.305 104.024 201.65 104.405 201.911 104.888C202.176 105.371 202.308 105.974 202.308 106.699V114H199.837V112.501H199.752C199.595 112.804 199.375 113.089 199.091 113.354C198.812 113.614 198.459 113.825 198.033 113.986C197.611 114.142 197.117 114.22 196.549 114.22ZM197.216 112.331C197.732 112.331 198.18 112.229 198.558 112.026C198.937 111.817 199.228 111.543 199.432 111.202C199.64 110.861 199.745 110.489 199.745 110.087V108.801C199.664 108.867 199.527 108.929 199.333 108.986C199.143 109.043 198.93 109.092 198.693 109.135C198.457 109.178 198.222 109.215 197.99 109.249C197.758 109.282 197.557 109.31 197.387 109.334C197.003 109.386 196.66 109.471 196.357 109.589C196.054 109.708 195.815 109.874 195.639 110.087C195.464 110.295 195.377 110.565 195.377 110.896C195.377 111.37 195.549 111.727 195.895 111.969C196.241 112.21 196.681 112.331 197.216 112.331ZM209.941 103.091V105.08H203.67V103.091H209.941ZM205.218 100.477H207.789V110.719C207.789 111.064 207.841 111.33 207.945 111.514C208.054 111.694 208.196 111.817 208.372 111.884C208.547 111.95 208.741 111.983 208.954 111.983C209.115 111.983 209.262 111.971 209.394 111.947C209.532 111.924 209.636 111.902 209.707 111.884L210.14 113.893C210.003 113.941 209.806 113.993 209.55 114.05C209.3 114.107 208.992 114.14 208.627 114.149C207.983 114.168 207.403 114.071 206.887 113.858C206.371 113.64 205.961 113.304 205.658 112.849C205.36 112.395 205.213 111.827 205.218 111.145V100.477ZM216.404 114.213C215.31 114.213 214.365 113.986 213.57 113.531C212.779 113.072 212.171 112.423 211.745 111.585C211.318 110.742 211.105 109.75 211.105 108.609C211.105 107.487 211.318 106.502 211.745 105.655C212.175 104.803 212.777 104.14 213.549 103.666C214.32 103.188 215.227 102.949 216.269 102.949C216.941 102.949 217.576 103.058 218.172 103.276C218.773 103.489 219.304 103.82 219.763 104.27C220.227 104.72 220.592 105.293 220.857 105.989C221.122 106.68 221.255 107.504 221.255 108.46V109.249H212.313V107.516H218.79C218.785 107.023 218.679 106.585 218.47 106.202C218.262 105.813 217.971 105.508 217.597 105.286C217.228 105.063 216.797 104.952 216.304 104.952C215.779 104.952 215.317 105.08 214.919 105.335C214.522 105.586 214.211 105.918 213.989 106.33C213.771 106.737 213.66 107.184 213.655 107.672V109.185C213.655 109.819 213.771 110.364 214.003 110.818C214.235 111.268 214.559 111.614 214.976 111.855C215.393 112.092 215.88 112.21 216.439 112.21C216.813 112.21 217.152 112.158 217.455 112.054C217.758 111.945 218.021 111.786 218.243 111.578C218.466 111.37 218.634 111.112 218.747 110.804L221.148 111.074C220.996 111.708 220.708 112.262 220.282 112.736C219.86 113.205 219.32 113.569 218.662 113.83C218.004 114.085 217.251 114.213 216.404 114.213ZM229.189 118.091C228.838 118.091 228.514 118.063 228.216 118.006C227.922 117.954 227.688 117.892 227.512 117.821L228.109 115.818C228.483 115.927 228.817 115.979 229.11 115.974C229.404 115.97 229.662 115.877 229.885 115.697C230.112 115.522 230.304 115.229 230.46 114.817L230.68 114.227L226.724 103.091H229.451L231.966 111.33H232.079L234.6 103.091H237.335L232.967 115.321C232.763 115.899 232.493 116.393 232.157 116.805C231.821 117.222 231.409 117.539 230.922 117.757C230.439 117.98 229.861 118.091 229.189 118.091ZM243.101 114.213C242.036 114.213 241.113 113.979 240.332 113.51C239.55 113.041 238.944 112.385 238.513 111.543C238.087 110.7 237.874 109.715 237.874 108.588C237.874 107.461 238.087 106.474 238.513 105.626C238.944 104.779 239.55 104.121 240.332 103.652C241.113 103.183 242.036 102.949 243.101 102.949C244.167 102.949 245.09 103.183 245.871 103.652C246.653 104.121 247.256 104.779 247.682 105.626C248.113 106.474 248.329 107.461 248.329 108.588C248.329 109.715 248.113 110.7 247.682 111.543C247.256 112.385 246.653 113.041 245.871 113.51C245.09 113.979 244.167 114.213 243.101 114.213ZM243.116 112.153C243.693 112.153 244.176 111.995 244.564 111.678C244.953 111.356 245.242 110.925 245.431 110.385C245.625 109.845 245.722 109.244 245.722 108.581C245.722 107.913 245.625 107.31 245.431 106.77C245.242 106.225 244.953 105.792 244.564 105.47C244.176 105.148 243.693 104.987 243.116 104.987C242.524 104.987 242.031 105.148 241.638 105.47C241.25 105.792 240.959 106.225 240.765 106.77C240.575 107.31 240.481 107.913 240.481 108.581C240.481 109.244 240.575 109.845 240.765 110.385C240.959 110.925 241.25 111.356 241.638 111.678C242.031 111.995 242.524 112.153 243.116 112.153ZM257.064 109.412V103.091H259.635V114H257.142V112.061H257.028C256.782 112.672 256.377 113.171 255.814 113.56C255.255 113.948 254.566 114.142 253.747 114.142C253.032 114.142 252.4 113.983 251.851 113.666C251.306 113.344 250.88 112.878 250.573 112.267C250.265 111.652 250.111 110.908 250.111 110.037V103.091H252.682V109.639C252.682 110.33 252.871 110.88 253.25 111.287C253.629 111.694 254.126 111.898 254.742 111.898C255.12 111.898 255.487 111.805 255.842 111.621C256.198 111.436 256.489 111.161 256.716 110.797C256.948 110.428 257.064 109.966 257.064 109.412ZM261.879 114V103.091H264.372V104.909H264.485C264.684 104.279 265.025 103.794 265.508 103.453C265.996 103.107 266.552 102.935 267.177 102.935C267.319 102.935 267.478 102.942 267.653 102.956C267.833 102.965 267.982 102.982 268.1 103.006V105.371C267.992 105.333 267.819 105.3 267.582 105.271C267.35 105.238 267.125 105.222 266.907 105.222C266.438 105.222 266.017 105.323 265.643 105.527C265.274 105.726 264.983 106.003 264.769 106.358C264.556 106.713 264.45 107.123 264.45 107.587V114H261.879ZM273.969 118.091V103.091H276.498V104.895H276.647C276.78 104.63 276.967 104.348 277.208 104.05C277.45 103.747 277.776 103.489 278.188 103.276C278.6 103.058 279.126 102.949 279.765 102.949C280.608 102.949 281.368 103.164 282.045 103.595C282.727 104.021 283.266 104.653 283.664 105.491C284.067 106.325 284.268 107.348 284.268 108.56C284.268 109.758 284.071 110.776 283.678 111.614C283.285 112.452 282.75 113.091 282.073 113.531C281.396 113.972 280.629 114.192 279.772 114.192C279.147 114.192 278.629 114.088 278.217 113.879C277.805 113.671 277.473 113.42 277.222 113.126C276.976 112.828 276.784 112.546 276.647 112.281H276.54V118.091H273.969ZM276.491 108.545C276.491 109.251 276.59 109.869 276.789 110.399C276.993 110.929 277.284 111.344 277.663 111.642C278.046 111.936 278.51 112.082 279.055 112.082C279.623 112.082 280.099 111.931 280.482 111.628C280.866 111.32 281.155 110.901 281.349 110.371C281.548 109.836 281.647 109.227 281.647 108.545C281.647 107.868 281.55 107.267 281.356 106.741C281.162 106.216 280.873 105.804 280.489 105.506C280.106 105.207 279.628 105.058 279.055 105.058C278.505 105.058 278.039 105.203 277.656 105.491C277.272 105.78 276.981 106.185 276.782 106.706C276.588 107.227 276.491 107.84 276.491 108.545ZM289.209 114.22C288.517 114.22 287.895 114.097 287.341 113.851C286.792 113.6 286.356 113.231 286.034 112.743C285.717 112.255 285.558 111.654 285.558 110.939C285.558 110.323 285.672 109.814 285.899 109.412C286.126 109.009 286.436 108.688 286.829 108.446C287.222 108.205 287.665 108.022 288.158 107.899C288.655 107.771 289.168 107.679 289.699 107.622C290.338 107.556 290.856 107.497 291.254 107.445C291.652 107.388 291.941 107.303 292.121 107.189C292.305 107.071 292.398 106.888 292.398 106.642V106.599C292.398 106.064 292.239 105.65 291.922 105.357C291.605 105.063 291.148 104.916 290.551 104.916C289.921 104.916 289.422 105.054 289.052 105.328C288.688 105.603 288.442 105.927 288.314 106.301L285.913 105.96C286.103 105.297 286.415 104.743 286.851 104.298C287.286 103.848 287.819 103.512 288.449 103.29C289.078 103.062 289.774 102.949 290.537 102.949C291.062 102.949 291.586 103.01 292.106 103.134C292.627 103.257 293.103 103.46 293.534 103.744C293.965 104.024 294.31 104.405 294.571 104.888C294.836 105.371 294.969 105.974 294.969 106.699V114H292.497V112.501H292.412C292.256 112.804 292.035 113.089 291.751 113.354C291.472 113.614 291.119 113.825 290.693 113.986C290.272 114.142 289.777 114.22 289.209 114.22ZM289.876 112.331C290.392 112.331 290.84 112.229 291.219 112.026C291.597 111.817 291.889 111.543 292.092 111.202C292.301 110.861 292.405 110.489 292.405 110.087V108.801C292.324 108.867 292.187 108.929 291.993 108.986C291.803 109.043 291.59 109.092 291.354 109.135C291.117 109.178 290.882 109.215 290.65 109.249C290.418 109.282 290.217 109.31 290.047 109.334C289.663 109.386 289.32 109.471 289.017 109.589C288.714 109.708 288.475 109.874 288.3 110.087C288.124 110.295 288.037 110.565 288.037 110.896C288.037 111.37 288.21 111.727 288.555 111.969C288.901 112.21 289.341 112.331 289.876 112.331ZM297.154 118.091V103.091H299.682V104.895H299.831C299.964 104.63 300.151 104.348 300.392 104.05C300.634 103.747 300.961 103.489 301.373 103.276C301.785 103.058 302.31 102.949 302.949 102.949C303.792 102.949 304.552 103.164 305.229 103.595C305.911 104.021 306.451 104.653 306.848 105.491C307.251 106.325 307.452 107.348 307.452 108.56C307.452 109.758 307.256 110.776 306.863 111.614C306.47 112.452 305.935 113.091 305.258 113.531C304.58 113.972 303.813 114.192 302.956 114.192C302.331 114.192 301.813 114.088 301.401 113.879C300.989 113.671 300.658 113.42 300.407 113.126C300.16 112.828 299.969 112.546 299.831 112.281H299.725V118.091H297.154ZM299.675 108.545C299.675 109.251 299.775 109.869 299.973 110.399C300.177 110.929 300.468 111.344 300.847 111.642C301.231 111.936 301.695 112.082 302.239 112.082C302.807 112.082 303.283 111.931 303.667 111.628C304.05 111.32 304.339 110.901 304.533 110.371C304.732 109.836 304.831 109.227 304.831 108.545C304.831 107.868 304.734 107.267 304.54 106.741C304.346 106.216 304.057 105.804 303.674 105.506C303.29 105.207 302.812 105.058 302.239 105.058C301.69 105.058 301.223 105.203 300.84 105.491C300.456 105.78 300.165 106.185 299.966 106.706C299.772 107.227 299.675 107.84 299.675 108.545ZM314.083 114.213C312.99 114.213 312.045 113.986 311.25 113.531C310.459 113.072 309.85 112.423 309.424 111.585C308.998 110.742 308.785 109.75 308.785 108.609C308.785 107.487 308.998 106.502 309.424 105.655C309.855 104.803 310.456 104.14 311.228 103.666C312 103.188 312.907 102.949 313.948 102.949C314.621 102.949 315.255 103.058 315.852 103.276C316.453 103.489 316.983 103.82 317.443 104.27C317.907 104.72 318.271 105.293 318.537 105.989C318.802 106.68 318.934 107.504 318.934 108.46V109.249H309.992V107.516H316.47C316.465 107.023 316.358 106.585 316.15 106.202C315.942 105.813 315.651 105.508 315.277 105.286C314.907 105.063 314.476 104.952 313.984 104.952C313.458 104.952 312.997 105.08 312.599 105.335C312.201 105.586 311.891 105.918 311.669 106.33C311.451 106.737 311.34 107.184 311.335 107.672V109.185C311.335 109.819 311.451 110.364 311.683 110.818C311.915 111.268 312.239 111.614 312.656 111.855C313.072 112.092 313.56 112.21 314.119 112.21C314.493 112.21 314.831 112.158 315.135 112.054C315.438 111.945 315.7 111.786 315.923 111.578C316.145 111.37 316.313 111.112 316.427 110.804L318.828 111.074C318.676 111.708 318.387 112.262 317.961 112.736C317.54 113.205 317 113.569 316.342 113.83C315.684 114.085 314.931 114.213 314.083 114.213ZM320.709 114V103.091H323.202V104.909H323.316C323.515 104.279 323.856 103.794 324.339 103.453C324.826 103.107 325.383 102.935 326.008 102.935C326.15 102.935 326.308 102.942 326.483 102.956C326.663 102.965 326.813 102.982 326.931 103.006V105.371C326.822 105.333 326.649 105.3 326.412 105.271C326.18 105.238 325.956 105.222 325.738 105.222C325.269 105.222 324.848 105.323 324.474 105.527C324.104 105.726 323.813 106.003 323.6 106.358C323.387 106.713 323.28 107.123 323.28 107.587V114H320.709ZM332.8 118.091V103.091H335.328V104.895H335.477C335.61 104.63 335.797 104.348 336.039 104.05C336.28 103.747 336.607 103.489 337.019 103.276C337.431 103.058 337.956 102.949 338.595 102.949C339.438 102.949 340.198 103.164 340.875 103.595C341.557 104.021 342.097 104.653 342.495 105.491C342.897 106.325 343.098 107.348 343.098 108.56C343.098 109.758 342.902 110.776 342.509 111.614C342.116 112.452 341.581 113.091 340.904 113.531C340.227 113.972 339.459 114.192 338.602 114.192C337.977 114.192 337.459 114.088 337.047 113.879C336.635 113.671 336.304 113.42 336.053 113.126C335.807 112.828 335.615 112.546 335.477 112.281H335.371V118.091H332.8ZM335.321 108.545C335.321 109.251 335.421 109.869 335.62 110.399C335.823 110.929 336.114 111.344 336.493 111.642C336.877 111.936 337.341 112.082 337.885 112.082C338.453 112.082 338.929 111.931 339.313 111.628C339.696 111.32 339.985 110.901 340.179 110.371C340.378 109.836 340.477 109.227 340.477 108.545C340.477 107.868 340.38 107.267 340.186 106.741C339.992 106.216 339.703 105.804 339.32 105.506C338.936 105.207 338.458 105.058 337.885 105.058C337.336 105.058 336.87 105.203 336.486 105.491C336.102 105.78 335.811 106.185 335.612 106.706C335.418 107.227 335.321 107.84 335.321 108.545ZM344.9 114V103.091H347.393V104.909H347.506C347.705 104.279 348.046 103.794 348.529 103.453C349.017 103.107 349.573 102.935 350.198 102.935C350.34 102.935 350.499 102.942 350.674 102.956C350.854 102.965 351.003 102.982 351.122 103.006V105.371C351.013 105.333 350.84 105.3 350.603 105.271C350.371 105.238 350.146 105.222 349.928 105.222C349.46 105.222 349.038 105.323 348.664 105.527C348.295 105.726 348.004 106.003 347.791 106.358C347.577 106.713 347.471 107.123 347.471 107.587V114H344.9ZM352.43 114V103.091H355.001V114H352.43ZM353.722 101.543C353.315 101.543 352.965 101.408 352.671 101.138C352.378 100.863 352.231 100.534 352.231 100.151C352.231 99.7623 352.378 99.4332 352.671 99.1634C352.965 98.8887 353.315 98.7514 353.722 98.7514C354.134 98.7514 354.485 98.8887 354.773 99.1634C355.067 99.4332 355.214 99.7623 355.214 100.151C355.214 100.534 355.067 100.863 354.773 101.138C354.485 101.408 354.134 101.543 353.722 101.543ZM362.003 114.213C360.914 114.213 359.979 113.974 359.198 113.496C358.421 113.018 357.822 112.357 357.401 111.514C356.984 110.667 356.776 109.691 356.776 108.588C356.776 107.48 356.989 106.502 357.415 105.655C357.841 104.803 358.442 104.14 359.219 103.666C360 103.188 360.923 102.949 361.989 102.949C362.874 102.949 363.658 103.112 364.34 103.439C365.026 103.761 365.573 104.218 365.98 104.81C366.387 105.397 366.619 106.083 366.676 106.869H364.219C364.119 106.344 363.883 105.906 363.509 105.555C363.139 105.2 362.645 105.023 362.024 105.023C361.499 105.023 361.037 105.165 360.639 105.449C360.242 105.728 359.931 106.131 359.709 106.656C359.491 107.182 359.382 107.812 359.382 108.545C359.382 109.289 359.491 109.928 359.709 110.463C359.927 110.993 360.232 111.403 360.625 111.692C361.023 111.976 361.489 112.118 362.024 112.118C362.403 112.118 362.742 112.047 363.04 111.905C363.343 111.758 363.596 111.547 363.8 111.273C364.003 110.998 364.143 110.664 364.219 110.271H366.676C366.615 111.043 366.387 111.727 365.994 112.324C365.601 112.916 365.066 113.38 364.389 113.716C363.712 114.047 362.917 114.213 362.003 114.213ZM373.217 114.213C372.123 114.213 371.179 113.986 370.383 113.531C369.592 113.072 368.984 112.423 368.558 111.585C368.132 110.742 367.919 109.75 367.919 108.609C367.919 107.487 368.132 106.502 368.558 105.655C368.989 104.803 369.59 104.14 370.362 103.666C371.134 103.188 372.04 102.949 373.082 102.949C373.754 102.949 374.389 103.058 374.985 103.276C375.587 103.489 376.117 103.82 376.576 104.27C377.04 104.72 377.405 105.293 377.67 105.989C377.935 106.68 378.068 107.504 378.068 108.46V109.249H369.126V107.516H375.603C375.599 107.023 375.492 106.585 375.284 106.202C375.075 105.813 374.784 105.508 374.41 105.286C374.041 105.063 373.61 104.952 373.118 104.952C372.592 104.952 372.13 105.08 371.733 105.335C371.335 105.586 371.025 105.918 370.802 106.33C370.584 106.737 370.473 107.184 370.468 107.672V109.185C370.468 109.819 370.584 110.364 370.816 110.818C371.048 111.268 371.373 111.614 371.789 111.855C372.206 112.092 372.694 112.21 373.252 112.21C373.627 112.21 373.965 112.158 374.268 112.054C374.571 111.945 374.834 111.786 375.056 111.578C375.279 111.37 375.447 111.112 375.561 110.804L377.961 111.074C377.81 111.708 377.521 112.262 377.095 112.736C376.673 113.205 376.134 113.569 375.475 113.83C374.817 114.085 374.065 114.213 373.217 114.213Z" fill="#1A1A1A"/>
<path opacity="0.7" d="M125.801 156.364C125.741 155.86 125.5 155.469 125.075 155.19C124.651 154.912 124.131 154.773 123.514 154.773C123.063 154.773 122.669 154.846 122.331 154.991C121.996 155.137 121.734 155.338 121.545 155.593C121.36 155.848 121.267 156.138 121.267 156.463C121.267 156.735 121.332 156.969 121.461 157.164C121.594 157.356 121.763 157.517 121.968 157.646C122.174 157.772 122.389 157.877 122.614 157.96C122.84 158.039 123.047 158.104 123.236 158.153L124.27 158.432C124.535 158.501 124.83 158.598 125.155 158.72C125.483 158.843 125.796 159.01 126.094 159.222C126.396 159.431 126.645 159.7 126.84 160.028C127.036 160.356 127.134 160.759 127.134 161.236C127.134 161.786 126.989 162.283 126.701 162.727C126.416 163.171 125.998 163.524 125.448 163.786C124.901 164.048 124.237 164.179 123.455 164.179C122.725 164.179 122.094 164.061 121.56 163.826C121.03 163.591 120.612 163.263 120.308 162.842C120.006 162.421 119.835 161.932 119.795 161.375H121.068C121.101 161.759 121.231 162.078 121.456 162.33C121.685 162.578 121.973 162.764 122.321 162.886C122.672 163.006 123.05 163.065 123.455 163.065C123.925 163.065 124.348 162.989 124.722 162.837C125.097 162.681 125.393 162.465 125.612 162.19C125.831 161.912 125.94 161.587 125.94 161.216C125.94 160.878 125.846 160.603 125.657 160.391C125.468 160.179 125.219 160.006 124.911 159.874C124.603 159.741 124.27 159.625 123.912 159.526L122.659 159.168C121.864 158.939 121.234 158.612 120.77 158.188C120.306 157.764 120.074 157.209 120.074 156.523C120.074 155.953 120.228 155.455 120.536 155.031C120.848 154.604 121.265 154.272 121.789 154.037C122.316 153.798 122.904 153.679 123.554 153.679C124.21 153.679 124.794 153.797 125.304 154.032C125.814 154.264 126.219 154.582 126.517 154.987C126.819 155.391 126.978 155.85 126.994 156.364H125.801ZM132.203 164.159C131.468 164.159 130.833 163.997 130.299 163.672C129.769 163.344 129.36 162.886 129.071 162.3C128.786 161.71 128.644 161.024 128.644 160.241C128.644 159.459 128.786 158.77 129.071 158.173C129.36 157.573 129.761 157.106 130.274 156.771C130.791 156.433 131.395 156.264 132.084 156.264C132.482 156.264 132.874 156.33 133.262 156.463C133.65 156.596 134.003 156.811 134.321 157.109C134.639 157.404 134.893 157.795 135.082 158.283C135.271 158.77 135.365 159.37 135.365 160.082V160.58H129.479V159.565H134.172C134.172 159.134 134.086 158.75 133.914 158.412C133.744 158.074 133.503 157.807 133.188 157.612C132.876 157.416 132.508 157.318 132.084 157.318C131.617 157.318 131.212 157.434 130.871 157.666C130.533 157.895 130.273 158.193 130.09 158.561C129.908 158.929 129.817 159.323 129.817 159.744V160.42C129.817 160.997 129.916 161.486 130.115 161.887C130.317 162.285 130.597 162.588 130.955 162.797C131.313 163.002 131.729 163.105 132.203 163.105C132.512 163.105 132.79 163.062 133.039 162.976C133.29 162.886 133.508 162.754 133.69 162.578C133.872 162.399 134.013 162.177 134.112 161.912L135.246 162.23C135.127 162.615 134.926 162.953 134.644 163.244C134.363 163.533 134.015 163.758 133.6 163.92C133.186 164.08 132.72 164.159 132.203 164.159ZM137.15 164V156.364H138.284V157.517H138.363C138.502 157.139 138.754 156.833 139.119 156.597C139.483 156.362 139.894 156.244 140.352 156.244C140.438 156.244 140.546 156.246 140.675 156.249C140.804 156.253 140.902 156.258 140.968 156.264V157.457C140.928 157.447 140.837 157.433 140.695 157.413C140.556 157.389 140.408 157.378 140.252 157.378C139.881 157.378 139.55 157.456 139.258 157.612C138.97 157.764 138.741 157.976 138.572 158.248C138.406 158.516 138.323 158.823 138.323 159.168V164H137.15ZM148.836 156.364L146.012 164H144.819L141.995 156.364H143.268L145.376 162.449H145.455L147.563 156.364H148.836ZM150.384 164V156.364H151.558V164H150.384ZM150.981 155.091C150.752 155.091 150.555 155.013 150.389 154.857C150.227 154.701 150.146 154.514 150.146 154.295C150.146 154.077 150.227 153.889 150.389 153.734C150.555 153.578 150.752 153.5 150.981 153.5C151.21 153.5 151.405 153.578 151.568 153.734C151.733 153.889 151.816 154.077 151.816 154.295C151.816 154.514 151.733 154.701 151.568 154.857C151.405 155.013 151.21 155.091 150.981 155.091ZM156.809 164.159C156.093 164.159 155.477 163.99 154.96 163.652C154.442 163.314 154.045 162.848 153.766 162.255C153.488 161.662 153.349 160.984 153.349 160.222C153.349 159.446 153.491 158.762 153.776 158.168C154.065 157.572 154.466 157.106 154.979 156.771C155.496 156.433 156.1 156.264 156.789 156.264C157.326 156.264 157.81 156.364 158.241 156.562C158.672 156.761 159.025 157.04 159.3 157.398C159.575 157.756 159.746 158.173 159.812 158.651H158.638C158.549 158.303 158.35 157.994 158.042 157.726C157.737 157.454 157.326 157.318 156.809 157.318C156.352 157.318 155.951 157.437 155.606 157.676C155.264 157.911 154.998 158.245 154.805 158.675C154.616 159.103 154.522 159.605 154.522 160.182C154.522 160.772 154.615 161.286 154.8 161.723C154.989 162.161 155.254 162.5 155.596 162.742C155.941 162.984 156.345 163.105 156.809 163.105C157.114 163.105 157.391 163.052 157.639 162.946C157.888 162.84 158.098 162.688 158.271 162.489C158.443 162.29 158.566 162.051 158.638 161.773H159.812C159.746 162.223 159.581 162.629 159.32 162.991C159.061 163.349 158.718 163.634 158.29 163.846C157.866 164.055 157.372 164.159 156.809 164.159ZM164.729 164.159C163.993 164.159 163.358 163.997 162.825 163.672C162.294 163.344 161.885 162.886 161.597 162.3C161.312 161.71 161.169 161.024 161.169 160.241C161.169 159.459 161.312 158.77 161.597 158.173C161.885 157.573 162.286 157.106 162.8 156.771C163.317 156.433 163.92 156.264 164.609 156.264C165.007 156.264 165.4 156.33 165.788 156.463C166.175 156.596 166.528 156.811 166.847 157.109C167.165 157.404 167.418 157.795 167.607 158.283C167.796 158.77 167.891 159.37 167.891 160.082V160.58H162.004V159.565H166.697C166.697 159.134 166.611 158.75 166.439 158.412C166.27 158.074 166.028 157.807 165.713 157.612C165.402 157.416 165.034 157.318 164.609 157.318C164.142 157.318 163.738 157.434 163.396 157.666C163.058 157.895 162.798 158.193 162.616 158.561C162.433 158.929 162.342 159.323 162.342 159.744V160.42C162.342 160.997 162.442 161.486 162.641 161.887C162.843 162.285 163.123 162.588 163.481 162.797C163.839 163.002 164.255 163.105 164.729 163.105C165.037 163.105 165.315 163.062 165.564 162.976C165.816 162.886 166.033 162.754 166.215 162.578C166.397 162.399 166.538 162.177 166.638 161.912L167.771 162.23C167.652 162.615 167.451 162.953 167.17 163.244C166.888 163.533 166.54 163.758 166.126 163.92C165.711 164.08 165.246 164.159 164.729 164.159Z" fill="#1A1A1A"/>
<path d="M128.886 201H127.409L131.682 189.364H133.136L137.409 201H135.932L132.455 191.205H132.364L128.886 201ZM129.432 196.455H135.386V197.705H129.432V196.455ZM145.222 194.227L144.017 194.568C143.941 194.367 143.83 194.172 143.682 193.983C143.538 193.79 143.341 193.631 143.091 193.506C142.841 193.381 142.521 193.318 142.131 193.318C141.597 193.318 141.152 193.441 140.795 193.688C140.443 193.93 140.267 194.239 140.267 194.614C140.267 194.947 140.388 195.21 140.631 195.403C140.873 195.597 141.252 195.758 141.767 195.886L143.062 196.205C143.843 196.394 144.424 196.684 144.807 197.074C145.189 197.46 145.381 197.958 145.381 198.568C145.381 199.068 145.237 199.515 144.949 199.909C144.665 200.303 144.267 200.614 143.756 200.841C143.244 201.068 142.65 201.182 141.972 201.182C141.081 201.182 140.345 200.989 139.761 200.602C139.178 200.216 138.809 199.652 138.653 198.909L139.926 198.591C140.047 199.061 140.277 199.413 140.614 199.648C140.955 199.883 141.4 200 141.949 200C142.574 200 143.07 199.867 143.438 199.602C143.809 199.333 143.994 199.011 143.994 198.636C143.994 198.333 143.888 198.08 143.676 197.875C143.464 197.667 143.138 197.511 142.699 197.409L141.244 197.068C140.445 196.879 139.858 196.585 139.483 196.188C139.112 195.786 138.926 195.284 138.926 194.682C138.926 194.189 139.064 193.754 139.341 193.375C139.621 192.996 140.002 192.699 140.483 192.483C140.968 192.267 141.517 192.159 142.131 192.159C142.994 192.159 143.672 192.348 144.165 192.727C144.661 193.106 145.013 193.606 145.222 194.227ZM153.581 194.227L152.376 194.568C152.301 194.367 152.189 194.172 152.041 193.983C151.897 193.79 151.7 193.631 151.45 193.506C151.2 193.381 150.88 193.318 150.49 193.318C149.956 193.318 149.511 193.441 149.155 193.688C148.803 193.93 148.626 194.239 148.626 194.614C148.626 194.947 148.748 195.21 148.99 195.403C149.232 195.597 149.611 195.758 150.126 195.886L151.422 196.205C152.202 196.394 152.784 196.684 153.166 197.074C153.549 197.46 153.74 197.958 153.74 198.568C153.74 199.068 153.596 199.515 153.308 199.909C153.024 200.303 152.626 200.614 152.115 200.841C151.604 201.068 151.009 201.182 150.331 201.182C149.441 201.182 148.704 200.989 148.121 200.602C147.537 200.216 147.168 199.652 147.013 198.909L148.286 198.591C148.407 199.061 148.636 199.413 148.973 199.648C149.314 199.883 149.759 200 150.308 200C150.933 200 151.429 199.867 151.797 199.602C152.168 199.333 152.354 199.011 152.354 198.636C152.354 198.333 152.248 198.08 152.036 197.875C151.823 197.667 151.498 197.511 151.058 197.409L149.604 197.068C148.804 196.879 148.217 196.585 147.842 196.188C147.471 195.786 147.286 195.284 147.286 194.682C147.286 194.189 147.424 193.754 147.7 193.375C147.981 192.996 148.361 192.699 148.842 192.483C149.327 192.267 149.876 192.159 150.49 192.159C151.354 192.159 152.032 192.348 152.524 192.727C153.02 193.106 153.373 193.606 153.581 194.227ZM155.759 201V192.273H157.099V201H155.759ZM156.44 190.818C156.179 190.818 155.954 190.729 155.764 190.551C155.579 190.373 155.486 190.159 155.486 189.909C155.486 189.659 155.579 189.445 155.764 189.267C155.954 189.089 156.179 189 156.44 189C156.702 189 156.925 189.089 157.111 189.267C157.3 189.445 157.395 189.659 157.395 189.909C157.395 190.159 157.3 190.373 157.111 190.551C156.925 190.729 156.702 190.818 156.44 190.818ZM163.078 204.455C162.43 204.455 161.874 204.371 161.408 204.205C160.942 204.042 160.554 203.826 160.243 203.557C159.936 203.292 159.692 203.008 159.51 202.705L160.578 201.955C160.699 202.114 160.853 202.295 161.038 202.5C161.224 202.708 161.478 202.888 161.8 203.04C162.125 203.195 162.552 203.273 163.078 203.273C163.783 203.273 164.364 203.102 164.822 202.761C165.281 202.42 165.51 201.886 165.51 201.159V199.386H165.396C165.298 199.545 165.158 199.742 164.976 199.977C164.798 200.208 164.54 200.415 164.203 200.597C163.87 200.775 163.419 200.864 162.851 200.864C162.146 200.864 161.514 200.697 160.953 200.364C160.396 200.03 159.955 199.545 159.629 198.909C159.307 198.273 159.146 197.5 159.146 196.591C159.146 195.697 159.304 194.919 159.618 194.256C159.932 193.589 160.37 193.074 160.93 192.71C161.491 192.343 162.139 192.159 162.874 192.159C163.442 192.159 163.893 192.254 164.226 192.443C164.563 192.629 164.821 192.841 164.999 193.08C165.18 193.314 165.321 193.508 165.419 193.659H165.555V192.273H166.851V201.25C166.851 202 166.68 202.61 166.339 203.08C166.002 203.553 165.548 203.9 164.976 204.119C164.408 204.343 163.775 204.455 163.078 204.455ZM163.033 199.659C163.571 199.659 164.025 199.536 164.396 199.29C164.768 199.044 165.05 198.689 165.243 198.227C165.436 197.765 165.533 197.212 165.533 196.568C165.533 195.939 165.438 195.384 165.249 194.903C165.059 194.422 164.779 194.045 164.408 193.773C164.036 193.5 163.578 193.364 163.033 193.364C162.464 193.364 161.991 193.508 161.612 193.795C161.237 194.083 160.955 194.47 160.766 194.955C160.58 195.439 160.487 195.977 160.487 196.568C160.487 197.174 160.582 197.71 160.771 198.176C160.964 198.638 161.249 199.002 161.624 199.267C162.002 199.528 162.472 199.659 163.033 199.659ZM170.646 195.75V201H169.305V192.273H170.601V193.636H170.714C170.919 193.193 171.23 192.837 171.646 192.568C172.063 192.295 172.601 192.159 173.26 192.159C173.851 192.159 174.368 192.28 174.811 192.523C175.254 192.761 175.599 193.125 175.845 193.614C176.091 194.098 176.214 194.712 176.214 195.455V201H174.874V195.545C174.874 194.86 174.696 194.326 174.339 193.943C173.983 193.557 173.495 193.364 172.874 193.364C172.446 193.364 172.063 193.456 171.726 193.642C171.393 193.828 171.129 194.098 170.936 194.455C170.743 194.811 170.646 195.242 170.646 195.75ZM178.665 201V192.273H179.96V193.636H180.074C180.256 193.17 180.549 192.809 180.955 192.551C181.36 192.29 181.847 192.159 182.415 192.159C182.991 192.159 183.47 192.29 183.852 192.551C184.239 192.809 184.54 193.17 184.756 193.636H184.847C185.07 193.186 185.405 192.828 185.852 192.562C186.299 192.294 186.835 192.159 187.46 192.159C188.241 192.159 188.879 192.403 189.375 192.892C189.871 193.377 190.119 194.133 190.119 195.159V201H188.778V195.159C188.778 194.515 188.602 194.055 188.25 193.778C187.898 193.502 187.483 193.364 187.006 193.364C186.392 193.364 185.917 193.549 185.58 193.92C185.242 194.288 185.074 194.754 185.074 195.318V201H183.71V195.023C183.71 194.527 183.549 194.127 183.227 193.824C182.905 193.517 182.491 193.364 181.983 193.364C181.634 193.364 181.309 193.456 181.006 193.642C180.706 193.828 180.464 194.085 180.278 194.415C180.097 194.741 180.006 195.117 180.006 195.545V201H178.665ZM196.23 201.182C195.389 201.182 194.664 200.996 194.054 200.625C193.448 200.25 192.98 199.727 192.651 199.057C192.325 198.383 192.162 197.598 192.162 196.705C192.162 195.811 192.325 195.023 192.651 194.341C192.98 193.655 193.438 193.121 194.026 192.739C194.616 192.352 195.306 192.159 196.094 192.159C196.548 192.159 196.997 192.235 197.44 192.386C197.884 192.538 198.287 192.784 198.651 193.125C199.014 193.462 199.304 193.909 199.52 194.466C199.736 195.023 199.844 195.708 199.844 196.523V197.091H193.116V195.932H198.48C198.48 195.439 198.382 195 198.185 194.614C197.991 194.227 197.715 193.922 197.355 193.699C196.999 193.475 196.579 193.364 196.094 193.364C195.56 193.364 195.098 193.496 194.707 193.761C194.321 194.023 194.024 194.364 193.815 194.784C193.607 195.205 193.503 195.655 193.503 196.136V196.909C193.503 197.568 193.616 198.127 193.844 198.585C194.075 199.04 194.395 199.386 194.804 199.625C195.213 199.86 195.688 199.977 196.23 199.977C196.582 199.977 196.901 199.928 197.185 199.83C197.473 199.727 197.721 199.576 197.929 199.375C198.137 199.17 198.298 198.917 198.412 198.614L199.707 198.977C199.571 199.417 199.342 199.803 199.02 200.136C198.698 200.466 198.3 200.723 197.827 200.909C197.353 201.091 196.821 201.182 196.23 201.182ZM203.224 195.75V201H201.884V192.273H203.179V193.636H203.293C203.497 193.193 203.808 192.837 204.224 192.568C204.641 192.295 205.179 192.159 205.838 192.159C206.429 192.159 206.946 192.28 207.389 192.523C207.832 192.761 208.177 193.125 208.423 193.614C208.67 194.098 208.793 194.712 208.793 195.455V201H207.452V195.545C207.452 194.86 207.274 194.326 206.918 193.943C206.562 193.557 206.073 193.364 205.452 193.364C205.024 193.364 204.641 193.456 204.304 193.642C203.971 193.828 203.707 194.098 203.514 194.455C203.321 194.811 203.224 195.242 203.224 195.75ZM215.038 192.273V193.409H210.516V192.273H215.038ZM211.834 190.182H213.175V198.5C213.175 198.879 213.23 199.163 213.339 199.352C213.453 199.538 213.597 199.663 213.771 199.727C213.949 199.788 214.137 199.818 214.334 199.818C214.482 199.818 214.603 199.811 214.697 199.795C214.792 199.777 214.868 199.761 214.925 199.75L215.197 200.955C215.107 200.989 214.98 201.023 214.817 201.057C214.654 201.095 214.447 201.114 214.197 201.114C213.819 201.114 213.447 201.032 213.084 200.869C212.724 200.706 212.425 200.458 212.186 200.125C211.951 199.792 211.834 199.371 211.834 198.864V190.182ZM223.081 194.227L221.876 194.568C221.801 194.367 221.689 194.172 221.541 193.983C221.397 193.79 221.2 193.631 220.95 193.506C220.7 193.381 220.38 193.318 219.99 193.318C219.456 193.318 219.011 193.441 218.655 193.688C218.303 193.93 218.126 194.239 218.126 194.614C218.126 194.947 218.248 195.21 218.49 195.403C218.732 195.597 219.111 195.758 219.626 195.886L220.922 196.205C221.702 196.394 222.284 196.684 222.666 197.074C223.049 197.46 223.24 197.958 223.24 198.568C223.24 199.068 223.096 199.515 222.808 199.909C222.524 200.303 222.126 200.614 221.615 200.841C221.104 201.068 220.509 201.182 219.831 201.182C218.941 201.182 218.204 200.989 217.621 200.602C217.037 200.216 216.668 199.652 216.513 198.909L217.786 198.591C217.907 199.061 218.136 199.413 218.473 199.648C218.814 199.883 219.259 200 219.808 200C220.433 200 220.929 199.867 221.297 199.602C221.668 199.333 221.854 199.011 221.854 198.636C221.854 198.333 221.748 198.08 221.536 197.875C221.323 197.667 220.998 197.511 220.558 197.409L219.104 197.068C218.304 196.879 217.717 196.585 217.342 196.188C216.971 195.786 216.786 195.284 216.786 194.682C216.786 194.189 216.924 193.754 217.2 193.375C217.481 192.996 217.861 192.699 218.342 192.483C218.827 192.267 219.376 192.159 219.99 192.159C220.854 192.159 221.532 192.348 222.024 192.727C222.52 193.106 222.873 193.606 223.081 194.227ZM233.054 201.159C232.289 201.159 231.63 201.019 231.077 200.739C230.524 200.458 230.098 200.074 229.798 199.585C229.499 199.097 229.349 198.538 229.349 197.909C229.349 197.424 229.452 196.994 229.656 196.619C229.865 196.241 230.151 195.89 230.514 195.568C230.882 195.242 231.304 194.917 231.781 194.591L233.463 193.341C233.793 193.125 234.056 192.894 234.253 192.648C234.454 192.402 234.554 192.08 234.554 191.682C234.554 191.386 234.423 191.1 234.162 190.824C233.904 190.547 233.565 190.409 233.145 190.409C232.849 190.409 232.588 190.485 232.361 190.636C232.137 190.784 231.961 190.973 231.832 191.205C231.707 191.432 231.645 191.667 231.645 191.909C231.645 192.182 231.719 192.458 231.866 192.739C232.018 193.015 232.209 193.299 232.44 193.591C232.675 193.879 232.918 194.174 233.168 194.477L238.509 201H236.895L232.486 195.682C232.077 195.189 231.705 194.742 231.372 194.341C231.039 193.939 230.774 193.544 230.577 193.153C230.38 192.763 230.281 192.341 230.281 191.886C230.281 191.364 230.397 190.905 230.628 190.511C230.863 190.114 231.19 189.805 231.611 189.585C232.035 189.362 232.531 189.25 233.099 189.25C233.683 189.25 234.185 189.364 234.605 189.591C235.026 189.814 235.349 190.112 235.577 190.483C235.804 190.85 235.918 191.25 235.918 191.682C235.918 192.239 235.779 192.722 235.503 193.131C235.226 193.54 234.849 193.92 234.372 194.273L232.054 196C231.531 196.386 231.177 196.761 230.991 197.125C230.806 197.489 230.713 197.75 230.713 197.909C230.713 198.273 230.808 198.612 230.997 198.926C231.187 199.241 231.454 199.494 231.798 199.688C232.143 199.881 232.546 199.977 233.009 199.977C233.448 199.977 233.876 199.884 234.293 199.699C234.709 199.509 235.086 199.237 235.423 198.881C235.764 198.525 236.033 198.097 236.23 197.597C236.431 197.097 236.531 196.534 236.531 195.909H237.827C237.827 196.682 237.738 197.312 237.56 197.801C237.382 198.29 237.181 198.672 236.957 198.949C236.734 199.225 236.554 199.432 236.418 199.568C236.372 199.625 236.33 199.682 236.293 199.739C236.255 199.795 236.213 199.852 236.168 199.909C235.793 200.33 235.319 200.644 234.747 200.852C234.175 201.057 233.611 201.159 233.054 201.159ZM244.675 201V189.364H248.607C249.519 189.364 250.266 189.528 250.845 189.858C251.429 190.184 251.86 190.625 252.141 191.182C252.421 191.739 252.561 192.36 252.561 193.045C252.561 193.731 252.421 194.354 252.141 194.915C251.864 195.475 251.436 195.922 250.857 196.256C250.277 196.585 249.535 196.75 248.629 196.75H245.811V195.5H248.584C249.209 195.5 249.711 195.392 250.089 195.176C250.468 194.96 250.743 194.669 250.913 194.301C251.088 193.93 251.175 193.511 251.175 193.045C251.175 192.58 251.088 192.163 250.913 191.795C250.743 191.428 250.466 191.14 250.084 190.932C249.701 190.72 249.194 190.614 248.561 190.614H246.084V201H244.675ZM254.649 201V192.273H255.945V193.591H256.036C256.195 193.159 256.482 192.809 256.899 192.54C257.316 192.271 257.786 192.136 258.308 192.136C258.407 192.136 258.53 192.138 258.678 192.142C258.825 192.146 258.937 192.152 259.013 192.159V193.523C258.967 193.511 258.863 193.494 258.7 193.472C258.541 193.445 258.373 193.432 258.195 193.432C257.77 193.432 257.392 193.521 257.058 193.699C256.729 193.873 256.467 194.116 256.274 194.426C256.085 194.733 255.99 195.083 255.99 195.477V201H254.649ZM263.882 201.182C263.094 201.182 262.403 200.994 261.808 200.619C261.217 200.244 260.755 199.72 260.422 199.045C260.092 198.371 259.928 197.583 259.928 196.682C259.928 195.773 260.092 194.979 260.422 194.301C260.755 193.623 261.217 193.097 261.808 192.722C262.403 192.347 263.094 192.159 263.882 192.159C264.67 192.159 265.359 192.347 265.95 192.722C266.545 193.097 267.007 193.623 267.337 194.301C267.67 194.979 267.837 195.773 267.837 196.682C267.837 197.583 267.67 198.371 267.337 199.045C267.007 199.72 266.545 200.244 265.95 200.619C265.359 200.994 264.67 201.182 263.882 201.182ZM263.882 199.977C264.481 199.977 264.973 199.824 265.359 199.517C265.746 199.21 266.032 198.807 266.217 198.307C266.403 197.807 266.496 197.265 266.496 196.682C266.496 196.098 266.403 195.555 266.217 195.051C266.032 194.547 265.746 194.14 265.359 193.83C264.973 193.519 264.481 193.364 263.882 193.364C263.284 193.364 262.791 193.519 262.405 193.83C262.018 194.14 261.732 194.547 261.547 195.051C261.361 195.555 261.268 196.098 261.268 196.682C261.268 197.265 261.361 197.807 261.547 198.307C261.732 198.807 262.018 199.21 262.405 199.517C262.791 199.824 263.284 199.977 263.882 199.977ZM269.884 192.273H271.224V201.636C271.224 202.174 271.132 202.64 270.946 203.034C270.764 203.428 270.488 203.733 270.116 203.949C269.749 204.165 269.285 204.273 268.724 204.273C268.679 204.273 268.634 204.273 268.588 204.273C268.543 204.273 268.497 204.273 268.452 204.273V203.023C268.497 203.023 268.539 203.023 268.577 203.023C268.615 203.023 268.656 203.023 268.702 203.023C269.111 203.023 269.41 202.902 269.599 202.659C269.789 202.42 269.884 202.08 269.884 201.636V192.273ZM270.543 190.818C270.281 190.818 270.056 190.729 269.866 190.551C269.681 190.373 269.588 190.159 269.588 189.909C269.588 189.659 269.681 189.445 269.866 189.267C270.056 189.089 270.281 189 270.543 189C270.804 189 271.027 189.089 271.213 189.267C271.402 189.445 271.497 189.659 271.497 189.909C271.497 190.159 271.402 190.373 271.213 190.551C271.027 190.729 270.804 190.818 270.543 190.818ZM277.339 201.182C276.499 201.182 275.773 200.996 275.163 200.625C274.557 200.25 274.089 199.727 273.76 199.057C273.434 198.383 273.271 197.598 273.271 196.705C273.271 195.811 273.434 195.023 273.76 194.341C274.089 193.655 274.548 193.121 275.135 192.739C275.726 192.352 276.415 192.159 277.203 192.159C277.658 192.159 278.107 192.235 278.55 192.386C278.993 192.538 279.396 192.784 279.76 193.125C280.124 193.462 280.413 193.909 280.629 194.466C280.845 195.023 280.953 195.708 280.953 196.523V197.091H274.226V195.932H279.589C279.589 195.439 279.491 195 279.294 194.614C279.101 194.227 278.824 193.922 278.464 193.699C278.108 193.475 277.688 193.364 277.203 193.364C276.669 193.364 276.207 193.496 275.817 193.761C275.43 194.023 275.133 194.364 274.925 194.784C274.716 195.205 274.612 195.655 274.612 196.136V196.909C274.612 197.568 274.726 198.127 274.953 198.585C275.184 199.04 275.504 199.386 275.913 199.625C276.322 199.86 276.798 199.977 277.339 199.977C277.692 199.977 278.01 199.928 278.294 199.83C278.582 199.727 278.83 199.576 279.038 199.375C279.247 199.17 279.408 198.917 279.521 198.614L280.817 198.977C280.68 199.417 280.451 199.803 280.129 200.136C279.807 200.466 279.41 200.723 278.936 200.909C278.463 201.091 277.93 201.182 277.339 201.182ZM286.538 201.182C285.72 201.182 285.016 200.989 284.425 200.602C283.834 200.216 283.379 199.684 283.061 199.006C282.743 198.328 282.584 197.553 282.584 196.682C282.584 195.795 282.747 195.013 283.072 194.335C283.402 193.653 283.86 193.121 284.447 192.739C285.038 192.352 285.728 192.159 286.516 192.159C287.129 192.159 287.682 192.273 288.175 192.5C288.667 192.727 289.071 193.045 289.385 193.455C289.699 193.864 289.894 194.341 289.97 194.886H288.629C288.527 194.489 288.3 194.136 287.947 193.83C287.599 193.519 287.129 193.364 286.538 193.364C286.016 193.364 285.557 193.5 285.163 193.773C284.773 194.042 284.468 194.422 284.249 194.915C284.033 195.403 283.925 195.977 283.925 196.636C283.925 197.311 284.031 197.898 284.243 198.398C284.459 198.898 284.762 199.286 285.152 199.562C285.546 199.839 286.008 199.977 286.538 199.977C286.887 199.977 287.203 199.917 287.487 199.795C287.771 199.674 288.012 199.5 288.209 199.273C288.406 199.045 288.546 198.773 288.629 198.455H289.97C289.894 198.97 289.707 199.434 289.408 199.847C289.112 200.256 288.72 200.581 288.232 200.824C287.747 201.062 287.182 201.182 286.538 201.182ZM295.726 192.273V193.409H291.203V192.273H295.726ZM292.521 190.182H293.862V198.5C293.862 198.879 293.917 199.163 294.027 199.352C294.141 199.538 294.285 199.663 294.459 199.727C294.637 199.788 294.824 199.818 295.021 199.818C295.169 199.818 295.29 199.811 295.385 199.795C295.48 199.777 295.555 199.761 295.612 199.75L295.885 200.955C295.794 200.989 295.667 201.023 295.504 201.057C295.341 201.095 295.135 201.114 294.885 201.114C294.506 201.114 294.135 201.032 293.771 200.869C293.411 200.706 293.112 200.458 292.874 200.125C292.639 199.792 292.521 199.371 292.521 198.864V190.182ZM303.768 194.227L302.564 194.568C302.488 194.367 302.376 194.172 302.229 193.983C302.085 193.79 301.888 193.631 301.638 193.506C301.388 193.381 301.068 193.318 300.678 193.318C300.143 193.318 299.698 193.441 299.342 193.688C298.99 193.93 298.814 194.239 298.814 194.614C298.814 194.947 298.935 195.21 299.178 195.403C299.42 195.597 299.799 195.758 300.314 195.886L301.609 196.205C302.39 196.394 302.971 196.684 303.354 197.074C303.736 197.46 303.928 197.958 303.928 198.568C303.928 199.068 303.784 199.515 303.496 199.909C303.212 200.303 302.814 200.614 302.303 200.841C301.791 201.068 301.196 201.182 300.518 201.182C299.628 201.182 298.892 200.989 298.308 200.602C297.725 200.216 297.356 199.652 297.2 198.909L298.473 198.591C298.594 199.061 298.823 199.413 299.161 199.648C299.501 199.883 299.946 200 300.496 200C301.121 200 301.617 199.867 301.984 199.602C302.356 199.333 302.541 199.011 302.541 198.636C302.541 198.333 302.435 198.08 302.223 197.875C302.011 197.667 301.685 197.511 301.246 197.409L299.791 197.068C298.992 196.879 298.405 196.585 298.03 196.188C297.659 195.786 297.473 195.284 297.473 194.682C297.473 194.189 297.611 193.754 297.888 193.375C298.168 192.996 298.549 192.699 299.03 192.483C299.515 192.267 300.064 192.159 300.678 192.159C301.541 192.159 302.219 192.348 302.712 192.727C303.208 193.106 303.56 193.606 303.768 194.227Z" fill="#1A1A1A"/>
<rect x="119" y="173" width="276" height="44" rx="5" stroke="#1A1A1A" stroke-opacity="0.5" stroke-width="0.5"/>
<path opacity="0.7" d="M123.375 244H120.233V233.818H123.514C124.502 233.818 125.347 234.022 126.05 234.43C126.752 234.834 127.291 235.416 127.665 236.175C128.04 236.93 128.227 237.835 128.227 238.889C128.227 239.95 128.038 240.863 127.661 241.629C127.283 242.391 126.732 242.978 126.01 243.388C125.287 243.796 124.409 244 123.375 244ZM121.466 242.906H123.295C124.137 242.906 124.835 242.744 125.388 242.419C125.942 242.094 126.355 241.632 126.626 241.032C126.898 240.432 127.034 239.718 127.034 238.889C127.034 238.067 126.9 237.36 126.631 236.766C126.363 236.17 125.962 235.712 125.428 235.394C124.895 235.073 124.23 234.912 123.435 234.912H121.466V242.906ZM133.338 244.159C132.602 244.159 131.968 243.997 131.434 243.672C130.904 243.344 130.494 242.886 130.206 242.3C129.921 241.71 129.778 241.024 129.778 240.241C129.778 239.459 129.921 238.77 130.206 238.173C130.494 237.573 130.895 237.106 131.409 236.771C131.926 236.433 132.529 236.264 133.219 236.264C133.616 236.264 134.009 236.33 134.397 236.463C134.785 236.596 135.138 236.811 135.456 237.109C135.774 237.404 136.028 237.795 136.217 238.283C136.406 238.77 136.5 239.37 136.5 240.082V240.58H130.614V239.565H135.307C135.307 239.134 135.221 238.75 135.048 238.412C134.879 238.074 134.637 237.807 134.322 237.612C134.011 237.416 133.643 237.318 133.219 237.318C132.751 237.318 132.347 237.434 132.006 237.666C131.668 237.895 131.407 238.193 131.225 238.561C131.043 238.929 130.952 239.323 130.952 239.744V240.42C130.952 240.997 131.051 241.486 131.25 241.887C131.452 242.285 131.732 242.588 132.09 242.797C132.448 243.002 132.864 243.105 133.338 243.105C133.646 243.105 133.925 243.062 134.173 242.976C134.425 242.886 134.642 242.754 134.825 242.578C135.007 242.399 135.148 242.177 135.247 241.912L136.381 242.23C136.261 242.615 136.061 242.953 135.779 243.244C135.497 243.533 135.149 243.758 134.735 243.92C134.321 244.08 133.855 244.159 133.338 244.159ZM140.532 244.179C140.048 244.179 139.609 244.088 139.214 243.906C138.82 243.72 138.507 243.453 138.275 243.105C138.043 242.754 137.927 242.33 137.927 241.832C137.927 241.395 138.013 241.04 138.185 240.768C138.358 240.493 138.588 240.278 138.876 240.122C139.165 239.966 139.483 239.85 139.831 239.774C140.182 239.695 140.535 239.632 140.89 239.585C141.354 239.526 141.73 239.481 142.018 239.451C142.31 239.418 142.522 239.363 142.655 239.287C142.791 239.211 142.859 239.078 142.859 238.889V238.849C142.859 238.359 142.724 237.978 142.456 237.706C142.191 237.434 141.788 237.298 141.248 237.298C140.688 237.298 140.249 237.421 139.93 237.666C139.612 237.911 139.388 238.173 139.259 238.452L138.146 238.054C138.344 237.59 138.61 237.229 138.941 236.97C139.276 236.708 139.64 236.526 140.035 236.423C140.433 236.317 140.824 236.264 141.208 236.264C141.453 236.264 141.735 236.294 142.053 236.354C142.375 236.41 142.685 236.528 142.983 236.707C143.285 236.886 143.535 237.156 143.734 237.517C143.933 237.878 144.032 238.362 144.032 238.969V244H142.859V242.966H142.799C142.719 243.132 142.587 243.309 142.401 243.498C142.216 243.687 141.969 243.848 141.661 243.98C141.352 244.113 140.976 244.179 140.532 244.179ZM140.711 243.125C141.175 243.125 141.566 243.034 141.884 242.852C142.206 242.669 142.448 242.434 142.61 242.146C142.776 241.857 142.859 241.554 142.859 241.236V240.162C142.809 240.222 142.7 240.276 142.531 240.326C142.365 240.372 142.173 240.414 141.954 240.45C141.738 240.483 141.528 240.513 141.322 240.54C141.12 240.563 140.956 240.583 140.83 240.599C140.525 240.639 140.24 240.704 139.975 240.793C139.713 240.879 139.501 241.01 139.339 241.186C139.18 241.358 139.1 241.594 139.1 241.892C139.1 242.3 139.251 242.608 139.553 242.817C139.857 243.022 140.244 243.125 140.711 243.125ZM149.057 244.159C148.421 244.159 147.859 243.998 147.372 243.677C146.884 243.352 146.503 242.895 146.228 242.305C145.953 241.711 145.816 241.01 145.816 240.202C145.816 239.4 145.953 238.704 146.228 238.114C146.503 237.524 146.886 237.068 147.377 236.746C147.867 236.425 148.434 236.264 149.077 236.264C149.574 236.264 149.967 236.347 150.255 236.513C150.547 236.675 150.769 236.861 150.921 237.07C151.077 237.275 151.198 237.444 151.284 237.577H151.384V233.818H152.557V244H151.423V242.827H151.284C151.198 242.966 151.075 243.142 150.916 243.354C150.757 243.562 150.53 243.75 150.235 243.915C149.94 244.078 149.548 244.159 149.057 244.159ZM149.216 243.105C149.687 243.105 150.084 242.982 150.409 242.737C150.734 242.489 150.981 242.146 151.15 241.708C151.319 241.267 151.404 240.759 151.404 240.182C151.404 239.612 151.321 239.113 151.155 238.685C150.989 238.254 150.744 237.92 150.419 237.681C150.094 237.439 149.693 237.318 149.216 237.318C148.719 237.318 148.305 237.446 147.973 237.701C147.645 237.953 147.398 238.296 147.232 238.73C147.07 239.161 146.989 239.645 146.989 240.182C146.989 240.725 147.072 241.219 147.237 241.663C147.406 242.104 147.655 242.455 147.983 242.717C148.315 242.976 148.726 243.105 149.216 243.105ZM156.042 233.818V244H154.869V233.818H156.042ZM158.191 244V236.364H159.364V244H158.191ZM158.788 235.091C158.559 235.091 158.362 235.013 158.196 234.857C158.034 234.701 157.952 234.514 157.952 234.295C157.952 234.077 158.034 233.889 158.196 233.734C158.362 233.578 158.559 233.5 158.788 233.5C159.016 233.5 159.212 233.578 159.374 233.734C159.54 233.889 159.623 234.077 159.623 234.295C159.623 234.514 159.54 234.701 159.374 234.857C159.212 235.013 159.016 235.091 158.788 235.091ZM162.687 239.406V244H161.513V236.364H162.647V237.557H162.746C162.925 237.169 163.197 236.857 163.562 236.622C163.926 236.384 164.397 236.264 164.974 236.264C165.491 236.264 165.943 236.37 166.331 236.582C166.719 236.791 167.02 237.109 167.236 237.537C167.451 237.961 167.559 238.498 167.559 239.148V244H166.385V239.227C166.385 238.627 166.23 238.16 165.918 237.825C165.607 237.487 165.179 237.318 164.635 237.318C164.261 237.318 163.926 237.399 163.631 237.562C163.34 237.724 163.109 237.961 162.94 238.273C162.771 238.584 162.687 238.962 162.687 239.406ZM172.904 244.159C172.169 244.159 171.534 243.997 171 243.672C170.47 243.344 170.061 242.886 169.772 242.3C169.487 241.71 169.345 241.024 169.345 240.241C169.345 239.459 169.487 238.77 169.772 238.173C170.061 237.573 170.462 237.106 170.975 236.771C171.493 236.433 172.096 236.264 172.785 236.264C173.183 236.264 173.576 236.33 173.963 236.463C174.351 236.596 174.704 236.811 175.022 237.109C175.341 237.404 175.594 237.795 175.783 238.283C175.972 238.77 176.066 239.37 176.066 240.082V240.58H170.18V239.565H174.873C174.873 239.134 174.787 238.75 174.615 238.412C174.446 238.074 174.204 237.807 173.889 237.612C173.577 237.416 173.209 237.318 172.785 237.318C172.318 237.318 171.913 237.434 171.572 237.666C171.234 237.895 170.974 238.193 170.792 238.561C170.609 238.929 170.518 239.323 170.518 239.744V240.42C170.518 240.997 170.618 241.486 170.816 241.887C171.019 242.285 171.299 242.588 171.657 242.797C172.015 243.002 172.431 243.105 172.904 243.105C173.213 243.105 173.491 243.062 173.74 242.976C173.992 242.886 174.209 242.754 174.391 242.578C174.573 242.399 174.714 242.177 174.814 241.912L175.947 242.23C175.828 242.615 175.627 242.953 175.346 243.244C175.064 243.533 174.716 243.758 174.301 243.92C173.887 244.08 173.422 244.159 172.904 244.159Z" fill="#1A1A1A"/>
<path d="M128.205 281V279.977L132.045 275.773C132.496 275.28 132.867 274.852 133.159 274.489C133.451 274.121 133.667 273.777 133.807 273.455C133.951 273.129 134.023 272.788 134.023 272.432C134.023 272.023 133.924 271.669 133.727 271.369C133.534 271.07 133.269 270.839 132.932 270.676C132.595 270.513 132.216 270.432 131.795 270.432C131.348 270.432 130.958 270.525 130.625 270.71C130.295 270.892 130.04 271.148 129.858 271.477C129.68 271.807 129.591 272.193 129.591 272.636H128.25C128.25 271.955 128.407 271.356 128.722 270.841C129.036 270.326 129.464 269.924 130.006 269.636C130.551 269.348 131.163 269.205 131.841 269.205C132.523 269.205 133.127 269.348 133.653 269.636C134.18 269.924 134.593 270.312 134.892 270.801C135.191 271.29 135.341 271.833 135.341 272.432C135.341 272.86 135.263 273.278 135.108 273.688C134.956 274.093 134.691 274.545 134.312 275.045C133.938 275.542 133.417 276.148 132.75 276.864L130.136 279.659V279.75H135.545V281H128.205ZM142.915 274.557V275.807H137.824V274.557H142.915ZM149.342 269.364V281H147.933V270.841H147.865L145.024 272.727V271.295L147.933 269.364H149.342ZM152.416 278.614V277.455L157.53 269.364H158.371V271.159H157.803L153.939 277.273V277.364H160.825V278.614H152.416ZM157.893 281V278.261V277.722V269.364H159.234V281H157.893ZM170.773 281.182C170.045 281.182 169.403 280.998 168.847 280.631C168.29 280.259 167.854 279.737 167.54 279.062C167.225 278.384 167.068 277.583 167.068 276.659C167.068 275.742 167.225 274.947 167.54 274.273C167.854 273.598 168.292 273.078 168.852 272.71C169.413 272.343 170.061 272.159 170.795 272.159C171.364 272.159 171.813 272.254 172.142 272.443C172.475 272.629 172.729 272.841 172.903 273.08C173.081 273.314 173.22 273.508 173.318 273.659H173.432V269.364H174.773V281H173.477V279.659H173.318C173.22 279.818 173.08 280.019 172.898 280.261C172.716 280.5 172.456 280.714 172.119 280.903C171.782 281.089 171.333 281.182 170.773 281.182ZM170.955 279.977C171.492 279.977 171.947 279.837 172.318 279.557C172.689 279.273 172.972 278.881 173.165 278.381C173.358 277.877 173.455 277.295 173.455 276.636C173.455 275.985 173.36 275.415 173.17 274.926C172.981 274.434 172.701 274.051 172.33 273.778C171.958 273.502 171.5 273.364 170.955 273.364C170.386 273.364 169.913 273.509 169.534 273.801C169.159 274.089 168.877 274.481 168.688 274.977C168.502 275.47 168.409 276.023 168.409 276.636C168.409 277.258 168.504 277.822 168.693 278.33C168.886 278.833 169.17 279.235 169.545 279.534C169.924 279.83 170.394 279.977 170.955 279.977ZM179.983 281.205C179.43 281.205 178.928 281.1 178.477 280.892C178.027 280.68 177.669 280.375 177.403 279.977C177.138 279.576 177.006 279.091 177.006 278.523C177.006 278.023 177.104 277.617 177.301 277.307C177.498 276.992 177.761 276.746 178.091 276.568C178.42 276.39 178.784 276.258 179.182 276.17C179.583 276.08 179.987 276.008 180.392 275.955C180.922 275.886 181.352 275.835 181.682 275.801C182.015 275.763 182.258 275.701 182.409 275.614C182.564 275.527 182.642 275.375 182.642 275.159V275.114C182.642 274.553 182.489 274.117 182.182 273.807C181.879 273.496 181.419 273.341 180.801 273.341C180.161 273.341 179.659 273.481 179.295 273.761C178.932 274.042 178.676 274.341 178.528 274.659L177.256 274.205C177.483 273.674 177.786 273.261 178.165 272.966C178.547 272.667 178.964 272.458 179.415 272.341C179.869 272.22 180.316 272.159 180.756 272.159C181.036 272.159 181.358 272.193 181.722 272.261C182.089 272.326 182.443 272.46 182.784 272.665C183.129 272.869 183.415 273.178 183.642 273.591C183.869 274.004 183.983 274.557 183.983 275.25V281H182.642V279.818H182.574C182.483 280.008 182.331 280.21 182.119 280.426C181.907 280.642 181.625 280.826 181.273 280.977C180.92 281.129 180.491 281.205 179.983 281.205ZM180.188 280C180.718 280 181.165 279.896 181.528 279.688C181.896 279.479 182.172 279.21 182.358 278.881C182.547 278.551 182.642 278.205 182.642 277.841V276.614C182.585 276.682 182.46 276.744 182.267 276.801C182.078 276.854 181.858 276.902 181.608 276.943C181.362 276.981 181.121 277.015 180.886 277.045C180.655 277.072 180.468 277.095 180.324 277.114C179.975 277.159 179.65 277.233 179.347 277.335C179.047 277.434 178.805 277.583 178.619 277.784C178.438 277.981 178.347 278.25 178.347 278.591C178.347 279.057 178.519 279.409 178.864 279.648C179.212 279.883 179.653 280 180.188 280ZM186.982 284.273C186.754 284.273 186.552 284.254 186.374 284.216C186.196 284.182 186.072 284.148 186.004 284.114L186.345 282.932C186.671 283.015 186.959 283.045 187.209 283.023C187.459 283 187.68 282.888 187.874 282.688C188.071 282.491 188.25 282.17 188.413 281.727L188.663 281.045L185.436 272.273H186.891L189.3 279.227H189.391L191.8 272.273H193.254L189.55 282.273C189.383 282.723 189.177 283.097 188.93 283.392C188.684 283.691 188.398 283.913 188.072 284.057C187.75 284.201 187.387 284.273 186.982 284.273ZM201.206 274.227L200.001 274.568C199.926 274.367 199.814 274.172 199.666 273.983C199.522 273.79 199.325 273.631 199.075 273.506C198.825 273.381 198.505 273.318 198.115 273.318C197.581 273.318 197.136 273.441 196.78 273.688C196.428 273.93 196.251 274.239 196.251 274.614C196.251 274.947 196.373 275.21 196.615 275.403C196.857 275.597 197.236 275.758 197.751 275.886L199.047 276.205C199.827 276.394 200.409 276.684 200.791 277.074C201.174 277.46 201.365 277.958 201.365 278.568C201.365 279.068 201.221 279.515 200.933 279.909C200.649 280.303 200.251 280.614 199.74 280.841C199.229 281.068 198.634 281.182 197.956 281.182C197.066 281.182 196.329 280.989 195.746 280.602C195.162 280.216 194.793 279.652 194.638 278.909L195.911 278.591C196.032 279.061 196.261 279.413 196.598 279.648C196.939 279.883 197.384 280 197.933 280C198.558 280 199.054 279.867 199.422 279.602C199.793 279.333 199.979 279.011 199.979 278.636C199.979 278.333 199.873 278.08 199.661 277.875C199.448 277.667 199.123 277.511 198.683 277.409L197.229 277.068C196.429 276.879 195.842 276.585 195.467 276.188C195.096 275.786 194.911 275.284 194.911 274.682C194.911 274.189 195.049 273.754 195.325 273.375C195.606 272.996 195.986 272.699 196.467 272.483C196.952 272.267 197.501 272.159 198.115 272.159C198.979 272.159 199.657 272.348 200.149 272.727C200.645 273.106 200.998 273.606 201.206 274.227Z" fill="#1A1A1A"/>
<path opacity="0.8" d="M344.057 279V270.273H349.29V271.21H345.114V274.159H348.898V275.097H345.114V279H344.057ZM351.969 270.273V279H350.963V270.273H351.969ZM356.555 279.136C355.925 279.136 355.381 278.997 354.923 278.719C354.469 278.438 354.118 278.045 353.871 277.543C353.626 277.037 353.504 276.449 353.504 275.778C353.504 275.108 353.626 274.517 353.871 274.006C354.118 273.491 354.462 273.091 354.902 272.804C355.345 272.514 355.862 272.369 356.453 272.369C356.794 272.369 357.131 272.426 357.463 272.54C357.795 272.653 358.098 272.838 358.371 273.094C358.643 273.347 358.861 273.682 359.023 274.099C359.185 274.517 359.266 275.031 359.266 275.642V276.068H354.22V275.199H358.243C358.243 274.83 358.169 274.5 358.021 274.21C357.876 273.92 357.669 273.692 357.399 273.524C357.132 273.357 356.817 273.273 356.453 273.273C356.053 273.273 355.706 273.372 355.413 273.571C355.124 273.767 354.901 274.023 354.744 274.338C354.588 274.653 354.51 274.991 354.51 275.352V275.932C354.51 276.426 354.595 276.845 354.766 277.189C354.939 277.53 355.179 277.79 355.486 277.969C355.793 278.145 356.149 278.233 356.555 278.233C356.82 278.233 357.058 278.196 357.271 278.122C357.487 278.045 357.673 277.932 357.83 277.781C357.986 277.628 358.107 277.437 358.192 277.21L359.163 277.483C359.061 277.812 358.889 278.102 358.648 278.352C358.406 278.599 358.108 278.793 357.753 278.932C357.398 279.068 356.999 279.136 356.555 279.136ZM361.37 272.455L362.938 275.131L364.506 272.455H365.665L363.551 275.727L365.665 279H364.506L362.938 276.46L361.37 279H360.211L362.29 275.727L360.211 272.455H361.37ZM367.1 279V272.455H368.106V279H367.1ZM367.612 271.364C367.415 271.364 367.246 271.297 367.104 271.163C366.965 271.03 366.896 270.869 366.896 270.682C366.896 270.494 366.965 270.334 367.104 270.2C367.246 270.067 367.415 270 367.612 270C367.808 270 367.975 270.067 368.114 270.2C368.256 270.334 368.327 270.494 368.327 270.682C368.327 270.869 368.256 271.03 368.114 271.163C367.975 271.297 367.808 271.364 367.612 271.364ZM370.084 279V270.273H371.09V273.494H371.175C371.249 273.381 371.351 273.236 371.482 273.06C371.615 272.881 371.806 272.722 372.053 272.582C372.303 272.44 372.641 272.369 373.067 272.369C373.618 272.369 374.104 272.507 374.525 272.783C374.945 273.058 375.273 273.449 375.509 273.955C375.745 274.46 375.863 275.057 375.863 275.744C375.863 276.438 375.745 277.038 375.509 277.547C375.273 278.053 374.946 278.445 374.529 278.723C374.111 278.999 373.63 279.136 373.084 279.136C372.664 279.136 372.327 279.067 372.074 278.928C371.821 278.786 371.627 278.625 371.49 278.446C371.354 278.264 371.249 278.114 371.175 277.994H371.056V279H370.084ZM371.073 275.727C371.073 276.222 371.145 276.658 371.29 277.036C371.435 277.411 371.647 277.705 371.925 277.918C372.203 278.128 372.544 278.233 372.948 278.233C373.368 278.233 373.719 278.122 374 277.901C374.284 277.676 374.498 277.375 374.64 276.997C374.784 276.616 374.857 276.193 374.857 275.727C374.857 275.267 374.786 274.852 374.644 274.483C374.505 274.111 374.293 273.817 374.009 273.601C373.728 273.382 373.374 273.273 372.948 273.273C372.539 273.273 372.195 273.376 371.917 273.584C371.638 273.788 371.428 274.075 371.286 274.445C371.144 274.811 371.073 275.239 371.073 275.727ZM378.407 270.273V279H377.401V270.273H378.407ZM382.993 279.136C382.362 279.136 381.818 278.997 381.361 278.719C380.906 278.438 380.555 278.045 380.308 277.543C380.064 277.037 379.942 276.449 379.942 275.778C379.942 275.108 380.064 274.517 380.308 274.006C380.555 273.491 380.899 273.091 381.339 272.804C381.783 272.514 382.3 272.369 382.891 272.369C383.232 272.369 383.568 272.426 383.901 272.54C384.233 272.653 384.536 272.838 384.808 273.094C385.081 273.347 385.298 273.682 385.46 274.099C385.622 274.517 385.703 275.031 385.703 275.642V276.068H380.658V275.199H384.68C384.68 274.83 384.607 274.5 384.459 274.21C384.314 273.92 384.107 273.692 383.837 273.524C383.57 273.357 383.254 273.273 382.891 273.273C382.49 273.273 382.143 273.372 381.851 273.571C381.561 273.767 381.338 274.023 381.182 274.338C381.026 274.653 380.947 274.991 380.947 275.352V275.932C380.947 276.426 381.033 276.845 381.203 277.189C381.376 277.53 381.616 277.79 381.923 277.969C382.23 278.145 382.587 278.233 382.993 278.233C383.257 278.233 383.496 278.196 383.709 278.122C383.925 278.045 384.111 277.932 384.267 277.781C384.423 277.628 384.544 277.437 384.629 277.21L385.601 277.483C385.499 277.812 385.327 278.102 385.085 278.352C384.844 278.599 384.545 278.793 384.19 278.932C383.835 279.068 383.436 279.136 382.993 279.136Z" fill="#1A1A1A"/>
<rect x="119" y="253" width="276" height="44" rx="5" stroke="#1A1A1A" stroke-opacity="0.5" stroke-width="0.5"/>
<path d="M229 342C229 328.745 239.745 318 253 318H371C384.255 318 395 328.745 395 342C395 355.255 384.255 366 371 366H253C239.745 366 229 355.255 229 342Z" fill="url(#paint2_linear_3300_6654)"/>
<path d="M258.278 348V336.364H262.426C263.331 336.364 264.081 336.528 264.676 336.858C265.271 337.187 265.716 337.638 266.011 338.21C266.307 338.778 266.455 339.419 266.455 340.131C266.455 340.847 266.305 341.491 266.006 342.062C265.71 342.631 265.263 343.081 264.665 343.415C264.07 343.744 263.322 343.909 262.42 343.909H259.568V342.42H262.261C262.833 342.42 263.297 342.322 263.653 342.125C264.009 341.924 264.271 341.652 264.438 341.307C264.604 340.962 264.688 340.57 264.688 340.131C264.688 339.691 264.604 339.301 264.438 338.96C264.271 338.619 264.008 338.352 263.648 338.159C263.292 337.966 262.822 337.869 262.239 337.869H260.034V348H258.278ZM270.075 336.364V348H268.376V336.364H270.075ZM274.901 348.193C274.348 348.193 273.848 348.091 273.401 347.886C272.954 347.678 272.599 347.377 272.338 346.983C272.08 346.589 271.952 346.106 271.952 345.534C271.952 345.042 272.046 344.636 272.236 344.318C272.425 344 272.681 343.748 273.003 343.562C273.325 343.377 273.685 343.237 274.082 343.142C274.48 343.047 274.885 342.975 275.298 342.926C275.821 342.866 276.245 342.816 276.571 342.778C276.897 342.737 277.134 342.67 277.281 342.58C277.429 342.489 277.503 342.341 277.503 342.136V342.097C277.503 341.6 277.363 341.216 277.082 340.943C276.806 340.67 276.393 340.534 275.844 340.534C275.272 340.534 274.821 340.661 274.491 340.915C274.166 341.165 273.94 341.443 273.815 341.75L272.219 341.386C272.408 340.856 272.685 340.428 273.048 340.102C273.416 339.773 273.838 339.534 274.315 339.386C274.793 339.235 275.295 339.159 275.821 339.159C276.17 339.159 276.539 339.201 276.929 339.284C277.323 339.364 277.69 339.511 278.031 339.727C278.376 339.943 278.658 340.252 278.878 340.653C279.098 341.051 279.207 341.568 279.207 342.205V348H277.548V346.807H277.48C277.37 347.027 277.205 347.242 276.986 347.455C276.766 347.667 276.484 347.843 276.139 347.983C275.795 348.123 275.382 348.193 274.901 348.193ZM275.27 346.83C275.74 346.83 276.141 346.737 276.474 346.551C276.812 346.366 277.067 346.123 277.241 345.824C277.42 345.521 277.509 345.197 277.509 344.852V343.727C277.448 343.788 277.33 343.845 277.156 343.898C276.986 343.947 276.791 343.991 276.571 344.028C276.351 344.062 276.137 344.095 275.929 344.125C275.721 344.152 275.546 344.174 275.406 344.193C275.077 344.235 274.776 344.305 274.503 344.403C274.234 344.502 274.018 344.644 273.855 344.83C273.696 345.011 273.616 345.254 273.616 345.557C273.616 345.977 273.772 346.295 274.082 346.511C274.393 346.723 274.789 346.83 275.27 346.83ZM285.146 348.176C284.302 348.176 283.574 347.985 282.964 347.602C282.358 347.216 281.893 346.684 281.567 346.006C281.241 345.328 281.078 344.551 281.078 343.676C281.078 342.79 281.245 342.008 281.578 341.33C281.911 340.648 282.381 340.116 282.987 339.733C283.593 339.35 284.307 339.159 285.129 339.159C285.792 339.159 286.383 339.282 286.902 339.528C287.421 339.771 287.839 340.112 288.158 340.551C288.48 340.991 288.671 341.504 288.732 342.091H287.078C286.987 341.682 286.779 341.33 286.453 341.034C286.131 340.739 285.699 340.591 285.158 340.591C284.684 340.591 284.269 340.716 283.913 340.966C283.561 341.212 283.286 341.564 283.089 342.023C282.893 342.477 282.794 343.015 282.794 343.636C282.794 344.273 282.891 344.822 283.084 345.284C283.277 345.746 283.55 346.104 283.902 346.358C284.258 346.612 284.677 346.739 285.158 346.739C285.48 346.739 285.771 346.68 286.033 346.562C286.298 346.441 286.519 346.269 286.697 346.045C286.879 345.822 287.006 345.553 287.078 345.239H288.732C288.671 345.803 288.487 346.307 288.18 346.75C287.874 347.193 287.463 347.542 286.947 347.795C286.436 348.049 285.836 348.176 285.146 348.176ZM294.31 348.176C293.45 348.176 292.709 347.992 292.088 347.625C291.471 347.254 290.993 346.733 290.656 346.062C290.323 345.388 290.156 344.598 290.156 343.693C290.156 342.799 290.323 342.011 290.656 341.33C290.993 340.648 291.463 340.116 292.065 339.733C292.671 339.35 293.38 339.159 294.19 339.159C294.683 339.159 295.16 339.241 295.622 339.403C296.084 339.566 296.499 339.822 296.866 340.17C297.234 340.519 297.524 340.972 297.736 341.528C297.948 342.081 298.054 342.754 298.054 343.545V344.148H291.116V342.875H296.389C296.389 342.428 296.298 342.032 296.116 341.688C295.935 341.339 295.679 341.064 295.349 340.864C295.024 340.663 294.641 340.562 294.202 340.562C293.724 340.562 293.308 340.68 292.952 340.915C292.599 341.146 292.327 341.449 292.134 341.824C291.944 342.195 291.849 342.598 291.849 343.034V344.028C291.849 344.612 291.952 345.108 292.156 345.517C292.365 345.926 292.654 346.239 293.026 346.455C293.397 346.667 293.83 346.773 294.327 346.773C294.649 346.773 294.942 346.727 295.207 346.636C295.473 346.542 295.702 346.402 295.895 346.216C296.088 346.03 296.236 345.801 296.338 345.528L297.946 345.818C297.817 346.292 297.586 346.706 297.253 347.062C296.923 347.415 296.509 347.689 296.009 347.886C295.512 348.08 294.946 348.176 294.31 348.176ZM306.713 348.193C306.16 348.193 305.66 348.091 305.213 347.886C304.766 347.678 304.412 347.377 304.151 346.983C303.893 346.589 303.764 346.106 303.764 345.534C303.764 345.042 303.859 344.636 304.048 344.318C304.238 344 304.493 343.748 304.815 343.562C305.137 343.377 305.497 343.237 305.895 343.142C306.293 343.047 306.698 342.975 307.111 342.926C307.634 342.866 308.058 342.816 308.384 342.778C308.709 342.737 308.946 342.67 309.094 342.58C309.241 342.489 309.315 342.341 309.315 342.136V342.097C309.315 341.6 309.175 341.216 308.895 340.943C308.618 340.67 308.205 340.534 307.656 340.534C307.084 340.534 306.634 340.661 306.304 340.915C305.978 341.165 305.753 341.443 305.628 341.75L304.031 341.386C304.221 340.856 304.497 340.428 304.861 340.102C305.228 339.773 305.651 339.534 306.128 339.386C306.605 339.235 307.107 339.159 307.634 339.159C307.982 339.159 308.351 339.201 308.741 339.284C309.135 339.364 309.503 339.511 309.844 339.727C310.188 339.943 310.471 340.252 310.69 340.653C310.91 341.051 311.02 341.568 311.02 342.205V348H309.361V346.807H309.293C309.183 347.027 309.018 347.242 308.798 347.455C308.579 347.667 308.296 347.843 307.952 347.983C307.607 348.123 307.194 348.193 306.713 348.193ZM307.082 346.83C307.552 346.83 307.954 346.737 308.287 346.551C308.624 346.366 308.88 346.123 309.054 345.824C309.232 345.521 309.321 345.197 309.321 344.852V343.727C309.26 343.788 309.143 343.845 308.969 343.898C308.798 343.947 308.603 343.991 308.384 344.028C308.164 344.062 307.95 344.095 307.741 344.125C307.533 344.152 307.359 344.174 307.219 344.193C306.889 344.235 306.588 344.305 306.315 344.403C306.046 344.502 305.83 344.644 305.668 344.83C305.509 345.011 305.429 345.254 305.429 345.557C305.429 345.977 305.584 346.295 305.895 346.511C306.205 346.723 306.601 346.83 307.082 346.83ZM314.982 342.818V348H313.283V339.273H314.913V340.693H315.021C315.222 340.231 315.536 339.86 315.964 339.58C316.396 339.299 316.94 339.159 317.595 339.159C318.19 339.159 318.711 339.284 319.158 339.534C319.605 339.78 319.951 340.148 320.197 340.636C320.444 341.125 320.567 341.729 320.567 342.449V348H318.868V342.653C318.868 342.021 318.703 341.527 318.374 341.17C318.044 340.811 317.591 340.631 317.016 340.631C316.622 340.631 316.271 340.716 315.964 340.886C315.661 341.057 315.421 341.307 315.243 341.636C315.069 341.962 314.982 342.356 314.982 342.818ZM330.756 348.176C329.938 348.176 329.223 347.989 328.614 347.614C328.004 347.239 327.53 346.714 327.193 346.04C326.856 345.366 326.688 344.578 326.688 343.676C326.688 342.771 326.856 341.979 327.193 341.301C327.53 340.623 328.004 340.097 328.614 339.722C329.223 339.347 329.938 339.159 330.756 339.159C331.574 339.159 332.288 339.347 332.898 339.722C333.508 340.097 333.981 340.623 334.318 341.301C334.655 341.979 334.824 342.771 334.824 343.676C334.824 344.578 334.655 345.366 334.318 346.04C333.981 346.714 333.508 347.239 332.898 347.614C332.288 347.989 331.574 348.176 330.756 348.176ZM330.761 346.75C331.292 346.75 331.731 346.61 332.08 346.33C332.428 346.049 332.686 345.676 332.852 345.21C333.023 344.744 333.108 344.231 333.108 343.67C333.108 343.114 333.023 342.602 332.852 342.136C332.686 341.667 332.428 341.29 332.08 341.006C331.731 340.722 331.292 340.58 330.761 340.58C330.227 340.58 329.784 340.722 329.432 341.006C329.083 341.29 328.824 341.667 328.653 342.136C328.487 342.602 328.403 343.114 328.403 343.67C328.403 344.231 328.487 344.744 328.653 345.21C328.824 345.676 329.083 346.049 329.432 346.33C329.784 346.61 330.227 346.75 330.761 346.75ZM336.72 348V339.273H338.362V340.659H338.453C338.612 340.189 338.893 339.82 339.294 339.551C339.699 339.278 340.158 339.142 340.669 339.142C340.775 339.142 340.9 339.146 341.044 339.153C341.192 339.161 341.307 339.17 341.391 339.182V340.807C341.322 340.788 341.201 340.767 341.027 340.744C340.853 340.718 340.679 340.705 340.504 340.705C340.103 340.705 339.745 340.79 339.43 340.96C339.12 341.127 338.874 341.36 338.692 341.659C338.51 341.955 338.419 342.292 338.419 342.67V348H336.72ZM345.815 348.17C345.111 348.17 344.482 347.991 343.929 347.631C343.38 347.267 342.948 346.75 342.634 346.08C342.323 345.405 342.168 344.597 342.168 343.653C342.168 342.71 342.325 341.903 342.639 341.233C342.957 340.562 343.393 340.049 343.946 339.693C344.499 339.337 345.126 339.159 345.827 339.159C346.368 339.159 346.804 339.25 347.134 339.432C347.467 339.61 347.724 339.818 347.906 340.057C348.092 340.295 348.236 340.506 348.338 340.688H348.44V336.364H350.139V348H348.48V346.642H348.338C348.236 346.828 348.088 347.04 347.895 347.278C347.705 347.517 347.444 347.725 347.111 347.903C346.777 348.081 346.346 348.17 345.815 348.17ZM346.19 346.722C346.679 346.722 347.092 346.593 347.429 346.335C347.77 346.074 348.027 345.712 348.202 345.25C348.38 344.788 348.469 344.25 348.469 343.636C348.469 343.03 348.382 342.5 348.207 342.045C348.033 341.591 347.777 341.237 347.44 340.983C347.103 340.729 346.687 340.602 346.19 340.602C345.679 340.602 345.253 340.735 344.912 341C344.571 341.265 344.313 341.627 344.139 342.085C343.969 342.544 343.884 343.061 343.884 343.636C343.884 344.22 343.971 344.744 344.145 345.21C344.319 345.676 344.577 346.045 344.918 346.318C345.262 346.587 345.687 346.722 346.19 346.722ZM356.325 348.176C355.465 348.176 354.725 347.992 354.104 347.625C353.486 347.254 353.009 346.733 352.672 346.062C352.339 345.388 352.172 344.598 352.172 343.693C352.172 342.799 352.339 342.011 352.672 341.33C353.009 340.648 353.479 340.116 354.081 339.733C354.687 339.35 355.395 339.159 356.206 339.159C356.698 339.159 357.176 339.241 357.638 339.403C358.1 339.566 358.515 339.822 358.882 340.17C359.25 340.519 359.539 340.972 359.751 341.528C359.964 342.081 360.07 342.754 360.07 343.545V344.148H353.132V342.875H358.405C358.405 342.428 358.314 342.032 358.132 341.688C357.95 341.339 357.695 341.064 357.365 340.864C357.039 340.663 356.657 340.562 356.217 340.562C355.74 340.562 355.323 340.68 354.967 340.915C354.615 341.146 354.342 341.449 354.149 341.824C353.96 342.195 353.865 342.598 353.865 343.034V344.028C353.865 344.612 353.967 345.108 354.172 345.517C354.38 345.926 354.67 346.239 355.041 346.455C355.412 346.667 355.846 346.773 356.342 346.773C356.664 346.773 356.958 346.727 357.223 346.636C357.488 346.542 357.717 346.402 357.911 346.216C358.104 346.03 358.251 345.801 358.354 345.528L359.962 345.818C359.833 346.292 359.602 346.706 359.268 347.062C358.939 347.415 358.524 347.689 358.024 347.886C357.528 348.08 356.962 348.176 356.325 348.176ZM361.955 348V339.273H363.597V340.659H363.688C363.847 340.189 364.127 339.82 364.528 339.551C364.934 339.278 365.392 339.142 365.903 339.142C366.009 339.142 366.134 339.146 366.278 339.153C366.426 339.161 366.542 339.17 366.625 339.182V340.807C366.557 340.788 366.436 340.767 366.261 340.744C366.087 340.718 365.913 340.705 365.739 340.705C365.337 340.705 364.979 340.79 364.665 340.96C364.354 341.127 364.108 341.36 363.926 341.659C363.744 341.955 363.653 342.292 363.653 342.67V348H361.955Z" fill="#FAFAFA"/>
<defs>
<linearGradient id="paint0_linear_3300_6654" x1="36.0835" y1="69.5711" x2="439.882" y2="346.103" gradientUnits="userSpaceOnUse">
<stop stop-color="#002E5A"/>
<stop offset="1" stop-color="#0D5EBB"/>
</linearGradient>
<linearGradient id="paint1_linear_3300_6654" x1="70.1681" y1="361.362" x2="402.348" y2="133.875" gradientUnits="userSpaceOnUse">
<stop stop-color="#002E5A"/>
<stop offset="1" stop-color="#0D5EBB"/>
</linearGradient>
<linearGradient id="paint2_linear_3300_6654" x1="242.021" y1="325.26" x2="274.41" y2="401.967" gradientUnits="userSpaceOnUse">
<stop stop-color="#002E5A"/>
<stop offset="1" stop-color="#0D5EBB"/>
</linearGradient>
</defs>
</svg>
