<svg width="94" height="51" viewBox="0 0 94 51" fill="none" xmlns="http://www.w3.org/2000/svg">
<path d="M2.58239 35V8.81818H19.3551V12.794H7.32528V19.902H18.2045V23.8778H7.32528V35H2.58239ZM23.0488 35H17.9863L27.2037 8.81818H33.0588L42.2889 35H37.2264L30.2335 14.1875H30.0289L23.0488 35ZM23.215 24.7344H37.0218V28.544H23.215V24.7344ZM53.5412 26.2045H57.8366L60.3807 29.5028L62.196 31.6506L66.5554 37.25H61.9531L58.9872 33.4915L57.7216 31.7017L53.5412 26.2045ZM67.1818 21.9091C67.1818 24.7301 66.6534 27.1463 65.5966 29.1577C64.5483 31.1605 63.1165 32.6946 61.3011 33.7599C59.4943 34.8253 57.4446 35.358 55.152 35.358C52.8594 35.358 50.8054 34.8253 48.99 33.7599C47.1832 32.6861 45.7514 31.1477 44.6946 29.1449C43.6463 27.1335 43.1221 24.7216 43.1221 21.9091C43.1221 19.0881 43.6463 16.6761 44.6946 14.6733C45.7514 12.6619 47.1832 11.1236 48.99 10.0582C50.8054 8.9929 52.8594 8.46023 55.152 8.46023C57.4446 8.46023 59.4943 8.9929 61.3011 10.0582C63.1165 11.1236 64.5483 12.6619 65.5966 14.6733C66.6534 16.6761 67.1818 19.0881 67.1818 21.9091ZM62.4133 21.9091C62.4133 19.9233 62.1023 18.2486 61.4801 16.8849C60.8665 15.5128 60.0142 14.4773 58.9233 13.7784C57.8324 13.071 56.5753 12.7173 55.152 12.7173C53.7287 12.7173 52.4716 13.071 51.3807 13.7784C50.2898 14.4773 49.4332 15.5128 48.8111 16.8849C48.1974 18.2486 47.8906 19.9233 47.8906 21.9091C47.8906 23.8949 48.1974 25.5739 48.8111 26.946C49.4332 28.3097 50.2898 29.3452 51.3807 30.0526C52.4716 30.7514 53.7287 31.1009 55.152 31.1009C56.5753 31.1009 57.8324 30.7514 58.9233 30.0526C60.0142 29.3452 60.8665 28.3097 61.4801 26.946C62.1023 25.5739 62.4133 23.8949 62.4133 21.9091ZM85.2097 16.0156C85.0904 14.8991 84.5875 14.0298 83.7011 13.4077C82.8233 12.7855 81.6813 12.4744 80.275 12.4744C79.2864 12.4744 78.4384 12.6236 77.731 12.9219C77.0236 13.2202 76.4824 13.625 76.1074 14.1364C75.7324 14.6477 75.5406 15.2315 75.5321 15.8878C75.5321 16.4332 75.6557 16.9062 75.9029 17.3068C76.1585 17.7074 76.5037 18.0483 76.9384 18.3295C77.373 18.6023 77.8546 18.8324 78.383 19.0199C78.9114 19.2074 79.444 19.3651 79.981 19.4929L82.4355 20.1065C83.4242 20.3366 84.3744 20.6477 85.2864 21.0398C86.2068 21.4318 87.0293 21.9261 87.7537 22.5227C88.4867 23.1193 89.0662 23.8395 89.4923 24.6832C89.9185 25.527 90.1315 26.5156 90.1315 27.6491C90.1315 29.1832 89.7395 30.5341 88.9554 31.7017C88.1713 32.8608 87.0378 33.7685 85.5548 34.4247C84.0804 35.0724 82.2949 35.3963 80.1983 35.3963C78.1614 35.3963 76.3929 35.081 74.8929 34.4503C73.4014 33.8196 72.2338 32.8991 71.3901 31.6889C70.5548 30.4787 70.1031 29.0043 70.035 27.2656H74.7011C74.7693 28.1776 75.0506 28.9361 75.5449 29.5412C76.0392 30.1463 76.6827 30.598 77.4753 30.8963C78.2764 31.1946 79.1713 31.3438 80.16 31.3438C81.1912 31.3438 82.0946 31.1903 82.8702 30.8835C83.6543 30.5682 84.2679 30.1335 84.7111 29.5795C85.1543 29.017 85.3801 28.3608 85.3886 27.6108C85.3801 26.929 85.1798 26.3665 84.7878 25.9233C84.3957 25.4716 83.846 25.0966 83.1386 24.7983C82.4398 24.4915 81.6216 24.2187 80.6841 23.9801L77.7054 23.2131C75.5492 22.6591 73.8446 21.8196 72.5918 20.6946C71.3475 19.5611 70.7253 18.0568 70.7253 16.1818C70.7253 14.6392 71.1429 13.2884 71.9781 12.1293C72.8219 10.9702 73.9682 10.071 75.4171 9.43182C76.8659 8.78409 78.5065 8.46023 80.3389 8.46023C82.1969 8.46023 83.8247 8.78409 85.2225 9.43182C86.6287 10.071 87.7324 10.9616 88.5335 12.1037C89.3347 13.2372 89.748 14.5412 89.7736 16.0156H85.2097Z" fill="#1A1A1A"/>
<path d="M16 49C23.1388 43.3975 74.4696 42.4759 92 46.3731" stroke="#DA7717" stroke-width="4" stroke-linecap="round"/>
</svg>
